<svg width="196" height="190" viewBox="0 0 196 190" fill="none" xmlns="http://www.w3.org/2000/svg">
<g clip-path="url(#clip0_1629_166)">
<path d="M167.259 93.4577C205.534 115.525 205.534 151.361 167.259 173.428C129.012 195.524 66.9872 195.524 28.7124 173.428C-9.53434 151.361 -9.53434 115.525 28.7124 93.4577C66.9872 71.3621 129.012 71.3621 167.259 93.4577Z" fill="#EFEFEF"/>
<path d="M154.276 153.071C147.827 149.37 147.827 143.341 154.276 139.64C160.698 135.939 171.1 135.939 177.522 139.64C183.943 143.341 183.943 149.37 177.522 153.071C171.1 156.773 160.698 156.773 154.276 153.071Z" fill="#999595"/>
<path d="M23.6096 153.576L6.70135 143.818C5.74799 143.285 5.74799 142.388 6.70135 141.827L104.982 85.0739C105.935 84.5411 107.478 84.5411 108.431 85.0739L125.339 94.8319C126.293 95.3927 126.293 96.2899 125.339 96.8227L27.0585 153.576C26.1051 154.137 24.5629 154.137 23.6096 153.576Z" fill="#999595"/>
<path d="M84.3437 136.191L98.8685 127.807C100.355 126.938 101.112 125.788 101.112 124.667C101.112 123.517 101.112 122.648 101.112 122.648L86.0541 114.152C85.241 113.675 84.5961 112.553 84.5961 111.628V93.7383L59.2197 108.403V126.293C59.2197 127.218 59.8646 128.34 60.6778 128.816L73.4922 136.191C76.4925 137.93 81.3434 137.93 84.3437 136.191Z" fill="#F8968C"/>
<path d="M78.904 137.481C76.9411 137.481 74.9783 137.06 73.4922 136.191L65.3045 131.48V129.461L63.8184 128.62L65.3045 129.461H65.3325L73.4922 134.172C74.9783 135.041 76.9411 135.462 78.904 135.462C78.9881 135.462 79.0722 135.462 79.1563 135.462V137.481C81.035 137.453 82.9137 137.032 84.3437 136.191L90.0079 132.91L84.3437 136.191C82.8296 137.06 80.8668 137.481 78.904 137.481ZM80.334 135.406C81.7921 135.238 83.1941 134.817 84.3437 134.172L94.2139 128.48L84.3437 134.172C83.1941 134.845 81.7921 135.238 80.334 135.406ZM101.112 123.152C101.112 122.984 101.112 122.872 101.112 122.76C101.112 122.76 101.112 122.732 101.112 122.704C101.112 122.788 101.112 122.928 101.112 123.152Z" fill="#FF3E29"/>
<path d="M61.9117 127.386C61.6032 127.078 61.3509 126.685 61.1826 126.293C61.3509 126.685 61.6032 127.078 61.9117 127.386Z" fill="#7E5A56"/>
<path d="M65.3044 131.48L60.6778 128.816C59.8646 128.34 59.2197 127.218 59.2197 126.293V124.05V126.293C59.2197 127.218 59.8646 128.34 60.6778 128.816L65.3044 131.48Z" fill="#9D9E9E"/>
<path d="M65.3044 131.48L60.6778 128.816C59.8646 128.34 59.2197 127.218 59.2197 126.293V124.049L60.9863 123.04V125.283C60.9863 125.62 61.0423 125.956 61.1825 126.293C61.3508 126.685 61.6031 127.078 61.9116 127.386C62.0518 127.555 62.2481 127.695 62.4163 127.807L63.8183 128.62L65.3044 129.461V131.48Z" fill="#FF3E29"/>
<path d="M60.9863 125.283C60.9863 126.209 61.6313 127.33 62.4164 127.807L73.4922 134.172C76.4925 135.91 81.3435 135.91 84.3438 134.172L98.8686 125.788C101.869 124.049 101.869 121.245 98.8686 119.507L87.7927 113.142C87.0076 112.665 86.3627 111.544 86.3627 110.618V96.6262L60.9863 111.291V125.283Z" fill="#F8968C"/>
<path d="M78.9044 135.462C76.9416 135.462 74.9788 135.041 73.4927 134.172L65.333 129.461L90.7374 114.824L87.7932 113.142C87.008 112.665 86.3631 111.544 86.3631 110.618C86.3631 111.544 87.008 112.665 87.7932 113.142L98.869 119.507C100.383 120.376 101.112 121.526 101.112 122.648C101.112 122.676 101.112 122.732 101.112 122.76C101.112 122.676 101.112 122.648 101.112 122.648C101.112 123.769 100.355 124.919 98.869 125.788L94.2144 128.48L84.3442 134.172C83.1946 134.817 81.7926 135.238 80.3345 135.406C79.9419 135.434 79.5494 135.462 79.1568 135.462C79.0727 135.462 78.9886 135.462 78.9044 135.462Z" fill="#FFB6AE"/>
<path d="M65.3045 129.461L63.8183 128.62L63.2295 128.284L65.3325 129.461H65.3045Z" fill="#13332F"/>
<path d="M61.9124 127.386C61.6039 127.078 61.3516 126.685 61.1833 126.293C61.1833 126.265 61.1553 126.209 61.1553 126.181C61.3235 126.629 61.5759 127.078 61.9124 127.386Z" fill="#13332F"/>
<path d="M63.8184 128.62L62.4164 127.807C62.2481 127.695 62.0519 127.555 61.9117 127.386C62.0799 127.555 62.2481 127.695 62.4164 127.807L63.2295 128.284L63.8184 128.62ZM61.1826 126.293C61.0424 125.956 60.9863 125.62 60.9863 125.283V123.04V125.283C60.9863 125.592 61.0424 125.9 61.1546 126.181C61.1546 126.209 61.1826 126.265 61.1826 126.293Z" fill="#1A2826"/>
<path d="M65.3326 129.461L63.2295 128.284L62.4164 127.807C62.2481 127.695 62.0799 127.554 61.9117 127.386C61.5752 127.078 61.3228 126.629 61.1546 126.181C61.0424 125.9 60.9863 125.592 60.9863 125.283V123.04L86.3627 108.403V110.618C86.3627 111.544 87.0076 112.665 87.7927 113.142L90.7369 114.824L65.3326 129.461Z" fill="#FF3E29"/>
<path d="M101.112 122.647C101.112 122.647 101.112 123.517 101.112 124.666C101.112 125.788 100.355 126.938 98.8685 127.807L84.3437 136.191C82.9136 137.032 81.0349 137.453 79.1562 137.481V135.462C81.0349 135.434 82.9136 135.013 84.3437 134.172L98.8685 125.788C100.355 124.919 101.112 123.769 101.112 122.647Z" fill="#F8968C"/>
<path d="M79.1562 137.481V135.462C81.0349 135.434 82.9136 135.013 84.3437 134.172L98.8685 125.788C100.355 124.919 101.112 123.769 101.112 122.647C101.112 122.647 101.112 123.517 101.112 124.666C101.112 125.788 100.355 126.938 98.8685 127.807L84.3437 136.191C82.9136 137.032 81.0349 137.453 79.1562 137.481Z" fill="#FF3E29"/>
<path d="M20.2446 142.696C21.17 143.229 22.7402 143.201 23.7496 142.612C36.1995 135.434 109.384 93.1775 121.862 85.9712C122.872 85.3823 123.685 83.9803 123.685 82.8307V3.44904C123.685 2.29939 122.928 0.925426 121.974 0.392663C121.049 -0.1401 119.479 -0.112059 118.469 0.448743L20.3568 57.1179C19.3473 57.6787 18.5342 59.0807 18.5342 60.2303V139.612C18.5342 140.79 19.2913 142.136 20.2446 142.696Z" fill="#F8968C"/>
<path d="M23.7494 142.612L121.862 85.9711C122.871 85.3823 123.684 83.9803 123.684 82.8306V3.44898C123.684 2.29933 122.871 1.82265 121.862 2.41149L23.7494 59.0526C22.7399 59.6414 21.9268 61.0434 21.9268 62.1931V141.575C21.9268 142.724 22.7399 143.201 23.7494 142.612Z" fill="#F8968C"/>
<path d="M21.9268 136.275V62.1931C21.9268 62.0529 21.9548 61.8847 21.9828 61.7445C22.0109 61.4921 22.095 61.2398 22.1791 60.9874C22.3754 60.5107 22.6558 60.0621 22.9923 59.6695C23.2166 59.4171 23.469 59.2209 23.7494 59.0526L58.0985 39.2282L121.862 2.41154C122.17 2.2433 122.423 2.15918 122.675 2.15918H122.703C122.787 2.15918 122.871 2.18722 122.955 2.18722C123.376 2.32742 123.684 2.77606 123.684 3.44903V15.5063L120.292 17.4691V8.49625C120.292 7.99153 120.039 7.71113 119.675 7.71113C119.534 7.71113 119.366 7.76721 119.198 7.87937L26.4132 61.436C25.7963 61.8006 25.3196 62.6418 25.3196 63.3147V127.218C25.3196 127.695 25.572 127.975 25.9085 127.975C26.0767 127.975 26.2449 127.947 26.4132 127.835L34.1523 123.349V129.209L21.9268 136.275Z" fill="#F57B6D"/>
<path d="M23.4692 144.687C22.4598 145.136 21.0858 145.108 20.2446 144.631C19.2913 144.07 18.5342 142.696 18.5342 141.547V134.312L21.927 136.275V143.509C21.927 144.547 22.6 145.024 23.4692 144.687Z" fill="#F8968C"/>
<path d="M21.871 144.996C21.2541 144.996 20.6652 144.883 20.2446 144.631C19.2913 144.07 18.5342 142.696 18.5342 141.547V134.312L21.927 136.275V143.509C21.927 144.323 22.3196 144.799 22.9365 144.799C23.1047 144.799 23.273 144.771 23.4692 144.687C22.9926 144.883 22.4318 144.996 21.871 144.996Z" fill="#FF3E29"/>
<path d="M21.9268 136.275V143.509C21.9268 144.659 22.7399 145.136 23.7494 144.547L121.862 87.9059C122.871 87.317 123.684 85.915 123.684 84.7654V77.531L21.9268 136.275Z" fill="#F8968C"/>
<path d="M21.9268 136.275L34.1523 129.209L21.9268 136.275Z" fill="#005146"/>
<path d="M22.9362 144.799C22.3474 144.799 21.9268 144.323 21.9268 143.51V136.275L34.1523 129.209V132.153C34.1523 132.658 34.3766 133.079 34.7131 133.275C34.7131 133.275 34.7691 133.303 34.8533 133.331C35.2178 133.555 36.0309 134.032 36.3113 134.172C36.4235 134.228 36.5076 134.256 36.6478 134.256C36.76 134.256 36.9002 134.228 37.0404 134.144L120.488 85.9431L121.497 88.1022L86.363 108.403L60.9867 123.04L59.2201 124.05L23.7494 144.547C23.4409 144.715 23.1605 144.799 22.9362 144.799Z" fill="#FFB6AE"/>
<path d="M25.3193 127.218V63.3146C25.3193 62.6416 25.796 61.8004 26.4129 61.4359L119.198 7.87924C119.787 7.51472 120.291 7.79512 120.291 8.49612V72.3996C120.291 73.0726 119.787 73.9138 119.198 74.2783L26.4129 127.835C25.796 128.171 25.3193 127.891 25.3193 127.218Z" fill="#F8968C"/>
<path d="M25.3193 127.218V63.3146C25.3193 62.6416 25.796 61.8004 26.4129 61.4359L119.198 7.87924C119.787 7.51472 120.291 7.79512 120.291 8.49612V72.3996C120.291 73.0726 119.787 73.9138 119.198 74.2783L26.4129 127.835C25.796 128.171 25.3193 127.891 25.3193 127.218Z" fill="#1A1C1D"/>
<path d="M72.7918 109.188C71.8665 109.749 71.1094 111.067 71.1094 112.132C71.1094 113.226 71.8665 113.647 72.7918 113.114C73.7451 112.581 74.5022 111.263 74.5022 110.17C74.5022 109.104 73.7451 108.655 72.7918 109.188Z" fill="#F8968C"/>
<path d="M21.927 136.275L18.5342 134.312V100.328V60.2302C18.5342 59.6693 18.7585 59.0244 19.0669 58.4636L21.0298 59.5852L22.4598 60.3984C22.3476 60.5947 22.2635 60.791 22.1794 60.9872C22.0953 61.2396 22.0112 61.492 21.9831 61.7443C21.9551 61.8845 21.927 62.0528 21.927 62.193V136.275Z" fill="#FFB6AE"/>
<path d="M21.9824 61.7444C22.0105 61.492 22.0946 61.2397 22.1787 60.9873C22.0946 61.2397 22.0105 61.492 21.9824 61.7444Z" fill="#192A28"/>
<path d="M19.0664 58.4637V58.4357C19.1786 58.2394 19.3188 58.0431 19.459 57.8749C19.3188 58.0431 19.1786 58.2394 19.0664 58.4637ZM19.7674 57.5664C19.8796 57.4262 20.0198 57.3421 20.1319 57.2299C20.0198 57.3421 19.8796 57.4262 19.7674 57.5664ZM122.927 1.28985C122.647 0.925325 122.338 0.588843 122.002 0.392562C122.338 0.588843 122.647 0.925325 122.927 1.28985ZM121.329 0.140201C121.02 0.0560803 120.684 0 120.319 0C120.039 0 119.759 0.0280401 119.478 0.0841204C119.759 0.0280401 120.039 0 120.319 0C120.684 0 121.02 0.0560803 121.329 0.140201Z" fill="#B5B6B5"/>
<path d="M22.4593 60.3985L21.0292 59.5853L19.0664 58.4637C19.1786 58.2394 19.3188 58.0431 19.459 57.8749C19.5711 57.7627 19.6552 57.6505 19.7674 57.5664C19.8796 57.4262 20.0198 57.3421 20.1319 57.2299C20.2161 57.2019 20.2721 57.1458 20.3563 57.1178L118.469 0.448642C118.777 0.280401 119.114 0.168241 119.478 0.0841204C119.759 0.0280401 120.039 0 120.319 0C120.684 0 121.02 0.0560803 121.329 0.140201C121.581 0.196281 121.777 0.280401 121.974 0.392562C121.974 0.392562 121.974 0.392562 122.002 0.392562C122.338 0.588843 122.647 0.925325 122.927 1.28985C123.32 1.85065 123.6 2.52361 123.656 3.16854C123.572 2.63577 123.32 2.29929 122.955 2.18713C122.871 2.18713 122.787 2.15909 122.703 2.15909H122.675C122.422 2.15909 122.142 2.24321 121.862 2.41145L58.0983 39.2282L23.7491 59.0525C23.4687 59.2208 23.2163 59.4171 22.992 59.6694C22.7957 59.8937 22.6275 60.1461 22.4593 60.3985Z" fill="#FFB6AE"/>
<path d="M22.9922 59.6695C23.2165 59.4171 23.4689 59.2209 23.7493 59.0526L58.0984 39.2282L23.7493 59.0526C23.4689 59.2209 23.2165 59.4171 22.9922 59.6695ZM122.955 2.18722C122.871 2.18722 122.787 2.15918 122.703 2.15918C122.787 2.15918 122.871 2.18722 122.955 2.18722Z" fill="#005146"/>
<path d="M22.4593 60.3984L21.0293 59.5852L22.4593 60.3984Z" fill="#133430"/>
<path d="M128.956 12.9264C128.704 12.7862 128.396 12.7862 128.031 12.9825L35.4425 66.455C34.7415 66.8756 34.1807 67.8571 34.1807 68.6702V132.153C34.1807 132.658 34.3769 133.078 34.7134 133.275C34.9097 133.359 36.0033 134.004 36.3117 134.172C36.536 134.284 36.7884 134.284 37.0408 134.144L129.657 80.6434C130.358 80.2508 130.919 79.2694 130.919 78.4562V14.6369C130.919 14.2163 130.751 13.9359 130.527 13.8237C130.302 13.6835 129.181 13.0666 128.956 12.9264Z" fill="#F8968C"/>
<path d="M36.6479 134.06C36.2833 134.06 36.0029 133.611 36.0029 133.079V69.5677C36.0029 68.8386 36.5357 67.9133 37.1526 67.5488L129.741 14.1043C129.909 13.9921 130.078 13.936 130.218 13.936C130.526 13.936 130.694 14.2164 130.694 14.637V78.4564C130.694 79.1854 130.162 80.1108 129.545 80.4753L36.9563 133.948C36.8441 134.032 36.732 134.06 36.6479 134.06Z" fill="#FAFAFA"/>
<path d="M130.218 13.7397C130.049 13.7397 129.853 13.7958 129.657 13.908L37.0401 67.3805C36.3391 67.7731 35.7783 68.7545 35.7783 69.5677V133.079C35.7783 133.724 36.1428 134.256 36.6476 134.256C36.7597 134.256 36.8999 134.228 37.0401 134.144L129.657 80.6435C130.358 80.251 130.919 79.2696 130.919 78.4564V14.637C130.919 14.0762 130.638 13.7397 130.218 13.7397ZM130.218 14.1603C130.47 14.1603 130.498 14.4688 130.498 14.637V78.4564C130.498 79.1294 130.021 79.9706 129.432 80.279L36.8438 133.78C36.7597 133.808 36.7036 133.836 36.6476 133.836C36.3952 133.836 36.1989 133.499 36.1989 133.079V69.5677C36.1989 68.9227 36.6756 68.0815 37.2644 67.7451L129.853 14.2725C130.021 14.1884 130.133 14.1603 130.218 14.1603Z" fill="#E0E0E0"/>
<path d="M34.7131 133.275C34.8253 133.331 35.8348 133.892 36.2554 134.144C35.975 133.948 35.8067 133.583 35.7787 133.079V73.7175L34.1523 72.7642V132.153C34.1523 132.658 34.3767 133.079 34.7131 133.275Z" fill="#EFEFEF"/>
<path d="M130.919 14.637C130.919 13.8239 130.358 13.5154 129.657 13.908L37.0401 67.3805C36.3391 67.7731 35.7783 68.7545 35.7783 69.5677V73.7176L130.919 18.787V14.637Z" fill="#FFB6AE"/>
<path d="M128.03 12.9827C128.227 12.8705 128.423 12.8145 128.591 12.8145C128.731 12.8145 128.843 12.8705 128.956 12.9266C128.984 12.9266 129.012 12.9547 129.04 12.9827C129.012 12.9547 128.984 12.9266 128.956 12.9266C128.843 12.8705 128.731 12.8145 128.591 12.8145C128.423 12.8145 128.227 12.8705 128.03 12.9827Z" fill="#FEFEFE"/>
<path d="M34.8535 66.9598C35.0218 66.7635 35.218 66.5953 35.4424 66.4551C35.218 66.5953 35.0218 66.7635 34.8535 66.9598Z" fill="#7C888B"/>
<path d="M36.1713 68.3059L34.5449 67.3806C34.629 67.2404 34.7412 67.1002 34.8534 66.96C35.0216 66.7637 35.2179 66.5954 35.4422 66.4552L128.031 12.9827C128.227 12.8705 128.423 12.8145 128.592 12.8145C128.732 12.8145 128.844 12.8705 128.956 12.9266C128.984 12.9266 129.012 12.9547 129.04 12.9827C129.377 13.179 130.218 13.6557 130.47 13.7959C130.442 13.7678 130.414 13.7678 130.358 13.7678C130.302 13.7398 130.274 13.7398 130.218 13.7398C130.05 13.7398 129.853 13.7959 129.657 13.908L77.7548 43.8829L37.0405 67.3806C36.704 67.5769 36.3956 67.9133 36.1713 68.3059Z" fill="#FF3E29"/>
<path d="M36.1709 68.3059C36.3952 67.9133 36.7037 67.5769 37.0401 67.3806L77.7544 43.8829L37.0401 67.3806C36.7037 67.5769 36.3952 67.9133 36.1709 68.3059ZM130.498 13.7959C130.47 13.7959 130.442 13.7678 130.414 13.7678C130.414 13.7678 130.386 13.7678 130.358 13.7678C130.414 13.7678 130.442 13.7678 130.47 13.7959H130.498Z" fill="#EBECEC"/>
<path d="M36.1709 68.3059C36.3952 67.9133 36.7037 67.5769 37.0401 67.3806L77.7544 43.8829L37.0682 67.3806C36.7037 67.5769 36.3952 67.9133 36.1709 68.3059ZM130.498 13.7959C130.47 13.7959 130.442 13.7959 130.414 13.7678C130.442 13.7678 130.47 13.7959 130.498 13.7959Z" fill="#853930"/>
<path d="M34.1804 72.7641H34.1523L34.1804 68.6422C34.1804 68.6141 34.1804 68.5861 34.1804 68.53C34.1804 68.5861 34.1804 68.6141 34.1804 68.6702V72.7641Z" fill="#253136"/>
<path d="M35.779 73.7174L34.1807 72.7641V68.6702C34.1807 68.6141 34.1807 68.5861 34.1807 68.53C34.2087 68.1655 34.3489 67.7449 34.5452 67.3804L36.1715 68.3337C35.9192 68.7263 35.779 69.1749 35.779 69.5675V73.7174Z" fill="#FF3E29"/>
<path d="M35.7783 73.7174V69.5675C35.7783 69.1749 35.9185 68.7263 36.1709 68.3337C35.9185 68.7263 35.7783 69.1749 35.7783 69.5675V73.7174Z" fill="#C1C0C0"/>
<path d="M35.7787 73.7175L34.1523 72.7642H34.1804L35.7787 73.7175Z" fill="#CCCCCB"/>
<path d="M35.7783 73.7174V69.5675C35.7783 69.1749 35.9185 68.7263 36.1709 68.3337V68.3057C35.9185 68.7263 35.7783 69.1749 35.7783 69.5675V73.7174Z" fill="#983227"/>
<path d="M36.1713 68.3337L34.5449 67.3804L36.1713 68.3057V68.3337Z" fill="#AB7069"/>
<path d="M111.374 62.5016L55.939 94.5234C55.4062 94.8318 55.0137 95.5328 55.0137 96.1217V112.02C55.0137 112.609 55.4062 113.338 55.939 113.619L57.5373 114.572C58.07 114.853 58.8832 114.853 59.3879 114.544L114.851 82.5503C115.356 82.2418 115.777 81.5408 115.777 80.952V65.0252C115.777 64.4363 115.356 63.7353 114.851 63.4269L113.253 62.5016C112.72 62.2212 111.907 62.2212 111.374 62.5016Z" fill="#F8968C"/>
<path d="M55.2666 95.1962C55.4348 94.9158 55.6872 94.6635 55.9396 94.5233L69.1465 86.8963L55.9396 94.5233C55.6872 94.6635 55.4348 94.9158 55.2666 95.1962ZM115.777 64.8848V64.8568C115.693 64.296 115.329 63.7071 114.852 63.4267L113.254 62.5014C112.973 62.3612 112.637 62.2771 112.328 62.2771C112.3 62.2771 112.3 62.2771 112.3 62.2771H112.328C112.665 62.2771 112.973 62.3612 113.226 62.5014L114.852 63.4267C115.329 63.7071 115.721 64.324 115.777 64.8848Z" fill="#FEFEFE"/>
<path d="M58.7436 97.2151L55.2666 95.1962C55.4348 94.9158 55.6872 94.6635 55.9396 94.5233L69.1465 86.8963L111.375 62.5014C111.655 62.3612 111.964 62.2771 112.3 62.2771C112.3 62.2771 112.3 62.2771 112.328 62.2771C112.637 62.2771 112.973 62.3612 113.254 62.5014L114.852 63.4267C115.329 63.7071 115.693 64.296 115.777 64.8568C115.721 64.5484 115.525 64.3801 115.273 64.3801C115.16 64.3801 115.02 64.4082 114.852 64.4923L59.4165 96.5141C59.1361 96.6543 58.9118 96.9347 58.7436 97.2151Z" fill="#F57B6D"/>
<path d="M59.2477 114.628C58.743 114.852 58.014 114.824 57.5373 114.572L55.939 113.619C55.4062 113.338 55.0137 112.609 55.0137 112.02V96.1216C55.0137 95.8132 55.0978 95.5047 55.266 95.1963L58.743 97.2152C58.5748 97.4956 58.4626 97.8321 58.4626 98.1125V114.011C58.4626 114.544 58.7991 114.796 59.2477 114.628Z" fill="#1A1C1D"/>
<path d="M59.3882 96.5142L114.852 64.4923C115.384 64.2119 115.777 64.4363 115.777 65.0251V80.9519C115.777 81.5407 115.356 82.2418 114.852 82.5502L59.3882 114.544C58.8835 114.852 58.4629 114.6 58.4629 114.011V98.1125C58.4629 97.5236 58.8835 96.8226 59.3882 96.5142Z" fill="#FFB6AE"/>
<path d="M96.6819 70.9976L55.9396 94.5232C55.6872 94.6634 55.4348 94.9158 55.2666 95.1962L58.7436 97.2151C58.9118 96.9347 59.1361 96.6543 59.4165 96.5141L100.159 72.9884L96.6819 70.9976Z" fill="#37484E"/>
<path d="M100.159 72.9885L59.3882 96.5142C58.8835 96.8226 58.4629 97.5236 58.4629 98.1125V114.011C58.4629 114.6 58.8835 114.852 59.3882 114.544L100.159 91.0183V72.9885Z" fill="#FF3E29"/>
<path d="M70.1842 98.0564L91.1863 85.915C92.0836 85.4103 92.7846 85.7748 92.7846 86.7001C92.7846 87.6535 92.0836 88.8312 91.1863 89.3359L70.1842 101.477C69.315 101.982 68.5859 101.617 68.5859 100.664C68.5859 99.7388 69.2869 98.5611 70.1842 98.0564Z" fill="#FFB6AE"/>
<path d="M109.973 81.2042L105.935 83.5315L106.58 77.8674C106.075 77.615 105.767 76.9982 105.767 76.1009C105.767 74.4745 106.748 72.5959 107.954 71.9229C109.159 71.2219 110.141 71.9509 110.141 73.5773C110.141 74.4745 109.832 75.456 109.356 76.2691L109.973 81.2042Z" fill="#37484E"/>
<path d="M109.972 81.2042L106.439 79.1572L105.935 83.5315L109.972 81.2042Z" fill="#060F13"/>
<path d="M107.954 71.9229C107.169 72.3715 106.496 73.3249 106.104 74.3904L109.356 76.2691C109.833 75.456 110.141 74.4745 110.141 73.5773C110.141 71.9509 109.16 71.2219 107.954 71.9229Z" fill="#060F13"/>
<path d="M88.3258 53.0519C86.9518 52.2668 85.0451 52.3789 82.9421 53.5846C78.708 56.0241 75.2871 61.9406 75.2871 66.8196C75.2871 69.2591 76.1564 70.9695 77.5584 71.7547C77.9229 71.979 79.8857 73.1006 80.2502 73.3249C81.6242 74.11 83.5309 73.9979 85.6339 72.7921C89.8399 70.3526 93.2608 64.4362 93.2608 59.5572C93.2608 57.1177 92.4196 55.4353 91.0457 54.6221L88.3258 53.0519Z" fill="#F8968C"/>
<path d="M85.6338 55.1549C81.4277 57.5944 78.0068 63.5109 78.0068 68.3899C78.0068 73.2408 81.4277 75.2317 85.6338 72.7922C89.8398 70.3527 93.2607 64.4362 93.2607 59.5572C93.2607 54.7063 89.8398 52.7154 85.6338 55.1549Z" fill="#FF3E29"/>
<path d="M89.8398 65.9505V66.5113C88.7743 68.3619 87.2881 69.9882 85.6338 70.9416C83.9794 71.8669 82.5213 71.9791 81.4277 71.3622V70.2126C81.4277 67.9974 82.9419 65.3897 84.8486 64.2681L85.9702 63.6231C86.9516 63.0623 87.905 63.0063 88.6621 63.4269C89.4192 63.8755 89.8398 64.8008 89.8398 65.9505Z" fill="#F8968C"/>
<path d="M91.046 54.6223H91.018L89.9805 54.0054L91.046 54.6223Z" fill="#FCFBFB"/>
<path d="M79.1281 63.1463L76.4082 61.576C77.7541 58.2673 80.1656 55.1829 82.9416 53.5846C84.1473 52.8836 85.325 52.5471 86.3344 52.5471C87.0915 52.5471 87.7364 52.7154 88.3253 53.0518L89.9796 54.0052L91.0171 54.6221C90.4283 54.2856 89.7834 54.1174 89.0263 54.1174C88.0168 54.1174 86.8672 54.4538 85.6334 55.1549C85.5773 55.1829 85.5212 55.2109 85.4652 55.239C82.7733 56.8653 80.4179 59.8936 79.1281 63.1463Z" fill="#FFB6AE"/>
<path d="M79.1289 63.1463C80.4188 59.8937 82.7741 56.8653 85.466 55.239C82.7741 56.8653 80.4188 59.8937 79.1289 63.1463Z" fill="#853930"/>
<path d="M79.6333 72.9604C79.409 72.8202 79.1006 72.6519 78.8202 72.5117C79.1006 72.6519 79.409 72.8202 79.6333 72.9604ZM76.7172 71.1097C75.8199 70.1844 75.2871 68.7263 75.2871 66.8196C75.2871 68.7263 75.8199 70.1844 76.7172 71.1097Z" fill="#CAC9C9"/>
<path d="M80.1381 73.2408C80.0259 73.1847 79.8577 73.1006 79.6333 72.9604C79.409 72.8202 79.1006 72.6519 78.8202 72.5117C78.2594 72.1752 77.7266 71.8668 77.5584 71.7546C77.2499 71.5864 76.9695 71.3901 76.7172 71.1097C75.8199 70.1844 75.2871 68.7263 75.2871 66.8196L78.007 68.3898C78.007 68.5581 78.007 68.7263 78.007 68.9226C78.1192 70.9976 78.9043 72.4837 80.1381 73.2408Z" fill="#FFB6AE"/>
<path d="M80.1379 73.2688C80.1379 73.2688 80.1379 73.2688 80.1379 73.2408C78.9041 72.4837 78.119 70.9976 78.0068 68.9226C78.119 70.9976 78.9041 72.5117 80.1379 73.2688Z" fill="#9C2012"/>
<path d="M75.2871 66.8195C75.2871 66.4831 75.3151 66.1746 75.3432 65.8381C75.3151 66.1746 75.2871 66.4831 75.2871 66.8195Z" fill="#E0E0E0"/>
<path d="M78.007 68.3899L75.2871 66.8197C75.2871 66.4832 75.3151 66.1748 75.3432 65.8383C75.4554 64.4363 75.8479 62.9782 76.4087 61.5762L79.1286 63.1464C78.6239 64.3802 78.2594 65.642 78.0911 66.8758C78.035 67.3805 78.007 67.8852 78.007 68.3899Z" fill="#FFB6AE"/>
<path d="M78.0908 66.8758C78.2591 65.6421 78.6236 64.3803 79.1283 63.1465C78.6236 64.3803 78.2591 65.6421 78.0908 66.8758Z" fill="#7D3932"/>
<path d="M84.6809 63.3707C84.4005 63.3707 84.1762 63.3146 83.9518 63.1744C83.4191 62.894 83.1387 62.3052 83.1387 61.5201C83.1387 60.1181 84.092 58.4637 85.3258 57.7627C85.9988 57.3701 86.6437 57.314 87.1484 57.6225C87.6812 57.9029 87.9616 58.4917 87.9616 59.2768C87.9616 60.6789 87.0082 62.3332 85.7744 63.0342C85.4099 63.2585 85.0174 63.3707 84.6809 63.3707Z" fill="#FEFEFE"/>
<path d="M88.6621 63.4269C87.905 63.0063 86.9516 63.0623 85.9702 63.6231L84.8486 64.2681C82.9419 65.3897 81.4277 67.9974 81.4277 70.2126V71.3622C82.5213 71.9791 83.9794 71.8669 85.6338 70.9416C87.2881 69.9882 88.7743 68.3619 89.8398 66.5113V65.9505C89.8398 64.8008 89.4192 63.8755 88.6621 63.4269Z" fill="#FEFEFE"/>
<path d="M174.129 135.378C174.129 135.378 174.69 130.499 177.101 126.741C179.513 122.984 182.849 120.629 185.934 120.376C189.046 120.124 191.542 122.984 188.233 124.947C184.896 126.882 179.008 128.9 176.316 136.219L174.129 135.378Z" fill="#F8968C"/>
<path d="M176.316 136.219L176.092 136.107C176.176 133.275 176.26 130.162 176.372 128.031C176.597 127.583 176.849 127.162 177.101 126.742C179.513 122.984 182.849 120.629 185.934 120.376C186.074 120.376 186.186 120.348 186.298 120.348C188.205 120.348 189.775 121.498 189.775 122.816C189.775 123.517 189.327 124.274 188.233 124.947C184.896 126.882 179.008 128.901 176.316 136.219Z" fill="#FF3E29"/>
<path d="M175.054 134.116L174.998 134.088C174.914 134.06 174.886 133.976 174.914 133.892C178.195 125.816 184.419 122.479 187.251 121.806C187.336 121.806 187.42 121.862 187.448 121.947C187.476 122.031 187.42 122.115 187.308 122.143C184.532 122.788 178.447 126.068 175.222 134.004C175.194 134.088 175.11 134.116 175.054 134.116Z" fill="#FEFEFE"/>
<path d="M191.598 134.2C191.318 134.817 190.617 135.154 189.972 135.406C189.327 135.686 188.626 135.967 188.289 136.556C187.588 137.761 188.738 139.472 187.981 140.621C187.672 141.126 187.083 141.378 186.523 141.491C186.018 141.575 185.541 141.575 185.065 141.631C184.84 141.603 184.588 141.603 184.364 141.575C183.691 141.463 182.99 141.435 182.373 141.771C181.419 142.304 181.111 143.538 180.522 144.463C179.849 145.585 178.615 146.314 177.297 146.482C176.877 146.538 176.064 146.622 175.643 146.37L175.531 146.314C175.475 146.257 175.391 146.173 175.363 146.117L175.335 146.089C175.166 145.472 175.447 144.799 175.475 144.154C175.475 144.126 175.475 144.07 175.475 144.042C175.447 143.285 175.419 142.556 175.391 141.799C175.363 140.425 175.335 139.023 175.363 137.649C175.363 136.752 175.251 135.77 175.643 134.929C176.064 134.004 177.101 133.976 177.494 133.079C177.662 132.714 177.746 132.322 177.886 131.957C178.363 130.863 179.457 130.078 180.634 130.022C182.457 129.938 184.083 131.424 185.906 131.284C186.382 131.256 186.831 131.116 187.308 131.032C188.794 130.751 190.504 131.172 191.318 132.406C191.682 132.938 191.85 133.611 191.598 134.2Z" fill="#FF3E29"/>
<path d="M175.194 143.201C175.11 143.173 175.053 143.089 175.082 143.005C177.605 133.555 187.559 132.181 189.887 132.35C189.971 132.378 190.027 132.434 190.027 132.518C190.027 132.602 189.943 132.686 189.859 132.686C187.587 132.518 177.829 133.836 175.362 143.089C175.362 143.173 175.278 143.229 175.194 143.201Z" fill="#FEFEFE"/>
<path d="M186.27 138.406L186.186 138.378C186.158 138.35 183.606 135.854 179.4 136.471C179.316 136.471 179.232 136.415 179.232 136.331C179.204 136.247 179.26 136.163 179.344 136.163C183.746 135.518 186.382 138.126 186.41 138.154C186.466 138.21 186.466 138.322 186.41 138.378C186.354 138.406 186.326 138.434 186.27 138.406Z" fill="#FEFEFE"/>
<path d="M151.248 21.1703L152.565 21.6751V18.7589C152.565 16.4596 154.416 15.8988 156.407 17.0484C158.426 18.1981 160.052 21.0021 160.052 23.3294V23.75C160.501 23.5538 161.09 23.6379 161.735 24.0024C163.165 24.8436 164.342 26.8625 164.342 28.5169V28.7131L166.165 29.7787C167.118 30.3395 167.903 31.6574 167.903 32.7509C167.903 33.8445 167.118 34.2931 166.165 33.7604L151.248 25.124C150.294 24.5912 149.537 23.2453 149.537 22.1518C149.537 21.0582 150.294 20.6095 151.248 21.1703Z" fill="#777474"/>
<path d="M168.97 18.8711L171.353 20.245C171.353 20.1329 171.325 20.0207 171.325 19.9366V19.2356C171.325 18.0018 172.194 17.4971 173.288 18.114C173.708 18.3664 174.101 18.7589 174.437 19.2356C174.606 17.6654 175.839 17.0765 177.297 17.9458C178.924 18.8711 180.214 21.1143 180.214 22.9649V24.0024C180.214 24.4791 180.13 24.8997 179.961 25.2082L181.952 26.3578C182.541 26.6943 183.046 27.5355 183.046 28.2365C183.046 28.9095 182.541 29.1899 181.952 28.8534L168.97 21.3386C168.353 21.0021 167.876 20.1609 167.876 19.488C167.876 18.787 168.353 18.5066 168.97 18.8711Z" fill="#777474"/>
<path d="M159.66 81.9613C157.921 84.9336 156.239 87.4852 155.061 88.719C152.818 89.7565 147.546 91.3548 145.5 91.6352C145.135 91.6632 144.77 91.5791 144.462 91.3828C143.649 90.8501 143.032 90.7659 142.191 90.4575C141.518 90.2332 141.237 89.9247 141.097 90.0369C140.929 90.2051 140.761 90.6538 141.181 91.1024C141.378 91.3267 141.742 91.5791 142.219 91.8875C142.219 91.8875 140.761 92.2801 139.443 91.9436C137.648 91.4669 136.807 92.3362 138.013 94.271C138.461 94.9439 140.144 96.0655 143.593 95.7571C144.602 95.673 146.032 95.5888 147.266 95.3365C150.575 94.6355 154.22 93.9345 156.491 93.2615C157.052 93.0933 158.09 92.4483 158.678 91.7473C162.492 87.4292 163.754 84.3447 165.408 81.5407L165.268 76.9421C162.576 76.858 161.146 79.4938 159.66 81.9613Z" fill="#FBCE8B"/>
<path d="M165.716 76.8581C165.716 76.8581 163.389 76.3814 161.623 78.6246C159.772 81.008 156.491 86.6721 156.491 86.6721C156.491 86.6721 157.557 89.5322 160.445 90.0089L165.071 83.7279C165.071 83.7279 167.287 79.4097 165.716 76.8581Z" fill="#3F5E69"/>
<path d="M172.727 146.117H175.755V140.733H172.727V146.117Z" fill="#FBCE8B"/>
<path d="M165.268 140.425L162.24 140.537L162.1 134.845L165.268 134.733V140.425Z" fill="#FBCE8B"/>
<path d="M176.175 94.0747C176.175 97.075 175.726 121.274 175.726 121.274C175.811 122.143 176.568 123.713 176.399 127.05C176.175 131.564 175.867 143.425 175.867 143.425C175.867 143.425 174.409 144.323 172.502 143.481C172.502 143.481 170.062 126.882 169.53 122.395C169.053 118.498 167.847 105.543 167.847 105.543L166.193 120.825C166.193 120.825 166.754 123.152 166.585 125.816C166.445 127.891 165.464 138.658 165.464 138.658C165.464 138.658 164.034 139.668 161.987 138.939C161.987 138.939 160.248 122.732 160.22 120.825C160.192 118.666 161.23 94.0466 161.23 94.0466L176.175 94.0747Z" fill="#354A53"/>
<path d="M172.727 144.547V144.098C172.446 144.238 171.773 146.902 170.568 148.052C169.614 148.949 168.324 149.987 167.988 150.996C167.651 152.062 169.782 152.651 170.68 152.482C171.717 152.286 173.512 151.529 173.96 150.828C174.409 150.127 174.633 149.089 174.998 148.557C175.362 148.052 176.204 147.463 176.4 146.874C176.512 146.538 176.372 145.837 176.232 145.22C176.091 144.659 175.923 144.042 175.755 144.098C175.755 144.182 175.755 144.463 175.755 144.463C175.531 144.715 174.914 144.968 174.241 144.996C173.792 144.996 172.727 144.911 172.727 144.547Z" fill="black"/>
<path d="M162.211 139.584C162.071 139.584 161.931 139.808 161.595 140.201C161.174 140.677 160.473 141.182 159.8 141.519C158.678 142.136 156.491 143.033 155.482 143.509C154.865 143.79 154.893 144.575 155.538 145.024C156.183 145.472 157.725 145.781 159.604 145.36C160.613 145.108 161.931 144.126 162.772 144.182C163.613 144.239 165.156 144.239 165.801 143.79C166.417 143.341 166.165 142.388 165.969 141.575C165.801 140.705 165.548 139.303 165.268 139.36V139.668C164.903 140.257 163.025 140.481 162.239 140.061L162.211 139.584Z" fill="black"/>
<path d="M167.848 105.543C167.848 105.543 165.436 104.842 163.642 103.048C163.642 103.048 164.455 104.618 166.866 106.104L166.333 119.731L167.848 105.543Z" fill="#1A1C1D"/>
<path d="M174.493 77.3346C174.493 77.3346 176.961 77.8954 176.793 82.4099L176.288 89.5881V100.356C174.073 102.851 164.231 102.683 160.838 100.159C160.838 100.159 161.23 87.401 161.455 82.494C161.623 79.017 162.408 77.2505 165.857 76.8579L170.063 77.0542L174.493 77.3346Z" fill="#5C504F"/>
<path d="M171.297 67.9693C171.297 70.549 169.306 72.652 166.81 72.652C164.315 72.652 162.857 70.4929 162.324 67.9693C161.314 63.3146 164.315 63.2585 166.81 63.2585C169.306 63.2585 171.297 65.3616 171.297 67.9693Z" fill="black"/>
<path d="M173.595 69.8479C173.595 69.8479 172.922 73.2408 172.642 73.7735C172.362 74.3343 171.801 74.5026 171.801 74.5026L171.829 72.1192L173.595 69.8479Z" fill="black"/>
<path d="M172.726 65.0251C172.726 65.0251 173.231 64.8849 173.764 65.6981C174.212 66.4271 174.297 67.9973 173.596 69.848L172.306 70.0162L172.726 65.0251Z" fill="black"/>
<path d="M173.203 65.6979L174.801 65.726C174.857 65.2773 174.521 64.8848 174.072 64.8848C173.652 64.8848 173.259 65.2493 173.203 65.6979Z" fill="black"/>
<path d="M173.399 65.3336L174.605 64.184C174.296 63.8475 173.792 63.8195 173.483 64.1279C173.147 64.4644 173.119 64.9691 173.399 65.3336Z" fill="black"/>
<path d="M171.913 70.0163C172.166 70.1565 172.558 69.6518 172.867 69.2873C173.175 68.9508 174.213 68.6143 174.717 69.764C175.25 70.9416 174.353 72.0633 173.596 72.4278C172.25 73.1007 171.829 72.1193 171.829 72.1193L171.717 77.475C169.838 80.3912 165.548 80.279 167.09 77.3348V75.7085C167.09 75.7085 165.801 75.9048 165.184 75.7926C164.146 75.6243 163.473 74.7831 163.165 73.6055C162.66 71.6987 162.464 70.1565 162.884 66.4272C163.361 62.3614 167.932 62.3053 170.399 63.9316C172.867 65.5299 171.913 70.0163 171.913 70.0163Z" fill="#FBCE8B"/>
<path d="M166.221 65.8101C167.314 65.698 168.38 65.4736 169.474 65.3895C169.726 65.3615 169.95 65.3615 170.203 65.4176C171.016 65.6419 170.932 66.6233 171.044 67.2963C171.296 68.4739 171.464 70.4648 171.913 70.4648C172.053 70.4648 172.53 69.5955 172.866 69.2871C173.091 69.0908 173.119 68.6702 173.147 68.3898C173.231 67.9131 173.287 67.4365 173.315 66.9317C173.343 66.5111 173.399 66.0905 173.399 65.6699C173.399 65.2213 173.399 64.7446 173.287 64.296C173.175 63.8754 172.979 63.5669 172.698 63.2304L172.614 63.1463C172.081 62.5575 171.408 62.1369 170.679 61.8284C169.614 61.4078 168.492 61.2396 167.371 61.0994C166.249 60.9872 165.099 60.9311 164.006 60.7068C163.95 60.6788 163.866 60.6788 163.809 60.7068C163.697 60.7349 163.669 60.847 163.641 60.9592C163.557 61.4639 163.781 62.0247 164.202 62.3331C163.473 62.3892 162.604 61.9967 161.875 61.8004C161.735 61.7723 161.594 61.7163 161.51 61.8004C161.426 61.8284 161.37 61.9125 161.342 61.9967C161.286 62.1929 161.314 62.4173 161.342 62.6136C161.426 63.2024 161.622 63.7912 161.987 64.2679C162.52 64.9409 163.389 65.5578 164.23 65.726C164.903 65.8662 165.548 65.8662 166.221 65.8101Z" fill="black"/>
<path d="M167.091 75.7085C167.091 75.7085 169.446 75.2038 170.259 74.7551C170.792 74.4467 171.241 73.942 171.381 73.6055C171.381 73.6055 171.241 74.3065 170.736 74.9514C170.147 75.7646 167.091 76.3534 167.091 76.3534V75.7085Z" fill="#BC974E"/>
<path d="M167.651 69.3993C167.651 69.6797 167.876 69.904 168.128 69.904C168.38 69.904 168.605 69.6797 168.605 69.3993C168.605 69.1189 168.38 68.8945 168.128 68.8945C167.876 68.8945 167.651 69.1189 167.651 69.3993Z" fill="#1A1C1D"/>
<path d="M168.408 67.3806L169.418 67.9694C169.558 67.661 169.446 67.2964 169.193 67.1282C168.913 66.96 168.548 67.0721 168.408 67.3806Z" fill="#1A1C1D"/>
<path d="M167.315 72.7642L166.249 73.1848C166.361 73.4932 166.67 73.6614 166.978 73.5493C167.258 73.4371 167.427 73.1006 167.315 72.7642Z" fill="#BC974E"/>
<path d="M163.361 67.8012L164.286 67.0721C164.09 66.7917 163.725 66.7356 163.473 66.9599C163.221 67.1562 163.193 67.5488 163.361 67.8012Z" fill="#1A1C1D"/>
<path d="M163.754 69.2591C163.754 69.5395 163.978 69.7638 164.231 69.7638C164.483 69.7638 164.707 69.5395 164.707 69.2591C164.707 68.9787 164.483 68.7544 164.231 68.7544C163.978 68.7544 163.754 68.9787 163.754 69.2591Z" fill="#1A1C1D"/>
<path d="M166.278 68.8667L166.221 71.839L164.539 71.4464L166.278 68.8667Z" fill="#BC974E"/>
<path d="M126.376 93.6261L128.984 92.1119L130.021 90.8782L127.413 92.3923L126.376 93.6261Z" fill="#F8968C"/>
<path d="M126.376 93.6261L126.74 93.1774L127.413 92.3923V92.3643L127.974 92.7007L126.376 93.6261Z" fill="#FF3E29"/>
<path d="M133.471 97.72L136.078 96.2058L138.266 94.2991L135.658 95.7852L133.471 97.72Z" fill="#F8968C"/>
<path d="M133.471 97.7199L135.181 96.2058L135.658 95.7852L136.191 96.1216L136.078 96.2058L133.471 97.7199Z" fill="#FF3E29"/>
<path d="M161.679 102.991C160.809 97.0189 157.585 91.1305 153.771 88.9153C151.949 87.8498 150.238 87.8217 148.892 88.6069C148.472 88.8592 147.014 89.7004 146.425 90.0369C146.369 90.065 146.341 90.093 146.284 90.121C146.172 90.1771 146.088 90.2332 145.976 90.3173C145.78 90.4575 145.583 90.5977 145.415 90.766L145.331 90.8501C145.247 90.9342 145.163 91.0183 145.107 91.1024C145.023 91.2146 144.911 91.3268 144.826 91.4109C144.658 91.6632 144.518 91.8876 144.35 92.168C144.294 92.2801 144.21 92.4203 144.153 92.5605L122.731 80.1948L120.123 81.709V83.3634L120.347 83.4755L120.544 83.6157V83.9522L120.123 84.2046V85.1579L123.264 91.8315L126.376 93.6261L127.413 92.3642L130.161 94.0186L131.732 96.7105L133.47 97.7199L135.657 95.7851L138.321 97.3274L139.218 101.029L143.705 103.608C143.929 104.562 144.21 105.487 144.546 106.412C144.574 106.496 144.602 106.581 144.63 106.693C146.144 110.618 148.5 113.955 151.163 115.497C151.5 115.694 151.836 115.862 152.173 115.974C152.369 116.058 152.537 116.114 152.734 116.17C152.902 116.226 153.07 116.254 153.238 116.282C153.771 116.367 154.304 116.367 154.809 116.282C154.893 116.254 154.977 116.226 155.033 116.226C155.145 116.198 155.229 116.17 155.341 116.142C155.426 116.114 155.482 116.086 155.566 116.03C155.65 116.002 155.734 115.974 155.818 115.918C155.874 115.89 155.958 115.862 156.042 115.806C156.071 115.806 156.099 115.778 156.155 115.75L156.183 115.722C156.8 115.385 158.258 114.544 158.65 114.32C160.641 113.17 161.903 110.254 161.903 106.16C161.903 105.123 161.819 104.057 161.679 102.991ZM155.622 102.907C156.183 103.636 156.603 104.702 156.687 105.739C156.127 105.038 155.706 103.945 155.622 102.907Z" fill="#F8968C"/>
<path d="M159.071 104.506C158.202 98.5331 154.977 92.6166 151.163 90.4295C149.397 89.392 147.771 89.3359 146.425 90.0369C146.369 90.0649 146.341 90.093 146.284 90.121C146.172 90.1771 146.088 90.2332 145.976 90.3173C145.78 90.4575 145.583 90.5977 145.415 90.766L145.331 90.8501C145.247 90.9342 145.163 91.0183 145.107 91.1024C145.023 91.2146 144.911 91.3268 144.826 91.4109C144.658 91.6632 144.518 91.8876 144.35 92.168C144.294 92.2801 144.21 92.4203 144.153 92.5605C143.789 93.2896 143.509 94.1308 143.312 95.0841L120.123 81.709V83.3634L120.347 83.4755L120.544 83.6157V83.9522L120.123 84.2046V85.1579L123.264 91.8315L126.376 93.626L127.413 92.3642L130.161 94.0186L131.732 96.7105L133.47 97.7199L135.657 95.7851L138.321 97.3273L139.218 101.029L143.705 103.608C143.929 104.562 144.21 105.487 144.546 106.412C144.574 106.496 144.602 106.581 144.63 106.693C146.144 110.618 148.5 113.955 151.163 115.497C151.5 115.694 151.836 115.862 152.173 115.974C152.369 116.058 152.537 116.114 152.734 116.17C152.902 116.226 153.07 116.254 153.238 116.282C153.771 116.367 154.304 116.367 154.809 116.282C154.893 116.254 154.977 116.226 155.033 116.226C155.145 116.198 155.229 116.17 155.341 116.142C155.426 116.114 155.482 116.086 155.566 116.03C155.65 116.002 155.734 115.974 155.818 115.918C155.874 115.89 155.958 115.862 156.042 115.806C156.071 115.806 156.099 115.778 156.155 115.75L156.183 115.722C158.089 114.516 159.323 111.656 159.323 107.646C159.323 106.609 159.211 105.543 159.071 104.506ZM154.865 107.955C153.827 107.366 152.986 105.599 152.986 104.001C152.986 102.431 153.827 101.617 154.865 102.234C155.874 102.823 156.715 104.59 156.715 106.16C156.715 107.73 155.874 108.543 154.865 107.955Z" fill="#FFB6AE"/>
<path d="M155.51 108.151C155.314 108.151 155.089 108.095 154.865 107.955C154.585 107.786 154.304 107.534 154.052 107.226C153.435 106.412 152.986 105.151 152.986 104.001C152.986 103.104 153.267 102.431 153.715 102.15C153.856 102.066 154.024 102.038 154.192 102.038C154.416 102.038 154.613 102.094 154.865 102.234C154.893 102.234 154.921 102.262 154.949 102.262C155.089 102.375 155.201 102.487 155.342 102.599C155.426 102.711 155.538 102.795 155.622 102.907C155.706 103.945 156.127 105.038 156.688 105.739C156.688 105.824 156.716 105.88 156.716 105.936C156.716 106.02 156.716 106.076 156.716 106.16C156.716 107.394 156.211 108.151 155.51 108.151Z" fill="#FF3E29"/>
<path d="M154.052 107.225C153.435 106.412 152.986 105.15 152.986 104.001C152.986 103.104 153.267 102.431 153.715 102.15C153.267 102.431 152.986 103.104 152.986 104.001C152.986 105.15 153.435 106.412 154.052 107.225ZM156.716 106.16C156.716 106.076 156.716 106.02 156.716 105.936C156.716 106.02 156.716 106.076 156.716 106.16ZM155.342 102.599C155.201 102.487 155.089 102.374 154.949 102.262C155.089 102.374 155.201 102.487 155.342 102.599Z" fill="#C22514"/>
<path d="M153.687 88.8871C152.734 88.3263 151.78 88.074 150.911 88.074C151.78 88.074 152.734 88.3263 153.687 88.8871Z" fill="#F6F5F4"/>
<path d="M159.295 107.197C159.295 106.3 159.211 105.403 159.071 104.505C158.202 98.5329 154.977 92.6165 151.164 90.4293C150.154 89.8405 149.201 89.5601 148.303 89.5601C147.631 89.5601 147.014 89.7283 146.425 90.0368C147.014 89.7003 148.472 88.8591 148.892 88.6067C149.509 88.2422 150.182 88.074 150.911 88.074C151.78 88.074 152.734 88.3263 153.687 88.8871C153.715 88.8871 153.715 88.8871 153.743 88.8871C153.743 88.9152 153.771 88.9152 153.771 88.9152C157.585 91.1304 160.809 97.0188 161.679 102.991C161.819 104.057 161.903 105.122 161.903 106.16C161.903 105.992 161.903 105.851 161.903 105.711C161.006 106.216 160.108 106.749 159.295 107.197Z" fill="#FF3E29"/>
<path d="M159.323 107.646C159.323 111.656 158.089 114.516 156.183 115.722C156.8 115.385 158.258 114.544 158.65 114.32C160.641 113.17 161.903 110.254 161.903 106.16C161.903 105.992 161.903 105.852 161.903 105.711C161.006 106.216 160.108 106.749 159.295 107.198C159.295 107.366 159.323 107.506 159.323 107.646Z" fill="#F8968C"/>
<path d="M156.183 115.722C158.089 114.516 159.323 111.656 159.323 107.646C159.323 107.506 159.295 107.366 159.295 107.198C160.108 106.749 161.006 106.216 161.903 105.711C161.903 105.852 161.903 105.992 161.903 106.16C161.903 108.796 161.398 110.927 160.473 112.441C159.968 113.254 159.351 113.899 158.65 114.32C158.258 114.544 156.8 115.385 156.183 115.722Z" fill="#FF3E29"/>
<path d="M143.424 97.1591L120.544 83.9522L120.123 84.2046L120.544 83.9522V83.6157L143.424 96.7946V97.1591Z" fill="#FF3E29"/>
<path d="M143.424 97.6638L120.123 84.2045L120.544 83.9521L143.424 97.1591V97.6638Z" fill="#FF3E29"/>
<path d="M153.547 114.32C152.762 114.32 151.921 114.067 151.051 113.563C149.145 112.469 147.434 110.282 146.172 107.646C144.939 105.038 144.182 101.954 144.182 99.0378C144.182 96.7666 144.63 94.944 145.443 93.6261C146.257 92.3362 147.406 91.6072 148.78 91.6072C149.565 91.6072 150.407 91.8315 151.276 92.3362C153.211 93.4578 154.921 95.645 156.155 98.2527C157.389 100.888 158.146 103.945 158.146 106.861C158.146 109.132 157.697 110.983 156.884 112.273C156.099 113.563 154.921 114.32 153.547 114.32ZM144.602 99.0378C144.602 101.898 145.331 104.898 146.565 107.478C147.771 110.058 149.453 112.161 151.276 113.226C152.089 113.675 152.846 113.899 153.547 113.899C154.753 113.899 155.79 113.254 156.547 112.048C157.276 110.843 157.725 109.076 157.725 106.861C157.725 104.029 156.996 101.001 155.762 98.4209C154.556 95.8693 152.874 93.7382 151.051 92.7007C150.238 92.2241 149.481 91.9997 148.78 91.9997C147.574 92.0278 146.565 92.6447 145.808 93.8504C145.051 95.0561 144.602 96.8226 144.602 99.0378Z" fill="#FF3E29"/>
<path d="M143.312 95.0841L120.123 81.709L122.731 80.1948L144.153 92.5605C143.789 93.2896 143.509 94.1308 143.312 95.0841Z" fill="#FFB6AE"/>
<path d="M174.269 93.8783C175.503 91.5791 176.877 86.3916 177.578 83.7839C178.559 80.0826 176.961 77.7553 175.166 77.6711C174.045 77.8394 170.315 91.3547 170.315 91.3547C169.923 91.6632 164.259 94.5513 162.464 95.2523C162.128 95.3925 161.763 95.3925 161.455 95.2523C160.585 94.9439 159.997 95 159.127 94.9158C158.454 94.8597 158.118 94.6074 158.034 94.7476C157.922 94.9439 157.894 95.3925 158.37 95.729C158.623 95.9253 159.015 96.0655 159.52 96.2618C159.52 96.2618 158.567 96.5702 157.277 96.5422C155.538 96.5141 154.893 97.2712 156.267 99.0377C157.108 100.159 158.482 100.496 161.539 99.4303C162.436 99.1219 163.614 98.533 164.735 98.1404C167.035 97.2992 167.652 97.2151 169.418 96.5982C171.97 95.757 173.736 94.8878 174.269 93.8783Z" fill="#FBCE8B"/>
<path d="M174.493 77.3347C175.558 77.4749 176.568 77.6992 177.185 78.5685C177.801 79.4097 178.334 80.6435 177.717 83.9522C177.1 87.2609 175.811 90.794 175.811 90.794C175.811 90.794 173.343 91.8595 170.735 89.1677L172.53 82.2137C172.53 82.2137 172.838 77.6712 174.493 77.3347Z" fill="#3F5E69"/>
</g>
<defs>
<clipPath id="clip0_1629_166">
<rect width="196" height="190" fill="white"/>
</clipPath>
</defs>
</svg>
