<svg width="191" height="183" viewBox="0 0 191 183" fill="none" xmlns="http://www.w3.org/2000/svg">
<g clip-path="url(#clip0_1629_8)">
<path d="M181.362 43.8073C170.424 22.925 149.695 8.46805 127.359 3.03713C120.398 1.35432 113.055 0.206939 105.712 0.0539551H102.27C88.1187 0.359922 74.3502 4.49048 64.2533 15.2758C53.6974 26.5966 49.4904 42.3539 40.1584 54.5926C35.4924 60.6355 29.679 63.4656 23.6361 67.6727C8.79673 78.0756 -2.06511 94.7508 0.306138 113.644C4.28371 145.235 33.1211 162.14 62.035 164.052C100.281 166.577 127.588 161.452 150.765 146.689C162.775 138.963 174.784 129.861 182.127 117.239C193.218 98.1164 192.759 74.0215 185.569 53.5217C184.422 50.1561 182.969 46.9434 181.362 43.8073Z" fill="#81C5A8"/>
<path d="M79.7044 164.664C74.1205 164.664 68.2307 164.435 62.0348 164.052C33.1209 162.14 4.28354 145.235 0.305967 113.644C0.0764918 111.885 0 110.126 0 108.443C0 91.6911 10.1734 77.0812 23.636 67.6727C29.6788 63.4656 35.4922 60.6355 40.1582 54.5926C49.4902 42.3539 53.6972 26.5966 64.2531 15.2758C74.35 4.49048 88.1185 0.359922 102.27 0.0539551H105.788C113.131 0.206939 120.475 1.35432 127.359 3.03713C149.694 8.46805 170.424 22.925 181.362 43.8073C182.968 46.9434 184.422 50.1561 185.569 53.5217C188.858 62.9302 190.771 73.1036 190.771 83.2005C190.771 95.0568 188.093 106.913 182.127 117.239C174.784 129.861 162.775 138.963 150.765 146.689C131.336 159.08 109.001 164.664 79.7044 164.664Z" fill="#E6E6E6"/>
<path d="M93.7793 182.487H89.8018V11.5276C89.8018 10.4567 90.7197 9.53882 91.7905 9.53882C92.8614 9.53882 93.7793 10.4567 93.7793 11.5276V182.487Z" fill="#FEFEFE"/>
<path d="M93.779 182.487V182.258H90.0309V11.5278C90.0309 10.9924 90.2604 10.6099 90.5663 10.304C90.8723 9.9215 91.3313 9.76852 91.7902 9.76852C92.2492 9.76852 92.7081 9.9215 93.0141 10.304C93.32 10.6099 93.5495 10.9924 93.5495 11.5278V182.487H93.779V182.258V182.487H93.932V11.5278C93.932 10.304 93.0141 9.30957 91.7902 9.30957C90.5663 9.30957 89.6484 10.304 89.6484 11.5278V182.487C89.6484 182.487 89.6484 182.563 89.6484 182.64C89.7249 182.64 89.8014 182.64 89.8014 182.64H93.779C93.779 182.64 93.8555 182.64 93.932 182.64C93.932 182.563 93.932 182.487 93.932 182.487H93.779Z" fill="black"/>
<path d="M55.3037 44.4192H89.725V32.3335H55.3037V44.4192Z" fill="#FF1D05"/>
<path d="M55.3037 44.4192V44.6487H89.725C89.8015 44.6487 89.8015 44.6487 89.878 44.5722C89.878 44.5722 89.9545 44.4957 89.9545 44.4192V32.3335C89.9545 32.257 89.878 32.1805 89.878 32.1805C89.8015 32.104 89.8015 32.104 89.725 32.104H55.3037C55.2272 32.104 55.1507 32.104 55.1507 32.1805C55.0742 32.1805 55.0742 32.257 55.0742 32.3335V44.4192C55.0742 44.4957 55.0742 44.5722 55.1507 44.5722C55.1507 44.6487 55.2272 44.6487 55.3037 44.6487V44.4192H55.4567V32.4865H89.4955V44.2662H55.3037V44.4192H55.4567H55.3037Z" fill="black"/>
<path d="M93.8555 31.4155H128.277V19.3298H93.8555V31.4155Z" fill="#FF1D05"/>
<path d="M93.8555 31.4155V31.645H128.277C128.353 31.645 128.353 31.645 128.43 31.5685C128.43 31.5685 128.43 31.492 128.43 31.4155V19.3298C128.43 19.2533 128.43 19.1768 128.43 19.1768C128.353 19.1003 128.353 19.1003 128.277 19.1003H93.8555C93.779 19.1003 93.7025 19.1003 93.7025 19.1768C93.626 19.1768 93.626 19.2533 93.626 19.3298V31.4155C93.626 31.492 93.626 31.5685 93.7025 31.5685C93.7025 31.645 93.779 31.645 93.8555 31.645V31.4155H94.0084V19.5593H128.047V31.2625H93.8555V31.4155H94.0084H93.8555Z" fill="black"/>
<path d="M93.8555 52.7569L113.055 55.2046V38.147L93.8555 40.5947V52.7569Z" fill="#FF1D05"/>
<path d="M93.8555 52.7569L93.779 52.9099L113.055 55.3576C113.055 55.3576 113.131 55.3576 113.208 55.3576C113.208 55.2811 113.284 55.2046 113.284 55.2046V38.1469C113.284 38.0704 113.208 38.0704 113.208 37.994C113.131 37.994 113.055 37.9175 113.055 37.994L93.779 40.4417C93.7025 40.4417 93.626 40.5182 93.626 40.5947V52.7569C93.626 52.8334 93.7025 52.9099 93.779 52.9099L93.8555 52.7569H94.0084V40.8242L112.825 38.3764V54.9751L93.8555 52.5274V52.7569H94.0084H93.8555Z" fill="black"/>
<path d="M109.154 47.02L104.947 42.354V44.3428L96.0742 44.7252V49.1618L104.947 49.6207V51.6095L109.154 47.02Z" fill="#FEFEFE"/>
<path d="M109.154 47.02L109.307 46.867L105.1 42.201C105.024 42.1245 104.947 42.1245 104.871 42.1245C104.794 42.1245 104.718 42.201 104.718 42.354V44.1898L96.0742 44.4958C95.9212 44.4958 95.8447 44.5722 95.8447 44.7252V49.1618C95.8447 49.2382 95.9212 49.3912 96.0742 49.3912L104.718 49.7737V51.6095C104.718 51.686 104.794 51.7625 104.871 51.839C104.947 51.839 105.024 51.839 105.1 51.7625L109.307 47.173C109.384 47.0965 109.384 46.9435 109.307 46.867L109.154 47.02L109.001 46.867L105.177 51.0741V49.6207C105.177 49.4677 105.024 49.3912 104.947 49.3912L96.3037 48.9323V44.8782L104.947 44.5722C105.024 44.5722 105.177 44.4958 105.177 44.3428V42.8129L109.001 47.173L109.154 47.02L109.001 46.867L109.154 47.02Z" fill="black"/>
<path d="M122.999 24.5314L116.497 20.7068V22.3896H99.21V26.5967H116.497V28.2795L122.999 24.5314Z" fill="#FEFEFE"/>
<path d="M122.999 24.5313L123.152 24.3018L116.574 20.5537C116.497 20.4772 116.421 20.4772 116.344 20.5537C116.268 20.5537 116.268 20.6302 116.268 20.7067V22.16H99.2099C99.1335 22.16 99.1335 22.16 99.057 22.2365C99.057 22.2365 98.9805 22.313 98.9805 22.3895V26.5966C98.9805 26.673 99.057 26.7495 99.057 26.7495C99.1335 26.826 99.1335 26.826 99.2099 26.826H116.268V28.2794C116.268 28.3559 116.268 28.4324 116.344 28.4324C116.421 28.5089 116.497 28.5089 116.574 28.4324L123.152 24.6843C123.152 24.6078 123.228 24.6078 123.228 24.5313C123.228 24.4548 123.152 24.3783 123.152 24.3018L122.999 24.5313L122.922 24.3018L116.65 27.8969V26.5966C116.65 26.5966 116.65 26.5201 116.574 26.4436H116.497H99.4394V22.619H116.497L116.574 22.5425C116.65 22.466 116.65 22.466 116.65 22.3895V21.0891L122.922 24.6843L122.999 24.5313L122.922 24.3018L122.999 24.5313Z" fill="black"/>
<path d="M60.8115 38.4529L67.3133 34.7048V36.3112H84.6005V40.5947H67.3133V42.2775L60.8115 38.4529Z" fill="#FEFEFE"/>
<path d="M60.8115 38.4528L60.888 38.6823L67.1603 35.0872V36.3111C67.1603 36.3876 67.1603 36.464 67.2368 36.464C67.2368 36.5405 67.3133 36.5405 67.3133 36.5405H84.371V40.3651H67.3133L67.2368 40.4416C67.1603 40.5181 67.1603 40.5181 67.1603 40.5946V41.895L60.888 38.2999L60.8115 38.4528L60.888 38.6823L60.8115 38.4528L60.735 38.6823L67.2368 42.4304C67.3133 42.4304 67.3898 42.4304 67.4663 42.4304C67.5428 42.3539 67.5428 42.3539 67.5428 42.2774V40.8241H84.6005C84.6769 40.8241 84.6769 40.7476 84.7534 40.7476C84.7534 40.6711 84.8299 40.6711 84.8299 40.5946V36.3111L84.7534 36.2346C84.6769 36.1581 84.6769 36.1581 84.6005 36.1581H67.5428V34.7047C67.5428 34.6282 67.5428 34.5518 67.4663 34.5518C67.3898 34.4753 67.3133 34.4753 67.2368 34.5518L60.735 38.2999C60.6585 38.2999 60.582 38.3763 60.582 38.4528C60.582 38.5293 60.6585 38.6058 60.735 38.6823L60.8115 38.4528Z" fill="black"/>
<path d="M159.562 30.1918H159.332C159.332 34.0929 157.802 37.6115 155.202 40.1357C152.677 42.7365 149.159 44.2663 145.258 44.2663C141.433 44.2663 137.915 42.7365 135.314 40.1357C132.79 37.6115 131.26 34.0929 131.26 30.1918C131.26 26.3672 132.79 22.8486 135.314 20.2479C137.915 17.7236 141.433 16.1938 145.258 16.1938C149.159 16.1938 152.677 17.7236 155.202 20.2479C157.802 22.8486 159.332 26.3672 159.332 30.1918H159.791C159.791 22.2367 153.289 15.7349 145.258 15.7349C137.303 15.7349 130.801 22.2367 130.801 30.1918C130.801 38.2234 137.303 44.7253 145.258 44.7253C153.289 44.7253 159.791 38.2234 159.791 30.1918H159.562Z" fill="black"/>
<path d="M154.514 39.5237C153.596 40.4416 152.525 41.2065 151.301 41.8184C151.225 41.8949 151.225 42.0479 151.225 42.1244C151.301 42.2009 151.454 42.2774 151.531 42.2009C152.754 41.589 153.825 40.7475 154.82 39.7532C154.896 39.6767 154.896 39.6002 154.82 39.5237C154.743 39.4472 154.59 39.4472 154.514 39.5237Z" fill="black"/>
<path d="M149.466 42.66C148.165 43.0424 146.788 43.2719 145.258 43.2719C141.663 43.2719 138.374 41.8186 136.003 39.4473C133.632 37.0761 132.178 33.8634 132.178 30.1918C132.178 26.5967 133.632 23.3075 136.003 20.9363C138.374 18.5651 141.663 17.1117 145.258 17.1117C148.93 17.1117 152.143 18.5651 154.514 20.9363C156.885 23.3075 158.415 26.5967 158.415 30.1918C158.415 32.6395 157.727 34.9343 156.579 36.9231C156.503 36.9996 156.503 37.1526 156.656 37.229C156.732 37.229 156.809 37.229 156.885 37.1526C158.109 35.0873 158.798 32.716 158.798 30.1918C158.798 22.7721 152.755 16.7292 145.258 16.7292C137.839 16.7292 131.796 22.7721 131.796 30.1918C131.796 37.688 137.839 43.7309 145.258 43.7309C146.788 43.7309 148.242 43.5014 149.618 43.0424C149.695 42.9659 149.771 42.8894 149.695 42.7365C149.695 42.66 149.542 42.5835 149.466 42.66Z" fill="black"/>
<path d="M146.329 30.1917C146.329 30.8036 145.87 31.2625 145.258 31.2625C144.723 31.2625 144.264 30.8036 144.264 30.1917C144.264 29.6562 144.723 29.1973 145.258 29.1973C145.87 29.1973 146.329 29.6562 146.329 30.1917Z" fill="black"/>
<path d="M146.329 30.1916H146.176C146.176 30.6506 145.793 31.0331 145.258 31.0331C144.799 31.0331 144.417 30.6506 144.417 30.1916C144.417 29.7327 144.799 29.3502 145.258 29.3502C145.793 29.3502 146.176 29.7327 146.176 30.1916H146.558C146.558 29.5032 146.023 28.9678 145.258 28.9678C144.57 28.9678 144.034 29.5032 144.034 30.1916C144.034 30.8801 144.57 31.492 145.258 31.492C146.023 31.492 146.558 30.8801 146.558 30.1916H146.329Z" fill="black"/>
<path d="M147.018 36.0815L145.564 30.3446L154.284 24.3018C154.361 24.3018 154.361 24.1488 154.284 24.0723C154.208 23.9193 154.131 23.9193 153.979 23.9958L145.182 30.0387C145.105 30.1151 145.105 30.1916 145.105 30.2681L146.635 36.158C146.635 36.311 146.712 36.3875 146.865 36.311C146.941 36.311 147.018 36.158 147.018 36.0815Z" fill="black"/>
<path d="M51.3263 67.2138V88.096H35.7985C35.722 88.096 35.6455 88.1725 35.6455 88.3255C35.6455 88.402 35.722 88.555 35.7985 88.555H51.5558L51.6323 88.4785C51.7088 88.402 51.7088 88.402 51.7088 88.3255V67.2138C51.7088 67.1373 51.6323 67.0608 51.5558 67.0608C51.4028 67.0608 51.3263 67.1373 51.3263 67.2138Z" fill="black"/>
<path d="M23.1767 85.0363V61.7063H51.3257V65.3779C51.3257 65.5309 51.4022 65.6073 51.5552 65.6073C51.6317 65.6073 51.7082 65.5309 51.7082 65.3779V61.4768C51.7082 61.4003 51.7082 61.4003 51.6317 61.3238L51.5552 61.2473H22.9472C22.8708 61.2473 22.8708 61.3238 22.7943 61.3238C22.7943 61.4003 22.7178 61.4003 22.7178 61.4768V85.0363C22.7178 85.1128 22.7943 85.1892 22.9472 85.1892C23.0237 85.1892 23.1767 85.1128 23.1767 85.0363Z" fill="black"/>
<path d="M33.5796 88.0959H23.1767V86.5661C23.1767 86.4896 23.0237 86.4131 22.9472 86.4131C22.7943 86.4131 22.7178 86.4896 22.7178 86.5661V88.3254C22.7178 88.4019 22.7943 88.4019 22.7943 88.4784C22.8708 88.4784 22.8708 88.5549 22.9472 88.5549H33.5796C33.6561 88.5549 33.8091 88.4019 33.8091 88.3254C33.8091 88.1724 33.6561 88.0959 33.5796 88.0959Z" fill="black"/>
<path d="M27.4607 70.8853V70.6558H24.86V68.2846H27.2312V70.8853H27.4607V70.6558V70.8853H27.6902V68.1316C27.6902 68.0551 27.6902 67.9786 27.6137 67.9786C27.6137 67.9021 27.5372 67.9021 27.4607 67.9021H24.707C24.6305 67.9021 24.554 67.9021 24.554 67.9786C24.4775 67.9786 24.4775 68.0551 24.4775 68.1316V70.8853C24.4775 70.9618 24.4775 70.9618 24.554 71.0383C24.554 71.0383 24.6305 71.1148 24.707 71.1148H27.4607C27.5372 71.1148 27.6137 71.0383 27.6137 71.0383C27.6902 70.9618 27.6902 70.9618 27.6902 70.8853H27.4607Z" fill="black"/>
<path d="M31.2088 70.8853V70.6558H28.608V68.2846H30.9793V70.8853H31.2088V70.6558V70.8853H31.3617V68.1316C31.3617 68.0551 31.3617 67.9786 31.3617 67.9786C31.2853 67.9021 31.2088 67.9021 31.2088 67.9021H28.3786C28.3786 67.9021 28.3021 67.9021 28.2256 67.9786C28.2256 67.9786 28.2256 68.0551 28.2256 68.1316V70.8853C28.2256 70.9618 28.2256 70.9618 28.2256 71.0383C28.3021 71.0383 28.3786 71.1148 28.3786 71.1148H31.2088C31.2088 71.1148 31.2853 71.0383 31.3617 71.0383C31.3617 70.9618 31.3617 70.9618 31.3617 70.8853H31.2088Z" fill="black"/>
<path d="M34.8806 70.8853V70.6558H32.3564V68.2846H34.7277V70.8853H34.8806V70.6558V70.8853H35.1101V68.1316C35.1101 68.0551 35.1101 67.9786 35.0336 67.9786C35.0336 67.9021 34.9571 67.9021 34.8806 67.9021H32.1269C32.0504 67.9021 31.974 67.9021 31.974 67.9786C31.8975 67.9786 31.8975 68.0551 31.8975 68.1316V70.8853C31.8975 70.9618 31.8975 70.9618 31.974 71.0383C31.974 71.0383 32.0504 71.1148 32.1269 71.1148H34.8806C34.9571 71.1148 35.0336 71.0383 35.0336 71.0383C35.1101 70.9618 35.1101 70.9618 35.1101 70.8853H34.8806Z" fill="black"/>
<path d="M38.6287 70.8853V70.6558H36.028V68.2846H38.3992V70.8853H38.6287V70.6558V70.8853H38.8582V68.1316C38.8582 68.0551 38.7817 67.9786 38.7817 67.9786C38.7052 67.9021 38.7052 67.9021 38.6287 67.9021H35.875C35.7985 67.9021 35.722 67.9021 35.722 67.9786C35.6455 67.9786 35.6455 68.0551 35.6455 68.1316V70.8853C35.6455 70.9618 35.6455 70.9618 35.722 71.0383C35.722 71.0383 35.7985 71.1148 35.875 71.1148H38.6287C38.7052 71.1148 38.7052 71.0383 38.7817 71.0383C38.7817 70.9618 38.8582 70.9618 38.8582 70.8853H38.6287Z" fill="black"/>
<path d="M42.3771 70.8853V70.6558H39.7763V68.2846H42.1476V70.8853H42.3771V70.6558V70.8853H42.53V68.1316C42.53 68.0551 42.53 67.9786 42.53 67.9786C42.4535 67.9021 42.3771 67.9021 42.3771 67.9021H39.5469C39.4704 67.9021 39.4704 67.9021 39.3939 67.9786C39.3939 67.9786 39.3174 68.0551 39.3174 68.1316V70.8853C39.3174 70.9618 39.3939 70.9618 39.3939 71.0383C39.4704 71.0383 39.4704 71.1148 39.5469 71.1148H42.3771C42.3771 71.1148 42.4535 71.0383 42.53 71.0383C42.53 70.9618 42.53 70.9618 42.53 70.8853H42.3771Z" fill="black"/>
<path d="M46.0486 70.8853V70.6558H43.4479V68.2846H45.8956V70.8853H46.0486V70.6558V70.8853H46.2781V68.1316C46.2781 68.0551 46.2781 67.9786 46.2016 67.9786C46.2016 67.9021 46.1251 67.9021 46.0486 67.9021H43.2949C43.2184 67.9021 43.1419 67.9021 43.1419 67.9786C43.0654 67.9786 43.0654 68.0551 43.0654 68.1316V70.8853C43.0654 70.9618 43.0654 70.9618 43.1419 71.0383C43.1419 71.0383 43.2184 71.1148 43.2949 71.1148H46.0486C46.1251 71.1148 46.2016 71.0383 46.2016 71.0383C46.2781 70.9618 46.2781 70.9618 46.2781 70.8853H46.0486Z" fill="black"/>
<path d="M49.7967 70.8853V70.6558H47.1959V68.2846H49.5672V70.8853H49.7967V70.6558V70.8853H50.0261V68.1316C50.0261 68.0551 49.9496 67.9786 49.9496 67.9786C49.8731 67.9021 49.8731 67.9021 49.7967 67.9021H46.9665C46.9665 67.9021 46.89 67.9021 46.8135 67.9786C46.8135 67.9786 46.8135 68.0551 46.8135 68.1316V70.8853C46.8135 70.9618 46.8135 70.9618 46.8135 71.0383C46.89 71.0383 46.9665 71.1148 46.9665 71.1148H49.7967C49.8731 71.1148 49.8731 71.0383 49.9496 71.0383C49.9496 70.9618 50.0261 70.9618 50.0261 70.8853H49.7967Z" fill="black"/>
<path d="M27.4607 75.3219V75.0924H24.86V72.7212H27.2312V75.3219H27.4607V75.0924V75.3219H27.6902V72.4917C27.6902 72.4152 27.6902 72.4152 27.6137 72.3387C27.6137 72.3387 27.5372 72.2622 27.4607 72.2622H24.707C24.6305 72.2622 24.554 72.3387 24.554 72.3387C24.4775 72.4152 24.4775 72.4152 24.4775 72.4917V75.3219C24.4775 75.3219 24.4775 75.3984 24.554 75.3984C24.554 75.4749 24.6305 75.4749 24.707 75.4749H27.4607C27.5372 75.4749 27.6137 75.4749 27.6137 75.3984C27.6902 75.3984 27.6902 75.3219 27.6902 75.3219H27.4607Z" fill="black"/>
<path d="M31.2088 75.3219V75.0924H28.608V72.7212H30.9793V75.3219H31.2088V75.0924V75.3219H31.3617V72.4917C31.3617 72.4152 31.3617 72.4152 31.3617 72.3387C31.2853 72.3387 31.2088 72.2622 31.2088 72.2622H28.3786C28.3786 72.2622 28.3021 72.3387 28.2256 72.3387C28.2256 72.4152 28.2256 72.4152 28.2256 72.4917V75.3219V75.3984C28.3021 75.4749 28.3786 75.4749 28.3786 75.4749H31.2088C31.2088 75.4749 31.2853 75.4749 31.3617 75.3984V75.3219H31.2088Z" fill="black"/>
<path d="M34.8806 75.3219V75.0924H32.3564V72.7212H34.7277V75.3219H34.8806V75.0924V75.3219H35.1101V72.4917C35.1101 72.4152 35.1101 72.4152 35.0336 72.3387C35.0336 72.3387 34.9571 72.2622 34.8806 72.2622H32.1269C32.0504 72.2622 31.974 72.3387 31.974 72.3387C31.8975 72.4152 31.8975 72.4152 31.8975 72.4917V75.3219C31.8975 75.3219 31.8975 75.3984 31.974 75.3984C31.974 75.4749 32.0504 75.4749 32.1269 75.4749H34.8806C34.9571 75.4749 35.0336 75.4749 35.0336 75.3984C35.1101 75.3984 35.1101 75.3219 35.1101 75.3219H34.8806Z" fill="black"/>
<path d="M38.6287 75.3219V75.0924H36.028V72.7212H38.3992V75.3219H38.6287V75.0924V75.3219H38.8582V72.4917C38.8582 72.4152 38.7817 72.4152 38.7817 72.3387C38.7052 72.3387 38.7052 72.2622 38.6287 72.2622H35.875C35.7985 72.2622 35.722 72.3387 35.722 72.3387C35.6455 72.4152 35.6455 72.4152 35.6455 72.4917V75.3219C35.6455 75.3219 35.6455 75.3984 35.722 75.3984C35.722 75.4749 35.7985 75.4749 35.875 75.4749H38.6287C38.7052 75.4749 38.7052 75.4749 38.7817 75.3984L38.8582 75.3219H38.6287Z" fill="black"/>
<path d="M42.3771 75.3219V75.0924H39.7763V72.7212H42.1476V75.3219H42.3771V75.0924V75.3219H42.53V72.4917C42.53 72.4152 42.53 72.4152 42.53 72.3387C42.4535 72.3387 42.3771 72.2622 42.3771 72.2622H39.5469C39.4704 72.2622 39.4704 72.3387 39.3939 72.3387C39.3939 72.4152 39.3174 72.4152 39.3174 72.4917V75.3219L39.3939 75.3984C39.4704 75.4749 39.4704 75.4749 39.5469 75.4749H42.3771C42.3771 75.4749 42.4535 75.4749 42.53 75.3984V75.3219H42.3771Z" fill="black"/>
<path d="M46.0486 75.3219V75.0924H43.4479V72.7212H45.8956V75.3219H46.0486V75.0924V75.3219H46.2781V72.4917C46.2781 72.4152 46.2781 72.4152 46.2016 72.3387C46.2016 72.3387 46.1251 72.2622 46.0486 72.2622H43.2949C43.2184 72.2622 43.1419 72.3387 43.1419 72.3387C43.0654 72.4152 43.0654 72.4152 43.0654 72.4917V75.3219C43.0654 75.3219 43.0654 75.3984 43.1419 75.3984C43.1419 75.4749 43.2184 75.4749 43.2949 75.4749H46.0486C46.1251 75.4749 46.2016 75.4749 46.2016 75.3984C46.2781 75.3984 46.2781 75.3219 46.2781 75.3219H46.0486Z" fill="black"/>
<path d="M49.7967 75.3219V75.0924H47.1959V72.7212H49.5672V75.3219H49.7967V75.0924V75.3219H50.0261V72.4917C50.0261 72.4152 49.9496 72.4152 49.9496 72.3387C49.8731 72.3387 49.8731 72.2622 49.7967 72.2622H46.9665C46.9665 72.2622 46.89 72.3387 46.8135 72.3387C46.8135 72.4152 46.8135 72.4152 46.8135 72.4917V75.3219V75.3984C46.89 75.4749 46.9665 75.4749 46.9665 75.4749H49.7967C49.8731 75.4749 49.8731 75.4749 49.9496 75.3984L50.0261 75.3219H49.7967Z" fill="black"/>
<path d="M27.4607 79.6819V79.4524H24.86V77.0812H27.2312V79.6819H27.4607V79.4524V79.6819H27.6902V76.9282C27.6902 76.8517 27.6902 76.7752 27.6137 76.7752C27.6137 76.6987 27.5372 76.6987 27.4607 76.6987H24.707C24.6305 76.6987 24.554 76.6987 24.554 76.7752C24.4775 76.7752 24.4775 76.8517 24.4775 76.9282V79.6819C24.4775 79.7584 24.4775 79.7584 24.554 79.8349C24.554 79.8349 24.6305 79.9114 24.707 79.9114H27.4607C27.5372 79.9114 27.6137 79.8349 27.6137 79.8349C27.6902 79.7584 27.6902 79.7584 27.6902 79.6819H27.4607Z" fill="black"/>
<path d="M31.2088 79.6819V79.4524H28.608V77.0812H30.9793V79.6819H31.2088V79.4524V79.6819H31.3617V76.9282C31.3617 76.8517 31.3617 76.7752 31.3617 76.7752C31.2853 76.6987 31.2088 76.6987 31.2088 76.6987H28.3786C28.3786 76.6987 28.3021 76.6987 28.2256 76.7752C28.2256 76.7752 28.2256 76.8517 28.2256 76.9282V79.6819C28.2256 79.7584 28.2256 79.7584 28.2256 79.8349C28.3021 79.8349 28.3786 79.9114 28.3786 79.9114H31.2088C31.2088 79.9114 31.2853 79.8349 31.3617 79.8349C31.3617 79.7584 31.3617 79.7584 31.3617 79.6819H31.2088Z" fill="black"/>
<path d="M34.8806 79.6819V79.4524H32.3564V77.0812H34.7277V79.6819H34.8806V79.4524V79.6819H35.1101V76.9282C35.1101 76.8517 35.1101 76.7752 35.0336 76.7752C35.0336 76.6987 34.9571 76.6987 34.8806 76.6987H32.1269C32.0504 76.6987 31.974 76.6987 31.974 76.7752C31.8975 76.7752 31.8975 76.8517 31.8975 76.9282V79.6819C31.8975 79.7584 31.8975 79.7584 31.974 79.8349C31.974 79.8349 32.0504 79.9114 32.1269 79.9114H34.8806C34.9571 79.9114 35.0336 79.8349 35.0336 79.8349C35.1101 79.7584 35.1101 79.7584 35.1101 79.6819H34.8806Z" fill="black"/>
<path d="M38.6287 79.6819V79.4524H36.028V77.0812H38.3992V79.6819H38.6287V79.4524V79.6819H38.8582V76.9282C38.8582 76.8517 38.7817 76.7752 38.7817 76.7752C38.7052 76.6987 38.7052 76.6987 38.6287 76.6987H35.875C35.7985 76.6987 35.722 76.6987 35.722 76.7752C35.6455 76.7752 35.6455 76.8517 35.6455 76.9282V79.6819C35.6455 79.7584 35.6455 79.7584 35.722 79.8349C35.722 79.8349 35.7985 79.9114 35.875 79.9114H38.6287C38.7052 79.9114 38.7052 79.8349 38.7817 79.8349C38.7817 79.7584 38.8582 79.7584 38.8582 79.6819H38.6287Z" fill="black"/>
<path d="M42.3771 79.6819V79.4524H39.7763V77.0812H42.1476V79.6819H42.3771V79.4524V79.6819H42.53V76.9282C42.53 76.8517 42.53 76.7752 42.53 76.7752C42.4535 76.6987 42.3771 76.6987 42.3771 76.6987H39.5469C39.4704 76.6987 39.4704 76.6987 39.3939 76.7752C39.3939 76.7752 39.3174 76.8517 39.3174 76.9282V79.6819C39.3174 79.7584 39.3939 79.7584 39.3939 79.8349C39.4704 79.8349 39.4704 79.9114 39.5469 79.9114H42.3771C42.3771 79.9114 42.4535 79.8349 42.53 79.8349C42.53 79.7584 42.53 79.7584 42.53 79.6819H42.3771Z" fill="black"/>
<path d="M46.0486 79.6819V79.4524H43.4479V77.0812H45.8956V79.6819H46.0486V79.4524V79.6819H46.2781V76.9282C46.2781 76.8517 46.2781 76.7752 46.2016 76.7752C46.2016 76.6987 46.1251 76.6987 46.0486 76.6987H43.2949C43.2184 76.6987 43.1419 76.6987 43.1419 76.7752C43.0654 76.7752 43.0654 76.8517 43.0654 76.9282V79.6819C43.0654 79.7584 43.0654 79.7584 43.1419 79.8349C43.1419 79.8349 43.2184 79.9114 43.2949 79.9114H46.0486C46.1251 79.9114 46.2016 79.8349 46.2016 79.8349C46.2781 79.7584 46.2781 79.7584 46.2781 79.6819H46.0486Z" fill="black"/>
<path d="M49.7967 79.6819V79.4524H47.1959V77.0812H49.5672V79.6819H49.7967V79.4524V79.6819H50.0261V76.9282C50.0261 76.8517 49.9496 76.7752 49.9496 76.7752C49.8731 76.6987 49.8731 76.6987 49.7967 76.6987H46.9665C46.9665 76.6987 46.89 76.6987 46.8135 76.7752C46.8135 76.7752 46.8135 76.8517 46.8135 76.9282V79.6819C46.8135 79.7584 46.8135 79.7584 46.8135 79.8349C46.89 79.8349 46.9665 79.9114 46.9665 79.9114H49.7967C49.8731 79.9114 49.8731 79.8349 49.9496 79.8349C49.9496 79.7584 50.0261 79.7584 50.0261 79.6819H49.7967Z" fill="black"/>
<path d="M27.4607 84.1185V83.889H24.86V81.5178H27.2312V84.1185H27.4607V83.889V84.1185H27.6902V81.2883C27.6902 81.2118 27.6902 81.2118 27.6137 81.1353C27.6137 81.1353 27.5372 81.0588 27.4607 81.0588H24.707C24.6305 81.0588 24.554 81.1353 24.554 81.1353C24.4775 81.2118 24.4775 81.2118 24.4775 81.2883V84.1185C24.4775 84.1185 24.4775 84.195 24.554 84.2715C24.554 84.2715 24.6305 84.2715 24.707 84.2715H27.4607C27.5372 84.2715 27.6137 84.2715 27.6137 84.2715C27.6902 84.195 27.6902 84.1185 27.6902 84.1185H27.4607Z" fill="black"/>
<path d="M31.2088 84.1185V83.889H28.608V81.5178H30.9793V84.1185H31.2088V83.889V84.1185H31.3617V81.2883C31.3617 81.2118 31.3617 81.2118 31.3617 81.1353C31.2853 81.1353 31.2088 81.0588 31.2088 81.0588H28.3786C28.3786 81.0588 28.3021 81.1353 28.2256 81.1353C28.2256 81.2118 28.2256 81.2118 28.2256 81.2883V84.1185C28.2256 84.1185 28.2256 84.195 28.2256 84.2715C28.3021 84.2715 28.3786 84.2715 28.3786 84.2715H31.2088C31.2088 84.2715 31.2853 84.2715 31.3617 84.2715C31.3617 84.195 31.3617 84.1185 31.3617 84.1185H31.2088Z" fill="black"/>
<path d="M34.8806 84.1185V83.889H32.3564V81.5178H34.7277V84.1185H34.8806V83.889V84.1185H35.1101V81.2883C35.1101 81.2118 35.1101 81.2118 35.0336 81.1353C35.0336 81.1353 34.9571 81.0588 34.8806 81.0588H32.1269C32.0504 81.0588 31.974 81.1353 31.974 81.1353C31.8975 81.2118 31.8975 81.2118 31.8975 81.2883V84.1185C31.8975 84.1185 31.8975 84.195 31.974 84.2715C31.974 84.2715 32.0504 84.2715 32.1269 84.2715H34.8806C34.9571 84.2715 35.0336 84.2715 35.0336 84.2715C35.1101 84.195 35.1101 84.1185 35.1101 84.1185H34.8806Z" fill="black"/>
<path d="M38.6287 84.1185V83.889H36.028V81.5178H38.3992V84.1185H38.6287V83.889V84.1185H38.8582V81.2883C38.8582 81.2118 38.7817 81.2118 38.7817 81.1353C38.7052 81.1353 38.7052 81.0588 38.6287 81.0588H35.875C35.7985 81.0588 35.722 81.1353 35.722 81.1353C35.6455 81.2118 35.6455 81.2118 35.6455 81.2883V84.1185C35.6455 84.1185 35.6455 84.195 35.722 84.2715C35.722 84.2715 35.7985 84.2715 35.875 84.2715H38.6287C38.7052 84.2715 38.7052 84.2715 38.7817 84.2715C38.7817 84.195 38.8582 84.1185 38.8582 84.1185H38.6287Z" fill="black"/>
<path d="M42.3771 84.1185V83.889H39.7763V81.5178H42.1476V84.1185H42.3771V83.889V84.1185H42.53V81.2883C42.53 81.2118 42.53 81.2118 42.53 81.1353C42.4535 81.1353 42.3771 81.0588 42.3771 81.0588H39.5469C39.4704 81.0588 39.4704 81.1353 39.3939 81.1353C39.3939 81.2118 39.3174 81.2118 39.3174 81.2883V84.1185C39.3174 84.1185 39.3939 84.195 39.3939 84.2715C39.4704 84.2715 39.4704 84.2715 39.5469 84.2715H42.3771C42.3771 84.2715 42.4535 84.2715 42.53 84.2715C42.53 84.195 42.53 84.1185 42.53 84.1185H42.3771Z" fill="black"/>
<path d="M46.0486 84.1185V83.889H43.4479V81.5178H45.8956V84.1185H46.0486V83.889V84.1185H46.2781V81.2883C46.2781 81.2118 46.2781 81.2118 46.2016 81.1353C46.2016 81.1353 46.1251 81.0588 46.0486 81.0588H43.2949C43.2184 81.0588 43.1419 81.1353 43.1419 81.1353C43.0654 81.2118 43.0654 81.2118 43.0654 81.2883V84.1185C43.0654 84.1185 43.0654 84.195 43.1419 84.2715C43.1419 84.2715 43.2184 84.2715 43.2949 84.2715H46.0486C46.1251 84.2715 46.2016 84.2715 46.2016 84.2715C46.2781 84.195 46.2781 84.1185 46.2781 84.1185H46.0486Z" fill="black"/>
<path d="M49.7967 84.1185V83.889H47.1959V81.5178H49.5672V84.1185H49.7967V83.889V84.1185H50.0261V81.2883C50.0261 81.2118 49.9496 81.2118 49.9496 81.1353C49.8731 81.1353 49.8731 81.0588 49.7967 81.0588H46.9665C46.9665 81.0588 46.89 81.1353 46.8135 81.1353C46.8135 81.2118 46.8135 81.2118 46.8135 81.2883V84.1185C46.8135 84.1185 46.8135 84.195 46.8135 84.2715C46.89 84.2715 46.9665 84.2715 46.9665 84.2715H49.7967C49.8731 84.2715 49.8731 84.2715 49.9496 84.2715C49.9496 84.195 50.0261 84.1185 50.0261 84.1185H49.7967Z" fill="black"/>
<path d="M47.7312 58.8762H46.4308V63.3892H47.7312V58.8762ZM42.7592 58.8762H41.5354V63.3892H42.7592V58.8762ZM37.8638 58.8762H36.6399V63.3892H37.8638V58.8762ZM32.8918 58.8762H31.6679V63.3892H32.8918V58.8762ZM27.9963 63.3892H26.7725V58.8762H27.9963V63.3892Z" fill="black"/>
<path d="M47.7312 58.8762V58.6467H46.4308L46.3543 58.7232C46.2779 58.7232 46.2779 58.7997 46.2779 58.8762V63.3892C46.2779 63.4657 46.2779 63.4657 46.3543 63.5422L46.4308 63.6187H47.7312L47.8077 63.5422C47.8842 63.4657 47.8842 63.4657 47.8842 63.3892V58.8762C47.8842 58.7997 47.8842 58.7232 47.8077 58.7232L47.7312 58.6467V58.8762H47.5017V63.1597H46.6603V59.1057H47.7312V58.8762H47.5017H47.7312ZM42.7592 58.8762V58.6467H41.5354C41.4589 58.6467 41.4589 58.7232 41.3824 58.7232C41.3824 58.7232 41.3059 58.7997 41.3059 58.8762V63.3892C41.3059 63.4657 41.3824 63.4657 41.3824 63.5422C41.4589 63.5422 41.4589 63.6187 41.5354 63.6187H42.7592C42.8357 63.6187 42.9122 63.5422 42.9122 63.5422C42.9887 63.4657 42.9887 63.4657 42.9887 63.3892V58.8762C42.9887 58.7997 42.9887 58.7232 42.9122 58.7232C42.9122 58.7232 42.8357 58.6467 42.7592 58.6467V58.8762H42.5298V63.1597H41.7648V59.1057H42.7592V58.8762H42.5298H42.7592ZM37.8638 58.8762V58.6467H36.6399C36.5634 58.6467 36.4869 58.7232 36.4869 58.7232C36.4104 58.7232 36.4104 58.7997 36.4104 58.8762V63.3892C36.4104 63.4657 36.4104 63.4657 36.4869 63.5422C36.4869 63.5422 36.5634 63.6187 36.6399 63.6187H37.8638C37.9402 63.6187 37.9402 63.5422 38.0167 63.5422C38.0167 63.4657 38.0167 63.4657 38.0167 63.3892V58.8762C38.0167 58.7997 38.0167 58.7232 38.0167 58.7232C37.9402 58.7232 37.9402 58.6467 37.8638 58.6467V58.8762H37.6343V63.1597H36.7929V59.1057H37.8638V58.8762H37.6343H37.8638ZM32.8918 58.8762V58.6467H31.6679C31.6679 58.6467 31.5914 58.7232 31.5149 58.7232C31.5149 58.7232 31.5149 58.7997 31.5149 58.8762V63.3892C31.5149 63.4657 31.5149 63.4657 31.5149 63.5422C31.5914 63.5422 31.6679 63.6187 31.6679 63.6187H32.8918C32.9683 63.6187 33.0448 63.5422 33.0448 63.5422C33.1213 63.4657 33.1213 63.4657 33.1213 63.3892V58.8762C33.1213 58.7997 33.1213 58.7232 33.0448 58.7232C33.0448 58.7232 32.9683 58.6467 32.8918 58.6467V58.8762H32.7388V63.1597H31.8974V59.1057H32.8918V58.8762H32.7388H32.8918ZM27.9963 63.3892V63.1597H27.0019V59.1057H27.7668V63.3892H27.9963V63.1597V63.3892H28.2258V58.8762C28.2258 58.7997 28.1493 58.7232 28.1493 58.7232C28.0728 58.7232 28.0728 58.6467 27.9963 58.6467H26.7724C26.696 58.6467 26.696 58.7232 26.6195 58.7232C26.6195 58.7232 26.543 58.7997 26.543 58.8762V63.3892C26.543 63.4657 26.6195 63.4657 26.6195 63.5422C26.696 63.5422 26.696 63.6187 26.7724 63.6187H27.9963C28.0728 63.6187 28.0728 63.5422 28.1493 63.5422C28.1493 63.4657 28.2258 63.4657 28.2258 63.3892H27.9963Z" fill="black"/>
<path d="M37.2515 124.124V123.971C35.4157 123.971 33.7328 123.206 32.509 121.982C31.2851 120.758 30.5202 119.075 30.5202 117.239C30.5202 115.403 31.2851 113.721 32.509 112.497C33.7328 111.349 35.4157 110.584 37.2515 110.584C39.0873 110.584 40.7701 111.349 41.994 112.497C43.1413 113.721 43.9063 115.403 43.9063 117.239C43.9063 119.075 43.1413 120.758 41.994 121.982C40.7701 123.206 39.0873 123.971 37.2515 123.971V124.353C41.1525 124.353 44.3652 121.217 44.3652 117.239C44.3652 113.338 41.1525 110.126 37.2515 110.126C33.2739 110.126 30.1377 113.338 30.1377 117.239C30.1377 121.217 33.2739 124.353 37.2515 124.353V124.124ZM37.2515 106.377V106.148C31.1321 106.148 26.1602 111.12 26.1602 117.239C26.1602 123.359 31.1321 128.331 37.2515 128.331C43.3708 128.331 48.3428 123.359 48.3428 117.239C48.3428 111.12 43.3708 106.148 37.2515 106.148V106.53C40.1582 106.53 42.8354 107.754 44.8242 109.667C46.7364 111.655 47.9603 114.333 47.9603 117.239C47.9603 120.222 46.7364 122.9 44.8242 124.812C42.8354 126.724 40.1582 127.948 37.2515 127.948C34.2683 127.948 31.5911 126.724 29.6788 124.812C27.7665 122.9 26.5426 120.222 26.5426 117.239C26.5426 114.333 27.7665 111.655 29.6788 109.667C31.5911 107.754 34.2683 106.53 37.2515 106.53V106.377Z" fill="black"/>
<path d="M37.4814 106.377H37.252V110.355C37.252 110.508 37.3284 110.584 37.4814 110.584C41.0765 110.661 43.9067 113.644 43.9067 117.239C43.9067 119.075 43.2183 120.758 41.9944 121.982C41.918 121.982 41.918 122.058 41.918 122.135C41.918 122.211 41.9944 122.211 41.9944 122.288L45.1306 124.735C45.2071 124.812 45.3601 124.812 45.4366 124.735C47.2724 122.747 48.3433 120.146 48.3433 117.239C48.3433 111.196 43.5243 106.301 37.4814 106.148C37.4049 106.148 37.3284 106.148 37.3284 106.224C37.252 106.224 37.252 106.301 37.252 106.377H37.4814V106.607C43.2948 106.683 47.9608 111.426 47.9608 117.239C47.9608 120.069 46.8899 122.594 45.1306 124.506L45.2836 124.582L45.4366 124.429L42.3004 121.905L42.1474 122.135L42.3004 122.211C43.5243 120.987 44.3657 119.228 44.3657 117.239C44.3657 113.415 41.306 110.279 37.4814 110.202V110.355H37.6344V106.377H37.4814V106.607V106.377Z" fill="black"/>
<path d="M33.1979 117.01H41.0001C41.1531 117.01 41.2295 116.933 41.2295 116.78C41.2295 116.704 41.1531 116.627 41.0001 116.627H33.1979C33.1214 116.627 33.0449 116.704 33.0449 116.78C33.0449 116.933 33.1214 117.01 33.1979 117.01Z" fill="black"/>
<path d="M33.1979 118.999H41.0001C41.1531 118.999 41.2295 118.922 41.2295 118.846C41.2295 118.693 41.1531 118.616 41.0001 118.616H33.1979C33.1214 118.616 33.0449 118.693 33.0449 118.846C33.0449 118.922 33.1214 118.999 33.1979 118.999Z" fill="black"/>
<path d="M136.155 68.5141H157.343C157.42 68.5141 157.573 68.4376 157.573 68.3611C157.573 68.2081 157.42 68.1316 157.343 68.1316H136.155C136.002 68.1316 135.926 68.2081 135.926 68.3611C135.926 68.4376 136.002 68.5141 136.155 68.5141Z" fill="black"/>
<path d="M127.665 68.5141H129.883C129.96 68.5141 130.036 68.4376 130.036 68.3611C130.036 68.2081 129.96 68.1316 129.883 68.1316H127.665C127.589 68.1316 127.436 68.2081 127.436 68.3611C127.436 68.4376 127.589 68.5141 127.665 68.5141Z" fill="black"/>
<path d="M143.192 71.8798H157.343C157.42 71.8798 157.573 71.8033 157.573 71.6503C157.573 71.5738 157.42 71.4973 157.343 71.4973H143.192C143.116 71.4973 142.963 71.5738 142.963 71.6503C142.963 71.8033 143.116 71.8798 143.192 71.8798Z" fill="black"/>
<path d="M127.665 71.8798H130.036C130.113 71.8798 130.266 71.8033 130.266 71.6503C130.266 71.5738 130.113 71.4973 130.036 71.4973H127.665C127.589 71.4973 127.436 71.5738 127.436 71.6503C127.436 71.8033 127.589 71.8798 127.665 71.8798Z" fill="black"/>
<path d="M150.001 75.2455H157.344C157.421 75.2455 157.574 75.169 157.574 75.016C157.574 74.9395 157.421 74.863 157.344 74.863H150.001C149.848 74.863 149.771 74.9395 149.771 75.016C149.771 75.169 149.848 75.2455 150.001 75.2455Z" fill="black"/>
<path d="M127.665 75.2455H129.883C129.96 75.2455 130.036 75.169 130.036 75.016C130.036 74.9395 129.96 74.863 129.883 74.863H127.665C127.589 74.863 127.436 74.9395 127.436 75.016C127.436 75.169 127.589 75.2455 127.665 75.2455Z" fill="black"/>
<path d="M156.043 78.611H157.343C157.42 78.611 157.573 78.5345 157.573 78.3815C157.573 78.305 157.42 78.2285 157.343 78.2285H156.043C155.89 78.2285 155.813 78.305 155.813 78.3815C155.813 78.5345 155.89 78.611 156.043 78.611Z" fill="black"/>
<path d="M127.665 78.611H129.883C129.96 78.611 130.036 78.5345 130.036 78.3815C130.036 78.305 129.96 78.2285 129.883 78.2285H127.665C127.589 78.2285 127.436 78.305 127.436 78.3815C127.436 78.5345 127.589 78.611 127.665 78.611Z" fill="black"/>
<path d="M156.043 82.5121H157.343C157.42 82.5121 157.573 82.4356 157.573 82.3591C157.573 82.2061 157.42 82.1296 157.343 82.1296H156.043C155.89 82.1296 155.813 82.2061 155.813 82.3591C155.813 82.4356 155.89 82.5121 156.043 82.5121Z" fill="black"/>
<path d="M127.665 82.5121H129.883C129.96 82.5121 130.036 82.4356 130.036 82.3591C130.036 82.2061 129.96 82.1296 129.883 82.1296H127.665C127.589 82.1296 127.436 82.2061 127.436 82.3591C127.436 82.4356 127.589 82.5121 127.665 82.5121Z" fill="black"/>
<path d="M156.043 86.4897H157.343C157.42 86.4897 157.573 86.3367 157.573 86.2602C157.573 86.1073 157.42 86.0308 157.343 86.0308H156.043C155.89 86.0308 155.813 86.1073 155.813 86.2602C155.813 86.3367 155.89 86.4897 156.043 86.4897Z" fill="black"/>
<path d="M127.665 86.4897H129.883C129.96 86.4897 130.036 86.3367 130.036 86.2602C130.036 86.1073 129.96 86.0308 129.883 86.0308H127.665C127.589 86.0308 127.436 86.1073 127.436 86.2602C127.436 86.3367 127.589 86.4897 127.665 86.4897Z" fill="black"/>
<path d="M135.314 86.6428V86.4133H130.648V66.2194H135.161V86.6428H135.314V86.4133V86.6428H135.544V65.99C135.544 65.9135 135.544 65.9135 135.467 65.837C135.467 65.837 135.391 65.7605 135.314 65.7605H130.419C130.342 65.7605 130.342 65.837 130.266 65.837C130.266 65.9135 130.189 65.9135 130.189 65.99V86.6428L130.266 86.7192C130.342 86.7957 130.342 86.7957 130.419 86.7957H135.314C135.391 86.7957 135.467 86.7957 135.467 86.7192C135.544 86.7192 135.544 86.6428 135.544 86.6428H135.314Z" fill="black"/>
<path d="M142.046 86.6426V86.4131H137.38V70.0438H141.893V86.6426H142.046V86.4131V86.6426H142.275V69.8909C142.275 69.8144 142.275 69.7379 142.199 69.7379C142.199 69.6614 142.122 69.6614 142.046 69.6614H137.15C137.074 69.6614 137.074 69.6614 136.997 69.7379C136.997 69.7379 136.921 69.8144 136.921 69.8909V86.6426L136.997 86.719C137.074 86.7955 137.074 86.7955 137.15 86.7955H142.046C142.122 86.7955 142.199 86.7955 142.199 86.719C142.275 86.719 142.275 86.6426 142.275 86.6426H142.046Z" fill="black"/>
<path d="M148.776 86.6427V86.4132H144.11V73.7155H148.623V86.6427H148.776V86.4132V86.6427H149.006V73.4861C149.006 73.4096 149.006 73.4096 148.929 73.3331C148.929 73.3331 148.853 73.2566 148.776 73.2566H143.881C143.804 73.2566 143.804 73.3331 143.728 73.3331C143.728 73.4096 143.651 73.4096 143.651 73.4861V86.6427L143.728 86.7191C143.804 86.7956 143.804 86.7956 143.881 86.7956H148.776C148.853 86.7956 148.929 86.7956 148.929 86.7191C149.006 86.7191 149.006 86.6427 149.006 86.6427H148.776Z" fill="black"/>
<path d="M155.508 86.6427V86.4132H150.842V78.3816H155.355V86.6427H155.508V86.4132V86.6427H155.737V78.1521C155.737 78.0756 155.737 78.0756 155.661 77.9991C155.661 77.9991 155.584 77.9226 155.508 77.9226H150.612C150.536 77.9226 150.536 77.9991 150.459 77.9991C150.459 78.0756 150.383 78.0756 150.383 78.1521V86.6427L150.459 86.7192C150.536 86.7957 150.536 86.7957 150.612 86.7957H155.508C155.584 86.7957 155.661 86.7957 155.661 86.7192C155.737 86.7192 155.737 86.6427 155.737 86.6427H155.508Z" fill="black"/>
<path d="M44.5949 19.5595C42.5296 18.0296 40.0054 17.1882 37.2517 17.1882C30.4439 17.1882 24.9365 22.6191 24.9365 29.4269C24.9365 36.2347 30.4439 41.7421 37.2517 41.7421C43.983 41.7421 49.4904 36.2347 49.4904 29.4269C49.4904 26.2143 48.2665 23.2311 46.2012 21.0893C46.1248 21.0128 46.0483 21.0128 45.8953 21.0893C45.8188 21.1658 45.8188 21.2423 45.8953 21.3188C47.8841 23.4606 49.1079 26.2908 49.1079 29.4269C49.1079 32.7161 47.8076 35.6992 45.6658 37.841C43.4475 39.9828 40.5408 41.2831 37.2517 41.2831C33.9626 41.2831 30.9794 39.9828 28.8376 37.841C26.6958 35.6992 25.3955 32.7161 25.3955 29.4269C25.3955 26.1378 26.6958 23.2311 28.8376 21.0128C30.9794 18.8711 33.9626 17.5707 37.2517 17.5707C39.9289 17.5707 42.3767 18.4121 44.3654 19.9419C44.4419 20.0184 44.5184 19.9419 44.5949 19.8654C44.6714 19.789 44.6714 19.636 44.5949 19.5595Z" fill="black"/>
<path d="M31.3621 35.0871C32.892 36.617 34.9573 37.6114 37.252 37.6114C41.765 37.6114 45.3601 33.9397 45.3601 29.4267C45.3601 24.9137 41.765 21.3186 37.252 21.3186C32.739 21.3186 29.0674 24.9137 29.0674 29.4267C29.0674 31.1096 29.6028 32.6394 30.4442 33.9397C30.5207 34.0162 30.5972 34.0162 30.7502 34.0162C30.8267 33.9397 30.8267 33.7868 30.7502 33.7103C29.9853 32.4864 29.5263 31.0331 29.5263 29.4267C29.5263 27.285 30.3677 25.3727 31.7446 23.9958C33.1979 22.5425 35.1102 21.7011 37.252 21.7011C39.3938 21.7011 41.3061 22.5425 42.6829 23.9958C44.1363 25.3727 44.9777 27.285 44.9777 29.4267C44.9777 31.5685 44.1363 33.4808 42.6829 34.9341C41.3061 36.311 39.3938 37.1524 37.252 37.1524C35.0337 37.1524 33.1214 36.311 31.6681 34.8577C31.5916 34.7812 31.5151 34.7812 31.3621 34.8577C31.2856 34.9341 31.2856 35.0106 31.3621 35.0871Z" fill="black"/>
<path d="M41.3822 29.4267H41.6117C41.6117 27.0554 39.6229 25.0667 37.2516 25.0667C34.8039 25.0667 32.8916 27.0554 32.8916 29.4267C32.8916 31.8744 34.8039 33.7867 37.2516 33.7867C39.6229 33.7867 41.6117 31.8744 41.6117 29.4267H41.1527C41.1527 30.4976 40.6938 31.492 40.0053 32.2569C39.3169 32.9453 38.3225 33.4043 37.2516 33.4043C36.1807 33.4043 35.1864 32.9453 34.4214 32.2569C33.733 31.492 33.2741 30.4976 33.2741 29.4267C33.2741 28.3558 33.733 27.3614 34.4214 26.673C35.1864 25.9081 36.1807 25.5256 37.2516 25.5256C38.3225 25.5256 39.3169 25.9081 40.0053 26.673C40.6938 27.3614 41.1527 28.3558 41.1527 29.4267H41.3822Z" fill="black"/>
<path d="M142.657 111.808C143.957 112.038 144.569 113.032 144.569 114.562V114.868H143.422V114.486C143.422 113.491 143.039 112.879 142.198 112.879C141.28 112.879 140.898 113.491 140.898 114.486C140.898 116.933 144.569 116.933 144.569 119.993C144.569 121.446 143.957 122.517 142.657 122.747V123.588H141.663V122.747C140.286 122.517 139.674 121.523 139.674 119.993V119.305H140.821V120.07C140.821 121.064 141.204 121.676 142.122 121.676C142.963 121.676 143.345 121.064 143.345 120.07C143.345 117.622 139.674 117.622 139.674 114.562C139.674 113.032 140.286 112.038 141.663 111.808V110.967H142.657V111.808Z" fill="black"/>
<path d="M146.176 126.724C147.018 126.342 147.783 125.959 148.394 125.424C148.471 125.347 148.547 125.194 148.471 125.118C148.394 125.041 148.241 125.041 148.165 125.118C147.553 125.577 146.788 126.036 146.023 126.342C145.947 126.418 145.87 126.495 145.947 126.571C146.023 126.724 146.1 126.724 146.176 126.724Z" fill="black"/>
<path d="M138.451 107.601C134.626 109.131 131.796 112.879 131.796 117.239C131.796 122.976 136.462 127.566 142.122 127.566C142.811 127.566 143.576 127.489 144.188 127.336C144.341 127.336 144.417 127.183 144.341 127.107C144.341 126.954 144.264 126.954 144.111 126.954C143.499 127.107 142.811 127.107 142.122 127.107C139.369 127.107 136.921 126.036 135.162 124.277C133.326 122.441 132.255 119.993 132.255 117.239C132.255 113.032 134.932 109.437 138.604 107.984C138.757 107.984 138.757 107.831 138.757 107.754C138.68 107.601 138.604 107.601 138.451 107.601Z" fill="black"/>
<path d="M149.694 124.2C151.377 122.364 152.448 119.917 152.448 117.239C152.448 111.579 147.782 106.99 142.122 106.99C141.28 106.99 140.439 107.066 139.597 107.295C139.521 107.295 139.444 107.448 139.444 107.525C139.444 107.601 139.597 107.678 139.674 107.678C140.515 107.448 141.28 107.372 142.122 107.372C144.875 107.372 147.323 108.443 149.082 110.279C150.918 112.038 151.989 114.562 151.989 117.239C151.989 119.84 150.995 122.211 149.388 123.971C149.312 124.047 149.312 124.124 149.388 124.2C149.541 124.277 149.618 124.277 149.694 124.2Z" fill="black"/>
<path d="M150.383 117.239H150.612C150.612 112.573 146.787 108.749 142.121 108.749C137.455 108.749 133.631 112.573 133.631 117.239C133.631 121.905 137.455 125.73 142.121 125.73C146.787 125.73 150.612 121.905 150.612 117.239H150.23C150.23 119.458 149.312 121.523 147.858 122.976C146.405 124.43 144.34 125.347 142.121 125.347C139.903 125.347 137.914 124.43 136.385 122.976C134.931 121.523 134.09 119.458 134.09 117.239C134.09 115.021 134.931 113.032 136.385 111.579C137.914 110.126 139.903 109.208 142.121 109.208C144.34 109.208 146.405 110.126 147.858 111.579C149.312 113.032 150.23 115.021 150.23 117.239H150.383Z" fill="black"/>
<path d="M88.501 77.1577V81.7472H96.1502V76.3928L88.501 77.1577Z" fill="#FEFEFE"/>
<path d="M88.501 77.1577H88.2715V81.7472C88.2715 81.8237 88.348 81.9002 88.348 81.9002C88.4245 81.9767 88.4245 81.9767 88.501 81.9767H96.1501C96.1501 81.9767 96.2266 81.9767 96.2266 81.9002C96.3031 81.9002 96.3031 81.8237 96.3031 81.7472V76.3928C96.3031 76.3163 96.3031 76.3163 96.2266 76.2398C96.2266 76.2398 96.1501 76.1633 96.0736 76.2398L88.501 76.9282C88.348 76.9282 88.2715 77.0047 88.2715 77.1577H88.501V77.3107L95.9207 76.6223V81.5177H88.7304V77.1577H88.501V77.3107V77.1577Z" fill="black"/>
<path d="M86.4357 72.6448C86.4357 72.6448 84.5999 71.4209 85.2118 73.5627C85.8237 75.6279 86.4357 76.4693 87.3536 76.3929C88.195 76.2399 88.7304 75.9339 88.4245 75.169C88.1185 74.3276 86.4357 72.6448 86.4357 72.6448Z" fill="#FEFEFE"/>
<path d="M86.4361 72.6446L86.5126 72.4916C86.5126 72.4916 86.4361 72.4151 86.2066 72.2621C86.0536 72.1856 85.7477 72.1091 85.5182 72.1091C85.3652 72.1091 85.2122 72.1856 85.0592 72.2621C84.9827 72.4151 84.9062 72.6446 84.9062 72.874C84.9062 73.027 84.9062 73.333 85.0592 73.639C85.2887 74.6334 85.5947 75.3218 85.9771 75.8572C86.1301 76.0867 86.2831 76.2397 86.5126 76.3927C86.7421 76.5457 86.9715 76.5457 87.201 76.5457C87.201 76.5457 87.2775 76.5457 87.354 76.5457C87.7364 76.5457 88.0424 76.4692 88.2719 76.3162C88.4249 76.2397 88.5014 76.1632 88.5779 76.0102C88.6543 75.8572 88.7308 75.7042 88.7308 75.5513C88.7308 75.3983 88.6543 75.2453 88.6543 75.0923C88.5014 74.8628 88.3484 74.5569 88.1189 74.3274C87.507 73.486 86.5891 72.4916 86.5891 72.4916H86.5126L86.4361 72.6446L86.2831 72.7976C86.2831 72.7976 86.3596 72.874 86.5126 73.1035C86.8185 73.333 87.201 73.7155 87.507 74.1744C87.8129 74.5569 88.1189 75.0158 88.2719 75.2453C88.2719 75.3983 88.3484 75.4748 88.3484 75.5513C88.3484 75.7042 88.2719 75.7042 88.2719 75.7807C88.1954 75.8572 88.1189 75.9337 87.9659 76.0102C87.8129 76.0867 87.5835 76.1632 87.2775 76.1632H87.201C87.048 76.1632 86.895 76.1632 86.7421 76.0102C86.5126 75.9337 86.2831 75.6278 86.0536 75.2453C85.8242 74.7863 85.5947 74.2509 85.4417 73.486C85.3652 73.18 85.2887 73.027 85.2887 72.874C85.2887 72.6446 85.3652 72.5681 85.3652 72.5681C85.4417 72.5681 85.4417 72.4916 85.5182 72.4916C85.6712 72.4916 85.9006 72.5681 86.0536 72.6446C86.1301 72.7211 86.2066 72.7211 86.2066 72.7976H86.2831L86.4361 72.6446L86.2831 72.7976L86.4361 72.6446Z" fill="black"/>
<path d="M98.4453 72.6448C98.4453 72.6448 100.281 71.4209 99.6692 73.5627C99.0573 75.6279 98.4453 76.4693 97.6039 76.3929C96.686 76.2399 96.1506 75.9339 96.4565 75.169C96.7625 74.3276 98.4453 72.6448 98.4453 72.6448Z" fill="#FEFEFE"/>
<path d="M98.4451 72.6446L98.5981 72.7976C98.6746 72.7976 98.7511 72.7211 98.9041 72.6446C99.0571 72.5681 99.2866 72.4916 99.363 72.4916C99.4395 72.4916 99.516 72.5681 99.516 72.5681C99.516 72.5681 99.5925 72.6446 99.5925 72.874C99.5925 73.027 99.5925 73.18 99.516 73.486C99.2101 74.4804 98.9041 75.1688 98.5981 75.6278C98.4451 75.7807 98.2922 75.9337 98.2157 76.0102C98.0627 76.1632 97.9097 76.1632 97.6802 76.1632H97.6037C97.2213 76.0867 96.9918 76.0867 96.8388 75.9337C96.7623 75.9337 96.6858 75.8572 96.6093 75.7807C96.6093 75.7042 96.6093 75.7042 96.6093 75.5513C96.6093 75.4748 96.6093 75.3983 96.6858 75.2453C96.6858 75.0923 96.9153 74.7863 97.0683 74.5569C97.3743 74.1744 97.7567 73.7155 98.0627 73.4095C98.2157 73.18 98.3687 73.027 98.4451 72.9505C98.5981 72.874 98.5981 72.7976 98.5981 72.7976L98.4451 72.6446L98.5981 72.7976L98.4451 72.6446L98.2922 72.4916C98.2922 72.4916 97.9097 72.9505 97.4508 73.486C97.2213 73.7155 96.9153 74.0214 96.7623 74.3274C96.5328 74.5569 96.3799 74.8628 96.3034 75.0923C96.2269 75.2453 96.1504 75.3983 96.1504 75.5513C96.1504 75.7042 96.2269 75.8572 96.3034 76.0102C96.3799 76.1632 96.6093 76.3162 96.8388 76.3927C96.9918 76.4692 97.2978 76.5457 97.5272 76.5457C97.6037 76.5457 97.6802 76.5457 97.6802 76.5457C97.9862 76.5457 98.2157 76.5457 98.3687 76.3927C98.6746 76.1632 98.9806 75.8572 99.2101 75.3983C99.4395 74.9393 99.669 74.4039 99.8985 73.639C99.975 73.333 99.975 73.027 99.975 72.874C99.975 72.6446 99.975 72.4151 99.822 72.2621C99.669 72.1856 99.516 72.1091 99.363 72.1091C99.1336 72.1091 98.9041 72.1856 98.6746 72.2621C98.5216 72.4151 98.3687 72.4916 98.3687 72.4916H98.2922L98.4451 72.6446Z" fill="black"/>
<path d="M90.3367 63.0068C90.3367 63.0068 87.3535 64.0777 86.3591 66.8314C85.2882 69.6616 86.2061 73.0272 86.7416 74.4805C87.2005 75.8574 89.6483 78.5346 89.6483 78.5346H95.0792C95.0792 78.5346 97.068 76.6988 98.1388 74.1746C99.2862 71.6503 99.2862 68.1317 99.2862 68.1317C99.2862 68.1317 100.128 68.4377 100.128 67.2138C100.128 66.0664 97.3739 63.7717 97.3739 63.7717C97.3739 63.7717 98.6743 63.2362 97.7564 62.5478C96.8385 61.8594 93.6258 62.1654 93.6258 62.1654C93.6258 62.1654 93.2434 60.0236 90.3367 63.0068Z" fill="black"/>
<path d="M90.3369 63.0066L90.2604 62.8536C90.2604 62.8536 89.4955 63.0831 88.5776 63.6951C87.6597 64.307 86.6653 65.3014 86.1298 66.7547C85.8239 67.7491 85.6709 68.7435 85.6709 69.7379C85.6709 71.7267 86.2063 73.5625 86.5123 74.5569C86.8183 75.2453 87.5067 76.3162 88.1951 77.1576C88.8836 77.999 89.4955 78.6874 89.4955 78.6874C89.4955 78.7639 89.572 78.7639 89.6485 78.7639H95.0794C95.0794 78.7639 95.1559 78.7639 95.1559 78.6874C95.2324 78.6874 97.2212 76.7751 98.3685 74.2509C99.4394 71.6502 99.4394 68.1316 99.4394 68.1316H99.2864L99.2099 68.3611C99.2099 68.3611 99.2864 68.3611 99.5159 68.3611C99.6689 68.3611 99.8984 68.3611 100.051 68.1316C100.281 67.9786 100.357 67.6726 100.357 67.2137C100.357 66.8312 100.128 66.4488 99.8984 66.0663C99.057 64.8424 97.4506 63.6186 97.4506 63.6186L97.3741 63.7715L97.4506 63.9245C97.4506 63.9245 97.6036 63.848 97.8331 63.6951C97.9096 63.6186 98.0626 63.5421 98.1391 63.4656C98.2156 63.3126 98.292 63.2361 98.292 63.0066C98.292 62.7772 98.1391 62.5477 97.9096 62.3947C97.6036 62.1652 97.1447 62.0122 96.6857 61.9357C96.1503 61.8592 95.6148 61.8592 95.1559 61.8592C94.3145 61.8592 93.626 61.9357 93.626 61.9357V62.1652L93.8555 62.0887C93.8555 62.0887 93.779 61.8592 93.626 61.6298C93.5496 61.5533 93.4731 61.4768 93.3201 61.3238C93.1671 61.2473 93.0141 61.2473 92.7846 61.2473C92.4787 61.2473 92.1727 61.3238 91.7137 61.5533C91.3313 61.8592 90.7958 62.2417 90.1839 62.9301L90.3369 63.0066L90.2604 62.8536L90.3369 63.0066L90.4899 63.1596C91.1018 62.5477 91.5608 62.1652 91.9432 61.9357C92.3257 61.7063 92.6317 61.6298 92.7846 61.6298C92.9376 61.6298 93.0141 61.6298 93.0906 61.7063C93.2436 61.7828 93.3201 61.8592 93.3966 62.0122C93.3966 62.0122 93.3966 62.0887 93.3966 62.1652H93.4731C93.4731 62.2417 93.5496 62.3182 93.626 62.3182C93.626 62.3182 93.8555 62.3182 94.085 62.3182C94.391 62.3182 94.7734 62.2417 95.1559 62.2417C95.6148 62.2417 96.1503 62.3182 96.6092 62.3947C97.0682 62.3947 97.4506 62.5477 97.6036 62.7007C97.8331 62.8536 97.8331 63.0066 97.8331 63.0066C97.8331 63.0831 97.8331 63.1596 97.7566 63.2361C97.7566 63.3126 97.6036 63.3891 97.4506 63.4656C97.4506 63.4656 97.3741 63.5421 97.2977 63.5421C97.2212 63.5421 97.1447 63.6186 97.1447 63.6951C97.1447 63.7715 97.1447 63.848 97.2212 63.9245C97.2212 63.9245 97.2212 63.9245 97.2977 64.001C97.6036 64.2305 98.292 64.8424 98.8275 65.4544C99.1335 65.7603 99.4394 66.1428 99.6689 66.4488C99.8219 66.7547 99.9749 67.0607 99.9749 67.2137C99.9749 67.5961 99.8219 67.7491 99.7454 67.9021C99.6689 67.9786 99.5924 67.9786 99.5159 67.9786C99.4394 67.9786 99.3629 67.9786 99.3629 67.9786H99.2864C99.2864 67.9021 99.2099 67.9786 99.1335 67.9786C99.057 68.0551 99.057 68.0551 99.057 68.1316C99.057 68.1316 99.057 68.2081 99.057 68.2846C99.057 68.973 98.904 71.9562 97.9861 74.0979C97.4506 75.3218 96.6857 76.3927 95.9973 77.1576C95.6913 77.5401 95.4618 77.846 95.2324 78.0755C95.1559 78.2285 95.0794 78.305 95.0029 78.305C94.9264 78.3815 94.9264 78.3815 94.9264 78.3815L95.0794 78.5345V78.3815H89.6485V78.5345L89.8015 78.458C89.8015 78.458 89.725 78.3815 89.6485 78.305C89.419 78.0755 88.8836 77.3871 88.2716 76.6222C87.7362 75.8572 87.1242 74.9393 86.8948 74.4039C86.5888 73.486 86.0534 71.6502 86.0534 69.7379C86.0534 68.7435 86.2063 67.8256 86.5123 66.9077C86.9713 65.5309 87.9657 64.613 88.8071 64.0775C89.266 63.7715 89.6485 63.5421 89.9544 63.3891C90.1074 63.3891 90.1839 63.3126 90.2604 63.3126C90.3369 63.2361 90.3369 63.2361 90.3369 63.2361H90.4134L90.4899 63.1596L90.3369 63.0066Z" fill="black"/>
<path d="M102.193 178.127L103.035 178.662C103.035 178.662 103.953 178.662 104.488 179.198C104.947 179.657 104.794 182.258 104.794 182.258C104.794 182.258 104.335 182.563 102.423 182.563C100.434 182.563 96.1504 183.022 95.7679 182.334C95.309 181.569 95.8444 178.586 95.8444 178.586L102.193 178.127Z" fill="black"/>
<path d="M102.194 178.127L102.041 178.356L102.882 178.815C102.958 178.892 102.958 178.892 103.035 178.892C103.111 178.892 103.341 178.892 103.57 178.968C103.876 179.045 104.106 179.121 104.335 179.351C104.335 179.351 104.412 179.427 104.412 179.58C104.565 179.963 104.641 180.651 104.641 181.187C104.641 181.492 104.565 181.722 104.565 181.951C104.565 182.104 104.565 182.257 104.565 182.257H104.794L104.641 182.104L104.718 182.181L104.641 182.104L104.718 182.181L104.641 182.104C104.641 182.104 104.641 182.104 104.565 182.104C104.335 182.181 103.8 182.334 102.423 182.334C101.276 182.334 99.4398 182.487 97.91 182.487C97.3745 182.487 96.9156 182.487 96.5331 182.41C96.3036 182.41 96.1507 182.334 96.0742 182.334C95.9977 182.257 95.9212 182.181 95.9212 182.181C95.8447 182.104 95.8447 182.028 95.8447 181.798C95.7682 181.645 95.7682 181.416 95.7682 181.187C95.7682 180.651 95.8447 179.963 95.9212 179.504C95.9212 179.198 95.9212 178.968 95.9977 178.815C95.9977 178.662 95.9977 178.586 95.9977 178.586H95.8447V178.739L102.194 178.356V178.127L102.041 178.356L102.194 178.127V177.974L95.7682 178.356C95.6917 178.356 95.6152 178.433 95.6152 178.509C95.6152 178.509 95.3857 180.039 95.3857 181.187C95.3857 181.416 95.3857 181.645 95.3857 181.875C95.4622 182.104 95.4622 182.257 95.5387 182.41C95.6152 182.563 95.7682 182.64 95.9212 182.716C96.1507 182.793 96.4566 182.793 96.7626 182.869C97.1451 182.869 97.5275 182.946 97.91 182.946C99.4398 182.946 101.276 182.716 102.423 182.716C104.412 182.716 104.794 182.487 104.871 182.41C104.947 182.41 104.947 182.334 104.947 182.257C104.947 182.257 105.024 181.798 105.024 181.187C105.024 180.804 105.024 180.345 104.947 179.963C104.947 179.81 104.871 179.58 104.794 179.427C104.794 179.274 104.718 179.121 104.565 179.045C104.259 178.739 103.876 178.586 103.57 178.509C103.264 178.433 103.035 178.433 103.035 178.433V178.662L103.111 178.509L102.27 177.974H102.194V178.127Z" fill="black"/>
<path d="M79.6282 113.415C79.6282 113.415 79.0162 118.004 79.0162 118.922C79.0162 119.84 78.8632 127.872 78.8632 127.872C78.8632 127.872 78.9397 148.907 78.9397 149.366C78.9397 149.748 77.1804 155.485 77.7924 159.386C78.4043 163.364 79.6282 178.356 79.6282 178.356C79.6282 178.356 79.2457 181.645 79.5517 181.951C79.8576 182.257 83.6822 182.64 84.5236 182.257C85.2886 181.875 84.8296 177.821 84.8296 177.821C84.8296 177.821 85.2886 176.062 85.2886 174.838C85.2886 173.614 85.2886 172.619 85.2886 171.549C85.2886 170.554 85.824 161.375 86.3594 157.78C86.8949 154.185 87.2008 149.366 87.2008 149.366L89.3426 127.107L90.9489 127.03C90.9489 127.03 93.0142 150.896 93.1672 152.655C93.2437 154.414 92.8612 157.856 93.7791 161.911C94.697 165.888 95.156 176.826 95.156 176.826C95.156 176.826 95.003 177.821 95.156 178.28C95.3855 178.662 95.9209 179.886 95.9209 179.886C95.9209 179.886 96.7623 179.963 98.0627 179.886C99.2101 179.81 99.8985 179.657 101.352 178.968C102.117 178.28 102.423 177.362 102.04 176.444C101.428 174.914 101.122 174.685 101.122 174.685C101.122 174.685 102.117 161.681 102.117 158.468C102.117 155.332 101.581 151.431 101.581 151.125C101.581 150.819 102.193 127.642 102.193 125.271C102.193 122.9 101.964 116.551 100.969 113.721C99.8985 110.967 83.4527 111.732 81.8464 111.808C80.1636 111.885 79.6282 113.415 79.6282 113.415Z" fill="#FF4935"/>
<path d="M79.6281 113.415H79.4751C79.4751 113.415 79.3221 114.562 79.1691 115.786C79.0927 116.398 79.0162 117.086 78.9397 117.622C78.8632 118.157 78.8632 118.616 78.8632 118.922C78.8632 119.381 78.7867 121.599 78.7102 123.741C78.7102 124.736 78.7102 125.806 78.6337 126.571C78.6337 127.336 78.6337 127.872 78.6337 127.872C78.6337 127.872 78.6337 128.178 78.6337 128.79C78.6337 132.767 78.7102 148.983 78.7102 149.366C78.7102 149.366 78.7102 149.442 78.7102 149.595C78.4042 150.743 77.4863 154.338 77.4863 157.551C77.4863 158.239 77.4863 158.851 77.6393 159.463C77.9453 161.375 78.4042 166.118 78.7867 170.401C78.9397 172.466 79.0927 174.455 79.2456 175.985C79.3221 176.674 79.3986 177.285 79.3986 177.744C79.3986 178.127 79.4751 178.356 79.4751 178.356C79.4751 178.356 79.2456 180.039 79.2456 181.187C79.2456 181.34 79.2456 181.569 79.2456 181.722C79.2456 181.798 79.3221 181.875 79.3221 181.875C79.3221 181.951 79.3221 182.028 79.3986 182.104C79.4751 182.181 79.5516 182.181 79.6281 182.257C79.9341 182.334 80.4695 182.41 81.1579 182.487C81.7699 182.563 82.4583 182.64 83.1467 182.64C83.4527 182.64 83.6822 182.64 83.9881 182.563C84.2176 182.563 84.4471 182.563 84.6001 182.41C84.753 182.334 84.8295 182.257 84.906 182.104C84.9825 181.875 85.059 181.569 85.1355 181.263C85.1355 180.957 85.1355 180.575 85.1355 180.269C85.1355 179.045 84.9825 177.821 84.9825 177.821H84.8295L84.9825 177.897C84.9825 177.897 85.518 176.138 85.518 174.838C85.518 173.614 85.518 172.619 85.518 171.549C85.518 171.09 85.6709 168.489 85.8239 165.659C86.0534 162.752 86.2829 159.616 86.5124 157.78C87.0478 154.185 87.3538 149.366 87.3538 149.366L89.4955 127.336L91.0254 127.26L90.9489 127.03H90.7959C90.7959 127.03 90.7959 127.413 90.8724 128.101C91.2549 132.691 92.8612 151.125 92.9377 152.655C92.9377 152.885 92.9377 153.114 92.9377 153.42C92.9377 154.032 92.9377 154.797 92.9377 155.715C92.9377 157.474 93.0142 159.616 93.5496 161.911C94.0086 163.899 94.391 167.647 94.6205 170.86C94.7735 172.466 94.85 173.996 94.9265 175.067C94.9265 176.138 95.0029 176.827 95.0029 176.827H95.1559L95.0029 176.75C95.0029 176.75 94.9265 177.209 94.9265 177.668C94.9265 177.897 94.9265 178.127 95.0029 178.356C95.0794 178.509 95.3089 178.968 95.4619 179.274C95.6149 179.657 95.6914 179.963 95.6914 179.963C95.7679 180.039 95.8444 180.116 95.9208 180.116C95.9208 180.116 96.3033 180.116 96.9152 180.116C97.2212 180.116 97.6037 180.116 98.0626 180.116C99.21 180.039 99.9749 179.886 101.505 179.198V179.121C102.04 178.662 102.423 177.974 102.423 177.285C102.423 176.979 102.346 176.674 102.27 176.368C101.581 174.838 101.352 174.532 101.275 174.532L101.122 174.685H101.352C101.352 174.685 101.581 171.396 101.811 167.8C102.04 164.129 102.27 160.075 102.27 158.468C102.27 156.862 102.193 155.103 102.04 153.726C101.964 152.961 101.887 152.349 101.887 151.89C101.811 151.661 101.811 151.508 101.811 151.355C101.811 151.202 101.811 151.125 101.811 151.125C101.811 151.049 101.811 149.519 101.887 147.301C102.04 140.493 102.423 127.03 102.423 125.271C102.423 124.047 102.346 121.905 102.193 119.687C101.964 117.392 101.658 115.098 101.122 113.644C101.046 113.415 100.816 113.185 100.587 112.956C100.051 112.65 99.363 112.42 98.4451 112.191C95.7679 111.579 91.6373 111.426 88.1187 111.426C85.059 111.426 82.3818 111.579 81.7699 111.579C80.9285 111.656 80.3165 112.114 79.9341 112.497C79.6281 112.956 79.4751 113.338 79.4751 113.415H79.6281L79.8576 113.491C79.8576 113.415 80.0106 113.032 80.3165 112.726C80.6225 112.344 81.1579 112.038 81.8464 112.038C82.4583 111.961 85.059 111.808 88.1187 111.808C90.7959 111.808 93.8556 111.961 96.3033 112.267C97.5272 112.42 98.5981 112.573 99.363 112.879C99.7454 113.032 100.051 113.185 100.281 113.338C100.587 113.491 100.663 113.644 100.74 113.797C101.275 115.174 101.581 117.469 101.734 119.687C101.964 121.905 101.964 124.124 101.964 125.271C101.964 126.418 101.811 132.844 101.658 138.963C101.581 142.023 101.505 145.006 101.428 147.224C101.428 149.519 101.352 150.972 101.352 151.125C101.352 151.125 101.352 151.278 101.352 151.355C101.505 152.426 101.887 155.715 101.887 158.468C101.887 160.075 101.658 164.129 101.428 167.724C101.275 169.56 101.199 171.319 101.122 172.543C101.046 173.843 100.969 174.608 100.969 174.608C100.969 174.685 100.969 174.761 101.046 174.761V174.685L100.969 174.761H101.046V174.685L100.969 174.761C101.046 174.761 101.275 175.144 101.887 176.521C101.964 176.75 102.04 177.056 102.04 177.285C102.04 177.821 101.734 178.356 101.275 178.815C99.8219 179.504 99.21 179.58 98.0626 179.657C97.6037 179.733 97.2212 179.733 96.9152 179.733C96.6093 179.733 96.3798 179.733 96.2268 179.733C96.0738 179.733 96.0738 179.733 95.9973 179.733C95.9208 179.657 95.9208 179.657 95.9208 179.657V179.886L96.0738 179.81C96.0738 179.81 95.6149 178.586 95.3854 178.127C95.3089 178.05 95.3089 177.897 95.3089 177.668C95.3089 177.515 95.3089 177.285 95.3854 177.132C95.3854 177.056 95.3854 176.979 95.3854 176.903V176.827C95.3854 176.827 95.2324 174.073 95.0029 170.86C94.7735 167.571 94.391 163.899 93.9321 161.834C93.3966 159.539 93.3201 157.474 93.3201 155.715C93.3201 154.797 93.3966 154.032 93.3966 153.42C93.3966 153.114 93.3201 152.885 93.3201 152.655C93.2436 150.896 91.1784 127.03 91.1784 127.03C91.1784 126.877 91.1019 126.801 90.9489 126.801L89.3426 126.954C89.1896 126.954 89.1131 127.03 89.1131 127.107L86.9713 149.289V149.366C86.9713 149.366 86.9713 149.595 86.8948 150.131C86.8183 151.661 86.5124 155.026 86.1299 157.78C85.9004 159.539 85.5945 162.752 85.4415 165.659C85.212 168.489 85.1355 171.013 85.1355 171.549C85.1355 172.619 85.1355 173.614 85.1355 174.838C85.1355 175.45 84.9825 176.215 84.8295 176.75C84.8295 177.056 84.753 177.285 84.6766 177.515C84.6001 177.668 84.6001 177.744 84.6001 177.744V177.897C84.6001 177.897 84.6001 177.974 84.6001 178.05C84.6766 178.433 84.753 179.351 84.753 180.269C84.753 180.728 84.753 181.187 84.6766 181.493C84.6001 181.645 84.6001 181.798 84.5236 181.875C84.5236 182.028 84.4471 182.028 84.3706 182.104C84.2941 182.104 84.1411 182.181 83.9116 182.181C83.6822 182.181 83.4527 182.257 83.1467 182.257C82.3818 182.257 81.6169 182.181 80.9285 182.104C80.546 182.028 80.24 181.951 80.087 181.951C79.9341 181.875 79.8576 181.875 79.7811 181.875L79.7046 181.798C79.7046 181.798 79.7046 181.722 79.6281 181.569C79.6281 181.493 79.6281 181.34 79.6281 181.187C79.6281 180.651 79.7046 179.963 79.7811 179.351C79.7811 178.815 79.8576 178.356 79.8576 178.356C79.8576 178.356 79.5516 174.608 79.1691 170.325C78.7867 166.118 78.3277 161.375 78.0218 159.386C77.9453 158.851 77.8688 158.239 77.8688 157.551C77.8688 155.791 78.1748 153.802 78.4807 152.273C78.6337 151.508 78.7867 150.819 78.9397 150.284C79.0162 150.054 79.0162 149.825 79.0927 149.672C79.0927 149.595 79.0927 149.519 79.0927 149.519C79.1691 149.442 79.1691 149.366 79.1691 149.366C79.1691 148.907 79.0162 127.872 79.0162 127.872C79.0162 127.872 79.2456 119.84 79.2456 118.922C79.2456 118.693 79.3221 118.234 79.3221 117.698C79.3986 116.857 79.5516 115.786 79.7046 114.945C79.7811 114.103 79.8576 113.491 79.8576 113.491L79.6281 113.415Z" fill="black"/>
<path d="M85.7471 127.183L94.6201 126.801C94.6966 126.724 94.7731 126.648 94.7731 126.571C94.7731 126.418 94.6966 126.342 94.5436 126.342L85.7471 126.801C85.5941 126.801 85.5176 126.877 85.5176 126.954C85.5176 127.107 85.5941 127.183 85.7471 127.183Z" fill="#363636"/>
<path d="M90.8724 81.5178L85.2885 82.8947C85.2885 82.8947 77.2569 86.7958 75.5741 87.8666C73.8147 88.861 66.9305 102.783 67.2364 103.471C67.5424 104.159 68.8428 105.077 70.2196 105.307C71.52 105.536 78.3278 97.8106 78.3278 97.8106C78.3278 97.8106 80.2401 107.449 80.2401 107.907C80.2401 108.29 79.1692 113.262 79.6281 114.027C80.1636 114.868 99.8984 114.027 99.8984 114.027C99.8984 114.027 101.352 114.18 101.581 112.803C101.811 111.503 101.122 107.602 101.122 107.602L103.417 95.7453C103.417 95.7453 107.777 102.324 108.695 103.394C110.378 105.23 112.52 104.465 113.59 103.089C114.585 101.865 113.743 99.5699 113.437 98.805C113.055 98.1165 107.624 85.8779 106.018 85.3424C104.335 84.8835 97.4507 82.3592 97.4507 82.3592L90.8724 81.5178Z" fill="#F48383"/>
<path d="M90.8723 81.5177L90.7958 81.3647L85.2884 82.6651L85.2119 82.7416C85.2119 82.7416 83.2231 83.6595 81.0048 84.8069C78.7866 85.8778 76.3388 87.1016 75.4209 87.6371C75.1915 87.7901 74.8855 88.1725 74.503 88.6315C73.2792 90.2378 71.4434 93.6799 69.837 96.8161C69.0721 98.3459 68.3837 99.8758 67.8482 101.023C67.6188 101.635 67.3893 102.094 67.2363 102.553C67.1598 102.706 67.0833 102.859 67.0833 103.012C67.0068 103.165 67.0068 103.318 67.0068 103.394C67.0068 103.471 67.0068 103.471 67.0068 103.547C67.2363 104.006 67.6188 104.389 68.2307 104.771C68.7661 105.154 69.4546 105.383 70.143 105.536H70.2195C70.3725 105.536 70.5255 105.46 70.6784 105.46C71.2139 105.23 71.9023 104.618 72.7437 103.853C75.1915 101.635 78.4806 97.9635 78.4806 97.9635L78.3276 97.8105H78.0981C78.0981 97.887 78.2511 98.4224 78.4041 99.3403C78.7101 100.717 79.0925 102.782 79.475 104.542C79.628 105.46 79.781 106.225 79.8575 106.837C79.9339 107.142 80.0104 107.372 80.0104 107.601C80.0104 107.678 80.0869 107.754 80.0869 107.831V107.907C80.0869 107.907 80.0869 107.984 80.0104 108.137C79.9339 108.519 79.781 109.437 79.628 110.432C79.475 111.426 79.322 112.497 79.322 113.262C79.322 113.415 79.322 113.644 79.322 113.797C79.3985 113.95 79.3985 114.027 79.475 114.18C79.5515 114.256 79.5515 114.256 79.628 114.256C79.7045 114.333 79.781 114.333 79.9339 114.409C80.3164 114.486 81.0048 114.562 81.9227 114.562C82.7641 114.639 83.9115 114.639 85.1354 114.639C91.1782 114.639 99.8983 114.256 99.8983 114.256V114.027V114.256H99.9748C100.128 114.256 100.51 114.256 100.893 114.027C101.275 113.874 101.658 113.491 101.734 112.879C101.811 112.65 101.811 112.42 101.811 112.114C101.811 110.432 101.352 107.525 101.352 107.525L101.122 107.601H101.352L103.646 95.8217L103.417 95.7452L103.264 95.8982C103.264 95.8982 104.335 97.5045 105.559 99.2638C106.171 100.182 106.783 101.1 107.318 101.865C107.853 102.629 108.312 103.241 108.542 103.471C109.307 104.312 110.148 104.618 110.913 104.618C112.061 104.618 113.055 104.006 113.743 103.165C114.126 102.706 114.279 102.171 114.279 101.559C114.279 100.411 113.82 99.2638 113.59 98.7284C113.437 98.4224 111.984 95.1333 110.378 91.9206C109.613 90.3143 108.695 88.708 108.006 87.4841C107.624 86.8722 107.242 86.3367 106.936 85.9543C106.783 85.7248 106.63 85.5718 106.477 85.4188C106.324 85.3423 106.171 85.1893 106.018 85.1893C105.253 84.8834 103.111 84.1949 101.199 83.5065C100.204 83.1241 99.2864 82.8181 98.5979 82.5886C97.986 82.3591 97.5271 82.2062 97.5271 82.2062H97.4506L90.8723 81.3647H90.7958L90.8723 81.5177V81.7472L97.4506 82.5886V82.3591L97.3741 82.5886C97.3741 82.5886 104.258 85.0364 105.941 85.5718C106.018 85.5718 106.094 85.6483 106.171 85.7248C106.4 85.9543 106.706 86.2602 107.012 86.7192C108.159 88.402 109.613 91.2322 110.837 93.8329C112.061 96.3571 113.055 98.6519 113.208 98.8814C113.437 99.4168 113.82 100.564 113.82 101.559C113.82 102.094 113.743 102.553 113.437 102.935C112.825 103.7 111.908 104.236 110.913 104.236C110.225 104.236 109.536 103.93 108.848 103.241C108.618 103.012 108.159 102.4 107.624 101.635C106.859 100.488 105.788 98.9579 105.023 97.734C104.641 97.1985 104.258 96.6631 104.029 96.2806C103.723 95.8982 103.57 95.6687 103.57 95.6687C103.57 95.5922 103.493 95.5157 103.417 95.5157C103.264 95.5922 103.264 95.5922 103.187 95.7452L100.969 107.525V107.601C100.969 107.601 100.969 107.754 101.046 108.06C101.122 108.978 101.428 110.891 101.428 112.114C101.428 112.42 101.428 112.65 101.352 112.803C101.275 113.338 101.046 113.568 100.74 113.721C100.434 113.874 100.128 113.874 99.9748 113.874H99.8983C99.8983 113.874 99.3629 113.874 98.445 113.95C95.6913 114.027 89.6484 114.256 85.1354 114.256C83.6056 114.256 82.3052 114.18 81.3873 114.103C80.8519 114.103 80.4694 114.103 80.1634 114.027C80.0869 114.027 79.9339 113.95 79.8575 113.95H79.781V114.027L79.8575 113.95H79.781V114.027L79.8575 113.95C79.781 113.95 79.781 113.797 79.781 113.721C79.7045 113.568 79.7045 113.415 79.7045 113.262C79.7045 112.42 79.9339 111.197 80.0869 110.126C80.1634 109.59 80.3164 109.055 80.3929 108.672C80.3929 108.443 80.3929 108.29 80.4694 108.213C80.4694 108.06 80.4694 107.984 80.4694 107.907C80.4694 107.831 80.4694 107.754 80.4694 107.678C80.3164 106.989 79.8575 104.465 79.3985 102.171C78.9396 99.8758 78.5571 97.734 78.5571 97.734C78.4806 97.6575 78.4806 97.6575 78.4041 97.581C78.3276 97.581 78.2511 97.581 78.1746 97.6575C78.1746 97.6575 78.0981 97.8105 77.8687 97.9635C77.2567 98.7284 75.6504 100.488 73.9676 102.094C73.2027 102.935 72.3613 103.7 71.6728 104.236C71.3669 104.542 71.0609 104.771 70.8314 104.924C70.5255 105.077 70.3725 105.154 70.2195 105.077C69.6076 105.001 68.9191 104.771 68.4602 104.389C67.9247 104.083 67.5423 103.7 67.3893 103.394H67.3128H67.3893H67.3128H67.3893C67.3893 103.394 67.3893 103.241 67.4658 103.088C67.6188 102.476 68.1542 101.253 68.8426 99.7993C69.837 97.6575 71.2904 94.8273 72.5907 92.5325C73.2792 91.3087 73.8911 90.3143 74.4265 89.4729C74.656 89.0904 74.962 88.7844 75.115 88.4785C75.3444 88.249 75.5739 88.096 75.6504 88.0195C76.4918 87.4841 78.9396 86.2602 81.1578 85.1893C82.3052 84.5774 83.3761 84.1185 84.141 83.736C84.9059 83.3535 85.4414 83.0476 85.4414 83.0476L85.2884 82.8946L85.3649 83.1241L90.9488 81.7472L90.8723 81.5177V81.7472V81.5177Z" fill="black"/>
<path d="M85.2881 82.8946C85.2881 82.8946 92.0959 82.7416 93.2432 82.7416C94.3906 82.7416 98.5212 82.7416 98.5212 82.7416L97.4503 80.5234C97.4503 80.5234 95.3085 79.835 92.0194 79.835C88.7302 79.835 86.2825 80.9058 86.2825 80.9058L85.2881 82.8946Z" fill="#F48383"/>
<path d="M85.2887 82.8945V83.124C85.2887 83.124 85.7477 83.124 86.4361 83.0475C88.3484 83.0475 92.4025 82.971 93.2439 82.971C94.3912 82.971 98.5218 82.8945 98.5218 82.8945C98.5983 82.8945 98.6748 82.8945 98.6748 82.818C98.7513 82.7416 98.7513 82.6651 98.6748 82.6651L97.6804 80.3703C97.6039 80.3703 97.6039 80.2938 97.5274 80.2938C97.5274 80.2938 95.3092 79.6819 92.02 79.6819C88.6544 79.6819 86.2066 80.6763 86.2066 80.6763C86.1301 80.7528 86.0536 80.7528 86.0536 80.8293L85.1357 82.818C85.1357 82.8945 85.1357 82.971 85.1357 82.971C85.2122 83.0475 85.2887 83.124 85.2887 83.124V82.8945L85.5182 82.971L86.4361 80.9822L86.2831 80.9058L86.3596 81.0587C86.5891 80.9822 88.9603 80.0643 92.02 80.0643C93.6263 80.0643 95.0032 80.2173 95.9211 80.3703C96.38 80.4468 96.7625 80.5233 96.992 80.5998C97.145 80.5998 97.2214 80.6763 97.2979 80.6763C97.3744 80.6763 97.3744 80.6763 97.3744 80.6763L97.4509 80.5233L97.2979 80.5998L98.2923 82.818L98.5218 82.7416V82.5121C98.5218 82.5121 97.4509 82.5121 96.3035 82.5121C95.1562 82.5121 93.7793 82.5121 93.2439 82.5121C92.0965 82.5121 85.2887 82.6651 85.2887 82.6651V82.8945L85.5182 82.971L85.2887 82.8945Z" fill="black"/>
<path d="M76.0332 92.456L77.7925 96.969L74.8858 94.0623C74.8093 93.9858 74.6563 93.9858 74.5798 94.0623C74.5033 94.1388 74.5033 94.2918 74.5798 94.3683L78.1749 97.9634C78.2514 98.0399 78.3279 98.0399 78.4044 97.9634C78.4809 97.9634 78.5574 97.8104 78.4809 97.7339L76.4156 92.303C76.4156 92.2265 76.2626 92.15 76.1862 92.2265C76.0332 92.2265 76.0332 92.3795 76.0332 92.456Z" fill="black"/>
<path d="M75.3447 90.6968L75.5742 91.3088C75.6507 91.4618 75.7272 91.4618 75.8802 91.4618C75.9567 91.3853 76.0332 91.3088 75.9567 91.1558L75.7272 90.5439C75.7272 90.3909 75.5742 90.3909 75.4977 90.3909C75.3447 90.4674 75.3447 90.5439 75.3447 90.6968Z" fill="black"/>
<path d="M86.971 106.836C86.6651 107.142 86.2826 107.372 85.9001 107.601C85.8237 107.678 85.8237 107.831 85.9001 107.907C85.9001 107.984 86.0531 107.984 86.1296 107.984C86.5121 107.754 86.8945 107.448 87.277 107.142C87.3535 107.066 87.3535 106.913 87.277 106.836C87.2005 106.76 87.0475 106.76 86.971 106.836Z" fill="black"/>
<path d="M96.3038 91.3852C96.3038 91.3852 96.3038 91.5381 96.1508 91.8441C95.7684 92.8385 94.6975 95.4392 93.2441 98.2694C91.7143 101.1 89.802 104.236 87.5837 106.301C87.5072 106.378 87.5072 106.531 87.5837 106.607C87.6602 106.684 87.8132 106.684 87.8897 106.607C90.4139 104.159 92.6322 100.411 94.2385 97.275C95.7684 94.0624 96.6863 91.5381 96.6863 91.5381C96.7628 91.3852 96.6863 91.3087 96.6098 91.2322C96.4568 91.2322 96.3803 91.2322 96.3038 91.3852Z" fill="black"/>
<path d="M105.559 89.7788L103.264 95.6687C103.188 95.7452 103.264 95.8982 103.341 95.8982C103.417 95.9747 103.494 95.9747 103.57 95.8982L107.395 91.7676C107.471 91.6911 107.471 91.5381 107.395 91.4616C107.318 91.3852 107.165 91.3852 107.089 91.4616L104.029 94.7508L105.941 89.9318C106.018 89.8553 105.941 89.7023 105.865 89.7023C105.788 89.6258 105.635 89.7023 105.559 89.7788Z" fill="black"/>
<path d="M66.3184 106.072C66.3184 106.072 67.0068 108.366 69.3015 110.126C71.5198 111.885 77.6391 117.698 77.6391 117.698C77.6391 117.698 77.4862 118.081 77.6391 118.616C77.7156 119.075 79.322 120.452 79.322 120.452V119.381L79.7809 118.616L80.1634 117.545C80.1634 117.545 81.2343 117.163 81.5402 116.933C81.8462 116.704 81.9992 116.398 81.9992 116.398C81.9992 116.398 83.1466 116.628 83.9115 116.628C84.5999 116.628 85.5943 115.939 84.9824 115.71C84.3704 115.48 83.7585 115.71 82.9171 115.327C82.1522 114.868 81.6932 114.486 80.9283 114.486C80.0869 114.486 78.71 114.486 78.71 114.486L73.0496 105.23L66.3184 106.072Z" fill="#FEFEFE"/>
<path d="M66.3183 106.072H66.0889C66.0889 106.148 66.8538 108.519 69.1485 110.279C70.2959 111.197 72.3612 113.032 74.1205 114.715C75.0384 115.557 75.8798 116.322 76.4918 116.857C77.1037 117.469 77.4861 117.775 77.4861 117.775L77.6391 117.698L77.4097 117.622C77.4097 117.622 77.3332 117.851 77.3332 118.081C77.3332 118.234 77.3332 118.463 77.4097 118.616C77.4097 118.769 77.4861 118.846 77.5626 118.922C77.7156 119.228 78.1746 119.687 78.557 119.993C78.9395 120.376 79.2455 120.605 79.2455 120.605C79.2455 120.682 79.3984 120.682 79.4749 120.605C79.4749 120.605 79.5514 120.529 79.5514 120.452V119.458L79.9339 118.693L80.3928 117.622L80.1634 117.545L80.2398 117.775C80.2398 117.775 80.5458 117.622 80.7753 117.545C81.0813 117.392 81.4637 117.239 81.6167 117.086C81.9992 116.857 82.1521 116.551 82.2286 116.551L81.9992 116.398V116.627C81.9992 116.627 83.1465 116.857 83.9115 116.857C84.2174 116.857 84.5999 116.704 84.8294 116.551C84.9823 116.475 85.1353 116.398 85.2118 116.245C85.2883 116.169 85.3648 116.092 85.4413 115.863C85.4413 115.786 85.3648 115.71 85.2883 115.633C85.2118 115.557 85.1353 115.557 85.0588 115.48C84.7529 115.404 84.3704 115.404 84.0644 115.404C83.7585 115.327 83.4525 115.327 83.07 115.098C82.6111 114.945 82.3051 114.715 81.9992 114.562C81.6932 114.409 81.3107 114.256 80.9283 114.256C80.0869 114.256 78.71 114.256 78.71 114.256V114.486L78.9395 114.333L73.2791 105.077C73.2026 105.001 73.1261 105.001 73.0496 105.001L66.2419 105.842C66.1654 105.842 66.1654 105.842 66.0889 105.919C66.0889 105.995 66.0889 106.072 66.0889 106.072H66.3183V106.225L72.9731 105.46L78.557 114.562C78.557 114.639 78.6335 114.715 78.71 114.715C78.71 114.715 80.0869 114.715 80.9283 114.715C81.2342 114.715 81.5402 114.792 81.8462 114.945C82.1521 115.021 82.4581 115.251 82.8406 115.48C83.2995 115.71 83.682 115.786 84.0644 115.786C84.3704 115.786 84.6764 115.786 84.9058 115.863L84.9823 115.939L85.0588 115.863H84.9823V115.939L85.0588 115.863H84.9823V115.939C84.9058 116.016 84.7529 116.169 84.5234 116.245C84.2939 116.322 84.0644 116.398 83.9115 116.398C83.529 116.398 83.07 116.398 82.6876 116.322C82.5346 116.322 82.3816 116.245 82.2286 116.245C82.1521 116.245 82.0757 116.245 82.0757 116.245C81.9992 116.245 81.9227 116.245 81.8462 116.322C81.8462 116.398 81.6167 116.627 81.3872 116.78C81.2342 116.857 80.9283 117.01 80.6223 117.163C80.3163 117.239 80.0869 117.392 80.0869 117.392C80.0104 117.392 80.0104 117.392 80.0104 117.469L79.5514 118.54L79.169 119.305V119.381V120.452H79.3219L79.4749 120.299C79.4749 120.299 79.3984 120.223 79.2455 120.07C79.016 119.84 78.6335 119.534 78.3276 119.228C78.1746 119.075 78.0981 118.922 77.9451 118.846C77.8686 118.693 77.7921 118.616 77.7921 118.54C77.7921 118.387 77.7921 118.234 77.7921 118.081C77.7921 118.004 77.7921 117.851 77.7921 117.851V117.698C77.7921 117.622 77.7921 117.545 77.7156 117.545C77.7156 117.545 76.2623 116.092 74.4265 114.409C72.5907 112.726 70.5254 110.891 69.378 109.973C68.3071 109.131 67.5422 108.137 67.0833 107.372C66.8538 106.913 66.7008 106.607 66.6243 106.378C66.5478 106.225 66.5478 106.148 66.5478 106.072L66.4713 105.995L66.3183 106.072V106.225V106.072Z" fill="black"/>
<path d="M68.6901 99.7227C68.6901 99.7227 67.5427 100.105 67.2368 100.411C66.9308 100.717 65.3245 103.088 65.7069 104.312C66.0129 105.536 66.3954 107.295 69.0726 107.754C71.7498 108.29 73.2031 107.142 73.3561 106.836C73.5856 106.53 74.121 102.935 73.6621 102.935C73.2796 102.935 72.1323 104.312 72.1323 104.312C72.1323 104.312 69.0726 103.624 68.4606 103.088C67.8487 102.553 68.6901 99.7227 68.6901 99.7227Z" fill="#F48383"/>
<path d="M68.6895 99.7226V99.4932C68.6895 99.4932 68.3836 99.5697 68.0011 99.7226C67.8481 99.7991 67.6187 99.8756 67.4657 99.9521C67.3127 100.029 67.1597 100.105 67.0832 100.258C67.0067 100.335 66.8537 100.488 66.7008 100.794C66.3948 101.099 66.0888 101.635 65.8593 102.247C65.6299 102.782 65.4004 103.394 65.4004 103.93C65.4004 104.083 65.4004 104.236 65.4769 104.312C65.6299 104.924 65.7828 105.765 66.3183 106.454C66.8537 107.142 67.6187 107.754 68.9955 107.984C69.5309 108.06 69.9899 108.137 70.3724 108.137C71.3668 108.137 72.0552 107.907 72.5906 107.678C72.8966 107.525 73.0496 107.448 73.2026 107.295C73.3555 107.142 73.5085 107.066 73.585 106.989C73.585 106.913 73.585 106.836 73.6615 106.76C73.738 106.454 73.8145 105.918 73.891 105.307C73.9675 104.695 74.044 104.083 74.044 103.624C74.044 103.394 74.044 103.165 74.044 103.088C73.9675 103.012 73.9675 102.935 73.9675 102.859C73.891 102.782 73.891 102.782 73.8145 102.782C73.8145 102.706 73.738 102.706 73.6615 102.706C73.585 102.706 73.5085 102.706 73.432 102.782C73.1261 102.935 72.7436 103.318 72.5141 103.624C72.2082 103.853 71.9787 104.159 71.9787 104.159L72.1317 104.312L72.2082 104.083C72.2082 104.083 71.9787 104.006 71.6727 104.006C71.2903 103.853 70.6018 103.7 69.9899 103.471C69.6839 103.394 69.378 103.318 69.1485 103.165C68.8425 103.088 68.6895 103.012 68.613 102.935C68.5366 102.859 68.5366 102.859 68.4601 102.706C68.4601 102.629 68.4601 102.476 68.4601 102.323C68.4601 101.788 68.5366 101.176 68.6895 100.641C68.766 100.411 68.766 100.182 68.8425 100.029C68.919 99.8756 68.919 99.7991 68.919 99.7991C68.919 99.7226 68.919 99.6461 68.8425 99.5697C68.8425 99.4932 68.766 99.4932 68.6895 99.4932V99.7226L68.5366 99.6461C68.5366 99.6461 68.3836 100.029 68.3071 100.564C68.1541 101.099 68.0776 101.711 68.0776 102.323C68.0776 102.476 68.0776 102.629 68.0776 102.782C68.1541 103.012 68.2306 103.165 68.3071 103.241C68.5366 103.394 68.8425 103.547 69.225 103.7C70.3724 104.083 72.1317 104.465 72.1317 104.465C72.2082 104.542 72.2847 104.465 72.2847 104.389C72.2847 104.389 72.3611 104.312 72.5141 104.236C72.6671 104.006 72.8966 103.7 73.1261 103.471C73.279 103.394 73.432 103.241 73.5085 103.241C73.585 103.165 73.585 103.165 73.6615 103.165V103.088V103.012L73.585 103.088H73.6615V103.012L73.585 103.088L73.6615 103.012L73.585 103.088L73.6615 103.012L73.585 103.088C73.585 103.088 73.585 103.165 73.585 103.241C73.6615 103.318 73.6615 103.471 73.6615 103.624C73.6615 104.083 73.585 104.848 73.432 105.536C73.432 105.842 73.3555 106.148 73.279 106.377C73.279 106.454 73.279 106.607 73.279 106.607L73.2026 106.76C73.2026 106.76 73.1261 106.836 72.9731 106.989C72.5906 107.295 71.7492 107.678 70.3724 107.678C69.9899 107.678 69.6074 107.678 69.072 107.601C67.7716 107.295 67.0832 106.836 66.6243 106.148C66.1653 105.536 66.0123 104.848 65.8593 104.236C65.8593 104.159 65.8593 104.006 65.8593 103.93C65.8593 103.318 66.1653 102.553 66.4713 101.864C66.7008 101.558 66.8537 101.252 67.0067 100.947C67.1597 100.717 67.3127 100.564 67.3892 100.488C67.3892 100.488 67.5422 100.411 67.6951 100.335C67.9246 100.258 68.1541 100.105 68.3836 100.029C68.5366 100.029 68.613 99.9521 68.6895 99.9521C68.766 99.9521 68.766 99.8756 68.766 99.8756L68.6895 99.7226L68.5366 99.6461L68.6895 99.7226Z" fill="black"/>
<path d="M115.885 106.072C115.885 106.072 115.197 108.366 112.902 110.126C110.684 111.885 104.564 117.698 104.564 117.698C104.564 117.698 104.717 118.081 104.564 118.616C104.488 119.075 102.193 120.682 102.193 120.682V119.152L102.04 118.234V117.545C102.04 117.545 100.969 117.163 100.663 116.933C100.357 116.704 100.204 116.398 100.204 116.398C100.204 116.398 99.0571 116.628 98.2922 116.628C97.6037 116.628 96.6093 115.939 97.2213 115.71C97.8332 115.48 98.4451 115.71 99.2866 115.327C100.051 114.868 100.51 114.486 101.275 114.486C102.117 114.486 103.494 114.486 103.494 114.486L109.154 105.23L115.885 106.072Z" fill="#FEFEFE"/>
<path d="M115.886 106.072L115.733 105.995C115.656 106.225 114.891 108.366 112.826 109.973C111.679 110.891 109.613 112.726 107.778 114.409C105.942 116.092 104.488 117.545 104.488 117.545C104.412 117.545 104.412 117.622 104.412 117.698C104.412 117.775 104.412 117.928 104.412 118.081C104.412 118.234 104.412 118.387 104.412 118.54C104.412 118.54 104.335 118.616 104.335 118.693C104.106 118.999 103.494 119.458 103.035 119.84C102.806 119.993 102.576 120.223 102.423 120.299C102.194 120.452 102.117 120.529 102.117 120.529L102.194 120.682H102.423V119.152L102.27 118.234V117.545C102.194 117.469 102.194 117.392 102.117 117.392C102.117 117.392 101.811 117.239 101.582 117.163C101.276 117.01 100.893 116.857 100.817 116.78C100.664 116.704 100.587 116.551 100.434 116.475C100.434 116.398 100.434 116.398 100.358 116.322C100.281 116.245 100.205 116.245 100.128 116.245C100.128 116.245 100.052 116.245 99.9754 116.245C99.5929 116.322 98.828 116.398 98.2925 116.398C98.0631 116.398 97.7571 116.322 97.5276 116.169C97.4511 116.092 97.3746 116.092 97.2981 116.016L97.2216 115.939V115.863H97.1452L97.2216 115.939V115.863H97.1452L97.2216 115.939V115.863C97.5276 115.786 97.8336 115.786 98.1395 115.786C98.522 115.786 98.9045 115.71 99.3634 115.48C99.7459 115.251 100.052 115.021 100.358 114.945C100.664 114.792 100.893 114.715 101.276 114.715C102.117 114.715 103.494 114.715 103.494 114.715C103.57 114.715 103.57 114.639 103.647 114.562L109.231 105.46L115.886 106.225V106.072L115.733 105.995L115.886 106.072L115.962 105.842L109.154 105.001C109.078 105.001 109.001 105.001 108.925 105.077L103.264 114.333L103.494 114.486V114.256C103.494 114.256 102.117 114.256 101.276 114.256C100.893 114.256 100.511 114.409 100.205 114.562C99.8989 114.715 99.5929 114.945 99.1339 115.098C98.7515 115.327 98.4455 115.327 98.1395 115.404C97.8336 115.404 97.4511 115.404 97.1452 115.48C97.0687 115.557 96.9922 115.557 96.9157 115.633C96.8392 115.71 96.7627 115.786 96.7627 115.863C96.8392 116.092 96.9157 116.169 96.9922 116.245C97.1452 116.398 97.3746 116.551 97.6041 116.627C97.8336 116.78 98.0631 116.857 98.2925 116.857C99.0574 116.857 100.205 116.627 100.205 116.627V116.398L99.9754 116.551C100.052 116.551 100.205 116.857 100.587 117.086C100.74 117.239 101.123 117.392 101.429 117.545C101.658 117.622 101.964 117.775 101.964 117.775L102.041 117.545H101.811L101.888 118.234L102.041 119.228V120.682C102.041 120.758 102.041 120.835 102.117 120.835C102.194 120.911 102.27 120.911 102.347 120.835C102.347 120.835 102.882 120.452 103.494 119.993C103.8 119.764 104.106 119.534 104.335 119.305C104.412 119.152 104.565 119.075 104.641 118.922C104.718 118.846 104.794 118.769 104.794 118.616C104.871 118.463 104.871 118.234 104.871 118.081C104.871 117.851 104.794 117.622 104.794 117.622L104.565 117.698L104.718 117.775C104.718 117.775 105.1 117.469 105.712 116.857C107.548 115.174 111.373 111.579 113.055 110.279C115.35 108.519 116.115 106.148 116.115 106.072C116.115 106.072 116.115 105.995 116.115 105.919C116.039 105.842 115.962 105.842 115.962 105.842L115.886 106.072Z" fill="black"/>
<path d="M113.896 100.182C113.896 100.182 114.661 100.105 114.967 100.411C115.273 100.717 116.803 103.088 116.497 104.312C116.191 105.536 115.808 107.295 113.131 107.754C110.454 108.29 109.001 107.142 108.848 106.836C108.618 106.53 108.465 103.088 108.695 103.394C109.23 103.93 110.071 104.312 110.071 104.312C110.071 104.312 113.208 104.159 113.743 102.323C113.973 101.558 113.896 100.182 113.896 100.182Z" fill="#F48383"/>
<path d="M113.896 100.182L113.973 100.411C114.049 100.411 114.202 100.411 114.355 100.411C114.432 100.411 114.508 100.411 114.661 100.411C114.737 100.411 114.814 100.488 114.814 100.488C114.89 100.564 115.043 100.717 115.196 100.947C115.426 101.329 115.732 101.864 115.961 102.4C116.191 102.935 116.344 103.471 116.344 103.93C116.344 104.006 116.344 104.159 116.344 104.236C116.191 104.848 116.038 105.536 115.579 106.148C115.12 106.836 114.432 107.295 113.131 107.601C112.596 107.678 112.213 107.678 111.831 107.678C110.913 107.678 110.224 107.525 109.766 107.295C109.536 107.219 109.383 107.066 109.23 106.989C109.077 106.836 109.001 106.76 109.001 106.76H108.924H109.001H108.924H109.001C109.001 106.683 108.924 106.607 108.924 106.377C108.848 105.842 108.771 104.924 108.771 104.236C108.771 104.006 108.771 103.777 108.771 103.624C108.848 103.547 108.848 103.471 108.848 103.471L108.695 103.394L108.771 103.471H108.848L108.695 103.394L108.771 103.471L108.695 103.394V103.547C108.771 103.547 108.771 103.547 108.771 103.471L108.695 103.394V103.547V103.394L108.618 103.547C108.618 103.547 108.618 103.547 108.695 103.547V103.394L108.618 103.547L108.695 103.394L108.542 103.471L108.618 103.547L108.695 103.394L108.542 103.471C109.077 104.083 109.919 104.465 109.995 104.465H110.071C110.071 104.465 110.913 104.465 111.754 104.159C112.213 104.006 112.672 103.853 113.055 103.547C113.437 103.241 113.82 102.859 113.973 102.4C114.126 101.788 114.126 100.947 114.126 100.564C114.126 100.335 114.126 100.182 114.126 100.182H113.896L113.973 100.411L113.896 100.182L113.667 100.258C113.667 100.258 113.743 100.335 113.743 100.564C113.743 100.947 113.667 101.788 113.514 102.247C113.437 102.629 113.208 102.935 112.825 103.241C112.29 103.624 111.601 103.853 111.066 103.93C110.76 104.006 110.53 104.006 110.301 104.083C110.224 104.083 110.148 104.083 110.148 104.083C110.071 104.083 110.071 104.083 110.071 104.083V104.312L110.148 104.083H110.071C109.919 104.006 109.23 103.7 108.848 103.241L108.771 103.165H108.695C108.618 103.165 108.618 103.165 108.542 103.165C108.465 103.241 108.465 103.241 108.465 103.318C108.465 103.318 108.389 103.394 108.389 103.471C108.389 103.624 108.389 103.93 108.389 104.236C108.389 104.771 108.389 105.307 108.465 105.842C108.465 106.148 108.465 106.377 108.542 106.53C108.542 106.607 108.542 106.683 108.542 106.76C108.618 106.836 108.618 106.913 108.618 106.989C108.695 107.066 108.848 107.142 109.001 107.295C109.46 107.678 110.377 108.137 111.831 108.137C112.213 108.137 112.672 108.06 113.208 107.984C114.585 107.754 115.349 107.142 115.885 106.454C116.42 105.766 116.573 104.924 116.726 104.312C116.726 104.236 116.803 104.083 116.803 103.93C116.803 103.241 116.42 102.4 116.038 101.711C115.885 101.329 115.655 101.023 115.502 100.794C115.349 100.488 115.196 100.335 115.12 100.258C115.043 100.105 114.89 100.029 114.737 100.029C114.585 99.9521 114.432 99.9521 114.355 99.9521C114.049 99.9521 113.896 100.029 113.896 100.029C113.743 100.029 113.667 100.105 113.667 100.258L113.896 100.182Z" fill="black"/>
<path d="M84.5236 182.257C85.1356 181.951 84.9826 179.351 84.8296 178.28C84.2942 178.586 83.5293 178.892 82.5349 178.968C80.7755 179.198 79.6282 178.356 79.6282 178.356C79.6282 178.356 79.3222 181.875 79.6282 182.257C79.9341 182.64 83.6822 182.64 84.5236 182.257Z" fill="black"/>
<path d="M84.5237 182.257L84.6002 182.41C84.7532 182.334 84.8297 182.257 84.9062 182.104C84.9827 181.875 85.0591 181.569 85.1356 181.263C85.1356 180.957 85.1356 180.575 85.1356 180.269C85.1356 179.504 85.1356 178.739 85.0591 178.28C85.0591 178.203 84.9827 178.127 84.9827 178.127C84.9062 178.127 84.8297 178.05 84.7532 178.127C84.2177 178.356 83.4528 178.662 82.5349 178.739C82.3054 178.815 82.1525 178.815 81.9995 178.815C81.3111 178.815 80.7756 178.662 80.3932 178.509C80.1637 178.433 80.0107 178.356 79.9342 178.28C79.8577 178.28 79.8577 178.203 79.7812 178.203C79.7047 178.127 79.6282 178.127 79.5517 178.127C79.4752 178.203 79.4752 178.28 79.4752 178.356C79.4752 178.356 79.3223 180.116 79.3223 181.263C79.3223 181.492 79.3223 181.722 79.3223 181.951C79.3223 182.028 79.3223 182.104 79.3223 182.181C79.3988 182.257 79.3988 182.334 79.4752 182.41C79.4752 182.41 79.5517 182.487 79.6282 182.487C79.7047 182.563 79.8577 182.563 80.0107 182.64C80.5461 182.716 81.2346 182.716 81.9995 182.716C82.5349 182.716 83.0704 182.716 83.5293 182.716C83.9883 182.64 84.3707 182.563 84.6002 182.41L84.5237 182.257L84.3707 182.104C84.2942 182.181 83.9118 182.257 83.4528 182.257C83.0704 182.334 82.5349 182.334 81.9995 182.334C81.464 182.334 80.9286 182.334 80.4696 182.257C80.2402 182.257 80.0872 182.181 79.9342 182.181C79.8577 182.181 79.8577 182.104 79.7812 182.104L79.7047 182.181L79.7812 182.104L79.7047 182.181L79.7812 182.104L79.7047 182.181L79.7812 182.104L79.7047 182.181L79.7812 182.104C79.7812 182.104 79.7812 182.104 79.7812 182.028C79.7047 181.875 79.7047 181.645 79.7047 181.263C79.7047 180.727 79.7047 179.963 79.7812 179.427C79.8577 178.815 79.8577 178.356 79.8577 178.356H79.6282L79.5517 178.509C79.5517 178.509 80.4696 179.198 81.9995 179.198C82.1525 179.198 82.3819 179.198 82.5349 179.198C83.5293 179.045 84.3707 178.739 84.9062 178.509L84.8297 178.28L84.6767 178.356C84.6767 178.815 84.7532 179.504 84.7532 180.269C84.7532 180.727 84.7532 181.186 84.6767 181.492C84.6002 181.645 84.6002 181.798 84.5237 181.875C84.5237 182.028 84.4472 182.028 84.3707 182.104L84.5237 182.257Z" fill="black"/>
<path d="M157.497 182.64C157.42 182.64 157.344 182.64 157.344 182.487V161.299C157.344 161.222 157.42 161.146 157.497 161.146C157.573 161.146 157.65 161.222 157.65 161.299V182.487C157.65 182.64 157.573 182.64 157.497 182.64Z" fill="black"/>
<path d="M157.344 180.575C157.344 180.575 156.197 178.968 154.744 178.203C153.367 177.438 150.919 177.438 150.919 177.438C150.919 177.438 152.219 182.028 157.344 180.575Z" fill="black"/>
<path d="M157.497 180.575C157.497 180.575 158.644 178.968 160.021 178.203C161.475 177.438 163.846 177.438 163.846 177.438C163.846 177.438 162.622 182.028 157.497 180.575Z" fill="black"/>
<path d="M157.344 174.838C157.344 174.838 156.197 173.231 154.744 172.466C153.367 171.625 150.919 171.625 150.919 171.625C150.919 171.625 152.219 176.291 157.344 174.838Z" fill="black"/>
<path d="M157.497 174.838C157.497 174.838 158.644 173.231 160.021 172.466C161.475 171.625 163.846 171.625 163.846 171.625C163.846 171.625 162.622 176.291 157.497 174.838Z" fill="black"/>
<path d="M157.344 169.101C157.344 169.101 156.197 167.495 154.744 166.73C153.367 165.888 150.919 165.888 150.919 165.888C150.919 165.888 152.219 170.554 157.344 169.101Z" fill="black"/>
<path d="M157.497 169.101C157.497 169.101 158.644 167.495 160.021 166.73C161.475 165.888 163.846 165.888 163.846 165.888C163.846 165.888 162.622 170.554 157.497 169.101Z" fill="black"/>
<path d="M157.344 163.364C157.344 163.364 156.197 161.758 154.744 160.993C153.367 160.151 150.919 160.151 150.919 160.151C150.919 160.151 152.219 164.817 157.344 163.364Z" fill="black"/>
<path d="M157.497 163.364C157.497 163.364 158.644 161.758 160.021 160.993C161.475 160.151 163.846 160.151 163.846 160.151C163.846 160.151 162.622 164.817 157.497 163.364Z" fill="black"/>
<path d="M157.497 161.299C157.497 161.299 156.197 159.539 156.12 157.933C156.12 156.25 157.191 154.185 157.191 154.185C157.191 154.185 161.092 157.397 157.497 161.299Z" fill="black"/>
<path d="M16.8288 182.64C16.7523 182.64 16.6758 182.563 16.6758 182.487V159.539C16.6758 159.463 16.7523 159.386 16.8288 159.386C16.9817 159.386 17.0582 159.463 17.0582 159.539V182.487C17.0582 182.563 16.9817 182.64 16.8288 182.64Z" fill="black"/>
<path d="M16.6753 180.422C16.6753 180.422 15.4514 178.739 13.9216 177.821C12.3917 176.979 9.79102 176.979 9.79102 176.979C9.79102 176.979 11.1679 181.951 16.6753 180.422Z" fill="black"/>
<path d="M16.8281 180.422C16.8281 180.422 18.052 178.739 19.5818 177.821C21.1882 176.979 23.7889 176.979 23.7889 176.979C23.7889 176.979 22.3355 181.951 16.8281 180.422Z" fill="black"/>
<path d="M16.6753 174.226C16.6753 174.226 15.4514 172.467 13.9216 171.625C12.3917 170.784 9.79102 170.784 9.79102 170.784C9.79102 170.784 11.1679 175.756 16.6753 174.226Z" fill="black"/>
<path d="M16.8281 174.226C16.8281 174.226 18.052 172.467 19.5818 171.625C21.1882 170.784 23.7889 170.784 23.7889 170.784C23.7889 170.784 22.3355 175.756 16.8281 174.226Z" fill="black"/>
<path d="M16.6753 168.03C16.6753 168.03 15.4514 166.271 13.9216 165.429C12.3917 164.588 9.79102 164.588 9.79102 164.588C9.79102 164.588 11.1679 169.56 16.6753 168.03Z" fill="black"/>
<path d="M16.8281 168.03C16.8281 168.03 18.052 166.271 19.5818 165.429C21.1882 164.588 23.7889 164.588 23.7889 164.588C23.7889 164.588 22.3355 169.56 16.8281 168.03Z" fill="black"/>
<path d="M16.6753 161.834C16.6753 161.834 15.4514 160.075 13.9216 159.233C12.3917 158.315 9.79102 158.315 9.79102 158.315C9.79102 158.315 11.1679 163.364 16.6753 161.834Z" fill="black"/>
<path d="M16.8281 161.834C16.8281 161.834 18.052 160.075 19.5818 159.233C21.1882 158.315 23.7889 158.315 23.7889 158.315C23.7889 158.315 22.3355 163.364 16.8281 161.834Z" fill="black"/>
<path d="M16.8279 159.539C16.8279 159.539 15.451 157.704 15.3745 155.944C15.298 154.185 16.5219 151.814 16.5219 151.814C16.5219 151.814 20.729 155.332 16.8279 159.539Z" fill="black"/>
<path d="M31.6673 182.563V172.16C31.6673 172.007 31.5908 171.931 31.5143 171.931C31.4378 171.931 31.3613 172.007 31.3613 172.16V182.563H31.6673Z" fill="black"/>
<path d="M31.3621 180.574C31.3621 180.574 30.1383 178.892 28.5319 177.974C27.0021 177.132 24.4014 177.132 24.4014 177.132C24.4014 177.132 25.7782 182.181 31.3621 180.574Z" fill="black"/>
<path d="M31.5146 180.574C31.5146 180.574 32.7385 178.892 34.2684 177.974C35.7982 177.132 38.3989 177.132 38.3989 177.132C38.3989 177.132 37.0221 182.181 31.5146 180.574Z" fill="black"/>
<path d="M31.3621 174.379C31.3621 174.379 30.1383 172.619 28.5319 171.778C27.0021 170.937 24.4014 170.937 24.4014 170.937C24.4014 170.937 25.7782 175.908 31.3621 174.379Z" fill="black"/>
<path d="M31.5146 174.379C31.5146 174.379 32.7385 172.619 34.2684 171.778C35.7982 170.937 38.3989 170.937 38.3989 170.937C38.3989 170.937 37.0221 175.908 31.5146 174.379Z" fill="black"/>
<path d="M31.5146 172.16C31.5146 172.16 30.1378 170.248 30.0613 168.489C29.9848 166.73 31.1322 164.435 31.1322 164.435C31.1322 164.435 35.3392 167.877 31.5146 172.16Z" fill="black"/>
<path d="M143.499 182.563V172.925C143.499 172.849 143.422 172.772 143.346 172.772C143.193 172.772 143.116 172.849 143.116 172.925V182.563H143.499Z" fill="black"/>
<path d="M143.116 180.727C143.116 180.727 142.046 179.121 140.592 178.356C139.139 177.591 136.768 177.591 136.768 177.591C136.768 177.591 138.068 182.181 143.116 180.727Z" fill="black"/>
<path d="M143.346 180.727C143.346 180.727 144.417 179.121 145.87 178.356C147.323 177.591 149.695 177.591 149.695 177.591C149.695 177.591 148.394 182.181 143.346 180.727Z" fill="black"/>
<path d="M143.116 174.991C143.116 174.991 142.046 173.384 140.592 172.619C139.139 171.778 136.768 171.778 136.768 171.778C136.768 171.778 138.068 176.444 143.116 174.991Z" fill="black"/>
<path d="M143.346 174.991C143.346 174.991 144.417 173.384 145.87 172.619C147.323 171.778 149.695 171.778 149.695 171.778C149.695 171.778 148.394 176.444 143.346 174.991Z" fill="black"/>
<path d="M143.346 172.926C143.346 172.926 142.045 171.243 141.969 169.56C141.892 167.954 142.963 165.812 142.963 165.812C142.963 165.812 146.864 169.024 143.346 172.926Z" fill="black"/>
<path d="M171.265 182.563V172.925C171.265 172.849 171.188 172.772 171.112 172.772C171.035 172.772 170.959 172.849 170.959 172.925V182.563H171.265Z" fill="black"/>
<path d="M170.959 180.727C170.959 180.727 169.812 179.121 168.359 178.356C166.982 177.591 164.534 177.591 164.534 177.591C164.534 177.591 165.835 182.181 170.959 180.727Z" fill="black"/>
<path d="M171.112 180.727C171.112 180.727 172.183 179.121 173.637 178.356C175.09 177.591 177.461 177.591 177.461 177.591C177.461 177.591 176.237 182.181 171.112 180.727Z" fill="black"/>
<path d="M170.959 174.991C170.959 174.991 169.812 173.384 168.359 172.619C166.982 171.778 164.534 171.778 164.534 171.778C164.534 171.778 165.835 176.444 170.959 174.991Z" fill="black"/>
<path d="M171.112 174.991C171.112 174.991 172.183 173.384 173.637 172.619C175.09 171.778 177.461 171.778 177.461 171.778C177.461 171.778 176.237 176.444 171.112 174.991Z" fill="black"/>
<path d="M171.112 172.926C171.112 172.926 169.812 171.243 169.735 169.56C169.735 167.954 170.806 165.812 170.806 165.812C170.806 165.812 174.707 169.024 171.112 172.926Z" fill="black"/>
<path d="M188.017 182.716H190.847C190.924 182.716 191 182.64 191 182.563C191 182.41 190.924 182.334 190.847 182.334H188.017C187.941 182.334 187.864 182.41 187.864 182.563C187.864 182.64 187.941 182.716 188.017 182.716Z" fill="black"/>
<path d="M41 182.716H184.269C184.346 182.716 184.422 182.64 184.422 182.563C184.422 182.41 184.346 182.334 184.269 182.334H41C40.9235 182.334 40.7705 182.41 40.7705 182.563C40.7705 182.64 40.9235 182.716 41 182.716Z" fill="black"/>
<path d="M8.95018 182.716H37.1756C37.3286 182.716 37.4051 182.64 37.4051 182.563C37.4051 182.41 37.3286 182.334 37.1756 182.334H8.95018C8.87369 182.334 8.7207 182.41 8.7207 182.563C8.7207 182.64 8.87369 182.716 8.95018 182.716Z" fill="black"/>
</g>
<defs>
<clipPath id="clip0_1629_8">
<rect width="191" height="183" fill="white"/>
</clipPath>
</defs>
</svg>
