<svg width="248" height="192" viewBox="0 0 248 192" fill="none" xmlns="http://www.w3.org/2000/svg">
<g clip-path="url(#clip0_1028_791)">
<path fill-rule="evenodd" clip-rule="evenodd" d="M131.315 14.1026C143.864 19.4669 155.796 30.9475 165.193 41.6538C184.764 63.9497 187.682 68.6347 211.821 87.3525C225.894 98.2601 236.987 107.488 242.451 119.826C257.804 154.486 239.52 191.925 201.2 191.925C199.636 191.925 45.4277 191.925 45.4277 191.925C45.4277 191.925 27.1027 192.4 13.7296 173.872C-31.5857 111.082 43.5803 -23.3917 131.315 14.1026Z" fill="#F4F4F4"/>
<path fill-rule="evenodd" clip-rule="evenodd" d="M15.9512 133.524H94.533V0H15.9512V133.524Z" fill="#D3D3D3"/>
<path d="M54.0932 162.671C55.7035 164.793 57.1791 167.068 58.506 169.453C57.2256 170.811 56.0382 172.295 54.953 173.875C56.2798 172.664 57.7693 171.694 59.3262 170.993C61.9288 176.002 65.4005 182.652 66.3184 188.235C62.9652 188.606 57.8669 187.284 54.3186 186.686C54.9646 185.079 55.6571 183.505 56.396 181.962C54.9809 183.298 53.6494 184.749 52.4015 186.311C48.8206 185.548 45.2421 184.313 41.8285 182.641C43.0043 180.092 44.4822 177.718 45.9415 175.368C43.4481 176.899 41.1476 178.879 39.1283 181.215C37.6156 180.363 36.1562 179.426 34.7434 178.403C34.5064 178.233 34.2763 178.059 34.0323 177.883C32.1687 176.48 30.491 175.068 28.9317 173.579C29.2454 173.128 29.5568 172.676 29.8682 172.226C31.4832 169.883 33.0982 167.529 34.7132 165.187C31.8922 166.484 29.8217 168.893 27.2656 170.833C27.0588 170.99 26.8497 171.155 26.6475 171.314V171.309C23.7335 167.988 20.5105 163.373 17.7871 158.391C18.2123 157.944 18.6585 157.522 19.1186 157.128C19.574 156.717 20.0597 156.331 20.543 155.976C19.8808 156.029 19.2162 156.102 18.547 156.191C17.9544 156.275 17.3526 156.37 16.76 156.488C15.4912 154.084 14.1806 151.428 12.7725 148.462C16.3162 147.814 19.6043 147.299 22.7204 147.05C22.9156 147.702 23.1224 148.345 23.3431 148.985C23.7242 150.131 24.1379 151.257 24.5887 152.362C24.6351 151.339 24.7258 150.318 24.8722 149.304C24.986 148.501 25.1301 147.705 25.3044 146.913C28.6436 146.818 31.7992 147.115 34.8759 147.981C34.8178 148.915 34.7713 149.849 34.7202 150.785C34.5808 153.189 34.4367 155.588 34.3042 157.997C34.8062 155.962 35.3824 153.958 36.0284 151.984C36.3863 150.897 36.7627 149.818 37.1647 148.75C39.6465 149.695 42.0864 151.053 44.5449 152.932C45.9229 153.989 47.273 155.149 48.5766 156.415C48.3419 157.295 48.1049 158.176 47.8632 159.062C47.2962 161.173 46.7316 163.283 46.1599 165.388C47.4984 163.543 48.8322 161.687 50.1707 159.842C50.417 159.501 50.661 159.16 50.9027 158.825C52.0158 160.041 53.0777 161.324 54.0932 162.671Z" fill="white"/>
<path d="M15.4376 150.038C15.8931 150.301 20.4801 152.932 20.9309 153.2C19.2509 153.544 17.6196 154.265 16.1487 155.308L16.3671 155.735C17.924 154.634 19.6622 153.907 21.4375 153.614L21.5886 153.591C22.9503 154.405 24.305 155.238 25.6621 156.085C23.3197 157.153 21.2586 158.799 19.5506 160.851C19.4763 160.94 19.4019 161.03 19.3322 161.119C19.4135 161.259 19.4949 161.396 19.5739 161.533C19.6668 161.424 19.7528 161.315 19.8458 161.206C21.6002 159.101 23.7334 157.435 26.157 156.398C26.6473 156.703 27.133 157.013 27.6117 157.323C25.4134 158.685 23.3941 160.51 21.6164 162.64C21.3585 162.956 21.1029 163.275 20.8496 163.604C20.9356 163.739 21.0239 163.873 21.1099 164.004C21.3701 163.663 21.6397 163.325 21.9162 162.998C23.7334 160.815 25.8061 158.964 28.0671 157.611C29.078 158.265 30.0934 158.925 31.0973 159.596C29.6705 160.943 28.3088 162.388 27.0284 163.929C25.9433 165.231 24.9115 166.601 23.9425 168.027C24.0401 168.153 24.1331 168.276 24.2307 168.399C25.1997 166.964 26.2337 165.589 27.3236 164.284C28.6318 162.707 30.0284 161.231 31.4947 159.861C33.8649 161.446 36.2072 163.076 38.5333 164.753C36.5418 166.361 34.7084 168.178 33.0353 170.179C31.9106 171.532 30.8649 172.969 29.8959 174.478C30.0121 174.576 30.1213 174.677 30.2305 174.78C31.1833 173.288 32.222 171.87 33.3351 170.537C35.0314 168.502 36.8997 166.66 38.926 165.038C39.8415 165.701 40.7548 166.372 41.6587 167.048C39.0398 168.608 36.6394 170.694 34.569 173.181C33.7162 174.202 32.9191 175.292 32.1871 176.441C32.301 176.533 32.4172 176.628 32.538 176.718C33.2537 175.599 34.0275 174.534 34.8641 173.539C36.9647 171.018 39.4093 168.916 42.07 167.367L42.0816 167.361C43.8058 168.656 45.5208 169.978 47.2217 171.322C44.4286 173.363 41.8446 175.809 39.5302 178.588C39.0003 179.225 38.4798 179.876 37.9779 180.547C38.1127 180.625 38.2382 180.704 38.3706 180.779C38.8446 180.15 39.328 179.541 39.8253 178.94C42.1606 176.139 44.7818 173.673 47.6075 171.63C48.4324 172.284 49.2527 172.947 50.0706 173.609C49.2922 174.372 48.5486 175.183 47.8398 176.035C46.032 178.202 44.4518 180.637 43.1552 183.267C43.2876 183.326 43.4201 183.385 43.5525 183.443C44.8283 180.88 46.3736 178.507 48.1326 176.39C48.8646 175.516 49.6338 174.685 50.4285 173.905C51.265 174.593 52.1016 175.284 52.9335 175.985C51.272 177.156 49.743 178.588 48.3743 180.226C47.3426 181.47 46.4084 182.828 45.5835 184.282C45.7206 184.335 45.86 184.385 45.9994 184.438C46.7895 183.057 47.6888 181.763 48.6764 180.581C50.0544 178.92 51.6182 177.475 53.3076 176.301C54.4671 177.279 55.622 178.269 56.763 179.273C54.7855 180.36 52.9683 181.892 51.4277 183.745C50.9072 184.366 50.4169 185.025 49.9614 185.719C50.1125 185.761 50.2612 185.8 50.4169 185.842C50.8282 185.232 51.2604 184.651 51.7228 184.1C53.2844 182.222 55.1364 180.684 57.1557 179.614C58.5174 180.81 59.8675 182.023 61.206 183.253C59.9721 183.91 58.8358 184.855 57.8714 186.007C57.56 186.381 57.2649 186.775 56.9954 187.186L57.4741 187.281C57.6878 186.963 57.9249 186.655 58.1665 186.362C59.1472 185.185 60.3183 184.237 61.5871 183.603C66.1672 187.818 61.9566 185.299 66.2787 189.889L66.6923 189.663C62.3191 185.014 66.4786 187.474 61.8473 183.208C61.9914 181.623 62.4399 180.075 63.151 178.716C63.0766 178.546 62.9953 178.378 62.9209 178.213C62.1587 179.608 61.6498 181.204 61.4593 182.853C60.1162 181.621 58.7614 180.405 57.3997 179.205C58.1015 176.975 59.1169 174.884 60.3811 173.036L60.151 172.583C58.8404 174.47 57.7854 176.611 57.0465 178.898C55.8823 177.875 54.7042 176.863 53.5214 175.865C53.9652 172.558 55.155 169.377 56.9024 166.741C56.8164 166.601 56.7305 166.467 56.6422 166.327C54.8552 168.988 53.6306 172.195 53.1403 175.546C52.334 174.864 51.5206 174.191 50.7004 173.522C51.6926 170.079 53.1635 166.83 55.0272 163.943C54.9342 163.811 54.8436 163.686 54.7506 163.557C52.8521 166.47 51.358 169.751 50.3425 173.232C49.5176 172.555 48.688 171.884 47.8515 171.222C48.7554 167.375 50.3657 163.753 52.5245 160.689C52.4246 160.569 52.327 160.451 52.2294 160.334C50.0497 163.417 48.4161 167.06 47.4866 170.931C45.7322 169.542 43.9615 168.18 42.1746 166.844C42.0049 162.05 42.7392 157.197 44.2845 152.739C44.1637 152.647 44.0475 152.557 43.9267 152.47C42.3744 156.912 41.6192 161.74 41.747 166.523C40.8756 165.874 39.9926 165.226 39.1096 164.588C39.0863 159.85 39.7439 155.098 41.0429 150.592C40.9151 150.519 40.7896 150.449 40.6618 150.377C39.3628 154.852 38.6936 159.574 38.6936 164.287C36.4047 162.634 34.0903 161.027 31.7596 159.467C31.5528 155.453 31.9734 151.377 32.9888 147.523C32.8494 147.492 32.7123 147.467 32.5729 147.439C31.5806 151.232 31.1531 155.229 31.3274 159.177C30.3049 158.494 29.2732 157.821 28.2414 157.158C27.772 153.784 27.9974 150.259 28.8642 146.972C28.7201 146.964 28.576 146.952 28.4297 146.947C27.6047 150.15 27.3747 153.566 27.779 156.862C27.3398 156.58 26.896 156.297 26.4521 156.018C26.1338 152.996 26.2546 149.896 26.7984 146.896C26.659 146.896 26.5149 146.896 26.3708 146.896C25.8526 149.801 25.7248 152.8 26.0013 155.735C24.5072 154.796 23.0014 153.874 21.491 152.971C20.8031 151.179 20.3244 149.273 20.0642 147.319L19.6506 147.369C19.8853 149.175 20.3082 150.944 20.9007 152.624C20.522 152.395 16.0093 149.809 15.6235 149.583C15.519 149.524 15.3912 149.577 15.347 149.7C15.2936 149.826 15.3331 149.977 15.4376 150.038ZM41.7702 167.129L41.7981 167.152L41.7702 167.155V167.129ZM21.1726 153.343L21.3051 153.424L21.2237 153.474C21.2075 153.432 21.1912 153.387 21.1726 153.343Z" fill="#9B9B9B"/>
<path d="M95.568 8.00205V130.835H17.2838V8.00205H95.568Z" fill="white" stroke="#BCBCBC" stroke-width="0.3"/>
<path d="M65.898 161.136C66.3418 163.753 66.6253 166.42 66.7392 169.086C65.1823 169.441 63.6416 169.947 62.1475 170.59C63.6928 170.386 65.2636 170.456 66.7926 170.792C66.8902 176.287 67.0273 183.597 65.5564 188.59C62.7307 186.963 59.1754 182.985 56.5751 180.472C57.7277 179.558 58.8989 178.694 60.1049 177.886C58.4434 178.143 56.8052 178.54 55.1902 179.077C52.6225 176.413 50.2499 173.377 48.1795 170.084C50.1361 168.717 52.253 167.664 54.3536 166.624C51.7511 166.42 49.1252 166.682 46.5877 167.398C45.7163 165.849 44.9193 164.262 44.1919 162.635C44.0711 162.363 43.9503 162.092 43.8364 161.813C42.8953 159.621 42.1099 157.533 41.4592 155.451C41.8845 155.266 42.3074 155.084 42.7396 154.903C44.9541 153.952 47.1826 152.996 49.3971 152.046C46.6342 151.47 44.02 152.213 41.2106 152.3C40.9805 152.306 40.7481 152.317 40.5227 152.328V152.323C39.5073 147.998 38.759 142.46 38.5499 136.914C39.0704 136.8 39.5956 136.719 40.1207 136.666C40.6459 136.601 41.1804 136.568 41.7125 136.562C41.1594 136.224 40.5994 135.902 40.0278 135.592C39.5189 135.318 39.0053 135.05 38.4802 134.804C38.4174 132.154 38.4244 129.277 38.4709 126.099C41.5615 127.611 44.4011 129.085 46.9851 130.67C46.8805 131.301 46.7945 131.936 46.7202 132.573C46.5691 133.708 46.4553 134.846 46.3786 135.989C46.8178 135.195 47.2964 134.432 47.817 133.703C48.2259 133.127 48.6535 132.573 49.109 132.039C51.8208 133.879 54.2258 135.922 56.3428 138.376C55.9222 139.092 55.5178 139.813 55.1019 140.529C54.0423 142.374 52.9803 144.213 51.923 146.064C53.129 144.722 54.3815 143.45 55.6805 142.24C56.3962 141.574 57.1212 140.929 57.8671 140.302C59.4821 142.48 60.8903 144.965 62.1173 147.878C62.7981 149.508 63.4232 151.213 63.9577 152.971C63.4232 153.538 62.8864 154.109 62.3427 154.679C61.0507 156.043 59.7703 157.41 58.4783 158.766C60.2769 158.056 62.0778 157.335 63.8786 156.625C64.2133 156.493 64.5409 156.362 64.8709 156.23C65.2752 157.841 65.6215 159.476 65.898 161.136Z" fill="white"/>
<path d="M39.981 128.889C40.2413 129.364 42.8648 134.089 43.1204 134.567C41.6425 133.879 40.0507 133.518 38.459 133.51L38.4706 133.977C40.1483 133.988 41.8284 134.402 43.3621 135.187L43.4899 135.254C44.2567 136.688 45.0189 138.131 45.7625 139.581C43.4666 139.095 41.1685 139.232 38.9888 139.895C38.8958 139.922 38.7983 139.95 38.7053 139.981C38.7169 140.14 38.7285 140.3 38.7402 140.456C38.8563 140.417 38.9656 140.381 39.0817 140.347C41.3195 139.668 43.6851 139.556 46.039 140.118C46.3039 140.641 46.5688 141.166 46.8361 141.692C44.5332 141.519 42.1956 141.823 39.9346 142.511C39.5999 142.612 39.2723 142.723 38.9377 142.841C38.9539 142.997 38.9702 143.154 38.9888 143.31C39.335 143.187 39.6813 143.07 40.0275 142.964C42.3466 142.262 44.7401 141.966 47.0777 142.181C47.6378 143.285 48.1792 144.392 48.7206 145.505C47.0475 145.762 45.3861 146.142 43.7478 146.637C42.3698 147.059 41.0012 147.562 39.6627 148.149C39.6859 148.306 39.7161 148.457 39.744 148.613C41.0895 148.021 42.4558 147.515 43.8477 147.093C45.5208 146.584 47.2218 146.201 48.9344 145.946C50.2055 148.569 51.4324 151.216 52.6268 153.888C50.4007 154.036 48.2094 154.436 46.0855 155.082C44.6494 155.518 43.2412 156.066 41.8726 156.723C41.919 156.865 41.9725 157.011 42.0166 157.153C43.3737 156.507 44.7586 155.965 46.1784 155.535C48.3418 154.88 50.568 154.481 52.829 154.344C53.2961 155.398 53.7631 156.454 54.2209 157.517C51.5091 157.262 48.7624 157.556 46.1204 158.358C45.0352 158.688 43.9686 159.104 42.9299 159.602C42.981 159.744 43.0391 159.884 43.0972 160.027C44.1126 159.54 45.1514 159.135 46.211 158.814C48.8879 158 51.6811 157.715 54.4207 158.006H54.4324C55.2991 160.032 56.1519 162.07 56.9769 164.122C53.9374 164.153 50.898 164.628 47.9491 165.522C47.2729 165.729 46.599 165.956 45.9345 166.207C46.0042 166.342 46.0785 166.478 46.1552 166.613C46.778 166.383 47.4124 166.171 48.0467 165.978C51.0234 165.075 54.0931 164.603 57.1628 164.589C57.5671 165.584 57.9575 166.582 58.3502 167.583C57.4277 167.748 56.5098 167.971 55.6035 168.242C53.3077 168.941 51.0746 169.987 48.9925 171.342C49.0785 171.468 49.1598 171.591 49.2411 171.711C51.2767 170.395 53.4587 169.38 55.7035 168.698C56.6306 168.416 57.5717 168.189 58.5175 168.024C58.9172 169.053 59.3145 170.087 59.7003 171.122C57.9064 171.108 56.1124 171.376 54.3766 171.904C53.0614 172.304 51.767 172.858 50.5401 173.548C50.6261 173.671 50.719 173.791 50.8097 173.914C51.9878 173.26 53.2171 172.74 54.4742 172.357C56.2402 171.823 58.0574 171.558 59.8746 171.591C60.416 173.036 60.9458 174.487 61.4663 175.946C59.447 175.684 57.3928 175.865 55.42 176.464C54.7623 176.665 54.1094 176.911 53.4703 177.207C53.5726 177.325 53.6772 177.445 53.7864 177.562C54.3534 177.311 54.9296 177.095 55.5176 176.916C57.5136 176.31 59.6027 176.139 61.6383 176.438C62.2564 178.18 62.8559 179.921 63.4392 181.674C62.1867 181.492 60.9063 181.596 59.684 181.968C59.2843 182.085 58.8986 182.236 58.5175 182.412L58.8591 182.756C59.1589 182.627 59.4702 182.516 59.7816 182.42C61.0271 182.04 62.3377 181.951 63.6065 182.174C65.6026 188.168 63.2324 183.743 64.8706 189.89L65.2912 189.946C63.6344 183.723 65.9883 188.073 63.9713 182.004C64.7079 180.819 65.6886 179.84 66.7923 179.158C66.797 178.979 66.804 178.803 66.8086 178.624C65.6444 179.304 64.6057 180.288 63.8017 181.501C63.2138 179.745 62.6143 177.995 61.9961 176.254C63.4392 174.873 65.0844 173.78 66.8249 173.028L66.8202 172.539C65.0263 173.294 63.33 174.403 61.8358 175.809C61.3037 174.319 60.7669 172.838 60.2138 171.359C61.8823 168.972 64.0921 167.107 66.5321 166C66.5205 165.841 66.5019 165.682 66.4926 165.522C64.0038 166.624 61.7545 168.488 60.0419 170.887C59.6608 169.88 59.2797 168.874 58.887 167.873C61.0457 165.69 63.5089 163.929 66.144 162.691C66.1231 162.534 66.0999 162.378 66.0766 162.221C63.4043 163.465 60.9063 165.235 58.7197 167.434C58.3223 166.42 57.9249 165.408 57.5206 164.402C59.7653 161.844 62.4934 159.867 65.4306 158.651C65.3958 158.503 65.3656 158.35 65.3307 158.199C62.3656 159.417 59.619 161.394 57.3417 163.96C56.4866 161.844 55.6105 159.739 54.7159 157.648C56.4749 153.718 58.9846 150.257 61.9845 147.573C61.9218 147.431 61.8637 147.291 61.8009 147.151C58.8056 149.821 56.2914 153.248 54.4974 157.148C54.0582 156.124 53.6074 155.104 53.159 154.087C55.011 150.282 57.416 146.858 60.2371 143.998C60.1674 143.867 60.093 143.738 60.0186 143.61C57.2139 146.447 54.8088 149.838 52.9382 153.606C51.7624 150.973 50.5517 148.364 49.3039 145.782C50.7237 142.449 52.6733 139.433 55.0156 136.931C54.9111 136.828 54.8135 136.727 54.7159 136.627C52.42 139.089 50.4983 142.044 49.0738 145.304C48.5208 144.169 47.9654 143.042 47.4007 141.918C48.3628 138.952 49.9383 136.263 51.9297 134.125C51.8205 134.038 51.7113 133.946 51.5951 133.859C49.6687 135.95 48.1327 138.55 47.1521 141.418C46.9104 140.937 46.6688 140.459 46.4248 139.981C47.3659 137.381 48.6881 134.969 50.3077 132.884C50.1985 132.803 50.0823 132.719 49.9685 132.638C48.4046 134.667 47.1172 136.993 46.1784 139.498C45.3512 137.89 44.51 136.288 43.6549 134.701C43.8175 132.875 44.1916 131.075 44.7586 129.364L44.4054 129.166C43.8756 130.748 43.5178 132.403 43.3272 134.086C43.1088 133.686 40.5225 129.032 40.304 128.632C40.2459 128.523 40.1251 128.492 40.0391 128.565C39.9462 128.635 39.9229 128.78 39.981 128.889ZM54.2767 157.645L54.2883 157.679L54.2651 157.665L54.2767 157.645ZM43.2575 134.815L43.3319 134.961L43.2459 134.952C43.2459 134.905 43.2529 134.86 43.2575 134.815Z" fill="#9B9B9B"/>
<path d="M77.8 40.9048C80.4421 40.9048 82.8355 42.1962 84.5737 44.2788C86.3026 46.3641 87.3761 49.2434 87.3761 52.4245C87.3761 55.6056 86.3026 58.4849 84.5737 60.5702C82.8355 62.6528 80.4421 63.9414 77.8 63.9414C75.1579 63.9414 72.7621 62.6528 71.0309 60.5702C69.2951 58.4849 68.2285 55.6056 68.2285 52.4245C68.2285 49.2434 69.2951 46.3641 71.0309 44.2788C72.7621 42.1962 75.1579 40.9048 77.8 40.9048ZM83.2515 45.8666C81.8549 44.1893 79.9285 43.1495 77.8 43.1495C75.6715 43.1495 73.7427 44.1893 72.3485 45.8666C70.9519 47.5438 70.0922 49.8639 70.0922 52.4245C70.0922 54.9851 70.9519 57.3024 72.3485 58.9824C73.7427 60.6597 75.6715 61.6995 77.8 61.6995C79.9285 61.6995 81.8549 60.6597 83.2515 58.9824C84.6481 57.3024 85.5078 54.9851 85.5078 52.4245C85.5078 49.8639 84.6481 47.5438 83.2515 45.8666Z" fill="#DCDCDC"/>
<path fill-rule="evenodd" clip-rule="evenodd" d="M77.3717 54.0568L84.6822 45.8552C85.2515 45.2178 86.1462 45.257 86.6783 45.9446C87.2081 46.6295 87.1733 47.7085 86.6016 48.3459L78.2199 57.7495L78.1967 57.769C77.6134 58.384 76.7188 58.3113 76.2075 57.6097L72.1619 52.0469C71.6553 51.3453 71.7111 50.2635 72.2944 49.6485C72.8823 49.0335 73.7769 49.1062 74.2905 49.8078L77.3717 54.0568Z" fill="#F85C24"/>
<path d="M77.8 67.9082C80.4421 67.9082 82.8355 69.1969 84.5737 71.2822C86.3026 73.3676 87.3761 76.2468 87.3761 79.4279C87.3761 82.6062 86.3026 85.4883 84.5737 87.5708C82.8355 89.6562 80.4421 90.9448 77.8 90.9448C75.1579 90.9448 72.7621 89.6562 71.0309 87.5708C69.2951 85.4883 68.2285 82.6062 68.2285 79.4279C68.2285 76.2468 69.2951 73.3676 71.0309 71.2822C72.7621 69.1969 75.1579 67.9082 77.8 67.9082ZM83.2515 72.87C81.8549 71.1928 79.9285 70.1529 77.8 70.1529C75.6715 70.1529 73.7427 71.1928 72.3485 72.87C70.9519 74.5472 70.0922 76.8674 70.0922 79.4279C70.0922 81.9885 70.9519 84.3058 72.3485 85.9858C73.7427 87.6631 75.6715 88.7001 77.8 88.7001C79.9285 88.7001 81.8549 87.6631 83.2515 85.9858C84.6481 84.3058 85.5078 81.9885 85.5078 79.4279C85.5078 76.8674 84.6481 74.5472 83.2515 72.87Z" fill="#DCDCDC"/>
<path d="M77.8 94.9111C80.4421 94.9111 82.8355 96.1998 84.5737 98.2851C86.3026 100.37 87.3761 103.25 87.3761 106.431C87.3761 109.609 86.3026 112.491 84.5737 114.574C82.8355 116.659 80.4421 117.948 77.8 117.948C75.1579 117.948 72.7621 116.659 71.0309 114.574C69.2951 112.488 68.2285 109.609 68.2285 106.431C68.2285 103.25 69.2951 100.37 71.0309 98.2851C72.7621 96.1998 75.1579 94.9111 77.8 94.9111ZM83.2515 99.8729C81.8549 98.1929 79.9285 97.1558 77.8 97.1558C75.6715 97.1558 73.7427 98.1929 72.3485 99.8729C70.9519 101.55 70.0922 103.87 70.0922 106.431C70.0922 108.991 70.9519 111.309 72.3485 112.986C73.7427 114.666 75.6715 115.703 77.8 115.703C79.9285 115.703 81.8549 114.666 83.2515 112.986C84.6481 111.309 85.5078 108.991 85.5078 106.431C85.5078 103.87 84.6481 101.55 83.2515 99.8729Z" fill="#DCDCDC"/>
<path fill-rule="evenodd" clip-rule="evenodd" d="M26.5035 43.9292H38.5102C39.1957 43.9292 39.7627 44.6085 39.7627 45.4359C39.7627 46.2633 39.1957 46.9398 38.5102 46.9398H26.5035C25.818 46.9398 25.251 46.2633 25.251 45.4359C25.251 44.6085 25.818 43.9292 26.5035 43.9292Z" fill="#FF8C63"/>
<path fill-rule="evenodd" clip-rule="evenodd" d="M26.5035 50.3027H63.3185C64.0109 50.3027 64.571 50.9792 64.571 51.8066C64.571 52.6341 64.0109 53.3106 63.3185 53.3106H26.5035C25.818 53.3106 25.251 52.6341 25.251 51.8066C25.251 50.9792 25.818 50.3027 26.5035 50.3027Z" fill="#D3D3D3"/>
<path fill-rule="evenodd" clip-rule="evenodd" d="M26.5035 57.3667H51.8601C52.5526 57.3667 53.1126 58.0432 53.1126 58.8706C53.1126 59.698 52.5526 60.3773 51.8601 60.3773H26.5035C25.818 60.3773 25.251 59.698 25.251 58.8706C25.251 58.0432 25.818 57.3667 26.5035 57.3667Z" fill="#D3D3D3"/>
<path fill-rule="evenodd" clip-rule="evenodd" d="M26.5035 70.9326H38.5102C39.1957 70.9326 39.7627 71.6091 39.7627 72.4365C39.7627 73.264 39.1957 73.9432 38.5102 73.9432H26.5035C25.818 73.9432 25.251 73.264 25.251 72.4365C25.251 71.6091 25.818 70.9326 26.5035 70.9326Z" fill="#FF8C63"/>
<path fill-rule="evenodd" clip-rule="evenodd" d="M26.5035 97.936H38.5102C39.1957 97.936 39.7627 98.6125 39.7627 99.4399C39.7627 100.267 39.1957 100.944 38.5102 100.944H26.5035C25.818 100.944 25.251 100.267 25.251 99.4399C25.251 98.6125 25.818 97.936 26.5035 97.936Z" fill="#FF8C63"/>
<path fill-rule="evenodd" clip-rule="evenodd" d="M26.5035 77.3062H63.3185C64.0109 77.3062 64.571 77.9826 64.571 78.8101C64.571 79.6375 64.0109 80.314 63.3185 80.314H26.5035C25.818 80.314 25.251 79.6375 25.251 78.8101C25.251 77.9826 25.818 77.3062 26.5035 77.3062Z" fill="#D3D3D3"/>
<path fill-rule="evenodd" clip-rule="evenodd" d="M26.5035 104.309H63.3185C64.0109 104.309 64.571 104.986 64.571 105.813C64.571 106.64 64.0109 107.317 63.3185 107.317H26.5035C25.818 107.317 25.251 106.64 25.251 105.813C25.251 104.986 25.818 104.309 26.5035 104.309Z" fill="#D3D3D3"/>
<path fill-rule="evenodd" clip-rule="evenodd" d="M26.5035 84.3701H51.8601C52.5526 84.3701 53.1126 85.0466 53.1126 85.874C53.1126 86.7015 52.5526 87.3779 51.8601 87.3779H26.5035C25.818 87.3779 25.251 86.7015 25.251 85.874C25.251 85.0466 25.818 84.3701 26.5035 84.3701Z" fill="#D3D3D3"/>
<path fill-rule="evenodd" clip-rule="evenodd" d="M26.5035 111.373H51.8601C52.5526 111.373 53.1126 112.05 53.1126 112.877C53.1126 113.704 52.5526 114.381 51.8601 114.381H26.5035C25.818 114.381 25.251 113.704 25.251 112.877C25.251 112.05 25.818 111.373 26.5035 111.373Z" fill="#D3D3D3"/>
<path fill-rule="evenodd" clip-rule="evenodd" d="M17.1338 7.85219H95.718V0H17.1338V7.85219Z" fill="#BCBCBC"/>
<path fill-rule="evenodd" clip-rule="evenodd" d="M83.9717 1.99854C84.7524 1.99854 85.3799 2.75608 85.3799 3.69253C85.3799 4.62898 84.7524 5.38652 83.9717 5.38652C83.2002 5.38652 82.5635 4.62898 82.5635 3.69253C82.5635 2.75608 83.2002 1.99854 83.9717 1.99854Z" fill="white"/>
<path fill-rule="evenodd" clip-rule="evenodd" d="M87.9824 1.99854C88.7609 1.99854 89.3906 2.75608 89.3906 3.69253C89.3906 4.62898 88.7609 5.38652 87.9824 5.38652C87.204 5.38652 86.5742 4.62898 86.5742 3.69253C86.5742 2.75608 87.204 1.99854 87.9824 1.99854Z" fill="white"/>
<path fill-rule="evenodd" clip-rule="evenodd" d="M91.9863 1.99854C92.7648 1.99854 93.3945 2.75608 93.3945 3.69253C93.3945 4.62898 92.7648 5.38652 91.9863 5.38652C91.2125 5.38652 90.5781 4.62898 90.5781 3.69253C90.5781 2.75608 91.2125 1.99854 91.9863 1.99854Z" fill="white"/>
<path fill-rule="evenodd" clip-rule="evenodd" d="M17.041 191.343H240.592V190.907H17.041V191.343Z" fill="#696969"/>
<path fill-rule="evenodd" clip-rule="evenodd" d="M187.095 145.479L185.612 145.714L190.244 191.039C190.297 191.53 190.671 191.883 191.075 191.816L191.161 191.804C191.526 191.746 191.784 191.343 191.74 190.907L187.095 145.479Z" fill="#FEFFFF"/>
<path fill-rule="evenodd" clip-rule="evenodd" d="M160.357 145.412H158.858V191.102C158.858 191.597 159.2 192 159.609 192H159.695C160.058 192 160.357 191.642 160.357 191.203V145.412Z" fill="#FEFFFF"/>
<path fill-rule="evenodd" clip-rule="evenodd" d="M138.284 145.412H136.785V191.102C136.785 191.597 137.124 192 137.536 192H137.622C137.984 192 138.284 191.642 138.284 191.203V145.412Z" fill="#FEFFFF"/>
<path fill-rule="evenodd" clip-rule="evenodd" d="M170.266 145.479L168.776 145.714L173.41 191.039C173.461 191.53 173.835 191.883 174.246 191.816L174.332 191.804C174.69 191.746 174.951 191.343 174.904 190.907L170.266 145.479Z" fill="#FEFFFF"/>
<path fill-rule="evenodd" clip-rule="evenodd" d="M151.571 87.9367C149.617 95.4311 146.761 102.705 140.368 107.158C134.743 108.894 123.226 109.78 123.561 108.114C123.872 106.579 123.572 106.277 125.534 105.478C126.693 106.341 139.197 95.255 139.334 95.2158C140.292 94.9419 143.148 78.3653 148.825 75.4805C149.466 74.846 153.17 84.1825 151.571 87.9367Z" fill="#FBB44A"/>
<path fill-rule="evenodd" clip-rule="evenodd" d="M148.532 97.1391C148.209 97.8296 146.98 100.399 144.833 102.713C146.069 99.627 148.669 86.2036 148.669 86.2036L148.532 97.1391Z" fill="#F48120"/>
<path fill-rule="evenodd" clip-rule="evenodd" d="M160.415 139.897H134.759C133.22 139.897 131.961 141.412 131.961 143.26C131.961 145.11 133.22 146.623 134.759 146.623H160.415C161.951 146.623 163.208 145.11 163.208 143.26C163.208 141.412 161.951 139.897 160.415 139.897Z" fill="#FEFFFF"/>
<path fill-rule="evenodd" clip-rule="evenodd" d="M169.049 87.6519H195.177L188.605 140.023L162.477 140.054C162.377 140.054 162.275 140.043 162.17 140.023C161.097 140.023 160.376 138.611 160.544 137.331L166.808 89.6086C166.976 88.3311 167.975 87.6519 169.049 87.6519Z" fill="#FEFFFF"/>
<path fill-rule="evenodd" clip-rule="evenodd" d="M193.25 89.6086L186.609 139.897H157.613C156.077 139.897 154.82 141.412 154.82 143.26C154.82 145.111 156.077 146.623 157.613 146.623H186.83C189.616 146.623 190.099 143.481 190.348 141.577L197.115 90.3438C197.282 89.0635 196.562 87.6519 195.488 87.6519H195.483C194.41 87.6519 193.418 88.3311 193.25 89.6086Z" fill="#CCCCCC"/>
<path fill-rule="evenodd" clip-rule="evenodd" d="M122.164 185.422L122.194 178.878L126.891 179.041L126.793 185.741L122.164 185.422Z" fill="#F8A98E"/>
<path fill-rule="evenodd" clip-rule="evenodd" d="M163.337 121.956L152.887 119.572C152.887 119.572 128.65 122.758 124.161 132.271C119.679 141.784 121.445 180.153 121.445 180.153L127.965 180.254C127.537 177.095 134.715 140.434 134.736 140.428L162.054 128.732L163.337 121.956Z" fill="#8F8F8F"/>
<path fill-rule="evenodd" clip-rule="evenodd" d="M163.337 121.957L159.668 123.938C156.645 124.006 143.571 126.463 141.378 127.03C133.946 128.956 134.859 133.496 134.736 140.428L140.137 139.548L162.054 128.733L163.337 121.957Z" fill="#C2C2C2"/>
<path fill-rule="evenodd" clip-rule="evenodd" d="M146.369 184.332L145.925 178.644L150.665 178.781L150.626 185.297L146.369 184.332Z" fill="#F8A98E"/>
<path fill-rule="evenodd" clip-rule="evenodd" d="M146.136 183.371C144.793 186.269 142.611 189.042 144.314 191.505H153.007C153.019 191.46 153.03 191.407 153.049 191.351C153.13 191.016 153.539 190.873 153.267 189.638C152.761 187.346 151.283 183.821 150.769 183.639C149.766 183.281 148.334 184.293 146.136 183.371Z" fill="black"/>
<path fill-rule="evenodd" clip-rule="evenodd" d="M143.669 189.587V189.593C143.65 190.362 143.715 191.041 144.315 191.505H153.008C153.454 191.192 153.575 190.977 153.268 189.638L143.669 189.587Z" fill="white"/>
<path d="M144.367 191.355C143.899 190.967 143.811 190.42 143.816 189.738L153.148 189.787C153.28 190.386 153.312 190.717 153.273 190.929C153.238 191.118 153.147 191.219 152.96 191.355H144.367Z" stroke="white" stroke-opacity="0.2" stroke-width="0.3"/>
<path fill-rule="evenodd" clip-rule="evenodd" d="M149.587 183.088H147.574C147.298 183.088 147.072 183.36 147.072 183.689V186.803C147.072 187.136 147.298 187.41 147.574 187.41H149.587C149.863 187.41 150.088 187.136 150.088 186.803V183.689C150.088 183.36 149.863 183.088 149.587 183.088Z" fill="white"/>
<path d="M147.574 183.238H149.587C149.756 183.238 149.938 183.416 149.938 183.689V186.803C149.938 187.081 149.755 187.26 149.587 187.26H147.574C147.406 187.26 147.222 187.081 147.222 186.803V183.689C147.222 183.416 147.405 183.238 147.574 183.238Z" stroke="white" stroke-opacity="0.2" stroke-width="0.3"/>
<path fill-rule="evenodd" clip-rule="evenodd" d="M175.297 120.578C175.297 120.578 178.33 135.324 172.815 138.499C167.299 141.678 150.085 142.016 150.085 142.016C153.556 157.687 151.023 167.607 151.151 180.955L145.405 180.992C145.405 180.992 139.612 156.068 137.906 141.935C137.051 134.807 136.872 129.138 144.378 127.192C146.906 126.538 163.337 121.956 163.337 121.956L175.297 120.578Z" fill="#8F8F8F"/>
<path fill-rule="evenodd" clip-rule="evenodd" d="M172.469 75.3295C176.589 86.6899 171.725 97.8826 175.808 121.344C168.737 124.058 147.821 124.142 146.922 120.254C146.482 105.416 147.193 91.1932 147.695 76.3638C153.955 71.1476 163.104 69.4397 170.275 73.437C170.656 73.6495 171.263 73.9626 171.621 74.3092C171.99 74.6614 172.111 75.0472 172.469 75.3295Z" fill="#FBB44A"/>
<path fill-rule="evenodd" clip-rule="evenodd" d="M154.381 104.513L169.641 98.369L169.745 90.9054L171.437 88.1743C171.437 88.1743 174.886 94.5254 174.897 94.9559C174.916 95.3836 173.375 101.841 173.512 101.846C173.652 101.855 164.408 105.553 163.648 105.768C162.886 105.984 154.381 104.513 154.381 104.513Z" fill="#F48120"/>
<path fill-rule="evenodd" clip-rule="evenodd" d="M170.975 73.8507C176.94 77.3756 180.379 98.8608 179.017 104.541C178.78 108.619 164.917 108.091 155.045 109.654C153.695 108.455 152.587 106.875 153.851 104.661C159.914 101.98 170.589 99.5876 170.57 99.1991C169.729 91.4224 168.453 80.744 168.916 75.5754C168.972 74.9632 170.454 73.5432 170.975 73.8507Z" fill="#FBB44A"/>
<path fill-rule="evenodd" clip-rule="evenodd" d="M103.923 191.505H107.88V114.4H103.923V191.505Z" fill="#DBDCDC"/>
<path fill-rule="evenodd" clip-rule="evenodd" d="M95.4299 108.55H161.252V114.915H95.4299C93.9706 114.915 92.7832 113.481 92.7832 111.731C92.7832 109.981 93.9706 108.55 95.4299 108.55Z" fill="#D1D1D1"/>
<path fill-rule="evenodd" clip-rule="evenodd" d="M158.629 108.55H196.21C197.663 108.55 198.857 109.981 198.857 111.731C198.857 113.481 197.663 114.915 196.21 114.915H179.445V191.505H175.297V114.915H158.629C157.174 114.915 155.979 113.481 155.979 111.731C155.979 109.981 157.174 108.55 158.629 108.55Z" fill="#DBDCDC"/>
<path fill-rule="evenodd" clip-rule="evenodd" d="M121.56 183.195C121.56 183.195 115.304 186.286 113.218 187.519C111.596 188.472 110.678 190.482 112.012 191.505H128.222C128.234 191.461 128.252 191.408 128.264 191.354C128.501 190.387 129.135 183.505 127.444 183.656C126.4 183.751 123.902 184.648 121.56 183.195Z" fill="black"/>
<path fill-rule="evenodd" clip-rule="evenodd" d="M111.366 189.593V189.596L111.378 190.373C111.401 190.983 111.58 191.175 112.012 191.505H128.299C128.316 191.461 128.327 191.407 128.339 191.354C128.385 191.164 128.501 190.186 128.557 189.644L111.366 189.593Z" fill="white"/>
<path d="M128.193 191.319L128.193 191.319L128.192 191.322C128.19 191.334 128.187 191.345 128.185 191.355H112.063C111.87 191.206 111.75 191.096 111.669 190.966C111.587 190.831 111.539 190.659 111.528 190.369L111.518 189.744L128.391 189.793C128.364 190.041 128.329 190.341 128.296 190.613C128.253 190.953 128.214 191.234 128.193 191.319Z" stroke="white" stroke-opacity="0.2" stroke-width="0.3"/>
<path fill-rule="evenodd" clip-rule="evenodd" d="M120.872 183.547C118.616 184.673 114.837 186.583 113.285 187.474C114.098 188.229 114.872 188.078 114.872 188.078C114.872 188.078 119.276 186.426 120.526 185.358C121.265 184.729 121.116 184.022 120.872 183.547Z" fill="white"/>
<path d="M114.869 187.919L114.834 187.933C114.83 187.933 114.825 187.934 114.82 187.934C114.801 187.936 114.772 187.939 114.735 187.94C114.659 187.942 114.548 187.938 114.412 187.912C114.179 187.867 113.871 187.758 113.545 187.499C115.156 186.592 118.618 184.841 120.802 183.75C120.883 183.943 120.936 184.16 120.918 184.383C120.897 184.655 120.771 184.953 120.429 185.244L120.429 185.244C120.13 185.499 119.633 185.796 119.046 186.101C118.462 186.403 117.797 186.709 117.171 186.981C116.544 187.254 115.956 187.493 115.525 187.664C115.309 187.75 115.133 187.818 115.01 187.865C114.949 187.889 114.901 187.907 114.869 187.919Z" stroke="white" stroke-opacity="0.2" stroke-width="0.3"/>
<path fill-rule="evenodd" clip-rule="evenodd" d="M149.863 67.1814C151.099 68.9536 152.294 70.1668 153.753 70.5498L154.376 73.6694C153.937 75.875 154.348 77.7199 156.7 77.5522C162.978 76.1573 161.196 71.1816 161.096 70.9551L159.644 66.7816C159.846 66.709 161.363 65.1324 161.772 64.8417C162.188 64.5509 162.637 63.3322 162.469 62.228C162.298 61.1238 160.964 61.8758 160.964 61.8758C162.112 58.5996 163.59 55.7707 160.606 53.9621C157.617 52.1535 151.601 52.31 151.601 52.31L147.874 51.8516C148.594 53.157 148.948 58.0964 148.641 61.3279C148.376 64.2267 148.209 64.7997 149.863 67.1814Z" fill="#F7AAAC"/>
<path fill-rule="evenodd" clip-rule="evenodd" d="M157.123 77.4488C158.132 78.2175 159.656 79.2574 160.664 80.0261C161.952 77.3649 162.523 75.4864 162.8 72.5541C162.43 71.9391 161.264 70.3848 160.809 70.1221C160.388 72.2298 159.579 75.2292 157.123 77.4488Z" fill="#FFF1D8"/>
<path fill-rule="evenodd" clip-rule="evenodd" d="M157.123 77.4487C156.517 78.6619 155.341 79.8639 154.727 81.0771C153.979 79.3244 153.136 75.3354 153.038 73.06C153.384 72.6491 153.58 72.5261 154.019 71.8804C154.572 73.3815 156.061 76.5514 157.123 77.4487Z" fill="#FFF1D8"/>
<path fill-rule="evenodd" clip-rule="evenodd" d="M158.353 67.6899C158.085 70.3959 157.123 72.9564 154.739 73.5966L154.019 71.8802L153.754 70.5496C154.902 70.449 155.957 70.0381 158.353 67.6899Z" fill="#E16E73"/>
<path fill-rule="evenodd" clip-rule="evenodd" d="M147.147 108.651C147.447 107.396 148.012 105.59 149.462 105.036C150.494 104.642 152.513 105.126 156.603 105.408C157.105 106.973 157.116 107.79 156.979 108.522L147.147 108.651Z" fill="#F8B9BE"/>
<path fill-rule="evenodd" clip-rule="evenodd" d="M126.717 108.547C124.289 108.533 121.577 108.569 120.861 108.533C121.572 105.986 123.961 105.355 125.957 105.494C126.436 105.888 126.884 107.854 126.717 108.547Z" fill="#F8B9BE"/>
<path fill-rule="evenodd" clip-rule="evenodd" d="M106.484 71.6479H137.195C138.384 71.6479 138.614 72.8583 138.833 74.2812L142.767 99.6128C142.925 100.823 143.362 102.867 140.703 102.878L109.242 102.906L103.617 73.8787C103.212 71.6479 105.457 71.6479 106.484 71.6479Z" fill="#7B7E83"/>
<path fill-rule="evenodd" clip-rule="evenodd" d="M104.788 72.0171H136.238C137.432 72.0171 137.657 73.2303 137.876 74.6531L141.787 99.613H141.782L141.996 101.097C142.14 102.076 141.32 102.906 140.495 102.906H109.301C108.469 102.906 107.916 102.081 107.795 101.097L107.616 99.613H107.57L103.663 74.2869C103.473 73.0598 103.761 72.0171 104.788 72.0171Z" fill="#A4A5A7"/>
<path fill-rule="evenodd" clip-rule="evenodd" d="M141.751 102.179C141.47 102.615 140.984 102.906 140.494 102.906H109.3C108.912 102.906 108.589 102.727 108.336 102.439L112.918 98.4336L133.335 98.7243L141.751 102.179Z" fill="#DBDCDC"/>
<path fill-rule="evenodd" clip-rule="evenodd" d="M108.336 102.439C108.048 102.107 107.857 101.626 107.795 101.098L107.616 99.6132H107.569L103.663 74.2872C103.531 73.4206 103.635 72.6463 104.067 72.2661L110.137 79.3719L112.919 98.4336L108.336 102.439Z" fill="#DBDCDC"/>
<path fill-rule="evenodd" clip-rule="evenodd" d="M136.693 72.0898C137.494 72.3666 137.685 73.4316 137.876 74.6532L141.786 99.613H141.782L141.995 101.097C142.054 101.5 141.954 101.874 141.751 102.179L133.335 98.7241L130.635 79.3718L136.693 72.0898Z" fill="#DBDCDC"/>
<path fill-rule="evenodd" clip-rule="evenodd" d="M104.787 72.0171H136.237C136.404 72.0171 136.56 72.0422 136.692 72.0898L130.634 79.3717H110.137L103.916 72.428C104.114 72.1708 104.395 72.0171 104.787 72.0171Z" fill="white"/>
<path fill-rule="evenodd" clip-rule="evenodd" d="M115.865 85.2085H125.292C125.65 85.2085 125.72 85.5719 125.783 85.9996L126.954 93.4828L127.017 93.9273C127.063 94.2208 126.817 94.4696 126.568 94.4696H117.215C116.967 94.4696 116.799 94.2208 116.764 93.9273L116.713 93.4828H116.702L115.53 85.8906C115.472 85.5216 115.561 85.2085 115.865 85.2085Z" fill="#DBDCDC"/>
<path fill-rule="evenodd" clip-rule="evenodd" d="M119.581 87.0786H123.199L121.895 108.533H118.277L119.581 87.0786Z" fill="#DBDCDC"/>
<path fill-rule="evenodd" clip-rule="evenodd" d="M121.249 108.55H144.744V107.655H121.249V108.55Z" fill="#848484"/>
<path fill-rule="evenodd" clip-rule="evenodd" d="M162.691 55.0467C162.886 52.6986 161.397 50.8732 159.298 49.6097C154.953 46.9848 152.051 49.7187 150.724 50.4651C149.813 50.985 149.155 51.1108 148.249 51.5776C145.976 52.7461 146.766 58.7226 148.797 60.2572C149.004 60.4082 148.809 57.6296 149.027 57.7582C149.264 57.9203 149.518 58.0601 149.79 58.1691C152.859 59.2118 154.988 56.8189 156.991 58.7226C157.983 59.6646 158.178 61.3251 157.7 64.0729C157.56 64.8836 157.302 65.5181 158.248 64.6823C158.687 64.2966 160.151 63.3154 160.469 63.5139C161.167 63.9527 161.069 65.2554 160.653 65.7669C160.469 65.9961 160.105 66.3595 160.105 66.3595C164.364 64.2798 164.645 56.2124 162.691 55.0467Z" fill="black"/>
<path d="M115.34 40.1163C116.857 42.4001 118.375 45.2625 118.946 47.4877V48.3962H124.79V47.4877C125.362 45.2625 126.872 42.4001 128.39 40.1163C128.657 39.7417 128.829 39.3811 129.071 39.0065C129.798 37.606 130.237 35.9651 130.277 34.2013C130.393 28.8957 126.879 24.4818 122.425 24.3364C122.234 24.3308 122.051 24.3336 121.865 24.342C121.681 24.3336 121.495 24.3308 121.312 24.3364C116.857 24.4818 113.344 28.8957 113.46 34.2013C113.499 35.9651 113.939 37.606 114.666 39.0065C114.908 39.3811 115.082 39.7417 115.34 40.1163Z" fill="#FBB44A"/>
<path fill-rule="evenodd" clip-rule="evenodd" d="M121.865 26.8525C125.264 26.8525 128.016 30.1651 128.016 34.2491C128.016 38.3331 125.264 41.6456 121.865 41.6456C118.472 41.6456 115.721 38.3331 115.721 34.2491C115.721 30.1651 118.472 26.8525 121.865 26.8525Z" fill="#F7A12E"/>
<path fill-rule="evenodd" clip-rule="evenodd" d="M118.83 47.8818H124.86C124.976 47.8818 125.067 47.9909 125.067 48.1222V53.2042H125.055L124.432 54.3699L123.619 54.3783V54.3811C123.619 55.2225 122.822 55.9018 121.842 55.9018C120.873 55.9018 120.082 55.2365 120.066 54.409L119.316 54.4174L118.635 53.2042H118.616V48.1222C118.616 47.9909 118.716 47.8818 118.83 47.8818Z" fill="#8F8F8F"/>
<path fill-rule="evenodd" clip-rule="evenodd" d="M118.526 48.6616H125.165C125.518 48.6616 125.806 49.011 125.806 49.4359C125.806 49.8608 125.518 50.2075 125.165 50.2075C125.518 50.2075 125.806 50.5569 125.806 50.9818C125.806 51.4067 125.518 51.7533 125.165 51.7533C125.518 51.7533 125.806 52.1027 125.806 52.5276C125.806 52.9525 125.518 53.3019 125.165 53.3019H118.526C118.168 53.3019 117.88 52.9525 117.88 52.5276C117.88 52.1027 118.168 51.7533 118.526 51.7533C118.168 51.7533 117.88 51.4067 117.88 50.9818C117.88 50.5569 118.168 50.2075 118.526 50.2075C118.168 50.2075 117.88 49.8608 117.88 49.4359C117.88 49.011 118.168 48.6616 118.526 48.6616Z" fill="#8F8F8F"/>
<path fill-rule="evenodd" clip-rule="evenodd" d="M118.519 48.9272H125.165C125.253 48.9272 125.323 49.0111 125.323 49.1117C125.323 49.2152 125.253 49.2962 125.165 49.2962H118.519C118.44 49.2962 118.37 49.2152 118.37 49.1117C118.37 49.0111 118.44 48.9272 118.519 48.9272Z" fill="white"/>
<path fill-rule="evenodd" clip-rule="evenodd" d="M118.519 50.4229H125.165C125.253 50.4229 125.323 50.5067 125.323 50.6074C125.323 50.7108 125.253 50.7919 125.165 50.7919H118.519C118.44 50.7919 118.37 50.7108 118.37 50.6074C118.37 50.5067 118.44 50.4229 118.519 50.4229Z" fill="white"/>
<path fill-rule="evenodd" clip-rule="evenodd" d="M118.519 51.9185H125.165C125.253 51.9185 125.323 51.9995 125.323 52.103C125.323 52.2036 125.253 52.2874 125.165 52.2874H118.519C118.44 52.2874 118.37 52.2036 118.37 52.103C118.37 51.9995 118.44 51.9185 118.519 51.9185Z" fill="white"/>
<path d="M119.811 35.6157C120.152 35.6157 120.464 35.7834 120.689 36.0546C120.915 36.3257 121.052 36.6975 121.052 37.1057V39.2637H119.811C119.472 39.2637 119.16 39.0988 118.935 38.8276C118.709 38.5565 118.572 38.1847 118.572 37.7737V37.1057C118.572 36.6975 118.709 36.3257 118.935 36.0546C119.16 35.7834 119.472 35.6157 119.811 35.6157ZM120.459 36.3257V36.3285C120.292 36.1273 120.066 36.0043 119.811 36.0043C119.558 36.0043 119.327 36.1273 119.165 36.3257C118.998 36.527 118.895 36.8038 118.895 37.1057V37.7737C118.895 38.0784 118.998 38.3524 119.165 38.5537C119.327 38.7549 119.558 38.8779 119.811 38.8779H120.729V37.1057C120.729 36.8038 120.624 36.527 120.459 36.3257Z" fill="white"/>
<path d="M123.926 36.0043C123.671 36.0043 123.441 36.1273 123.28 36.3257C123.113 36.527 123.009 36.8038 123.009 37.1057V38.8779H123.926C124.18 38.8779 124.405 38.7549 124.572 38.5537C124.74 38.3524 124.842 38.0784 124.842 37.7737V37.1057C124.842 36.8038 124.74 36.527 124.572 36.3257V36.3285C124.405 36.1273 124.18 36.0043 123.926 36.0043ZM123.048 36.0546C123.273 35.7834 123.585 35.6157 123.926 35.6157C124.266 35.6157 124.577 35.7834 124.802 36.0546C125.028 36.3257 125.165 36.6975 125.165 37.1057V37.7737C125.165 38.1847 125.028 38.5565 124.802 38.8276C124.577 39.0988 124.266 39.2637 123.926 39.2637H122.686V37.1057C122.686 36.6975 122.823 36.3257 123.048 36.0546Z" fill="white"/>
<path d="M120.729 47.8818V38.8779H123.008V47.8818H122.685V39.2637H121.052V47.8818H120.729Z" fill="white"/>
<path fill-rule="evenodd" clip-rule="evenodd" d="M121.795 18.6313C122.044 18.6313 122.246 18.8745 122.246 19.1736V21.5441C122.246 21.8404 122.044 22.0836 121.795 22.0836C121.549 22.0836 121.347 21.8404 121.347 21.5441V19.1736C121.347 18.8745 121.549 18.6313 121.795 18.6313ZM111.25 34.7746C111.25 35.0709 111.048 35.3141 110.799 35.3141H108.826C108.578 35.3141 108.378 35.0709 108.378 34.7746C108.378 34.4755 108.578 34.2295 108.826 34.2295H110.799C111.048 34.2295 111.25 34.4755 111.25 34.7746ZM135.217 34.7746C135.217 35.0709 135.015 35.3141 134.766 35.3141H132.793C132.545 35.3141 132.343 35.0709 132.343 34.7746C132.343 34.4755 132.545 34.2295 132.793 34.2295H134.766C135.015 34.2295 135.217 34.4755 135.217 34.7746ZM133.416 26.7016C133.544 26.9615 133.467 27.2942 133.254 27.4424L131.546 28.6276C131.327 28.7757 131.055 28.6863 130.93 28.4291C130.809 28.1719 130.883 27.8365 131.097 27.6883L132.798 26.5031C133.019 26.355 133.295 26.4444 133.416 26.7016ZM110.177 26.7016C110.297 26.4444 110.576 26.355 110.788 26.5031L112.496 27.6883C112.709 27.8365 112.784 28.1719 112.663 28.4291C112.537 28.6863 112.259 28.7757 112.047 28.6276L110.339 27.4424C110.125 27.2942 110.051 26.9615 110.177 26.7016ZM115.087 20.795C115.3 20.644 115.577 20.7335 115.705 20.9934L116.685 23.0452C116.811 23.3024 116.736 23.6351 116.523 23.786C116.309 23.9342 116.032 23.8447 115.907 23.5875L114.919 21.5357C114.798 21.2758 114.873 20.9431 115.087 20.795ZM128.506 20.795C128.72 20.9431 128.794 21.2758 128.669 21.5357L127.686 23.5875C127.56 23.8447 127.284 23.9342 127.07 23.786C126.856 23.6351 126.782 23.3024 126.903 23.0452L127.888 20.9934C128.011 20.7335 128.292 20.644 128.506 20.795Z" fill="#FBB44A"/>
<path fill-rule="evenodd" clip-rule="evenodd" d="M46.5403 171.39H68.574C70.103 171.39 71.3532 173.584 71.3532 176.27C71.3532 178.951 70.103 181.151 68.574 181.151H46.5403C45.0113 181.151 43.7588 178.951 43.7588 176.27C43.7588 173.584 45.0113 171.39 46.5403 171.39Z" fill="#F7A12E"/>
<path fill-rule="evenodd" clip-rule="evenodd" d="M52.9446 171.39H60.843C59.314 171.39 58.0615 173.584 58.0615 176.27C58.0615 178.954 59.314 181.151 60.843 181.151L52.9446 181.148C51.4156 181.148 50.1631 178.951 50.1631 176.27C50.1631 173.584 51.4156 171.39 52.9446 171.39Z" fill="#F48120"/>
<path fill-rule="evenodd" clip-rule="evenodd" d="M67.5471 179.661H88.391C87.5312 177.917 87.192 175.432 88.391 172.877H67.5471C66.8476 172.877 66.2783 174.406 66.2783 176.271C66.2783 178.132 66.8476 179.661 67.5471 179.661Z" fill="#E5E6E7"/>
<path fill-rule="evenodd" clip-rule="evenodd" d="M87.6172 176.399C87.601 175.289 87.8194 174.093 88.391 172.877H67.5471C66.8476 172.877 66.2783 174.406 66.2783 176.271C66.2783 176.312 66.2783 176.357 66.2783 176.399H87.6172Z" fill="#D7D7D8"/>
<path fill-rule="evenodd" clip-rule="evenodd" d="M89.0446 181.148H67.4779C66.4741 181.151 65.4121 178.923 65.4121 176.24C65.4121 173.556 66.4741 171.39 67.4779 171.39H89.0446L89.0376 172.852L67.5476 172.877C66.8482 172.88 66.2789 174.406 66.2789 176.27C66.2789 178.132 66.8482 179.661 67.5476 179.661L89.0376 179.636L89.0446 181.148Z" fill="#F48120"/>
<path fill-rule="evenodd" clip-rule="evenodd" d="M88.2864 181.151H65.2441C63.6454 181.151 62.3418 183.346 62.3418 186.026C62.3418 188.713 63.6454 190.907 65.2441 190.907H88.2864C89.8851 190.907 91.1957 188.713 91.1957 186.026C91.1957 183.346 89.8851 181.151 88.2864 181.151Z" fill="#3D7DDA"/>
<path fill-rule="evenodd" clip-rule="evenodd" d="M81.5949 181.151H73.334C74.9327 181.151 76.2363 183.346 76.2363 186.026V186.029C76.2363 188.713 74.9327 190.907 73.334 190.907H81.5949C83.1936 190.907 84.4972 188.713 84.4972 186.026C84.4972 183.346 83.1936 181.151 81.5949 181.151Z" fill="#105DC4"/>
<path fill-rule="evenodd" clip-rule="evenodd" d="M66.3184 189.42H44.5264C45.4326 187.676 45.7858 185.194 44.5264 182.636H66.3184C67.0504 182.636 67.6499 184.165 67.6499 186.027C67.6499 187.894 67.0504 189.42 66.3184 189.42Z" fill="#E5E6E7"/>
<path fill-rule="evenodd" clip-rule="evenodd" d="M45.342 186.161C45.3583 185.048 45.1212 183.852 44.5264 182.636H66.3184C67.0504 182.636 67.6499 184.165 67.6499 186.027C67.6499 186.074 67.6499 186.116 67.6452 186.161H45.342Z" fill="#D7D7D8"/>
<path fill-rule="evenodd" clip-rule="evenodd" d="M43.8477 190.907H66.3926C67.4429 190.907 68.556 188.682 68.556 185.999C68.556 183.315 67.4429 181.151 66.3926 181.151H43.8477L43.857 182.611L66.3182 182.636C67.0502 182.639 67.6497 184.165 67.6497 186.026C67.6497 187.894 67.0502 189.42 66.3182 189.42L43.857 189.398L43.8477 190.907Z" fill="#105DC4"/>
<path fill-rule="evenodd" clip-rule="evenodd" d="M64.7614 184.125C63.8481 184.125 63.1859 184.125 62.268 184.125C61.3106 184.729 61.5871 187.125 61.0225 188.693L62.4934 187.399L63.56 188.612C64.3919 187.186 63.9178 184.763 64.7614 184.125Z" fill="#71BDF8"/>
<path fill-rule="evenodd" clip-rule="evenodd" d="M69.8828 174.467C70.796 174.467 71.4653 174.467 72.3762 174.467C73.3336 175.071 73.057 177.467 73.6287 179.035L72.1508 177.741L71.0842 178.954C70.2523 177.531 70.7263 175.102 69.8828 174.467Z" fill="#F48120"/>
<path fill-rule="evenodd" clip-rule="evenodd" d="M49.0036 155.059H67.4378C68.7182 155.059 69.7615 156.898 69.7615 159.14C69.7615 161.388 68.7182 163.224 67.4378 163.224H49.0036C47.7232 163.224 46.6729 161.388 46.6729 159.14C46.6729 156.898 47.7232 155.059 49.0036 155.059Z" fill="#F7A12E"/>
<path fill-rule="evenodd" clip-rule="evenodd" d="M54.3579 155.059H60.969C59.6886 155.059 58.6452 156.898 58.6452 159.14C58.6452 161.388 59.6886 163.224 60.969 163.224H54.3579C53.0775 163.224 52.0342 161.388 52.0342 159.14C52.0342 156.898 53.0775 155.059 54.3579 155.059Z" fill="#F48120"/>
<path fill-rule="evenodd" clip-rule="evenodd" d="M66.5786 161.981H84.0182C83.2979 160.522 83.0144 158.442 84.0182 156.306H66.5786C65.9953 156.306 65.5166 157.581 65.5166 159.141C65.5166 160.703 65.9953 161.981 66.5786 161.981Z" fill="#E5E6E7"/>
<path fill-rule="evenodd" clip-rule="evenodd" d="M83.3676 159.252C83.356 158.324 83.5465 157.321 84.0182 156.306H66.5786C65.9953 156.306 65.5166 157.581 65.5166 159.141C65.5166 159.177 65.5166 159.216 65.5166 159.252H83.3676Z" fill="#D7D7D8"/>
<path fill-rule="evenodd" clip-rule="evenodd" d="M84.5664 163.224H66.5202C65.6837 163.224 64.7891 161.365 64.7891 159.118C64.7891 156.873 65.6837 155.059 66.5202 155.059H84.5664L84.5617 156.283L66.5783 156.306C65.9951 156.306 65.5164 157.581 65.5164 159.14C65.5164 160.703 65.9951 161.98 66.5783 161.98L84.5617 161.958L84.5664 163.224Z" fill="#F48120"/>
<path fill-rule="evenodd" clip-rule="evenodd" d="M48.2767 163.225H67.5521C68.8906 163.225 69.9874 165.064 69.9874 167.309C69.9874 169.553 68.8906 171.39 67.5521 171.39H48.2767C46.9382 171.39 45.8438 169.553 45.8438 167.309C45.8438 165.064 46.9382 163.225 48.2767 163.225Z" fill="#3D7DDA"/>
<path fill-rule="evenodd" clip-rule="evenodd" d="M53.8796 163.225H60.7904C59.4519 163.225 58.3574 165.064 58.3574 167.309C58.3574 169.553 59.4519 171.39 60.7904 171.39H53.8796C52.5411 171.39 51.4443 169.553 51.4443 167.309C51.4443 165.064 52.5411 163.225 53.8796 163.225Z" fill="#105DC4"/>
<path fill-rule="evenodd" clip-rule="evenodd" d="M66.6524 170.148H84.8891C84.1338 168.686 83.8387 166.607 84.8891 164.468H66.6524C66.0459 164.468 65.5439 165.749 65.5439 167.308C65.5439 168.868 66.0459 170.148 66.6524 170.148Z" fill="#E5E6E7"/>
<path fill-rule="evenodd" clip-rule="evenodd" d="M84.2082 167.417C84.1966 166.489 84.3941 165.486 84.8891 164.468H66.6524C66.0459 164.468 65.5439 165.749 65.5439 167.308C65.5439 167.342 65.5439 167.381 65.5439 167.417H84.2082Z" fill="#D7D7D8"/>
<path fill-rule="evenodd" clip-rule="evenodd" d="M85.4608 171.39H66.5944C65.7114 171.39 64.7842 169.528 64.7842 167.283C64.7842 165.039 65.7114 163.225 66.5944 163.225H85.4608L85.4538 164.449L66.6525 164.469C66.046 164.471 65.544 165.749 65.544 167.309C65.544 168.868 66.046 170.149 66.6525 170.149L85.4538 170.126L85.4608 171.39Z" fill="#105DC4"/>
<path fill-rule="evenodd" clip-rule="evenodd" d="M67.9561 165.715C68.7229 165.715 69.2829 165.715 70.0451 165.715C70.8468 166.221 70.6167 168.226 71.0884 169.539L69.8592 168.455L68.9599 169.47C68.2674 168.279 68.6648 166.249 67.9561 165.715Z" fill="#71BDF8"/>
<path fill-rule="evenodd" clip-rule="evenodd" d="M68.5322 157.634C69.2944 157.634 69.8544 157.634 70.6213 157.634C71.4183 158.14 71.1859 160.144 71.667 161.455L70.4307 160.373L69.5361 161.388C68.8436 160.197 69.2363 158.168 68.5322 157.634Z" fill="#F48120"/>
</g>
<defs>
<clipPath id="clip0_1028_791">
<rect width="248" height="192" fill="white"/>
</clipPath>
</defs>
</svg>
