<svg width="275" height="245" viewBox="0 0 275 245" fill="none" xmlns="http://www.w3.org/2000/svg">
<g clip-path="url(#clip0_970_398)">
<path d="M0.00336013 121.085C-0.293103 63.8519 19.0187 42.3234 61.6304 24.2176C108.447 4.32575 124.772 22.0032 176.897 5.22211C232.248 -12.5979 275.494 19.2813 261.048 44.6575C243.566 75.3679 250.677 94.0725 250.677 135.394C250.677 176.574 240.851 194.926 218.163 218.512C180.146 258.034 0.786975 272.552 0.00336013 121.085Z" fill="#FFD1CC"/>
<path d="M264.569 117.561C253.813 119.712 249.345 94.0768 255.736 71.1561C262.125 48.2363 276.592 32.3026 274.774 47.9243C274.066 54.0023 270.354 65.7847 272.579 77.509C278.06 106.388 269.13 116.648 264.569 117.561Z" fill="#FFD1CC"/>
<path d="M130.755 244.986V13.3315C108.714 14.0913 91.2909 11.6147 61.6304 24.2177C19.0187 42.3235 -0.293103 63.8521 0.00336014 121.086C0.488278 214.796 69.3236 244.958 130.755 244.986Z" fill="#FF4935"/>
<path d="M117.994 244.547V13.5466C112.38 13.5998 106.854 13.6849 101.094 14.1538V242.534C106.708 243.487 112.359 244.154 117.994 244.547Z" fill="#E0EDFA"/>
<path d="M88.6769 239.914V15.8013C85.6914 16.3637 82.5971 17.0737 79.3643 17.9642V237.225C82.4362 238.224 85.5424 239.12 88.6769 239.914Z" fill="#E0EDFA"/>
<path d="M71.4317 234.383V20.4341C69.968 20.9409 68.473 21.4873 66.9482 22.0716V232.516C68.4306 233.165 69.9248 233.788 71.4317 234.383Z" fill="#FFD1CC"/>
<path d="M62.8086 230.614V23.7268C62.4161 23.8896 62.0272 24.0489 61.6302 24.2176C60.5114 24.6931 59.412 25.1713 58.3252 25.6527V228.334C59.8045 229.124 61.298 229.886 62.8086 230.614Z" fill="#FFD1CC"/>
<path d="M49.3578 223.009V29.8809C44.09 32.5396 39.2646 35.329 34.8721 38.3326V211.627C39.3972 215.872 44.2479 219.654 49.3578 223.009Z" fill="#FFD1CC"/>
<path d="M29.0084 205.689V42.6853C23.9015 46.8112 19.4932 51.3554 15.7666 56.5025V187.235C19.6184 194.066 24.0564 200.216 29.0084 205.689Z" fill="#FFD1CC"/>
<path d="M9.92416 175.233V66.1936C8.64892 68.7604 7.49957 71.4613 6.47461 74.3088V165.683C7.51372 168.984 8.66158 172.171 9.92416 175.233Z" fill="#FFD1CC"/>
<path d="M0.381725 131.464V106.867C0.104628 111.35 -0.0227465 116.078 0.00332443 121.086C0.0212016 124.647 0.170178 128.085 0.381725 131.464Z" fill="#E0EDFA"/>
<path d="M126.961 244.95V13.4353C125.802 13.4598 124.653 13.4775 123.512 13.4918V244.853C124.664 244.898 125.813 244.925 126.961 244.95Z" fill="#E0EDFA"/>
<path d="M108.232 27.2895V8.88513C108.232 3.97837 111.61 0 115.776 0H71.8083C67.6414 0 64.2641 3.97837 64.2641 8.88513V37.1899C64.2641 42.0958 60.8868 46.0742 56.7207 46.0742H108.232V36.1738C108.232 36.1738 108.232 32.1963 108.232 27.2895Z" fill="black"/>
<path d="M189.643 179.986H27.0887C23.418 179.986 20.4414 176.481 20.4414 172.157V34.0438C20.4414 29.7197 23.418 26.2144 27.0887 26.2144H189.643C193.315 26.2144 196.291 29.7197 196.291 34.0438V172.157C196.291 176.481 193.315 179.986 189.643 179.986Z" fill="white"/>
<path d="M22.3525 28.5509C23.5093 27.1057 25.0974 26.2144 26.8494 26.2144H27.0885C25.2345 26.2144 23.5577 27.109 22.3525 28.5509Z" fill="#8DA5D5"/>
<path d="M194.378 28.5484C193.173 27.1082 191.497 26.2144 189.644 26.2144H189.883C191.635 26.2144 193.222 27.1056 194.378 28.5484Z" fill="#849DD1"/>
<path d="M196.291 39.9278H186.631L186.655 26.2144H189.643C191.497 26.2144 193.173 27.1082 194.378 28.5484C195.558 30.0215 196.291 32.0706 196.291 34.3363V39.9278ZM78.7157 39.9278H20.4414V34.3363C20.4414 32.0714 21.1729 30.0232 22.3528 28.5509C23.558 27.109 25.2347 26.2144 27.0887 26.2144H78.7403L78.7157 39.9278Z" fill="#F5F4F4"/>
<path d="M196.141 39.7778H186.781L186.805 26.3644H189.643C191.445 26.3644 193.081 27.2328 194.262 28.6434C195.419 30.0878 196.141 32.1026 196.141 34.3363V39.7778ZM78.59 26.3644L78.566 39.7778H20.5914V34.3363C20.5914 32.1035 21.3125 30.0895 22.4689 28.646C23.6498 27.2337 25.286 26.3644 27.0887 26.3644H78.59Z" stroke="#0781B1" stroke-opacity="0.2" stroke-width="0.3"/>
<path d="M46.1865 33.0717C46.1865 34.4537 47.0707 35.5753 48.1619 35.5753C49.2524 35.5753 50.1373 34.4537 50.1373 33.0717C50.1373 31.6888 49.2524 30.5681 48.1619 30.5681C47.0707 30.5681 46.1865 31.6888 46.1865 33.0717Z" fill="black"/>
<path d="M39.6846 33.0717C39.6846 34.4537 40.5687 35.5753 41.66 35.5753C42.7505 35.5753 43.6354 34.4537 43.6354 33.0717C43.6354 31.6888 42.7505 30.5681 41.66 30.5681C40.5687 30.5681 39.6846 31.6888 39.6846 33.0717Z" fill="black"/>
<path d="M33.1826 33.0717C33.1826 34.4537 34.0668 35.5753 35.158 35.5753C36.2485 35.5753 37.1327 34.4537 37.1327 33.0717C37.1327 31.6888 36.2485 30.5681 35.158 30.5681C34.0668 30.5681 33.1826 31.6888 33.1826 33.0717Z" fill="black"/>
<path d="M29.0889 103.575H54.6413V79.2749H29.0889V103.575Z" fill="#F2F2F2"/>
<path d="M38.7452 84.0601C38.7452 85.5627 37.7121 86.7804 36.4361 86.7804C35.1608 86.7804 34.127 85.5627 34.127 84.0601C34.127 82.5583 35.1608 81.3398 36.4361 81.3398C37.7121 81.3398 38.7452 82.5583 38.7452 84.0601Z" fill="#C9C9C9"/>
<path d="M54.6413 103.575V94.2945L48.0506 84.7263L40.7962 94.6908L34.0639 89.069L29.0889 92.9883V103.575H54.6413Z" fill="#C9C9C9"/>
<path d="M69.5793 55.4711H54.9558C54.6728 55.4711 54.4434 55.2012 54.4434 54.8673C54.4434 54.5342 54.6728 54.2644 54.9558 54.2644H69.5793C69.8616 54.2644 70.091 54.5342 70.091 54.8673C70.091 55.2012 69.8616 55.4711 69.5793 55.4711Z" fill="#C4C4C4"/>
<path d="M78.9857 60.8543H54.9558C54.6728 60.8543 54.4434 60.5844 54.4434 60.2513C54.4434 59.9183 54.6728 59.6484 54.9558 59.6484H78.9857C79.2687 59.6484 79.4974 59.9183 79.4974 60.2513C79.4974 60.5844 79.2687 60.8543 78.9857 60.8543Z" fill="#C4C4C4"/>
<path d="M63.9898 58.1627H54.9558C54.6728 58.1627 54.4434 57.8928 54.4434 57.5597C54.4434 57.2266 54.6728 56.9568 54.9558 56.9568H63.9898C64.2721 56.9568 64.5015 57.2266 64.5015 57.5597C64.5015 57.8928 64.2721 58.1627 63.9898 58.1627Z" fill="#C4C4C4"/>
<path d="M58.9502 103.724V78.811H78.6464L78.636 84.7583L78.3894 84.4008L70.9518 94.6156L64.0497 88.8522L58.9502 92.8702V103.724Z" fill="#F2F2F2"/>
<path d="M68.8502 83.7178C68.8502 85.2583 67.7895 86.5063 66.4822 86.5063C65.1742 86.5063 64.1143 85.2583 64.1143 83.7178C64.1143 82.178 65.1742 80.9292 66.4822 80.9292C67.7895 80.9292 68.8502 82.178 68.8502 83.7178Z" fill="#C9C9C9"/>
<path d="M85.1463 103.724V94.2099L78.3894 84.4006L70.9518 94.6155L64.0497 88.8521L58.9502 92.87V103.724H64.3208H85.1463Z" fill="#C9C9C9"/>
<mask id="path-31-inside-1_970_398" fill="white">
<path d="M39.2125 74.5864C32.4542 74.5864 26.9756 68.134 26.9756 60.1739C26.9756 52.2137 32.4542 45.7605 39.2125 45.7605C45.9708 45.7605 51.4494 52.2137 51.4494 60.1739C51.4494 68.134 45.9708 74.5864 39.2125 74.5864Z"/>
</mask>
<path d="M39.2125 74.5864C32.4542 74.5864 26.9756 68.134 26.9756 60.1739C26.9756 52.2137 32.4542 45.7605 39.2125 45.7605C45.9708 45.7605 51.4494 52.2137 51.4494 60.1739C51.4494 68.134 45.9708 74.5864 39.2125 74.5864Z" fill="white"/>
<path d="M39.2125 74.2864C32.664 74.2864 27.2756 68.0162 27.2756 60.1739H26.6756C26.6756 68.2517 32.2444 74.8864 39.2125 74.8864V74.2864ZM27.2756 60.1739C27.2756 52.3315 32.6641 46.0605 39.2125 46.0605V45.4605C32.2443 45.4605 26.6756 52.096 26.6756 60.1739H27.2756ZM39.2125 46.0605C45.761 46.0605 51.1494 52.3315 51.1494 60.1739H51.7494C51.7494 52.096 46.1807 45.4605 39.2125 45.4605V46.0605ZM51.1494 60.1739C51.1494 68.0162 45.761 74.2864 39.2125 74.2864V74.8864C46.1807 74.8864 51.7494 68.2517 51.7494 60.1739H51.1494Z" fill="#C1C1C1" mask="url(#path-31-inside-1_970_398)"/>
<path d="M44.639 55.7555C44.639 59.2852 42.2092 62.1463 39.2126 62.1463C36.2159 62.1463 33.7861 59.2852 33.7861 55.7555C33.7861 52.2257 36.2159 49.3638 39.2126 49.3638C42.2092 49.3638 44.639 52.2257 44.639 55.7555Z" fill="#C1C1C1"/>
<path d="M44.489 55.7555C44.489 59.2263 42.1043 61.9963 39.2126 61.9963C36.3208 61.9963 33.9361 59.2263 33.9361 55.7555C33.9361 52.2846 36.3209 49.5138 39.2126 49.5138C42.1043 49.5138 44.489 52.2846 44.489 55.7555Z" stroke="#0781B1" stroke-opacity="0.3" stroke-width="0.3"/>
<path d="M42.875 62.1952C42.4296 62.0813 41.9692 62.1733 41.5588 62.4068C40.8489 62.8107 40.0541 63.0401 39.2124 63.0401C38.3707 63.0401 37.5759 62.8107 36.866 62.4068C36.4556 62.1733 35.9953 62.0813 35.5498 62.1952C33.3956 62.75 31.7822 65.004 31.7822 67.7082V71.6251C33.8418 73.4827 36.4176 74.5865 39.2124 74.5865C42.0072 74.5865 44.583 73.4819 46.6434 71.6251V67.7082C46.6434 65.004 45.0292 62.75 42.875 62.1952Z" fill="#C1C1C1"/>
<path d="M42.875 62.1952L42.8376 62.3404C42.8377 62.3405 42.8377 62.3405 42.8378 62.3405C42.8378 62.3405 42.8378 62.3405 42.8379 62.3405L42.875 62.1952ZM35.5871 62.3405C35.5872 62.3405 35.5872 62.3404 35.5873 62.3404L35.5498 62.1952L35.587 62.3405C35.587 62.3405 35.5871 62.3405 35.5871 62.3405ZM31.8827 71.5137L31.7822 71.6251H31.9322V71.5581C31.9157 71.5434 31.8992 71.5285 31.8827 71.5137ZM46.5429 71.5136C46.5265 71.5285 46.5099 71.5433 46.4934 71.5581V71.6251H46.6434L46.5429 71.5136Z" stroke="#0781B1" stroke-opacity="0.3" stroke-width="0.3"/>
<path d="M87.6537 170.314C87.6537 170.314 84.1044 134.084 76.4142 134.084C66.3404 134.084 66.3576 155.683 61.6246 154.987C56.8923 154.29 59.2618 122.986 51.5687 123.634C43.2863 124.329 42.9869 146.046 37.9626 148.019C34.4133 149.412 29.0889 124.011 29.0889 124.011V170.314H87.6537Z" fill="#C9C9C9"/>
<path d="M61.8466 155.003C61.7736 155.003 61.7006 154.998 61.6247 154.987C58.5558 154.535 58.4738 141.207 56.6958 132.073C59.5561 137.394 60.5178 149.424 64.5826 150.488C64.7547 150.533 64.9178 150.564 65.0742 150.582C64.1364 153.167 63.1837 155.002 61.8466 155.003ZM37.6745 148.074C35.8332 148.075 33.5859 141.569 31.8525 135.323C32.3948 133.579 33.0443 132.487 33.822 132.373C33.9077 132.36 33.9933 132.354 34.0782 132.354C36.8574 132.354 39.0123 139.029 40.666 144.435C39.898 146.268 39.0391 147.597 37.9628 148.019C37.8682 148.056 37.7721 148.074 37.6745 148.074Z" fill="#E1E3E6"/>
<path d="M78.4846 169.422H29.5771V153.181C29.9585 146.377 30.6393 139.221 31.852 135.323C33.5854 141.569 35.8327 148.075 37.674 148.074C37.7716 148.074 37.8677 148.056 37.9623 148.019C39.0386 147.597 39.8975 146.268 40.6655 144.435C41.7381 147.942 42.6007 150.916 43.286 151.185C43.3143 151.196 43.3426 151.201 43.3709 151.201C45.137 151.198 47.5214 130.272 53.3426 129.586C53.4432 129.573 53.5415 129.568 53.6383 129.568C54.8934 129.568 55.873 130.543 56.6953 132.073C58.4733 141.207 58.5553 154.535 61.6242 154.987C61.7002 154.998 61.7732 155.003 61.8462 155.003C63.1832 155.002 64.1359 153.167 65.0737 150.582C65.1862 150.595 65.295 150.602 65.4 150.602C69.6712 150.602 67.9013 139.998 74.0473 139.341C74.1188 139.332 74.1904 139.329 74.2619 139.329C75.6876 139.329 77.1378 140.828 78.5315 143.164L78.4846 169.422Z" fill="white"/>
<path d="M30.8414 111.174C30.6775 111.174 30.5174 111.077 30.425 110.901L29.015 108.202L27.2794 111.155C26.6462 111.34 26.3677 110.685 26.6105 110.273L28.6373 106.824C28.7312 106.664 28.8891 106.567 29.0522 106.576C29.2168 106.582 29.368 106.684 29.4545 106.85L31.3792 110.533L31.38 110.536C31.3129 110.98 31.0738 111.174 30.8414 111.174Z" fill="black"/>
<path d="M87.6026 169.422H29.5771V107.918C29.5771 107.415 29.0304 107.064 28.6006 107.641V170.571H87.6026V169.422Z" fill="black"/>
<path d="M219.111 69.2234C218.226 69.2234 217.509 68.3794 217.509 67.3371V66.0672C217.509 65.025 218.226 64.1809 219.111 64.1809C219.995 64.1809 220.712 65.025 220.712 66.0672V67.3371C220.712 68.3794 219.995 69.2234 219.111 69.2234ZM219.045 62.4396C218.203 62.4396 217.54 61.5981 217.604 60.6098C217.679 59.4563 217.798 58.0911 217.966 57.5759C218.277 56.6196 218.9 55.5428 219.835 54.3455C220.769 53.1489 221.327 52.3655 221.51 51.9945C221.791 51.4085 221.931 50.7626 221.931 50.0559C221.931 49.0753 221.683 48.2346 221.185 47.5347C220.687 46.8348 220.017 46.4849 219.174 46.4849C218.36 46.4849 217.68 46.85 217.134 47.5802C216.8 48.0246 216.53 48.6123 216.323 49.3417C216.101 50.1251 215.508 50.6647 214.832 50.6647C214.75 50.6647 214.667 50.6563 214.583 50.6403L214.549 50.6335C213.687 50.4649 213.079 49.48 213.278 48.4782C213.546 47.1257 214.054 45.9283 214.801 44.8869C215.877 43.3919 217.289 42.6448 219.037 42.6448C220.875 42.6448 222.338 43.4012 223.425 44.9148C224.512 46.4284 225.055 48.1899 225.055 50.2001C225.055 51.3124 224.856 52.3655 224.457 53.358C224.058 54.3522 223.204 55.7031 221.897 57.4148C221.222 58.3002 220.801 59.0119 220.638 59.5507C220.571 59.7733 220.521 60.3079 220.486 60.8569C220.429 61.7473 219.804 62.4396 219.045 62.4396Z" fill="white"/>
<path d="M229.065 122.192C228.871 122.192 228.674 122.165 228.477 122.109C227.143 121.728 226.324 120.145 226.647 118.574L227.042 116.657C227.318 115.318 228.335 114.419 229.456 114.419C229.65 114.419 229.847 114.446 230.044 114.502C231.378 114.884 232.197 116.466 231.874 118.037L231.479 119.955C231.203 121.294 230.186 122.192 229.065 122.192ZM231.015 111.921C230.84 111.921 230.663 111.898 230.486 111.847C229.217 111.484 228.478 109.929 228.881 108.466C229.352 106.758 229.957 104.75 230.37 104.046C231.136 102.736 232.411 101.381 234.193 99.9778C235.974 98.5764 237.06 97.6345 237.451 97.1538C238.057 96.3907 238.47 95.4766 238.689 94.4116C238.994 92.9326 238.881 91.5564 238.347 90.2857C237.814 89.0158 236.911 88.1987 235.639 87.8344C235.285 87.7341 234.94 87.6835 234.601 87.6835C233.763 87.6835 232.97 87.9921 232.221 88.6076C231.579 89.1347 230.989 89.9045 230.451 90.9164C229.976 91.8094 229.173 92.3449 228.335 92.3449C228.031 92.3449 227.722 92.274 227.423 92.1239L227.373 92.0995C226.126 91.4738 225.515 89.7266 226.125 88.3016C226.951 86.3748 228.089 84.7886 229.541 83.5407C231.01 82.2792 232.616 81.6484 234.357 81.6484C235.089 81.6484 235.845 81.7606 236.627 81.9832C239.4 82.7767 241.372 84.5483 242.54 87.2998C243.709 90.0513 243.981 92.9436 243.356 95.975C243.01 97.653 242.382 99.1557 241.472 100.481C240.561 101.808 238.855 103.479 236.35 105.497C235.056 106.542 234.201 107.434 233.787 108.177C233.616 108.484 233.375 109.268 233.151 110.081C232.844 111.196 231.97 111.921 231.015 111.921Z" fill="white"/>
<path d="M218.65 178.605C217.809 178.605 217.061 177.899 216.903 176.89L216.685 175.501C216.506 174.363 217.145 173.27 218.112 173.06C218.221 173.036 218.33 173.024 218.437 173.024C219.278 173.024 220.026 173.73 220.184 174.74L220.402 176.128C220.581 177.267 219.942 178.359 218.976 178.569C218.866 178.593 218.757 178.605 218.65 178.605ZM217.446 171.205C216.643 171.205 215.942 170.494 215.854 169.516C215.738 168.239 215.633 166.719 215.729 166.116C215.904 164.997 216.401 163.673 217.217 162.142C218.033 160.614 218.509 159.624 218.644 159.176C218.851 158.468 218.894 157.729 218.774 156.958C218.605 155.886 218.19 155.027 217.526 154.38C217.02 153.887 216.437 153.64 215.78 153.64C215.577 153.64 215.366 153.664 215.148 153.711C214.26 153.904 213.579 154.466 213.107 155.392C212.818 155.958 212.624 156.664 212.523 157.51C212.402 158.529 211.718 159.323 210.845 159.343H210.807C210.795 159.344 210.785 159.344 210.774 159.344C209.818 159.344 209.004 158.42 209.049 157.291C209.11 155.749 209.459 154.321 210.098 153.005C211.017 151.116 212.431 149.964 214.341 149.549C214.82 149.444 215.283 149.392 215.731 149.392C217.158 149.392 218.422 149.923 219.524 150.986C220.97 152.381 221.866 154.176 222.21 156.372C222.401 157.588 222.363 158.785 222.097 159.965C221.831 161.146 221.131 162.825 219.997 165.005C219.41 166.133 219.073 167.011 218.987 167.639C218.951 167.897 218.988 168.494 219.043 169.102C219.134 170.089 218.57 170.992 217.741 171.173C217.642 171.194 217.544 171.205 217.446 171.205Z" fill="white"/>
<path d="M186.3 175.046L186.596 9.23675C186.596 4.1352 183.023 0 178.615 0H73.1706C72.7653 0 72.3683 0.0354157 71.9795 0.102874C75.8231 0.768183 78.7698 4.60404 78.7698 9.23675L78.7013 47.8981L78.4749 175.046C78.4749 180.147 82.0481 184.282 86.4563 184.282H194.282C189.874 184.282 186.3 180.147 186.3 175.046Z" fill="black"/>
<path d="M184.543 3.05165C183.082 1.17715 180.968 0 178.615 0H178.843C181.144 0 183.213 1.16703 184.647 3.02551C184.612 3.03479 184.579 3.04238 184.543 3.05165Z" fill="#F8FAFD"/>
<path d="M191.669 183.776C189.949 183.087 188.496 181.736 187.537 179.986H187.61C188.552 181.736 189.979 183.087 191.669 183.776ZM186.655 26.2145H186.566L186.597 9.23688C186.597 6.85812 185.819 4.68849 184.543 3.05177C184.579 3.0425 184.611 3.03491 184.647 3.02563C185.914 4.66572 186.685 6.84547 186.685 9.23688L186.655 26.2145Z" fill="#F4F8FD"/>
<path d="M187.61 179.986H187.537C186.754 178.558 186.301 176.864 186.301 175.047L186.542 39.928H186.632L186.395 175.047C186.395 176.864 186.84 178.558 187.61 179.986Z" fill="#EFF5FC"/>
<path d="M186.631 39.9278H186.542L186.566 26.2144H186.655L186.631 39.9278Z" fill="#EBF2FA"/>
<path d="M73.0895 0.000843231C73.0627 0 73.0358 0 73.0098 0H73.1707C73.1432 0 73.1171 0 73.0895 0.000843231Z" fill="#E6E8F5"/>
<path d="M194.237 184.282H88.4039C84.0731 184.282 80.5617 180.147 80.5617 175.046L80.8522 9.23675C80.8522 4.16725 77.3841 0.0514371 73.0898 0.000843231C73.1174 0 73.1435 0 73.171 0H178.615C180.967 0 183.081 1.17715 184.543 3.05165C185.819 4.68836 186.596 6.858 186.596 9.23675L186.566 26.2144L186.542 39.9278L186.301 175.046C186.301 176.863 186.754 178.558 187.537 179.986C188.496 181.736 189.949 183.087 191.668 183.775C192.473 184.104 193.337 184.282 194.237 184.282ZM88.8031 141.214C87.5182 141.214 86.4761 142.441 86.4761 143.954V154.134C86.4761 155.648 87.5182 156.875 88.8031 156.875H177.82C179.104 156.875 180.146 155.648 180.146 154.134V143.954C180.146 142.441 179.104 141.214 177.82 141.214H88.8031ZM88.8031 94.1206C87.5182 94.1206 86.4761 95.3475 86.4761 96.8611V107.041C86.4761 108.554 87.5182 109.781 88.8031 109.781H177.82C179.104 109.781 180.146 108.554 180.146 107.041V96.8611C180.146 95.3475 179.104 94.1206 177.82 94.1206H88.8031ZM88.8031 47.1122C87.5182 47.1122 86.4761 48.3391 86.4761 49.8518V60.033C86.4761 61.5457 87.5182 62.7726 88.8031 62.7726H177.82C179.104 62.7726 180.146 61.5457 180.146 60.033V49.8518C180.146 48.3391 179.104 47.1122 177.82 47.1122H88.8031Z" fill="white"/>
<path d="M81.0022 9.23675V9.23702L80.7117 175.046C80.7117 180.088 84.178 184.132 88.4039 184.132H192.224C192.016 184.069 191.812 183.996 191.611 183.914M81.0022 9.23675L191.668 183.775M81.0022 9.23675C81.0022 4.88656 78.4746 1.20009 75.023 0.15M81.0022 9.23675L75.023 0.15M191.611 183.914L191.668 183.775M191.611 183.914C191.612 183.914 191.612 183.915 191.612 183.915L191.668 183.775M191.611 183.914C189.857 183.211 188.379 181.834 187.406 180.058C186.61 178.607 186.151 176.888 186.151 175.046V175.046L186.392 39.9276L186.416 26.2141L186.446 9.23675H186.596M191.668 183.775C189.949 183.087 188.496 181.736 187.537 179.986C186.754 178.558 186.301 176.863 186.301 175.046L186.542 39.9278L186.566 26.2144L186.596 9.23675M186.596 9.23675L186.446 9.23648M186.596 9.23675C186.596 6.858 185.819 4.68836 184.543 3.05165C183.081 1.17715 180.967 0 178.615 0L186.446 9.23648M186.446 9.23648C186.446 6.89032 185.679 4.75346 184.424 3.14388C182.987 1.30044 180.915 0.15 178.615 0.15H75.023M186.446 9.23648L75.023 0.15M192.821 184.132C193.28 184.231 193.753 184.282 194.237 184.282H192.805L192.821 184.132ZM88.8031 141.064C87.4133 141.064 86.3261 142.382 86.3261 143.954V154.134C86.3261 155.707 87.4133 157.025 88.8031 157.025H177.82C179.209 157.025 180.296 155.707 180.296 154.134V143.954C180.296 142.382 179.209 141.064 177.82 141.064H88.8031ZM88.8031 93.9706C87.4133 93.9706 86.3261 95.2886 86.3261 96.8611V107.041C86.3261 108.613 87.4133 109.931 88.8031 109.931H177.82C179.209 109.931 180.296 108.613 180.296 107.041V96.8611C180.296 95.2886 179.209 93.9706 177.82 93.9706H88.8031ZM88.8031 46.9622C87.4133 46.9622 86.3261 48.2801 86.3261 49.8518V60.033C86.3261 61.6047 87.4133 62.9226 88.8031 62.9226H177.82C179.209 62.9226 180.296 61.6047 180.296 60.033V49.8518C180.296 48.2801 179.209 46.9622 177.82 46.9622H88.8031Z" stroke="#0781B1" stroke-opacity="0.2" stroke-width="0.3"/>
<path d="M97.39 163.953V174.783C97.39 180.03 93.7788 184.282 89.3252 184.282H195.256C199.71 184.282 203.321 180.03 203.321 174.783V163.953H97.39Z" fill="#A3A3A3"/>
<path d="M177.82 62.7728H88.8026C87.5177 62.7728 86.4756 61.5459 86.4756 60.0331V49.852C86.4756 48.3392 87.5177 47.1123 88.8026 47.1123H177.82C179.104 47.1123 180.146 48.3392 180.146 49.852V60.0331C180.146 61.5459 179.104 62.7728 177.82 62.7728Z" fill="#F2F2F2"/>
<path d="M100.682 46.9478H88.8018C87.5177 46.9478 86.4756 48.1738 86.4756 49.6874V59.8677C86.4756 61.3813 87.5177 62.6082 88.8018 62.6082H100.682V46.9478Z" fill="#C9C9C9"/>
<path d="M94.2197 54.8667L93.7117 52.934C93.6641 52.7527 93.4458 52.7527 93.3989 52.934L92.8909 54.8667C92.8581 54.9907 92.9371 55.1163 93.0473 55.1163H94.0633C94.1735 55.1163 94.2525 54.9907 94.2197 54.8667ZM90.298 57.9639L92.54 50.1454C92.5758 50.0232 92.6734 49.9397 92.7836 49.9397H94.3747C94.4849 49.9397 94.5825 50.0232 94.6182 50.1454L96.8603 57.9639C96.9169 58.1604 96.7925 58.3636 96.6167 58.3636H95.3162C95.2029 58.3636 95.1031 58.2767 95.0704 58.1494L94.7344 56.8584C94.7016 56.7311 94.6018 56.6434 94.4886 56.6434H92.6212C92.5088 56.6434 92.4082 56.7311 92.3762 56.8584L92.0402 58.1494C92.0075 58.2767 91.9069 58.3636 91.7944 58.3636H90.5416C90.3658 58.3636 90.2414 58.1604 90.298 57.9639Z" fill="#353535"/>
<path d="M176.598 60.9934H168.923C167.87 60.9934 167.018 59.9883 167.018 58.7487V50.8063C167.018 49.5676 167.87 48.5625 168.923 48.5625H176.598C177.65 48.5625 178.503 49.5676 178.503 50.8063V58.7487C178.503 59.9883 177.65 60.9934 176.598 60.9934Z" fill="#F2F2F2"/>
<path d="M176.598 60.8434H168.923C167.975 60.8434 167.168 59.9294 167.168 58.7487V50.8063C167.168 49.6265 167.975 48.7125 168.923 48.7125H176.598C177.545 48.7125 178.353 49.6265 178.353 50.8063V58.7487C178.353 59.9294 177.545 60.8434 176.598 60.8434Z" stroke="black" stroke-opacity="0.3" stroke-width="0.3"/>
<path d="M172.774 57.4249L169.213 53.0072C168.937 52.6657 168.949 52.126 169.239 51.8022C169.528 51.4775 169.988 51.491 170.262 51.8334L172.555 54.6768L176.028 48.3272C176.245 47.9318 176.693 47.8179 177.029 48.0726C177.365 48.3272 177.462 48.8551 177.246 49.2506L172.774 57.4249Z" fill="#FBF4AE"/>
<path d="M172.65 57.2454L169.089 52.8277C168.813 52.4862 168.825 51.9465 169.115 51.6227C169.404 51.2989 169.864 51.3116 170.138 51.6539L172.43 54.4973L175.904 48.1486C176.121 47.7532 176.569 47.6385 176.905 47.8931C177.241 48.1486 177.338 48.6756 177.122 49.072L172.65 57.2454Z" fill="#FF4935"/>
<path d="M136.698 51.9979H105.472C105.009 51.9979 104.633 51.5544 104.633 51.0088C104.633 50.4624 105.009 50.0188 105.472 50.0188H136.698C137.162 50.0188 137.539 50.4624 137.539 51.0088C137.539 51.5544 137.162 51.9979 136.698 51.9979Z" fill="#C9C9C9"/>
<path d="M164.391 55.9316H105.472C105.009 55.9316 104.633 55.4889 104.633 54.9425C104.633 54.3961 105.009 53.9534 105.472 53.9534H164.391C164.855 53.9534 165.231 54.3961 165.231 54.9425C165.231 55.4889 164.855 55.9316 164.391 55.9316Z" fill="#C9C9C9"/>
<path d="M153.107 59.8652H105.472C105.009 59.8652 104.633 59.4225 104.633 58.8761C104.633 58.3297 105.009 57.887 105.472 57.887H153.107C153.57 57.887 153.946 58.3297 153.946 58.8761C153.946 59.4225 153.57 59.8652 153.107 59.8652Z" fill="#C9C9C9"/>
<path d="M177.82 109.781H88.8026C87.5177 109.781 86.4756 108.554 86.4756 107.041V96.8611C86.4756 95.3475 87.5177 94.1206 88.8026 94.1206H177.82C179.104 94.1206 180.146 95.3475 180.146 96.8611V107.041C180.146 108.554 179.104 109.781 177.82 109.781Z" fill="#F2F2F2"/>
<path d="M100.682 94.1206H88.8018C87.5177 94.1206 86.4756 95.3475 86.4756 96.8611V107.041C86.4756 108.554 87.5177 109.781 88.8018 109.781H100.682V94.1206Z" fill="#C9C9C9"/>
<path d="M176.598 108.165H168.923C167.87 108.165 167.018 107.161 167.018 105.922V97.9792C167.018 96.7405 167.87 95.7354 168.923 95.7354H176.598C177.65 95.7354 178.503 96.7405 178.503 97.9792V105.922C178.503 107.161 177.65 108.165 176.598 108.165Z" fill="#F2F2F2"/>
<path d="M176.598 108.015H168.923C167.975 108.015 167.168 107.102 167.168 105.922V97.9792C167.168 96.7994 167.975 95.8854 168.923 95.8854H176.598C177.545 95.8854 178.353 96.7994 178.353 97.9792V105.922C178.353 107.102 177.545 108.015 176.598 108.015Z" stroke="black" stroke-opacity="0.3" stroke-width="0.3"/>
<path d="M172.774 104.598L169.213 100.18C168.937 99.8385 168.949 99.2988 169.239 98.9742C169.528 98.6504 169.988 98.6639 170.262 99.0054L172.555 101.85L176.028 95.5001C176.245 95.1046 176.693 94.9908 177.029 95.2454C177.365 95.5001 177.462 96.0279 177.246 96.4234L172.774 104.598Z" fill="#FBF4AE"/>
<path d="M172.65 104.418L169.089 100.001C168.813 99.659 168.825 99.1194 169.115 98.7956C169.404 98.4709 169.864 98.4844 170.138 98.8268L172.43 101.67L175.904 95.3214C176.121 94.9251 176.569 94.8113 176.905 95.0659C177.241 95.3214 177.338 95.8485 177.122 96.2448L172.65 104.418Z" fill="#FF4935"/>
<path d="M94.0093 103.525C94.0093 103.268 93.9646 103.066 93.876 102.921C93.7874 102.776 93.6548 102.666 93.4775 102.592C93.3695 102.543 93.2212 102.516 93.0328 102.51C92.8443 102.505 92.5918 102.502 92.2753 102.502H92.0652C91.9997 102.502 91.9475 102.564 91.9475 102.64V104.442C91.9475 104.523 92.0026 104.588 92.0712 104.588C92.3192 104.587 92.8659 104.583 93.0023 104.578C93.1795 104.57 93.3598 104.519 93.5438 104.427C93.7054 104.344 93.8231 104.224 93.8976 104.066C93.9713 103.907 94.0093 103.728 94.0093 103.525ZM93.5624 100.141C93.5624 100.016 93.5371 99.8883 93.4864 99.7568C93.4283 99.6058 93.33 99.4844 93.2011 99.4186C93.0842 99.3596 92.9456 99.3267 92.7855 99.3217C92.6663 99.3174 92.2551 99.3141 92.057 99.3132C91.9959 99.3132 91.9475 99.3714 91.9475 99.4431V100.945C91.9475 101.017 91.9967 101.075 92.057 101.075C92.2678 101.073 92.717 101.07 92.8101 101.064C92.9315 101.057 93.0574 101.017 93.1877 100.947C93.33 100.868 93.4276 100.76 93.482 100.622C93.5356 100.484 93.5624 100.323 93.5624 100.141ZM95.8372 103.565C95.8372 103.979 95.771 104.342 95.6384 104.656C95.5058 104.969 95.3263 105.228 95.1021 105.433C94.8354 105.68 94.5434 105.855 94.2253 105.96C93.9065 106.063 93.5021 106.116 93.0112 106.116H90.6753C90.4019 106.116 90.1807 105.855 90.1807 105.534V98.368C90.1807 98.0467 90.4019 97.7861 90.6753 97.7861H92.679C93.1982 97.7861 93.5922 97.8089 93.8596 97.8553C94.127 97.9025 94.378 98.0003 94.6119 98.1487C94.8659 98.3098 95.0551 98.524 95.1803 98.7921C95.3054 99.0611 95.368 99.3706 95.368 99.7213C95.368 100.128 95.2816 100.49 95.1088 100.807C94.936 101.124 94.6976 101.356 94.3944 101.506V101.55C94.8309 101.659 95.181 101.88 95.444 102.213C95.7062 102.548 95.8372 102.998 95.8372 103.565Z" fill="#353535"/>
<path d="M163.583 100.801H105.042C104.578 100.801 104.202 100.358 104.202 99.8116C104.202 99.2652 104.578 98.8225 105.042 98.8225H163.583C164.047 98.8225 164.424 99.2652 164.424 99.8116C164.424 100.358 164.047 100.801 163.583 100.801Z" fill="#C9C9C9"/>
<path d="M145.223 105.079H105.042C104.578 105.079 104.202 104.636 104.202 104.089C104.202 103.544 104.578 103.1 105.042 103.1H145.223C145.687 103.1 146.063 103.544 146.063 104.089C146.063 104.636 145.687 105.079 145.223 105.079Z" fill="#C9C9C9"/>
<path d="M177.82 156.875H88.8026C87.5177 156.875 86.4756 155.648 86.4756 154.134V143.954C86.4756 142.441 87.5177 141.214 88.8026 141.214H177.82C179.104 141.214 180.146 142.441 180.146 143.954V154.134C180.146 155.648 179.104 156.875 177.82 156.875Z" fill="#F2F2F2"/>
<path d="M100.682 141.208H88.8018C87.5177 141.208 86.4756 142.435 86.4756 143.949V154.129C86.4756 155.642 87.5177 156.869 88.8018 156.869H100.682V141.208Z" fill="#C9C9C9"/>
<path d="M176.598 155.254H168.923C167.87 155.254 167.018 154.25 167.018 153.01V145.067C167.018 143.828 167.87 142.823 168.923 142.823H176.598C177.65 142.823 178.503 143.828 178.503 145.067V153.01C178.503 154.25 177.65 155.254 176.598 155.254Z" fill="#F2F2F2"/>
<path d="M176.598 155.104H168.923C167.975 155.104 167.168 154.191 167.168 153.01V145.067C167.168 143.887 167.975 142.973 168.923 142.973H176.598C177.545 142.973 178.353 143.887 178.353 145.067V153.01C178.353 154.191 177.545 155.104 176.598 155.104Z" stroke="black" stroke-opacity="0.3" stroke-width="0.3"/>
<path d="M94.028 153.243C93.4708 153.243 92.9606 153.16 92.498 152.995C92.0347 152.83 91.6325 152.575 91.2913 152.23C90.9554 151.885 90.6924 151.452 90.504 150.931C90.3155 150.409 90.2217 149.793 90.2217 149.085C90.2217 148.325 90.3237 147.679 90.5278 147.145C90.7327 146.611 91.009 146.172 91.3584 145.827C91.6943 145.496 92.0906 145.252 92.5457 145.094C93.0008 144.936 93.4753 144.857 93.9684 144.857C94.3408 144.857 94.714 144.908 95.0865 145.009L95.0962 145.011C95.7487 145.19 96.2112 145.876 96.2112 146.666V146.972C96.2112 147.324 95.8678 147.523 95.631 147.308C95.5088 147.195 95.3755 147.09 95.231 146.996C95.0783 146.897 94.9062 146.813 94.714 146.744C94.5211 146.676 94.3066 146.641 94.0697 146.641C93.5327 146.641 93.117 146.862 92.822 147.304C92.5278 147.745 92.3803 148.339 92.3803 149.085C92.3803 149.884 92.5375 150.479 92.8526 150.87C93.1669 151.262 93.5848 151.458 94.1062 151.458C94.3706 151.458 94.6038 151.422 94.8042 151.352C95.0045 151.281 95.1766 151.196 95.3211 151.097C95.4611 150.998 95.5818 150.895 95.6816 150.789L95.6854 150.786C95.8902 150.573 96.2112 150.745 96.2112 151.067V152.097C96.2112 152.419 96.0489 152.709 95.7978 152.837L95.7934 152.839C95.6347 152.919 95.4731 152.986 95.3092 153.037C95.1043 153.103 94.9129 153.154 94.7349 153.19C94.5561 153.225 94.3207 153.243 94.028 153.243Z" fill="#353535"/>
<path d="M164.058 150.2H105.517C105.053 150.2 104.677 150.642 104.677 151.189C104.677 151.735 105.053 152.178 105.517 152.178H164.058C164.522 152.178 164.898 151.735 164.898 151.189C164.898 150.642 164.522 150.2 164.058 150.2Z" fill="#C9C9C9"/>
<path d="M145.698 145.922H105.517C105.053 145.922 104.677 146.365 104.677 146.911C104.677 147.458 105.053 147.901 105.517 147.901H145.698C146.162 147.901 146.538 147.458 146.538 146.911C146.538 146.365 146.162 145.922 145.698 145.922Z" fill="#C9C9C9"/>
<path d="M151.653 79.6862H87.5311C86.9486 79.6862 86.4756 79.1297 86.4756 78.4433V78.2941C86.4756 77.6077 86.9486 77.052 87.5311 77.052H151.653C152.236 77.052 152.708 77.6077 152.708 78.2941V78.4433C152.708 79.1297 152.236 79.6862 151.653 79.6862Z" fill="#C9C9C9"/>
<path d="M97.6711 74.6749H87.5311C86.9486 74.6749 86.4756 74.1184 86.4756 73.432V73.4294C86.4756 72.7431 86.9486 72.1865 87.5311 72.1865H97.6711C98.2543 72.1865 98.7266 72.7431 98.7266 73.4294V73.432C98.7266 74.1184 98.2543 74.6749 97.6711 74.6749Z" fill="#A3A3A3"/>
<path d="M124.662 74.6749H106.328C105.746 74.6749 105.273 74.1184 105.273 73.432V73.4294C105.273 72.7431 105.746 72.1865 106.328 72.1865H124.662C125.245 72.1865 125.717 72.7431 125.717 73.4294V73.432C125.717 74.1184 125.245 74.6749 124.662 74.6749Z" fill="#C9C9C9"/>
<path d="M115.76 84.6242H87.5311C86.9486 84.6242 86.4756 84.0677 86.4756 83.3814V83.2321C86.4756 82.5458 86.9486 81.9893 87.5311 81.9893H115.76C116.344 81.9893 116.816 82.5458 116.816 83.2321V83.3814C116.816 84.0677 116.344 84.6242 115.76 84.6242Z" fill="#A3A3A3"/>
<path d="M149.019 84.6242H122.435C121.853 84.6242 121.38 84.0677 121.38 83.3814V83.2321C121.38 82.5458 121.853 81.9893 122.435 81.9893H149.019C149.601 81.9893 150.073 82.5458 150.073 83.2321V83.3814C150.073 84.0677 149.601 84.6242 149.019 84.6242Z" fill="#A3A3A3"/>
<path d="M97.6711 121.765H87.5311C86.9486 121.765 86.4756 121.209 86.4756 120.522V120.521C86.4756 119.834 86.9486 119.278 87.5311 119.278H97.6711C98.2543 119.278 98.7266 119.834 98.7266 120.521V120.522C98.7266 121.209 98.2543 121.765 97.6711 121.765Z" fill="#C9C9C9"/>
<path d="M142.496 121.765H101.509C100.925 121.765 100.453 121.209 100.453 120.522V120.521C100.453 119.834 100.925 119.278 101.509 119.278H142.496C143.078 119.278 143.551 119.834 143.551 120.521V120.522C143.551 121.209 143.078 121.765 142.496 121.765Z" fill="#C9C9C9"/>
<path d="M101.045 131.714H87.5311C86.9486 131.714 86.4756 131.158 86.4756 130.471V130.323C86.4756 129.637 86.9486 129.08 87.5311 129.08H101.045C101.628 129.08 102.1 129.637 102.1 130.323V130.471C102.1 131.158 101.628 131.714 101.045 131.714Z" fill="#C9C9C9"/>
<path d="M131.893 131.714H105.566C104.984 131.714 104.511 131.158 104.511 130.471V130.323C104.511 129.637 104.984 129.08 105.566 129.08H131.893C132.475 129.08 132.948 129.637 132.948 130.323V130.471C132.948 131.158 132.475 131.714 131.893 131.714Z" fill="#C9C9C9"/>
<path d="M108.366 125.386V125.533C108.366 126.22 108.838 126.776 109.42 126.776H138.641C139.223 126.776 139.695 126.22 139.695 125.533V125.386C139.695 124.699 139.223 124.142 138.641 124.142H109.42C108.838 124.142 108.366 124.699 108.366 125.386Z" fill="#C9C9C9"/>
<path d="M104.42 124.142H87.5296C86.9478 124.142 86.4756 124.699 86.4756 125.386V125.533C86.4756 126.22 86.9478 126.776 87.5296 126.776H104.42C105.001 126.776 105.474 126.22 105.474 125.533V125.386C105.474 124.699 105.001 124.142 104.42 124.142Z" fill="#666666"/>
<path d="M178.77 29.3107H87.8506C87.0916 29.3107 86.4756 28.5855 86.4756 27.6908V18.7475C86.4756 17.8529 87.0916 17.1277 87.8506 17.1277H178.77C179.53 17.1277 180.146 17.8529 180.146 18.7475V27.6908C180.146 28.5855 179.53 29.3107 178.77 29.3107Z" fill="#F2F2F2"/>
<path d="M169.344 37.7826H97.2764C96.5174 37.7826 95.9014 37.0574 95.9014 36.1627V33.2688C95.9014 32.3741 96.5174 31.6489 97.2764 31.6489H169.344C170.104 31.6489 170.72 32.3741 170.72 33.2688V36.1627C170.72 37.0574 170.104 37.7826 169.344 37.7826Z" fill="#F2F2F2"/>
<path d="M117.004 157.656C117.004 157.656 126.859 160.563 133.116 167.931C139.372 175.3 152.2 201.532 152.2 201.532L169.151 225.074L133.116 230.914L117.004 157.656Z" fill="#DA1600"/>
<path d="M133.116 230.914L136.856 229.944C137.207 219.866 139.122 184.83 128.605 163.699C122.999 159.425 117.004 157.656 117.004 157.656L133.116 230.914Z" fill="#FF4732"/>
<path d="M74.4017 241.336C74.4017 241.336 73.0244 227.473 73.0244 221.102C73.0244 202.342 68.3689 172.985 76.3324 166.163C84.2959 159.341 116.334 151.917 126.289 166.163C136.243 180.409 133.548 236.109 133.548 236.109L124.969 240.815L74.4017 241.336Z" fill="#DA1600"/>
<path d="M89.6272 225.074L133.876 217.742C133.861 214.471 133.803 212.671 133.68 209.03C130.112 208.738 119.449 209.035 112.937 210.272C105.125 211.756 98.4473 214.853 98.4473 214.853C98.4473 214.853 99.4552 205.375 97.7233 189.644C95.9915 173.915 93.0581 169.069 85.2763 163.382C84.9598 163.15 84.521 162.641 84.0257 162.024C80.6953 163.297 77.9907 164.742 76.3325 166.163C73.1057 168.927 71.9512 175.392 71.7188 183.352L89.6272 225.074Z" fill="#FF4732"/>
<path d="M84.0512 167.71C100.469 173.771 100.884 174.01 107.575 176.658C111.394 178.168 113.946 178.966 113.946 178.966C113.946 178.966 111.482 172.245 110.876 171.998C110.41 171.808 95.9485 164.592 89.6341 160.221C86.9376 160.943 84.4415 161.802 82.2866 162.728C82.2322 164.723 82.5048 167.139 84.0512 167.71Z" fill="#FF4732"/>
<path d="M121.541 169.731C122.282 168.09 124.98 167.256 125.644 165.315C124.981 164.498 124.241 163.76 123.431 163.097C123.325 163.234 123.261 163.331 123.261 163.331C123.261 163.331 116.962 169.909 116.311 174.005C115.661 178.1 113.945 178.966 113.945 178.966C113.945 178.966 116.073 181.844 121.541 169.731Z" fill="#FF4732"/>
<path d="M117.539 240.021C117.539 240.021 82.565 235.243 81.4387 233.501C80.3132 231.759 76.1843 194.9 76.1843 194.9L72.1113 200.013C72.5061 207.401 73.4544 214.862 73.0246 221.102C71.6718 240.732 75.6316 242.199 75.6316 242.199C85.2101 237.399 117.539 240.021 117.539 240.021Z" fill="#FF4935"/>
<path d="M113.946 178.966C113.946 178.966 107.679 175.371 100.959 172.617C93.2718 169.465 86.1344 168.432 85.277 163.382C84.1813 156.929 84.8852 150.723 98.1292 148.178C111.373 145.633 126.389 153.786 126.688 158.187C127.178 165.401 124.212 163.463 120.317 169.731C118.758 172.239 117.621 177.842 113.946 178.966Z" fill="#DA1600"/>
<path d="M113.946 169.731C113.946 169.731 123.127 161.391 122.33 157.904C121.148 152.738 116.887 152.46 110.785 150.931C104.683 149.401 93.2308 149.731 91.4029 153.569C89.575 157.408 112.645 167.107 113.946 169.731Z" fill="#FFB3AA"/>
<path d="M121.513 213.346C121.513 213.346 124.494 209.174 136.202 209.49C147.91 209.807 152.201 216.564 152.201 216.564L149.564 225.073C149.564 225.073 141.002 225.073 132.722 226.833C124.003 228.688 121.513 213.346 121.513 213.346Z" fill="#F6AE84"/>
<path d="M150.448 222.223C147.56 221.686 141.215 220.674 136.123 221.058C129.303 221.574 127.798 224.638 127.798 224.638L128.225 226.152C129.497 226.889 130.985 227.204 132.722 226.834C141.002 225.074 149.564 225.074 149.564 225.074L150.448 222.223Z" fill="#F4A279"/>
<path d="M133.116 226.467L128.236 209.932C128.236 209.932 104.338 213.911 95.9539 219.512C95.9539 219.512 96.4545 209.196 95.0787 197.259C93.7014 185.321 92.0046 166.458 82.2801 166.163C72.5557 165.869 69.0525 173.532 69.6775 196.964C70.3032 220.395 80.5289 236.459 83.1911 239.407C85.8541 242.354 121.228 234.159 133.116 226.467Z" fill="#DA1600"/>
<path d="M117.227 152.719C116.929 155.946 116.714 161.017 118.002 163.096C118.239 163.478 118.65 163.945 119.042 164.467C116.687 167.265 113.945 169.731 113.945 169.731C113.027 168.015 102.023 162.948 95.7158 158.618C96.4965 157.084 97.876 153.926 98.1196 150.387C102.277 149.807 107.409 150.111 110.849 151.012C113.3 151.653 115.454 152.09 117.227 152.719Z" fill="#F6AE84"/>
<path d="M98.1511 148.905C97.985 143.084 97.4531 135.991 97.4531 135.991L117.56 149.858C117.56 149.858 116.953 153.892 117.004 157.657C114.917 158.569 112.695 158.983 110.411 158.805C105.509 158.423 101.199 155.378 98.0893 150.701C98.1414 150.111 98.169 149.512 98.1511 148.905Z" fill="#F4A279"/>
<path d="M119.156 168.876C119.956 169.968 120.172 171.293 119.638 171.837C119.103 172.38 118.021 171.934 117.221 170.842C116.421 169.749 116.205 168.424 116.74 167.881C117.274 167.337 118.356 167.783 119.156 168.876Z" fill="#970F00"/>
<path d="M107.547 170.866C106.871 172.244 106.87 173.733 107.544 174.191C108.218 174.649 109.312 173.904 109.988 172.526C110.663 171.148 110.664 169.66 109.99 169.202C109.316 168.743 108.222 169.489 107.547 170.866Z" fill="#970F00"/>
<path d="M118.839 105.831C111.387 103.938 103.789 109.538 100.017 118.874C99.012 117.987 97.8053 117.633 96.6694 118.042C94.5338 118.814 93.4627 121.971 94.2761 125.095C94.8452 127.282 96.1875 128.869 97.6742 129.362C96.9651 140.809 102.12 150.967 110.199 153.02C119.231 155.313 128.487 146.609 130.873 133.579C133.259 120.548 127.871 108.124 118.839 105.831Z" fill="#F6AE84"/>
<path d="M125.186 135.175C125.947 135.34 126.678 134.747 126.817 133.85L127.179 131.532C127.319 130.634 126.815 129.774 126.054 129.61C125.292 129.445 124.562 130.038 124.422 130.935L124.06 133.254C123.921 134.151 124.425 135.011 125.186 135.175Z" fill="#1D1D1E"/>
<path d="M111.819 133.258C112.579 133.422 113.31 132.829 113.449 131.932L113.811 129.613C113.951 128.717 113.447 127.856 112.686 127.691C111.925 127.527 111.195 128.12 111.055 129.017L110.693 131.336C110.553 132.233 111.057 133.093 111.819 133.258Z" fill="#1D1D1E"/>
<path d="M129.076 125.742C129.248 125.785 129.435 125.738 129.582 125.594C129.838 125.347 129.873 124.9 129.662 124.599C128.339 122.714 126.61 121.662 124.371 121.38C124.041 121.339 123.745 121.62 123.709 122.009C123.675 122.397 123.913 122.743 124.243 122.787C126.18 123.031 127.607 123.893 128.737 125.501C128.827 125.629 128.948 125.711 129.076 125.742Z" fill="#1D1D1E"/>
<path d="M108.38 121.948C108.204 121.925 108.039 121.812 107.937 121.622C107.76 121.292 107.845 120.854 108.125 120.646C109.882 119.343 111.805 118.98 114.006 119.536C114.33 119.617 114.537 119.994 114.467 120.376C114.397 120.758 114.079 120.999 113.754 120.919C111.849 120.438 110.264 120.732 108.765 121.844C108.646 121.932 108.51 121.965 108.38 121.948Z" fill="#1D1D1E"/>
<path d="M118.696 138.476C118.679 138.442 118.661 138.408 118.641 138.374C118.671 138.424 118.7 138.473 118.729 138.523C118.679 138.441 118.622 138.368 118.557 138.301C118.596 138.341 118.635 138.379 118.674 138.419C118.601 138.347 118.523 138.288 118.438 138.239C118.485 138.266 118.532 138.293 118.578 138.32C118.501 138.277 118.42 138.246 118.336 138.225C118.388 138.237 118.442 138.249 118.495 138.26C118.408 138.242 118.323 138.236 118.237 138.243C118.29 138.237 118.343 138.232 118.397 138.227C118.3 138.237 118.207 138.261 118.116 138.3C118.165 138.279 118.213 138.258 118.262 138.237C118.18 138.275 118.103 138.321 118.03 138.379C118.072 138.345 118.114 138.31 118.156 138.276C118.084 138.336 118.019 138.404 117.961 138.482C117.995 138.436 118.028 138.39 118.061 138.345L118.013 138.417C117.919 138.566 117.797 138.68 117.64 138.722C117.495 138.76 117.304 138.728 117.181 138.623C116.93 138.411 116.805 137.962 117.006 137.644C117.339 137.118 117.873 136.781 118.439 136.829C118.996 136.877 119.485 137.257 119.762 137.824C119.919 138.144 119.791 138.62 119.506 138.777C119.201 138.945 118.863 138.82 118.696 138.476Z" fill="#1D1D1E"/>
<path d="M119.929 144.642C120.063 144.506 120.193 144.365 120.321 144.22L120.397 144.132C120.636 143.86 120.641 143.412 120.41 143.132C120.18 142.852 119.815 142.832 119.561 143.117L119.483 143.205C118.284 144.581 116.701 145.464 115.034 145.687C114.706 145.73 114.468 146.081 114.505 146.469C114.543 146.857 114.84 147.136 115.17 147.092C116.923 146.858 118.594 145.995 119.929 144.642Z" fill="#1D1D1E"/>
<path d="M123.267 141.179C123.181 142.478 124.005 143.613 125.107 143.713C126.21 143.814 127.173 142.844 127.259 141.545C127.344 140.246 126.52 139.112 125.418 139.011C124.316 138.911 123.353 139.88 123.267 141.179Z" fill="#F18D78"/>
<path d="M106.878 138.044C106.792 139.343 107.616 140.477 108.719 140.578C109.821 140.68 110.785 139.709 110.87 138.411C110.957 137.113 110.132 135.978 109.03 135.877C107.927 135.776 106.964 136.747 106.878 138.044Z" fill="#F18D78"/>
<path d="M121.726 133.878C122.164 135.888 123.555 137.52 125.398 137.911C127.917 138.443 130.334 136.464 130.787 133.497C131.239 130.531 129.558 127.683 127.04 127.151C124.521 126.617 122.103 128.597 121.651 131.564C121.621 131.759 121.602 131.954 121.59 132.149C121.466 131.783 121.283 131.443 121.055 131.139C121.681 127.911 124.361 125.79 127.157 126.382C130.035 126.991 131.957 130.245 131.439 133.635C130.922 137.026 128.159 139.288 125.28 138.679C123.171 138.233 121.58 136.363 121.082 134.063C121.137 134.141 121.207 134.201 121.296 134.22C121.489 134.26 121.669 134.108 121.726 133.878Z" fill="#1D1D1E"/>
<path d="M120.917 132.624C121.01 132.937 121.041 133.269 121 133.604C120.952 133.283 120.921 132.956 120.917 132.624Z" fill="#1D1D1E"/>
<path d="M112.609 123.501C115.352 124.082 117.22 127.063 116.943 130.277C116.649 130.462 116.386 130.698 116.166 130.979C116.193 130.859 116.219 130.74 116.239 130.617C116.692 127.649 115.01 124.803 112.491 124.27C109.973 123.737 107.556 125.716 107.103 128.682C106.65 131.65 108.331 134.496 110.85 135.029C112.712 135.423 114.517 134.442 115.515 132.704C115.548 132.882 115.661 133.027 115.816 133.059C116.023 133.103 116.222 132.93 116.261 132.67C116.32 132.285 116.471 131.941 116.687 131.655C115.859 134.533 113.346 136.351 110.732 135.797C107.854 135.189 105.933 131.935 106.45 128.544C106.967 125.154 109.73 122.892 112.609 123.501Z" fill="#1D1D1E"/>
<path d="M116.942 130.277C117.57 129.88 118.338 129.718 119.128 129.885C119.914 130.051 120.584 130.515 121.055 131.139C121.037 131.235 121.013 131.327 120.999 131.425C120.937 131.828 120.912 132.229 120.917 132.623C120.659 131.748 119.929 131.022 118.985 130.823C118.069 130.629 117.195 130.981 116.687 131.655C116.771 131.365 116.843 131.066 116.891 130.754C116.915 130.595 116.929 130.435 116.942 130.277Z" fill="#1D1D1E"/>
<path d="M121.055 131.139C121.284 131.443 121.466 131.783 121.591 132.149C121.555 132.742 121.606 133.324 121.726 133.878C121.67 134.108 121.49 134.26 121.297 134.22C121.208 134.201 121.137 134.14 121.083 134.063C121.05 133.912 121.023 133.758 121.001 133.604C121.042 133.269 121.011 132.937 120.918 132.623C120.913 132.229 120.938 131.828 120.999 131.425C121.014 131.327 121.037 131.235 121.055 131.139Z" fill="#1D1D1E"/>
<path d="M115.815 133.059C115.661 133.027 115.547 132.882 115.515 132.704C115.81 132.19 116.032 131.61 116.166 130.979C116.385 130.698 116.648 130.462 116.942 130.277C116.929 130.435 116.915 130.595 116.891 130.754C116.843 131.066 116.771 131.365 116.686 131.655C116.47 131.941 116.319 132.284 116.26 132.67C116.222 132.93 116.022 133.103 115.815 133.059Z" fill="#1D1D1E"/>
<path d="M101.694 109.99C106.817 118.394 112.707 117.147 120.562 118.071C130.363 119.225 127.272 120.804 132.814 121.823C138.354 122.842 145.801 107.971 128.158 105.373C123.343 104.664 121.787 101.332 114.436 95.5609C108.139 90.6154 94.833 98.7349 101.694 109.99Z" fill="black"/>
<path d="M104.88 109.702C102.389 106.503 96.7933 102.775 92.1378 110.856C87.4823 118.937 86.4365 135.429 97.9851 142.912C97.9851 142.912 98.0164 134.937 99.0287 129.492C97.0585 129.764 95.0153 127.936 94.2756 125.095C93.4622 121.971 94.5334 118.814 96.6689 118.042C98.803 117.271 101.193 119.179 102.007 122.303C102.153 122.87 102.238 123.437 102.266 123.992C103.293 123.239 104.554 122.099 105.338 120.618C106.84 117.782 107.37 112.901 104.88 109.702Z" fill="black"/>
<path d="M108.133 213.346C107.864 213.346 107.618 213.136 107.543 212.817C107.523 212.734 107.067 210.767 106.895 208.271C106.832 207.344 106.971 205.587 107.164 203.157C107.508 198.806 108.028 192.231 107.812 184.954C107.479 173.666 108.158 170.864 108.187 170.75C108.285 170.369 108.626 170.152 108.95 170.268C109.272 170.382 109.456 170.781 109.362 171.161C109.348 171.217 108.717 174.052 109.037 184.904C109.254 192.273 108.73 198.903 108.383 203.291C108.204 205.56 108.062 207.353 108.117 208.155C108.278 210.515 108.719 212.413 108.723 212.432C108.813 212.816 108.623 213.214 108.296 213.32C108.241 213.338 108.187 213.346 108.133 213.346Z" fill="white"/>
<path d="M124.941 208.738C124.786 208.738 124.631 208.669 124.512 208.532C121.705 205.292 118.981 189.703 118.823 181.998C118.661 174.071 117.616 170.117 117.606 170.078C117.503 169.699 117.682 169.293 118.003 169.171C118.325 169.05 118.67 169.259 118.773 169.638C118.818 169.804 119.881 173.799 120.048 181.963C120.213 189.987 123.044 204.817 125.369 207.501C125.612 207.78 125.615 208.237 125.379 208.521C125.258 208.666 125.101 208.738 124.941 208.738Z" fill="white"/>
<path d="M102.01 108.106C102.172 108.15 102.344 108.056 102.416 107.871C103.213 105.823 106.279 99.2914 112.326 100.931L112.391 100.949C116.763 102.174 121.375 105.294 124.742 107.573C126.009 108.43 127.104 109.171 127.968 109.666C130.982 111.391 134.856 112.725 135.863 111.87C136.023 111.734 136.059 111.469 135.944 111.281C135.828 111.093 135.604 111.049 135.443 111.185C134.928 111.623 131.693 110.859 128.281 108.906C127.44 108.425 126.355 107.69 125.098 106.84C121.694 104.536 117.031 101.38 112.557 100.128L112.485 100.108C105.911 98.3251 102.619 105.324 101.764 107.519C101.682 107.731 101.761 107.981 101.941 108.078L102.01 108.106Z" fill="#303030"/>
<path d="M102.879 108.989C103.004 109.043 103.149 108.989 103.222 108.849C104.031 107.321 107.026 102.502 111.684 104.525L111.734 104.547C115.099 106.041 118.49 109.068 120.966 111.278C121.899 112.11 122.704 112.829 123.347 113.324C125.59 115.054 128.551 116.575 129.423 116.017C129.562 115.928 129.614 115.723 129.538 115.559C129.462 115.395 129.288 115.333 129.149 115.422C128.703 115.708 126.201 114.717 123.661 112.76C123.034 112.276 122.237 111.565 121.313 110.74C118.809 108.504 115.38 105.443 111.936 103.915L111.881 103.89C106.817 101.691 103.602 106.853 102.735 108.492C102.651 108.65 102.692 108.859 102.827 108.958L102.879 108.989Z" fill="#303030"/>
<path d="M259.396 243.983H17.4669C14.2475 243.983 11.6367 240.909 11.6367 237.116V235.16C11.6367 231.367 14.2475 228.292 17.4669 228.292H259.396C262.616 228.292 265.226 231.367 265.226 235.16V237.116C265.226 240.909 262.616 243.983 259.396 243.983Z" fill="#FFDDD9"/>
<path d="M258.451 239.452H19.0453C15.1287 239.452 11.9533 236.925 11.9533 233.808V232.266C11.7477 232.795 11.6367 233.356 11.6367 233.938V238.338C11.6367 241.455 14.8121 243.983 18.7287 243.983H258.134C262.052 243.983 265.226 241.455 265.226 238.338V235.479C264.332 237.78 261.637 239.452 258.451 239.452Z" fill="#FF4935"/>
<path d="M121.125 231.16H183.349C184.562 231.16 185.545 230.001 185.545 228.573C185.545 227.145 184.562 225.987 183.349 225.987H121.125C119.913 225.987 118.929 227.145 118.929 228.573C118.929 230.001 119.913 231.16 121.125 231.16Z" fill="#A51202"/>
<path d="M142.527 231H201.502C203.765 231 205.857 228.946 206.175 226.413L210.924 188.587C211.242 186.054 209.666 184 207.403 184H148.426C146.164 184 144.072 186.054 143.754 188.587L139.006 226.413C138.688 228.946 140.264 231 142.527 231Z" fill="#FF4935"/>
<path d="M206.924 218L171.965 184H181.735L207.965 209.821L206.924 218Z" fill="#FFDDD9"/>
<path d="M158.499 184L205.965 227.104C205.62 228.293 204.881 229.32 203.94 230L154.965 184H158.499Z" fill="#FFDDD9"/>
<path d="M19.8663 215.858V215.417C19.8663 214.132 19.193 213.011 18.1933 212.414C17.9818 212.289 18.0593 212.015 18.3177 211.982C18.4474 211.966 18.5799 211.958 18.714 211.958H62.2009C64.0355 211.958 65.5231 213.507 65.5231 215.417V215.858C65.5231 217.77 64.0355 219.318 62.2009 219.318H18.714C18.5799 219.318 18.4474 219.309 18.3177 219.293C18.0593 219.26 17.9818 218.987 18.1933 218.861C19.193 218.265 19.8663 217.144 19.8663 215.858Z" fill="white"/>
<path d="M18.2138 211.699C18.3441 211.683 18.476 211.675 18.6108 211.675H62.1931C64.0322 211.675 65.5227 213.237 65.5227 215.166V215.611C65.5227 217.489 64.1082 219.02 62.3353 219.099C58.8463 211.448 52.8225 214.128 19.2678 213.332C18.9758 212.837 18.5713 212.425 18.0894 212.136C17.8771 212.008 17.9546 211.732 18.2138 211.699Z" fill="#FFE9E7"/>
<path d="M26.0929 213.373H64.9027C64.9273 213.224 64.9504 213.236 64.9653 213.259C65.0003 213.311 65.0338 213.363 65.0659 213.416C65.1031 213.478 65.0651 213.562 65.001 213.656H26.0929C26.0497 213.562 26.0139 213.521 25.9707 213.47V213.316C26.0139 213.264 26.0497 213.224 26.0929 213.373Z" fill="#DA1600"/>
<path d="M23.2881 215.072H65.4969C65.4969 215.072 65.5468 215.225 65.5229 215.262V215.413C65.5788 215.463 65.543 215.505 65.4991 215.355H23.2881C23.2441 215.505 23.2084 215.463 23.04 215.413V215.259C23.2084 215.208 23.2441 215.167 23.2881 215.072Z" fill="#DA1600"/>
<path d="M22.3196 217.053H65.1749C65.2352 217.11 65.2732 217.184 65.2442 217.247C65.2196 217.3 65.1935 217.352 65.166 217.404C65.1518 217.431 65.1257 217.447 65.0982 217.336H22.3196C22.2764 217.447 22.2407 217.407 22.3077 217.356V217.202C22.2407 217.151 22.2764 217.11 22.3196 217.053Z" fill="#DA1600"/>
<path d="M18.6742 219.601H62.1195C64.2335 219.601 65.9527 217.759 65.9527 215.496C65.9527 213.233 64.2335 211.391 62.1195 211.391H18.7062C18.5245 211.391 18.3398 211.405 18.1595 211.432C17.9591 211.462 17.8169 211.675 17.8429 211.907C17.8683 212.14 18.053 212.304 18.2526 212.274C18.4023 212.252 18.555 212.24 18.7062 212.24H62.0815C63.8625 212.24 65.3113 213.764 65.3113 215.638C65.3113 217.511 63.8625 219.034 62.0815 219.034H18.6742C18.6742 219.034 18.3926 218.862 18.2534 218.841C18.0679 218.814 17.8973 218.965 17.8735 219.182C17.8496 219.397 17.9807 219.594 18.1669 219.622C18.3345 219.647 18.6742 219.601 18.6742 219.601Z" fill="#810000"/>
<path d="M24.1668 226.318V225.622C24.1668 223.595 23.4897 221.828 22.4849 220.887C22.2726 220.688 22.35 220.257 22.61 220.206C22.7403 220.18 22.8737 220.167 23.0078 220.167H66.7278C68.5729 220.167 70.0678 222.61 70.0678 225.622V226.318C70.0678 229.331 68.5729 231.773 66.7278 231.773H23.0078C22.8737 231.773 22.7403 231.76 22.61 231.735C22.35 231.684 22.2726 231.252 22.4849 231.053C23.4897 230.113 24.1668 228.345 24.1668 226.318Z" fill="white"/>
<path d="M22.5439 220.206C22.675 220.18 22.8076 220.167 22.9432 220.167H66.7228C68.5701 220.167 70.0674 222.585 70.0674 225.568V226.257C70.0674 229.163 68.6469 231.532 66.8659 231.653C63.3612 219.816 57.309 223.962 23.6031 222.731C23.3096 221.967 22.9029 221.328 22.4188 220.88C22.2057 220.683 22.2839 220.256 22.5439 220.206Z" fill="#FFE9E7"/>
<path d="M30.3495 222.432H69.3351C69.3597 222.432 69.3828 222.454 69.3984 222.491C69.4334 222.577 69.4669 222.665 69.499 222.755C69.5362 222.857 69.499 222.999 69.4342 222.999H30.3495C30.3063 222.999 30.2705 222.929 30.2705 222.844V222.586C30.2705 222.501 30.3063 222.432 30.3495 222.432Z" fill="#DA1600"/>
<path d="M27.6647 225.546H69.9858C70.0178 225.607 70.0357 225.643 70.0677 225.704V225.958C70.0677 226.043 70.032 226.112 69.9888 226.112H27.6647C27.6207 226.112 27.585 226.043 27.585 225.958V225.699C27.585 225.614 27.6207 225.546 27.6647 225.546Z" fill="#DA1600"/>
<path d="M26.6881 228.376H69.737C69.7974 228.376 69.8361 228.502 69.8063 228.605C69.7817 228.694 69.7557 228.782 69.7289 228.869C69.714 228.914 69.6879 228.942 69.6603 228.942H26.6881C26.6442 228.942 26.6084 228.874 26.6084 228.789V228.53C26.6084 228.445 26.6442 228.376 26.6881 228.376Z" fill="#DA1600"/>
<path d="M22.9261 232.34H66.5433C68.6305 232.34 70.328 229.546 70.328 226.112C70.328 222.677 68.6305 219.884 66.5433 219.884H22.9261C22.7578 219.884 22.5887 219.903 22.4233 219.941C22.2929 219.971 22.2013 220.184 22.2177 220.416C22.2348 220.649 22.3555 220.813 22.4844 220.784C22.6296 220.75 22.7779 220.734 22.9261 220.734H66.5463C68.3712 220.734 69.8558 223.146 69.8558 226.112C69.8558 229.077 68.3712 231.491 66.5463 231.491H22.9261C22.7794 231.491 22.6304 231.473 22.4844 231.44C22.3548 231.41 22.2348 231.574 22.2177 231.807C22.2013 232.04 22.2929 232.252 22.4233 232.282C22.5902 232.32 22.7592 232.34 22.9261 232.34Z" fill="#810000"/>
<path d="M28.7879 228.436L26.7492 226.638L24.6367 228.436V222.432H28.7879V228.436Z" fill="#FF4935"/>
<path d="M29.0313 228.185L26.9926 226.388L24.8809 228.185V222.432H29.0313V228.185Z" fill="#810000"/>
<path d="M26.6084 217.883L28.0475 216.538L29.5388 217.883V213.392H26.6084V217.883Z" fill="#FF4935"/>
<path d="M26.6084 217.696L28.0475 216.351L29.5388 217.696V213.392H26.6084V217.696Z" fill="#810000"/>
<path d="M38.9753 198.929H36.3206C35.8766 198.929 35.5176 198.506 35.5176 197.983V197.603C35.5176 197.08 35.8766 196.656 36.3206 196.656H38.9753C39.4193 196.656 39.7791 197.08 39.7791 197.603V197.983C39.7791 198.506 39.4193 198.929 38.9753 198.929Z" fill="#3E120D"/>
<path d="M52.6977 198.929H50.0422C49.599 198.929 49.2393 198.506 49.2393 197.983V197.603C49.2393 197.08 49.599 196.656 50.0422 196.656H52.6977C53.141 196.656 53.5007 197.08 53.5007 197.603V197.983C53.5007 198.506 53.141 198.929 52.6977 198.929Z" fill="#3E120D"/>
<path d="M55.247 210.837H33.3445C31.9084 210.837 30.7441 209.465 30.7441 207.774V201.3C30.7441 199.609 31.9084 198.238 33.3445 198.238H55.247C56.6824 198.238 57.8474 199.609 57.8474 201.3V207.774C57.8474 209.465 56.6824 210.837 55.247 210.837Z" fill="#810000"/>
<path d="M54.2734 208.91H34.3195C33.1925 208.91 32.2793 207.834 32.2793 206.507V202.567C32.2793 201.241 33.1925 200.165 34.3195 200.165H54.2734C55.4004 200.165 56.3136 201.241 56.3136 202.567V206.507C56.3136 207.834 55.4004 208.91 54.2734 208.91Z" fill="black" stroke="#FF4935" stroke-width="0.904763" stroke-miterlimit="10"/>
<path d="M38.3416 207.029V202.241H37.6533V201.442H39.0299V207.029H38.3416Z" fill="#FEFEFE"/>
<path d="M40.9664 207.029V202.241H40.2773V201.442H41.6546V207.029H40.9664Z" fill="#FEFEFE"/>
<path d="M44.4598 206.031H43.7715V205.233H44.4598V206.031ZM44.4598 203.238H43.7715V202.44H44.4598V203.238Z" fill="#FEFEFE"/>
<path d="M46.9031 207.029V202.241H46.2148V201.442H47.5922V207.029H46.9031Z" fill="#FEFEFE"/>
<path d="M49.5965 207.029C49.2181 207.029 48.9082 206.654 48.9082 206.231V205.433H49.5965V206.231H50.2505V204.395H49.5965C49.2181 204.395 48.9082 204.108 48.9082 203.773V201.442H50.8695V202.241H49.5965V203.773H50.2505C50.6289 203.773 50.938 204.068 50.938 204.395V206.231C50.938 206.654 50.6289 207.029 50.2505 207.029H49.5965Z" fill="#FEFEFE"/>
<path d="M251.495 232.34C251.495 233.69 242.536 234.784 231.487 234.784C220.436 234.784 211.479 233.69 211.479 232.34C211.479 230.99 220.436 229.895 231.487 229.895C242.536 229.895 251.495 230.99 251.495 232.34Z" fill="#9F1000"/>
<path d="M234.784 229.775L231.641 228.458L248.239 173.539L226.057 132.818L228.863 130.697L251.93 173.04L234.784 229.775Z" fill="#FF4935"/>
<path d="M225.002 226.888H221.6C221.161 226.888 220.802 226.465 220.802 225.947V224.573C220.802 224.056 221.161 223.632 221.6 223.632H225.002C225.442 223.632 225.801 224.056 225.801 224.573V225.946C225.801 226.464 225.441 226.888 225.002 226.888Z" fill="#FF6A5A"/>
<path d="M229.132 132.735L226.935 134.552L220.691 124.049L222.89 122.236L229.132 132.735Z" fill="#FF4935"/>
<path d="M231.457 134.035C231.188 136.428 229.182 138.091 226.977 137.748C224.773 137.404 223.204 135.183 223.473 132.79C223.742 130.396 225.747 128.733 227.951 129.076C230.156 129.42 231.726 131.639 231.457 134.035Z" fill="#DA1600"/>
<path d="M230 133.808C229.829 135.328 228.556 136.384 227.155 136.166C225.756 135.948 224.76 134.538 224.93 133.018C225.101 131.497 226.375 130.442 227.774 130.66C229.175 130.879 230.171 132.287 230 133.808Z" fill="#FE4F3C"/>
<path d="M248.409 232.881V232.217C248.409 228.755 246.027 225.947 243.089 225.947H219.885C216.946 225.947 214.563 228.755 214.563 232.217V232.881H248.409Z" fill="#E61700"/>
<path d="M223.48 120.064C222.017 117.838 219.274 117.427 217.386 119.153L214.274 121.989L197.685 126.206C196.84 126.421 196.424 127.579 196.921 128.335L210.04 148.285C210.539 149.041 211.594 148.855 211.984 147.946L219.595 130.08L222.707 127.244C224.595 125.52 224.943 122.29 223.48 120.064Z" fill="#3D3D3D"/>
<path d="M222.291 118.827C220.8 117.769 218.84 117.826 217.386 119.153L214.274 121.989L197.685 126.206C196.84 126.421 196.424 127.579 196.921 128.335L208.848 146.472C209.366 146.667 210.008 146.394 210.293 145.728L217.905 127.863L221.017 125.026C222.644 123.541 223.123 120.941 222.291 118.827Z" fill="#D71803"/>
<path d="M253.335 174.645C253.066 177.039 251.06 178.701 248.856 178.358C246.651 178.014 245.083 175.793 245.351 173.4C245.621 171.005 247.626 169.343 249.83 169.687C252.035 170.03 253.604 172.25 253.335 174.645Z" fill="#DA1600"/>
<path d="M251.878 174.418C251.707 175.938 250.434 176.994 249.033 176.776C247.634 176.557 246.638 175.147 246.809 173.627C246.98 172.107 248.253 171.052 249.652 171.27C251.053 171.489 252.049 172.898 251.878 174.418Z" fill="#FE4F3C"/>
</g>
<defs>
<clipPath id="clip0_970_398">
<rect width="275" height="245" fill="white"/>
</clipPath>
</defs>
</svg>
