<svg width="229" height="172" viewBox="0 0 229 172" fill="none" xmlns="http://www.w3.org/2000/svg">
<g clip-path="url(#clip0_1028_1104)">
<path fill-rule="evenodd" clip-rule="evenodd" d="M121.259 5.93254C132.853 10.8352 143.876 21.3323 152.559 31.1194C170.64 51.499 173.337 55.7845 195.64 72.8949C208.642 82.8658 218.893 91.2984 223.94 102.581C238.125 134.265 221.232 168.488 185.828 168.488C184.383 168.488 41.9039 168.488 41.9039 168.488C41.9039 168.488 24.9739 168.924 12.6167 151.986C-29.2508 94.588 40.198 -28.3427 121.259 5.93254Z" fill="#F4F4F4"/>
<path d="M139.872 154.676H167.278V131.953H139.872V154.676Z" fill="#8F8F8F"/>
<path d="M129.602 156.741H177.548V151.577H129.602V156.741Z" fill="#8F8F8F" stroke="#F0F0F1" stroke-width="0.897448" stroke-miterlimit="10"/>
<path d="M92.3965 136.602H214.751V40.0332H92.3965V136.602Z" fill="#8F8F8F" stroke="#F9FAFD" stroke-width="0.897448" stroke-miterlimit="10"/>
<path d="M95 125.279H212.147V42.8667H95V125.279Z" fill="#FFC2BB"/>
<path d="M101.105 118.012H206.042V47.8965H101.105V118.012Z" fill="white"/>
<path d="M101.105 93.4244L124.791 68.3033L151.529 89.9011L189.838 63.0967L191.354 66.1685L151.415 94.1141L125.038 72.8134L101.105 98.1954V93.4244Z" fill="#FF4935"/>
<path d="M83.5633 123.421H23.4277V15.4316H70.9029L83.5633 31.022V123.421Z" fill="white"/>
<path d="M83.4133 123.271H23.5777V15.5816H70.8315L83.4133 31.0752V123.271Z" stroke="black" stroke-opacity="0.3" stroke-width="0.3"/>
<path d="M70.9033 15.4316L83.5637 31.022H70.991L70.9033 15.4316Z" fill="#FACB4D"/>
<path d="M76.1333 123.421L50.8641 53.8016L23.4277 83.5871V78.7639L51.9468 47.8032L77.5667 118.389L83.5633 112.03V116.801L77.3208 123.421H76.1333Z" fill="#FF4935"/>
<path d="M37.7998 149.129L46.5717 139.462H116.764L124.506 149.129H37.7998Z" fill="#9C9C9C"/>
<path d="M115.668 140.563H46.6366C45.4987 140.563 44.5742 139.426 44.5742 138.024V86.5862C44.5742 85.1864 45.4987 84.0498 46.6366 84.0498H115.668C116.808 84.0498 117.73 85.1864 117.73 86.5862V138.024C117.73 139.426 116.808 140.563 115.668 140.563Z" fill="#686868"/>
<path d="M112.99 138.441H49.3163C48.266 138.441 47.4121 137.427 47.4121 136.175V90.2773C47.4121 89.0273 48.266 88.0132 49.3163 88.0132H112.99C114.04 88.0132 114.894 89.0273 114.894 90.2773V136.175C114.894 137.427 114.04 138.441 112.99 138.441Z" fill="white"/>
<path d="M81.9285 85.7082C81.9285 86.2186 81.5816 86.6315 81.1528 86.6315C80.7258 86.6315 80.3789 86.2186 80.3789 85.7082C80.3789 85.2 80.7258 84.7871 81.1528 84.7871C81.5816 84.7871 81.9285 85.2 81.9285 85.7082Z" fill="#F8FCFF"/>
<path d="M120.063 156.82H42.241C39.7879 156.82 37.7998 154.452 37.7998 151.532V149.129H124.506V151.532C124.506 154.452 122.518 156.82 120.063 156.82Z" fill="#686868"/>
<path d="M66.1857 140.536C66.1857 141.044 65.8388 141.457 65.4118 141.457H56.6362C56.2111 141.457 55.8623 141.044 55.8623 140.536C55.8623 140.028 56.2111 139.615 56.6362 139.615H65.4118C65.8388 139.615 66.1857 140.028 66.1857 140.536Z" fill="#FCFEFF"/>
<path d="M107.735 140.536C107.735 141.044 107.388 141.457 106.959 141.457H98.185C97.758 141.457 97.4111 141.044 97.4111 140.536C97.4111 140.028 97.758 139.615 98.185 139.615H106.959C107.388 139.615 107.735 140.028 107.735 140.536Z" fill="#FCFEFF"/>
<path d="M70.9609 147.748L73.8449 144.569H88.802L91.3466 147.748H70.9609Z" fill="white"/>
<path d="M78.8975 143.068H83.7332V142.476H78.8975V143.068Z" fill="white"/>
<path d="M43.6045 147.194H49.0254V146.6H43.6045V147.194Z" fill="white"/>
<path d="M48.1885 143.068H53.0242V142.476H48.1885V143.068Z" fill="white"/>
<path d="M46.124 144.95H50.9598V144.356H46.124V144.95Z" fill="white"/>
<path d="M57.6064 143.068H62.4422V142.476H57.6064V143.068Z" fill="white"/>
<path d="M55.1553 144.95H59.991V144.356H55.1553V144.95Z" fill="white"/>
<path d="M61.0244 147.194H66.4454V146.6H61.0244V147.194Z" fill="white"/>
<path d="M66.7686 143.068H71.6043V142.476H66.7686V143.068Z" fill="white"/>
<path d="M64.3174 144.95H69.1532V144.356H64.3174V144.95Z" fill="white"/>
<path d="M52.3799 147.657H57.7989V147.062H52.3799V147.657Z" fill="white"/>
<path d="M114.186 147.194H119.605V146.6H114.186V147.194Z" fill="white"/>
<path d="M110.185 143.068H115.022V142.476H110.185V143.068Z" fill="white"/>
<path d="M112.25 144.95H117.086V144.356H112.25V144.95Z" fill="white"/>
<path d="M100.767 143.068H105.602V142.476H100.767V143.068Z" fill="white"/>
<path d="M103.218 144.95H108.053V144.356H103.218V144.95Z" fill="white"/>
<path d="M96.7676 147.194H102.185V146.6H96.7676V147.194Z" fill="white"/>
<path d="M91.6055 143.068H96.4412V142.476H91.6055V143.068Z" fill="white"/>
<path d="M94.0566 144.95H98.8923V144.356H94.0566V144.95Z" fill="white"/>
<path d="M105.409 147.657H110.83V147.062H105.409V147.657Z" fill="white"/>
<path d="M76.4638 124.33L63.2812 88.0132H66.5426L77.5675 118.389L106.207 88.0132H110.707L76.4638 124.33Z" fill="#FF4935"/>
<path d="M188.681 80.2045L185.871 78.9726L190.167 65.0973L176.964 63.8677L177.196 60.3149L194.344 61.9098L188.681 80.2045Z" fill="#FF4935"/>
<path d="M193.995 148.265C187.04 150.525 185.775 156.92 188.935 158.803C192.097 160.682 199.371 161.811 202.847 160.307C206.324 158.803 206.957 149.395 204.428 149.018C201.898 148.642 193.995 148.265 193.995 148.265Z" fill="#247CA8"/>
<path d="M188.435 124.578C186.08 124.979 180.445 140.728 182.128 144.331C183.809 147.934 193.062 152.14 193.062 152.14L192.556 145.933C192.556 145.933 186.219 142.729 186.726 140.728C187.229 138.725 190.873 131.252 190.873 131.252L188.435 124.578Z" fill="white"/>
<path d="M182.264 144.268L182.264 144.268C182.67 145.137 183.541 146.057 184.641 146.955C185.737 147.849 187.044 148.709 188.302 149.458C189.56 150.206 190.766 150.843 191.657 151.292C192.103 151.517 192.47 151.695 192.725 151.817C192.787 151.846 192.843 151.872 192.891 151.895L192.414 146.028C192.367 146.004 192.3 145.969 192.215 145.924C192.041 145.832 191.795 145.698 191.5 145.531C190.912 145.199 190.131 144.733 189.366 144.204C188.602 143.676 187.846 143.081 187.311 142.486C187.044 142.189 186.827 141.886 186.694 141.588C186.56 141.289 186.506 140.984 186.58 140.692C186.58 140.692 186.58 140.692 186.58 140.692L186.726 140.728C187.229 138.725 190.873 131.252 190.873 131.252L182.264 144.268ZM182.264 144.268C182.067 143.847 181.972 143.232 181.969 142.464C181.967 141.699 182.057 140.795 182.22 139.806C182.547 137.826 183.165 135.515 183.909 133.302C184.654 131.088 185.524 128.977 186.352 127.397C186.767 126.606 187.169 125.953 187.537 125.487C187.721 125.254 187.894 125.072 188.052 124.943C188.16 124.855 188.257 124.796 188.343 124.761L190.711 131.244L182.264 144.268Z" stroke="black" stroke-opacity="0.2" stroke-width="0.3"/>
<path d="M204.202 124.578C206.556 124.979 212.197 140.728 210.515 144.331C208.832 147.934 199.582 152.14 199.582 152.14L200.087 145.933C200.087 145.933 206.423 142.729 205.918 140.728C205.413 138.725 201.768 131.252 201.768 131.252L204.202 124.578Z" fill="white"/>
<path d="M199.752 151.895L200.23 146.028C200.277 146.004 200.344 145.969 200.429 145.924C200.602 145.832 200.849 145.698 201.143 145.531C201.731 145.199 202.512 144.733 203.277 144.204C204.041 143.676 204.797 143.081 205.331 142.486C205.599 142.189 205.816 141.886 205.949 141.588C206.083 141.289 206.137 140.984 206.063 140.692C206.063 140.692 206.063 140.692 206.063 140.692L205.918 140.728M199.752 151.895L204.295 124.761M199.752 151.895C199.801 151.872 199.856 151.846 199.918 151.817C200.174 151.695 200.541 151.517 200.986 151.292C201.878 150.843 203.083 150.206 204.341 149.458C205.599 148.709 206.906 147.849 208.002 146.955C209.102 146.057 209.973 145.137 210.379 144.268L199.752 151.895ZM205.918 140.728C205.413 138.725 201.768 131.252 201.768 131.252M205.918 140.728C206.423 142.729 200.087 145.933 200.087 145.933L205.918 140.728ZM201.768 131.252L201.909 131.303L201.931 131.244L201.914 131.208L201.906 131.192L201.904 131.188L201.903 131.187L201.903 131.186C201.903 131.186 201.903 131.186 201.768 131.252ZM201.768 131.252L204.202 124.578M204.202 124.578L204.177 124.726C204.214 124.732 204.253 124.743 204.295 124.761M204.202 124.578C206.556 124.979 212.197 140.728 210.515 144.331M204.202 124.578L204.343 124.629L204.295 124.761M204.295 124.761L210.515 144.331M210.515 144.331C208.962 147.657 200.96 151.497 199.738 152.067L210.515 144.331Z" stroke="black" stroke-opacity="0.2" stroke-width="0.3"/>
<path d="M189.886 124.126H202.818C204.768 124.126 206.328 125.969 206.265 128.192C206.265 128.192 203.798 140.177 203.77 144.197C203.754 146.4 204.353 152.986 204.353 152.986H188.357C188.357 152.986 189.095 146.105 189.079 143.798C189.055 139.871 186.441 128.192 186.441 128.192C186.378 125.969 187.938 124.126 189.886 124.126Z" fill="white"/>
<path d="M189.229 143.797C189.237 144.96 189.056 147.264 188.873 149.271C188.782 150.276 188.69 151.209 188.621 151.89C188.587 152.231 188.558 152.509 188.538 152.702L188.524 152.836H204.189L204.178 152.712C204.161 152.528 204.138 152.262 204.11 151.936C204.054 151.284 203.98 150.391 203.906 149.429C203.758 147.509 203.612 145.305 203.62 144.196C203.634 142.171 204.261 138.156 204.88 134.661C205.19 132.91 205.5 131.286 205.732 130.099C205.848 129.505 205.944 129.021 206.012 128.685C206.045 128.517 206.072 128.386 206.09 128.298L206.111 128.196L206.115 128.175C206.17 126.022 204.661 124.276 202.818 124.276H189.886C188.045 124.276 186.537 126.021 186.591 128.173L186.595 128.193L186.617 128.292C186.636 128.378 186.664 128.506 186.7 128.669C186.772 128.997 186.874 129.469 186.997 130.047C187.242 131.204 187.57 132.788 187.898 134.494C188.554 137.901 189.217 141.817 189.229 143.797ZM189.229 143.797C189.229 143.797 189.229 143.797 189.229 143.797L189.079 143.798L189.229 143.797Z" stroke="black" stroke-opacity="0.2" stroke-width="0.3"/>
<path d="M198.009 127.134C198.009 127.134 197.847 128.747 196.4 128.663C194.815 128.577 194.7 127.134 194.7 127.134V119.639H198.009V127.134Z" fill="#F9A369"/>
<path d="M200.442 119.31C200.442 121.996 198.612 125.998 196.355 125.998C194.098 125.998 192.269 121.996 192.269 119.31C192.269 116.624 194.098 114.446 196.355 114.446C198.612 114.446 200.442 116.624 200.442 119.31Z" fill="#FFB685"/>
<path d="M185.521 154.622H207.189V139.247H185.521V154.622Z" fill="#CADEF4"/>
<path d="M198.347 146.67C198.347 147.979 197.457 149.041 196.355 149.041C195.255 149.041 194.363 147.979 194.363 146.67C194.363 145.361 195.255 144.299 196.355 144.299C197.457 144.299 198.347 145.361 198.347 146.67Z" fill="#0C5C9B"/>
<path d="M194.904 162.825C194.904 162.825 194.521 163.259 193.393 163.826C192.234 164.404 189.937 165.486 190.282 166.677C190.745 168.279 192.363 168.161 193.435 167.778C195.762 166.947 198.183 164.994 198.183 164.994L194.904 162.825Z" fill="black"/>
<path d="M197.685 158.644C201.62 155.227 203.676 152.702 208.091 149.51C209.143 148.748 209.862 148.521 211.686 149.372C213.237 150.098 213.071 153.274 212.223 154.601C209.682 158.574 199.893 164.066 197.912 164.897C197.06 165.253 194.043 162.231 195.268 160.783C195.871 160.071 196.622 159.57 197.685 158.644Z" fill="#0781B1"/>
<path d="M208.179 149.632L208.179 149.632C208.699 149.255 209.114 149.028 209.611 148.986C210.111 148.943 210.718 149.086 211.622 149.508C212.317 149.833 212.659 150.729 212.704 151.768C212.75 152.797 212.5 153.89 212.097 154.52C211.474 155.494 210.4 156.57 209.098 157.654C207.797 158.735 206.279 159.817 204.775 160.802C201.766 162.773 198.833 164.348 197.854 164.758C197.796 164.783 197.697 164.785 197.549 164.738C197.405 164.693 197.235 164.606 197.051 164.483C196.682 164.237 196.274 163.859 195.929 163.423C195.583 162.987 195.307 162.503 195.19 162.049C195.074 161.597 195.118 161.193 195.383 160.88L195.383 160.88C195.676 160.534 196.006 160.237 196.4 159.909C196.527 159.803 196.661 159.693 196.803 159.578C197.097 159.337 197.424 159.071 197.784 158.757C199.211 157.518 200.392 156.395 201.526 155.317C201.957 154.907 202.382 154.503 202.81 154.103C204.366 152.648 205.978 151.223 208.179 149.632Z" stroke="black" stroke-opacity="0.2" stroke-width="0.3"/>
<path d="M195.871 165.23C195.871 165.23 196.832 166.739 197.947 167.764C199.279 168.992 200.2 169.398 201.282 168.799C202.853 167.932 201.408 166.097 200.19 164.645C198.383 162.497 197.091 161.605 197.091 161.605L195.871 165.23Z" fill="black"/>
<path d="M192.345 120.256C192.345 120.256 193.748 118.003 194.196 116.401C194.644 114.8 194.911 116.501 196.845 118.255C197.856 119.169 200.406 120.306 200.406 120.306C200.406 120.306 200.989 117.266 200.084 115.702C197.939 111.998 193.554 112.24 192.221 116.569C191.548 118.754 192.345 120.256 192.345 120.256Z" fill="black"/>
<path d="M196.071 160.738L197.75 162.392C197.75 162.392 198.334 162.953 198.627 163.608C199.174 164.826 197.285 167.292 196.056 165.841C194.828 164.391 193.734 162.825 193.734 162.825L196.071 160.738Z" fill="#F59762"/>
<path d="M191.069 163.347C186.494 160.609 183.693 159.622 180.755 154.694C180.006 153.44 179.705 151.364 179.997 150.336C180.355 149.075 181.903 148.317 183.725 148.837C185.256 149.27 195.527 158.848 197.129 160.652C197.821 161.43 195.716 165.321 193.989 164.652C193.139 164.32 192.306 164.087 191.069 163.347Z" fill="#0781B1"/>
<path d="M180.884 154.617L180.884 154.618C183.33 158.721 185.668 160.061 189.071 162.011C189.721 162.383 190.41 162.778 191.146 163.218C192.119 163.8 192.833 164.063 193.517 164.314C193.693 164.379 193.868 164.443 194.044 164.512C194.413 164.655 194.816 164.561 195.223 164.293C195.63 164.025 196.02 163.594 196.341 163.111C196.662 162.629 196.906 162.105 197.028 161.66C197.089 161.436 197.118 161.239 197.113 161.079C197.108 160.917 197.07 160.812 197.017 160.752L197.016 160.751C196.222 159.857 193.26 157.017 190.3 154.342C188.821 153.005 187.345 151.713 186.145 150.728C185.544 150.235 185.014 149.821 184.588 149.517C184.374 149.365 184.188 149.241 184.034 149.15C183.877 149.057 183.76 149.003 183.684 148.981L183.684 148.981C181.912 148.476 180.469 149.222 180.141 150.377L180.884 154.617ZM180.884 154.617C180.522 154.011 180.264 153.198 180.134 152.406M180.884 154.617L180.134 152.406M180.134 152.406C180.003 151.611 180.004 150.86 180.141 150.377L180.134 152.406Z" stroke="black" stroke-opacity="0.2" stroke-width="0.3"/>
<path d="M164.694 33.9462C170.582 43.6901 168.72 57.2705 160.533 64.2784C152.347 71.2864 140.937 69.0699 135.049 59.3259C129.161 49.5819 131.023 36.0016 139.21 28.9936C147.395 21.9857 158.806 24.2022 164.694 33.9462Z" fill="#FFB685"/>
<path d="M144.928 25.7085C142.931 26.3778 140.994 27.4667 139.21 28.9935C137.843 30.1665 136.654 31.5231 135.647 33.0114L149.871 46.6348L144.928 25.7085Z" fill="#C2EEFF"/>
<path d="M135.647 33.0117C131.858 38.6108 130.659 46.1111 132.399 52.9421L149.871 46.6351L135.647 33.0117Z" fill="#D6D8DA"/>
<path d="M132.411 52.9916C132.981 55.2036 133.852 57.3452 135.049 59.3258C138.589 65.1812 144.12 68.3143 149.751 68.3642L149.871 46.6348L132.411 52.9916Z" fill="#FF7BAD"/>
<path d="M158.649 65.6872C159.293 65.2652 159.924 64.8001 160.534 64.2783C163.748 61.5264 165.982 57.7604 167.16 53.6132L149.871 46.6348L158.649 65.6872Z" fill="#FFB685"/>
<path d="M167.165 53.5928C167.699 51.7121 168.013 49.7565 168.101 47.7759L149.871 46.6348L167.165 53.5928Z" fill="#FF4935"/>
<path d="M149.871 46.6348L149.721 68.3642C152.78 68.3982 155.87 67.518 158.685 65.6645L149.871 46.6348Z" fill="#FF5C98"/>
<path d="M32.0947 32.7415H38.747V25.8447H32.0947V32.7415Z" fill="#FFD4D0"/>
<path d="M38.6963 32.7417H45.3486V20.4795H38.6963V32.7417Z" fill="#00B3FA"/>
<path d="M45.2949 32.7417H51.9472V14.8169H45.2949V32.7417Z" fill="#FF8B7E"/>
<path d="M51.8955 32.7415H58.5478V9.30371H51.8955V32.7415Z" fill="#0781B1"/>
<path d="M58.4941 32.7418H65.1483V3.74805H58.4941V32.7418Z" fill="#FF4935"/>
<path d="M107.996 110.14C109.038 108.518 110.653 107.692 112.267 107.782L113.003 96.0942C107.997 95.7086 102.956 98.338 99.8564 103.536L107.996 110.14Z" fill="#91B4DF"/>
<path d="M115.916 117.708C114.261 120.063 111.339 120.585 109.163 118.818C106.925 117.003 106.29 113.429 107.672 110.705L99.533 104.101C95.0937 112.177 96.8874 123.037 103.618 128.498C110.287 133.911 119.332 132.014 124.065 124.319L115.916 117.708Z" fill="#FFBCBC"/>
<path d="M112.838 107.853C113.551 107.987 114.252 108.309 114.887 108.826C117.186 110.691 117.792 114.405 116.259 117.159L124.395 123.759C128.99 115.662 127.223 104.654 120.432 99.146C118.314 97.4241 115.958 96.4463 113.576 96.1514L112.838 107.853Z" fill="#D2F2FF"/>
<path d="M52.1298 141.346H63.4139L63.1128 170.035H60.957C60.957 170.035 59.3253 155.602 58.7116 147.625H57.2172L56.7693 170.035H54.6135C54.6135 170.035 52.0707 147.535 52.1393 143.197C52.0802 142.873 52.1298 141.346 52.1298 141.346Z" fill="#4C73DC"/>
<path d="M52.1297 141.345H63.4138L64.8224 123.507C64.9482 122.052 63.7664 120.805 62.2644 120.805H53.281C51.7771 120.805 50.5953 122.052 50.7211 123.507L52.1297 141.345Z" fill="#FBB44A"/>
<path d="M58.3063 124.09C58.1576 124.544 57.6239 124.573 57.4448 124.133C56.9454 122.906 55.8398 121.077 55.8398 120.687V118.055C55.8398 117.458 56.587 117.508 57.0331 117.508H58.4626C58.9067 117.508 59.6539 117.992 59.6539 118.588V120.687C59.6539 121.072 58.7066 122.865 58.3063 124.09Z" fill="#F7B578"/>
<path d="M60.8959 117.506C60.3222 119.821 58.6944 119.467 56.7502 118.784C54.8059 118.099 53.6966 115.667 54.2703 113.353C54.8441 111.038 56.8874 109.716 58.8316 110.401C60.7777 111.084 61.4716 115.192 60.8959 117.506Z" fill="#F7B578"/>
<path d="M56.8515 112.561C56.8515 112.561 56.8515 114.103 56.6723 114.103C56.4951 114.103 55.8241 113.784 55.3324 114.53C54.8406 115.274 55.3762 116.018 55.9576 116.179C56.4474 116.313 56.2397 117.62 55.3304 117.835C54.3164 116.744 53.857 115.018 54.2707 113.353C54.8444 111.038 56.8877 109.716 58.832 110.401C59.6249 110.68 60.2082 111.526 60.5856 112.588L56.8515 112.561Z" fill="black"/>
<path d="M61.2256 121.476L69.4561 118.488L76.9852 110.364L78.491 112.635C78.491 112.635 72.3038 121.658 71.6653 122.193C71.0248 122.729 61.7269 128.525 61.7269 128.525L61.2256 121.476Z" fill="#FBB44A"/>
<path d="M63.1432 169.999H60.9512V172H65.3943C65.6878 172 65.7889 171.215 65.5315 171.045L63.1432 169.999Z" fill="black"/>
<path d="M56.7047 169.999H54.5127V172H58.9558C59.2513 172 59.3504 171.215 59.095 171.045L56.7047 169.999Z" fill="black"/>
<path d="M76.9854 110.364C76.9854 110.364 77.2865 106.449 77.6887 106.422C78.617 106.363 78.19 107.976 78.6913 107.976C79.1945 107.976 79.6958 107.02 80.4983 107.855C81.3007 108.692 81.6038 109.768 80.5993 110.603C79.5948 111.44 78.4912 112.635 78.4912 112.635L76.9854 110.364Z" fill="#F7B578"/>
<path d="M53.7557 121.476L45.5251 118.488L37.9961 110.364L36.4902 112.635C36.4902 112.635 42.6755 121.658 43.316 122.193C43.9564 122.729 53.2544 128.525 53.2544 128.525L53.7557 121.476Z" fill="#FBB44A"/>
<path d="M37.9965 110.364C37.9965 110.364 37.6954 106.449 37.2932 106.421C36.3649 106.362 36.9596 108.155 36.4583 108.155C35.9551 108.155 34.5503 106.063 33.7478 106.9C32.9435 107.737 33.38 109.768 34.3826 110.603C35.3871 111.44 36.4907 112.635 36.4907 112.635L37.9965 110.364Z" fill="#F7B578"/>
</g>
<defs>
<clipPath id="clip0_1028_1104">
<rect width="229" height="172" fill="white"/>
</clipPath>
</defs>
</svg>
