<svg width="225" height="212" viewBox="0 0 225 212" fill="none" xmlns="http://www.w3.org/2000/svg">
<path fill-rule="evenodd" clip-rule="evenodd" d="M105.943 181.621C116.127 181.621 124.364 180.419 127.606 179.8C138.63 177.689 164.12 179.464 179.525 162.395C202.832 136.57 200.654 93.1336 182.575 66.275C179.269 61.3631 159.013 32.0987 123.509 27.7268C119.024 27.1747 114.069 26.8732 108.875 26.8732C89.1906 26.8732 66.0433 31.1943 51.6915 42.523C13.618 72.5768 29.9023 135.066 49.4467 158.663C52.4625 162.306 60.3663 169.978 62.9748 171.572C76.1007 179.582 92.6742 181.621 105.943 181.621ZM146.837 51.1651C147.191 51.1651 147.545 51.4085 147.55 51.8189C148.487 125.298 101.325 126.111 99.2339 126.111C99.1877 126.111 99.1632 126.111 99.1632 126.111C97.0199 121.427 97.2936 115.83 99.2596 110.037C97.9104 108.182 96.9634 106.036 96.3774 103.681C91.9315 105.508 87.0216 106.522 81.8625 106.522C63.4579 106.522 48.2504 93.6288 45.8577 76.9051C43.1336 73.3068 41.8101 67.0728 41.7883 61.7832L40.1384 61.6984C39.4419 61.6633 38.8727 61.1827 38.8727 60.6294V59.3375C38.8727 58.8084 39.3931 58.4016 40.0458 58.4016C40.0754 58.4016 40.1062 58.4016 40.1358 58.4053L48.4225 58.8787C53.9582 46.637 66.8464 38.0554 81.8625 38.0554C95.5345 38.0554 107.441 45.1684 113.642 55.6836C118.244 46.7206 120.79 35.6267 121.764 30.7148C121.831 30.3746 122.129 30.1991 122.428 30.1991C122.699 30.1991 122.97 30.3443 123.069 30.6458C129.389 49.8176 130.397 64.5654 128.566 75.8639C136.745 68.0898 143.511 56.5032 146.221 51.5235C146.356 51.2765 146.596 51.1651 146.837 51.1651Z" fill="#F5F4F4"/>
<path d="M147.55 51.8189C147.542 51.13 146.555 50.9109 146.221 51.5235C142.992 57.4573 134.007 72.7657 123.734 79.8363C107.008 91.3491 92.9592 112.551 99.1631 126.111C99.1631 126.111 148.507 126.964 147.55 51.8189Z" fill="white"/>
<path d="M103.889 119.536C103.917 119.536 103.944 119.527 103.967 119.51C106.402 117.652 108.692 115.628 110.886 113.517C113.062 111.391 115.107 109.148 117.086 106.858C120.995 102.238 124.551 97.3603 127.814 92.3213C129.451 89.8042 130.998 87.2386 132.507 84.6525C134.014 82.0652 135.461 79.4489 136.83 76.7962C138.204 74.1447 139.535 71.475 140.788 68.7715C141.411 67.4191 142.023 66.0631 142.615 64.6974C142.91 64.0133 143.203 63.3293 143.485 62.6428L143.903 61.6088L144.105 61.0882C144.169 60.9103 144.237 60.7468 144.297 60.5446C144.315 60.4877 144.282 60.4248 144.22 60.4054C144.206 60.4005 144.193 60.3993 144.18 60.3993C144.129 60.3993 144.082 60.4296 144.065 60.4768L144.056 60.501C144.002 60.6524 143.926 60.8328 143.857 60.9999L143.638 61.512L143.191 62.5302L142.271 64.5606C141.647 65.9093 141.004 67.2508 140.349 68.5862C139.043 71.2595 137.688 73.911 136.275 76.5359C133.441 81.7783 130.451 86.9481 127.178 91.9544C125.529 94.4509 123.866 96.939 122.096 99.3604C120.325 101.779 118.495 104.161 116.568 106.47C114.638 108.777 112.644 111.039 110.514 113.187C108.392 115.338 106.158 117.393 103.809 119.331L103.808 119.332C103.758 119.374 103.752 119.444 103.794 119.492C103.818 119.52 103.854 119.536 103.889 119.536Z" fill="#BEBFC1"/>
<path d="M123.069 30.6458C122.862 30.015 121.893 30.0659 121.765 30.7148C120.521 36.9864 116.715 53.3336 109.34 62.4588C97.3335 77.3156 90.59 100.371 100.205 111.211C100.205 111.211 145.703 99.3095 123.069 30.6458Z" fill="white"/>
<path d="M102.602 103.972C102.64 103.972 102.677 103.955 102.701 103.924C104.365 101.639 105.854 99.2442 107.231 96.7949C106.888 97.1109 106.536 97.422 106.179 97.7247C105.046 99.7963 103.821 101.823 102.501 103.798L102.5 103.799C102.465 103.85 102.481 103.919 102.533 103.953C102.555 103.966 102.578 103.972 102.602 103.972ZM117.936 68.1867C118.231 67.0002 118.512 65.8125 118.786 64.6223C119.418 61.8631 119.988 59.0893 120.475 56.3047C120.966 53.5212 121.413 50.7293 121.78 47.9289C121.96 46.5293 122.127 45.1273 122.276 43.7228C122.346 43.0194 122.418 42.3172 122.477 41.615L122.561 40.5592L122.594 40.0301C122.603 39.851 122.617 39.6851 122.615 39.4829C122.615 39.4236 122.564 39.3739 122.501 39.3715C122.498 39.3715 122.498 39.3715 122.497 39.3715C122.431 39.3715 122.378 39.4187 122.377 39.4793L122.376 39.5059C122.369 39.656 122.352 39.8413 122.337 40.0132L122.286 40.5374L122.169 41.5883L121.913 43.6853C121.731 45.0825 121.53 46.4784 121.316 47.8708C120.892 50.6579 120.415 53.4377 119.881 56.2066C119.212 59.6196 118.484 63.0206 117.66 66.4009C117.768 66.9917 117.861 67.5862 117.936 68.1867Z" fill="#AAAAAA"/>
<path d="M45.5287 72.2886C45.5287 91.1953 61.7964 106.522 81.8624 106.522C101.928 106.522 118.195 91.1953 118.195 72.2886C118.195 53.3832 101.928 38.0554 81.8624 38.0554C61.7964 38.0554 45.5287 53.3832 45.5287 72.2886Z" fill="#1DBCFE"/>
<path fill-rule="evenodd" clip-rule="evenodd" d="M81.8621 101.506C98.9599 101.506 112.87 88.3997 112.87 72.2886C112.87 56.1897 98.9791 43.0896 81.8968 43.0715C81.8853 43.0715 81.8737 43.0715 81.8621 43.0715C69.7526 43.0715 59.2403 49.6469 54.139 59.2068L61.8514 59.6487C62.5465 59.6899 63.1158 60.1741 63.1158 60.7274V61.8583C63.1158 62.3886 62.5902 62.8026 61.9323 62.8026C61.904 62.8026 61.8771 62.8014 61.8514 62.799L60.9172 62.753C60.7951 66.2629 59.8648 77.5178 53.0211 79.5808C52.6356 79.6958 52.2629 79.777 51.8993 79.8254C55.4355 92.2958 67.5283 101.506 81.8621 101.506Z" fill="#1DBCFE"/>
<path fill-rule="evenodd" clip-rule="evenodd" d="M81.8623 43.0715C98.9601 43.0715 112.87 56.1775 112.87 72.2886C112.87 88.3997 98.9601 101.506 81.8623 101.506C64.7633 101.506 50.8535 88.3997 50.8535 72.2886C50.8535 56.1775 64.7633 43.0715 81.8623 43.0715ZM81.8623 102.97C99.8171 102.97 114.423 89.2061 114.423 72.2886C114.423 55.3712 99.8171 41.6077 81.8623 41.6077C63.9075 41.6077 49.3 55.3712 49.3 72.2886C49.3 89.2061 63.9075 102.97 81.8623 102.97Z" fill="white"/>
<path fill-rule="evenodd" clip-rule="evenodd" d="M62.9578 72.2886C62.9578 82.1258 71.4218 90.1008 81.8622 90.1008C92.3025 90.1008 100.767 82.1258 100.767 72.2886C100.767 62.4515 92.3025 54.4765 81.8622 54.4765C71.4218 54.4765 62.9578 62.4515 62.9578 72.2886Z" fill="white"/>
<path fill-rule="evenodd" clip-rule="evenodd" d="M81.8622 55.9414C91.4301 55.9414 99.2131 63.2748 99.2131 72.2886C99.2131 81.3037 91.4301 88.6382 81.8622 88.6382C72.2944 88.6382 64.5101 81.3037 64.5101 72.2886C64.5101 63.2748 72.2944 55.9414 81.8622 55.9414ZM81.8622 91.5645C93.1429 91.5645 102.319 82.9176 102.319 72.2886C102.319 61.6609 93.1429 53.0127 81.8622 53.0127C70.5828 53.0127 61.4043 61.6609 61.4043 72.2886C61.4043 82.9176 70.5828 91.5645 81.8622 91.5645Z" fill="#E6E6E6"/>
<path fill-rule="evenodd" clip-rule="evenodd" d="M74.5382 72.2886C74.5382 76.1 77.8175 79.1898 81.8625 79.1898C85.9076 79.1898 89.1855 76.1 89.1855 72.2886C89.1855 68.4773 85.9076 65.3875 81.8625 65.3875C77.8175 65.3875 74.5382 68.4773 74.5382 72.2886Z" fill="#E6E6E6"/>
<path fill-rule="evenodd" clip-rule="evenodd" d="M81.8622 66.8513C85.0438 66.8513 87.633 69.2909 87.633 72.2886C87.633 75.2876 85.0438 77.7272 81.8622 77.7272C78.6794 77.7272 76.0914 75.2876 76.0914 72.2886C76.0914 69.2909 78.6794 66.8513 81.8622 66.8513ZM81.8622 80.6535C86.7567 80.6535 90.7388 76.9015 90.7388 72.2886C90.7388 67.677 86.7567 63.925 81.8622 63.925C76.9678 63.925 72.9844 67.677 72.9844 72.2886C72.9844 76.9015 76.9678 80.6535 81.8622 80.6535Z" fill="url(#paint0_linear_248_208)"/>
<path fill-rule="evenodd" clip-rule="evenodd" d="M37.8162 30.6797L36.8371 31.6035L73.9173 66.5413L74.8965 65.6188L37.8162 30.6797Z" fill="black"/>
<path fill-rule="evenodd" clip-rule="evenodd" d="M74.2027 63.3922C73.6412 62.8632 70.9916 65.3585 71.5544 65.8875L81.3767 73.164C81.7404 73.4316 82.2107 72.9897 81.9254 72.647L74.2027 63.3922Z" fill="black"/>
<path d="M36.8592 31.6217L31.8696 32.0902L38.7172 38.5434C40.9621 40.6573 44.0935 41.7106 47.252 41.4164L36.8592 31.6217Z" fill="url(#paint1_linear_248_208)"/>
<path d="M37.8367 30.7003L38.3327 26.0003L45.1803 32.4522C47.4239 34.5661 48.5443 37.5167 48.2295 40.4926L37.8367 30.7003Z" fill="url(#paint2_linear_248_208)"/>
<path fill-rule="evenodd" clip-rule="evenodd" d="M28.9678 185.731H99.7129V92.7063C99.7129 91.1711 98.3907 89.9252 96.7613 89.9252H30.8464C29.2158 89.9252 27.8949 91.1711 27.8949 92.7063V184.72C27.8949 185.278 28.3755 185.731 28.9678 185.731Z" fill="#87D7FF"/>
<path fill-rule="evenodd" clip-rule="evenodd" d="M68.4409 186H131.034V112.094C131.034 110.558 129.715 109.313 128.084 109.313H71.3938C69.7632 109.313 68.4409 110.558 68.4409 112.094V186Z" fill="#2AB7FF"/>
<path fill-rule="evenodd" clip-rule="evenodd" d="M112.112 185.731H164.974C165.566 185.731 166.045 185.278 166.045 184.72V141.84C166.045 140.303 164.724 139.059 163.095 139.059H115.062C113.433 139.059 112.112 140.303 112.112 141.84V185.731Z" fill="#049CEA"/>
<path fill-rule="evenodd" clip-rule="evenodd" d="M143.171 185.731H196.032C196.625 185.731 197.104 185.278 197.104 184.72V160.053C197.104 158.518 195.784 157.273 194.154 157.273H146.121C144.492 157.273 143.171 158.518 143.171 160.053V185.731Z" fill="#007CBB"/>
<path fill-rule="evenodd" clip-rule="evenodd" d="M50.2485 87.1672H52.2903L55.5015 78.2684L46.5761 77.7575L50.2485 87.1672Z" fill="url(#paint3_linear_248_208)"/>
<path d="M46.7259 77.8662L50.3169 87.0672H52.2201L55.3619 78.3606L46.7259 77.8662Z" stroke="black" stroke-opacity="0.2" stroke-width="0.2"/>
<path fill-rule="evenodd" clip-rule="evenodd" d="M51.0952 79.8799C51.3573 79.8799 51.6259 79.8617 51.8996 79.8254C52.2632 79.777 52.6359 79.6958 53.0213 79.5808C59.8651 77.5178 60.7954 66.2629 60.9175 62.753L41.7881 61.7832C41.81 67.0728 43.1335 73.3069 45.8576 76.9051C47.0591 78.496 48.5368 79.5711 50.2946 79.823C50.5555 79.8605 50.8215 79.8799 51.0952 79.8799ZM58.494 65.7144C58.4992 65.7144 58.5056 65.7144 58.5107 65.7156C58.6007 65.7241 58.6675 65.8016 58.6572 65.8863C58.4388 67.8465 57.9659 70.6953 56.9675 73.1289C55.757 76.0758 54.0814 77.6848 51.9831 77.9125C51.9767 77.9137 51.9702 77.9137 51.9638 77.9137C51.8816 77.9137 51.8096 77.8543 51.8006 77.7756C51.7891 77.6897 51.8546 77.6134 51.9458 77.6037C56.5756 77.1013 57.9518 69.2195 58.3296 65.8549C58.3385 65.7737 58.4105 65.7144 58.494 65.7144ZM58.6675 63.4637C58.6701 63.4637 58.6726 63.4637 58.6778 63.4637C58.7677 63.4673 58.8397 63.54 58.8371 63.6247C58.8371 63.6356 58.8294 63.8935 58.7986 64.3427C58.7921 64.425 58.7202 64.4867 58.6328 64.4867H58.6225C58.5326 64.4819 58.4632 64.408 58.4696 64.3221C58.4992 63.879 58.5069 63.6187 58.5069 63.6162C58.5107 63.5339 58.575 63.4637 58.6675 63.4637Z" fill="url(#paint4_linear_248_208)"/>
<path d="M57.06 73.1669L57.06 73.1668C58.0637 70.7205 58.5378 67.8609 58.7566 65.8974C58.7736 65.753 58.6623 65.632 58.525 65.6166C58.5107 65.6142 58.4979 65.6144 58.4946 65.6144C58.4944 65.6144 58.4942 65.6144 58.494 65.6144C58.3648 65.6144 58.2454 65.707 58.2302 65.8438M57.06 73.1669L51.9353 77.5043C54.1895 77.2595 55.6711 75.2149 56.6392 72.7658C57.6043 70.3244 58.0416 67.5232 58.2302 65.8438M57.06 73.1669C55.8439 76.1274 54.1468 77.777 51.9967 78.0116M57.06 73.1669L51.9967 78.0116M58.2302 65.8438C58.2302 65.8438 58.2302 65.8438 58.2302 65.8438L58.3296 65.8549M58.2302 65.8438C58.2302 65.8437 58.2302 65.8437 58.2302 65.8437L58.3296 65.8549M58.3296 65.8549C58.3385 65.7737 58.4105 65.7144 58.494 65.7144C58.4992 65.7144 58.5056 65.7144 58.5107 65.7156L58.3296 65.8549ZM58.4696 64.3221L58.3698 64.3154C58.398 63.8937 58.4061 63.6402 58.4068 63.6178C58.4069 63.6167 58.4069 63.6162 58.4069 63.6162H58.4068L58.407 63.6116C58.4132 63.4794 58.5182 63.3637 58.6675 63.3637H58.6675H58.6675H58.6675H58.6676H58.6676H58.6676H58.6676H58.6676H58.6676H58.6677H58.6677H58.6677H58.6677H58.6677H58.6677H58.6677H58.6678H58.6678H58.6678H58.6678H58.6678H58.6678H58.6678H58.6679H58.6679H58.6679H58.6679H58.6679H58.6679H58.668H58.668H58.668H58.668H58.668H58.668H58.668H58.6681H58.6681H58.6681H58.6681H58.6681H58.6681H58.6681H58.6682H58.6682H58.6682H58.6682H58.6682H58.6682H58.6683H58.6683H58.6683H58.6683H58.6683H58.6683H58.6683H58.6684H58.6684H58.6684H58.6684H58.6684H58.6684H58.6685H58.6685H58.6685H58.6685H58.6685H58.6685H58.6685H58.6686H58.6686H58.6686H58.6686H58.6686H58.6686H58.6687H58.6687H58.6687H58.6687H58.6687H58.6687H58.6687H58.6688H58.6688H58.6688H58.6688H58.6688H58.6688H58.6689H58.6689H58.6689H58.6689H58.6689H58.6689H58.6689H58.669H58.669H58.669H58.669H58.669H58.669H58.6691H58.6691H58.6691H58.6691H58.6691H58.6691H58.6692H58.6692H58.6692H58.6692H58.6692H58.6692H58.6692H58.6693H58.6693H58.6693H58.6693H58.6693H58.6693H58.6694H58.6694H58.6694H58.6694H58.6694H58.6694H58.6695H58.6695H58.6695H58.6695H58.6695H58.6695H58.6695H58.6696H58.6696H58.6696H58.6696H58.6696H58.6696H58.6697H58.6697H58.6697H58.6697H58.6697H58.6697H58.6698H58.6698H58.6698H58.6698H58.6698H58.6698H58.6699H58.6699H58.6699H58.6699H58.6699H58.6699H58.67H58.67H58.67H58.67H58.67H58.67H58.6701H58.6701H58.6701H58.6701H58.6701H58.6701H58.6702H58.6702H58.6702H58.6702H58.6702H58.6702H58.6703H58.6703H58.6703H58.6703H58.6703H58.6703H58.6704H58.6704H58.6704H58.6704H58.6704H58.6704H58.6705H58.6705H58.6705H58.6705H58.6705H58.6705H58.6706H58.6706H58.6706H58.6706H58.6706H58.6706H58.6707H58.6707H58.6707H58.6707H58.6707H58.6708H58.6708H58.6708H58.6708H58.6708H58.6708H58.6709H58.6709H58.6709H58.6709H58.6709H58.6709H58.671H58.671H58.671H58.671H58.671H58.6711H58.6711H58.6711H58.6711H58.6711H58.6711H58.6712H58.6712H58.6712H58.6712H58.6712H58.6713H58.6713H58.6713H58.6713H58.6713H58.6713H58.6714H58.6714H58.6714H58.6714H58.6714H58.6715H58.6715H58.6715H58.6715H58.6715H58.6715H58.6716H58.6716H58.6716H58.6716H58.6716H58.6717H58.6717H58.6717H58.6717H58.6717H58.6718H58.6718H58.6718H58.6718H58.6718H58.6718H58.6719H58.6719H58.6719H58.6719H58.6719H58.672H58.672H58.672H58.672H58.672H58.6721H58.6721H58.6721H58.6721H58.6721H58.6722H58.6722H58.6722H58.6722H58.6722H58.6723H58.6723H58.6723H58.6723H58.6723H58.6724H58.6724H58.6724H58.6724H58.6724H58.6725H58.6725H58.6725H58.6725H58.6725H58.6726H58.6726H58.6726H58.6726H58.6726H58.6727H58.6727H58.6727H58.6727H58.6727H58.6728H58.6728H58.6728H58.6728H58.6728H58.6729H58.6729H58.6729H58.6729H58.6729H58.673H58.673H58.673H58.673H58.6731H58.6731H58.6731H58.6731H58.6731H58.6732H58.6732H58.6732H58.6732H58.6732H58.6733H58.6733H58.6733H58.6733H58.6734H58.6734H58.6734H58.6734H58.6734H58.6735H58.6735H58.6735H58.6735H58.6735H58.6736H58.6736H58.6736H58.6736H58.6737H58.6737H58.6737H58.6737H58.6737H58.6738H58.6738H58.6738H58.6738H58.6739H58.6739H58.6739H58.6739H58.6739H58.674H58.674H58.674H58.674H58.6741H58.6741H58.6741H58.6741H58.6742H58.6742H58.6742H58.6742H58.6742H58.6743H58.6743H58.6743H58.6743H58.6744H58.6744H58.6744H58.6744H58.6745H58.6745H58.6745H58.6745H58.6746H58.6746H58.6746H58.6746H58.6747H58.6747H58.6747H58.6747H58.6747H58.6748H58.6748H58.6748H58.6748H58.6749H58.6749H58.6749H58.6749H58.675H58.675H58.675H58.675H58.6751H58.6751H58.6751H58.6751H58.6752H58.6752H58.6752H58.6752H58.6753H58.6753H58.6753H58.6753H58.6754H58.6754H58.6754H58.6754H58.6755H58.6755H58.6755H58.6755H58.6756H58.6756H58.6756H58.6757H58.6757H58.6757H58.6757H58.6758H58.6758H58.6758H58.6758H58.6759H58.6759H58.6759H58.6759H58.676H58.676H58.676H58.676H58.6761H58.6761H58.6761H58.6762H58.6762H58.6762H58.6762H58.6763H58.6763H58.6763H58.6763H58.6764H58.6764H58.6764H58.6765H58.6765H58.6765H58.6765H58.6766H58.6766H58.6766H58.6766H58.6767H58.6767H58.6767H58.6768H58.6768H58.6768H58.6768H58.6769H58.6769H58.6769H58.677H58.677H58.677H58.677H58.6771H58.6771H58.6771H58.6772H58.6772H58.6772H58.6772H58.6773H58.6773H58.6773H58.6774H58.6774H58.6774H58.6775H58.6775H58.6775H58.6775H58.6776H58.6776H58.6776H58.6777H58.6777H58.6777H58.6777H58.6778V63.3636L58.6818 63.3638C58.8206 63.3694 58.9412 63.4823 58.9371 63.6273M58.4696 64.3221L58.3699 64.3146C58.3589 64.4619 58.4768 64.579 58.6171 64.5866L58.6225 64.5869V64.5867H58.6328C58.7663 64.5867 58.8873 64.4907 58.8983 64.3504L58.8983 64.3495L58.8983 64.3495C58.9281 63.9164 58.9365 63.6584 58.9371 63.6273M58.4696 64.3221C58.4632 64.408 58.5326 64.4819 58.6225 64.4867L58.6778 63.4637H58.6675C58.575 63.4637 58.5107 63.5339 58.5069 63.6162C58.5069 63.6187 58.4992 63.879 58.4696 64.3221ZM58.9371 63.6273C58.9371 63.6261 58.9371 63.6252 58.9371 63.6247H58.8371L58.9371 63.6277C58.9371 63.6276 58.9371 63.6274 58.9371 63.6273ZM51.9967 78.0116C51.9816 78.0139 51.9683 78.0137 51.9638 78.0137C51.8366 78.0137 51.7172 77.9219 51.7014 77.788C51.682 77.6396 51.7956 77.5192 51.935 77.5043L51.9967 78.0116ZM60.814 62.8479L41.8888 61.8884C41.9276 67.1457 43.2502 73.2953 45.9374 76.8448L45.9374 76.8449C47.1286 78.4222 48.5851 79.477 50.3088 79.724L50.3089 79.724C50.565 79.7608 50.8262 79.7799 51.0952 79.7799C51.3527 79.7799 51.6168 79.762 51.8864 79.7263C52.2443 79.6786 52.6117 79.5987 52.9925 79.4851C56.3644 78.4686 58.2937 75.1823 59.3946 71.6795C60.4738 68.246 60.7467 64.6361 60.814 62.8479Z" stroke="black" stroke-opacity="0.2" stroke-width="0.2"/>
<path fill-rule="evenodd" clip-rule="evenodd" d="M57.6021 89.9664H44.9362V88.5172H57.6021V89.9664Z" fill="url(#paint5_linear_248_208)"/>
<path d="M45.0362 88.6172V89.8664H57.5021V88.6172H45.0362Z" stroke="black" stroke-opacity="0.2" stroke-width="0.2"/>
<path fill-rule="evenodd" clip-rule="evenodd" d="M44.9348 88.5172H57.6021L54.3973 86.8972H48.1408L44.9348 88.5172Z" fill="url(#paint6_linear_248_208)"/>
<path fill-rule="evenodd" clip-rule="evenodd" d="M61.9328 62.8026C62.5907 62.8026 63.1162 62.3885 63.1162 61.8582V60.7274C63.1162 60.1741 62.547 59.6898 61.8518 59.6487L54.1394 59.2068L52.46 59.1111L48.4226 58.8787L40.1359 58.4053C40.1063 58.4016 40.0755 58.4016 40.0459 58.4016C39.3932 58.4016 38.8727 58.8084 38.8727 59.3375V60.6294C38.8727 61.1827 39.442 61.6633 40.1384 61.6984L41.7883 61.7832L60.9176 62.753L61.8518 62.799C61.8775 62.8014 61.9045 62.8026 61.9328 62.8026ZM49.3491 60.4332C49.3516 60.4332 49.3542 60.4332 49.3594 60.4356L60.9433 61.0216C61.0333 61.0265 61.104 61.1003 61.1001 61.1851C61.095 61.2686 61.0217 61.3328 60.9343 61.3328H60.9253L49.3401 60.7444C49.2501 60.7395 49.1795 60.6681 49.1846 60.5809C49.1897 60.4986 49.2617 60.4332 49.3491 60.4332ZM44.1642 60.1705C44.1642 60.1705 44.1681 60.1705 44.1707 60.1705L46.111 60.2698C46.2009 60.2746 46.2703 60.3485 46.2652 60.4332C46.2613 60.5156 46.1881 60.5809 46.1007 60.5809H46.0917L44.154 60.4829C44.0614 60.4768 43.992 60.403 43.9972 60.3182C44.001 60.2347 44.0756 60.1705 44.1642 60.1705Z" fill="url(#paint7_linear_248_208)"/>
<path d="M43.8973 60.3129C43.9044 60.1687 44.0303 60.0705 44.1642 60.0705H44.1642H44.1643H44.1643H44.1643H44.1643H44.1643H44.1643H44.1644H44.1644H44.1644H44.1644H44.1644H44.1644H44.1645H44.1645H44.1645H44.1645H44.1645H44.1646H44.1646H44.1646H44.1646H44.1646H44.1646H44.1647H44.1647H44.1647H44.1647H44.1647H44.1647H44.1648H44.1648H44.1648H44.1648H44.1648H44.1648H44.1649H44.1649H44.1649H44.1649H44.1649H44.165H44.165H44.165H44.165H44.165H44.1651H44.1651H44.1651H44.1651H44.1652H44.1652H44.1652H44.1652H44.1652H44.1653H44.1653H44.1653H44.1653H44.1654H44.1654H44.1654H44.1654H44.1655H44.1655H44.1655H44.1655H44.1656H44.1656H44.1656H44.1656H44.1657H44.1657H44.1657H44.1657H44.1658H44.1658H44.1658H44.1658H44.1659H44.1659H44.1659H44.1659H44.166H44.166H44.166H44.166H44.1661H44.1661H44.1661H44.1661H44.1662H44.1662H44.1662H44.1662H44.1663H44.1663H44.1663H44.1663H44.1663H44.1664H44.1664H44.1664H44.1664H44.1664H44.1665H44.1665H44.1665H44.1665H44.1665H44.1665H44.1666H44.1666H44.1666H44.1666H44.1666H44.1666H44.1667H44.1667H44.1667H44.1667H44.1667H44.1667H44.1667H44.1668H44.1668H44.1668H44.1668H44.1668H44.1668H44.1669H44.1669H44.1669H44.1669H44.1669H44.1669H44.1669H44.167H44.167H44.167H44.167H44.167H44.167H44.1671H44.1671H44.1671H44.1671H44.1671H44.1671H44.1672H44.1672H44.1672H44.1672H44.1672H44.1672H44.1673H44.1673H44.1673H44.1673H44.1673H44.1673H44.1674H44.1674H44.1674H44.1674H44.1674H44.1674H44.1674H44.1675H44.1675H44.1675H44.1675H44.1675H44.1675H44.1676H44.1676H44.1676H44.1676H44.1676H44.1676H44.1677H44.1677H44.1677H44.1677H44.1677H44.1677H44.1678H44.1678H44.1678H44.1678H44.1678H44.1678H44.1679H44.1679H44.1679H44.1679H44.1679H44.1679H44.168H44.168H44.168H44.168H44.168H44.168H44.1681H44.1681H44.1681H44.1681H44.1681H44.1681H44.1682H44.1682H44.1682H44.1682H44.1682H44.1683H44.1683H44.1683H44.1683H44.1683H44.1683H44.1684H44.1684H44.1684H44.1684H44.1684H44.1684H44.1685H44.1685H44.1685H44.1685H44.1685H44.1685H44.1686H44.1686H44.1686H44.1686H44.1686H44.1686H44.1687H44.1687H44.1687H44.1687H44.1687H44.1687H44.1688H44.1688H44.1688H44.1688H44.1688H44.1688H44.1689H44.1689H44.1689H44.1689H44.1689H44.1689H44.169H44.169H44.169H44.169H44.169H44.169H44.1691H44.1691H44.1691H44.1691H44.1691H44.1691H44.1692H44.1692H44.1692H44.1692H44.1692H44.1692H44.1693H44.1693H44.1693H44.1693H44.1693H44.1693H44.1694H44.1694H44.1694H44.1694H44.1694H44.1694H44.1695H44.1695H44.1695H44.1695H44.1695H44.1695H44.1696H44.1696H44.1696H44.1696H44.1696H44.1696H44.1697H44.1697H44.1697H44.1697H44.1697H44.1697H44.1698H44.1698H44.1698H44.1698H44.1698H44.1698H44.1699H44.1699H44.1699H44.1699H44.1699H44.1699H44.17H44.17H44.17H44.17H44.17H44.17H44.1701H44.1701H44.1701H44.1701H44.1701H44.1701H44.1701H44.1702H44.1702H44.1702H44.1702H44.1702H44.1702H44.1703H44.1703H44.1703H44.1703H44.1703H44.1703H44.1704H44.1704H44.1704H44.1704H44.1704H44.1704H44.1704H44.1705H44.1705H44.1705H44.1705H44.1705H44.1705H44.1706H44.1706H44.1706H44.1706H44.1706H44.1706H44.1706H44.1707V60.0704L44.1758 60.0706L46.1161 60.1699L46.1163 60.1699C46.2562 60.1775 46.3734 60.2937 46.365 60.4386M43.8973 60.3129C43.8889 60.4589 44.0072 60.5735 44.1474 60.5826L44.1489 60.5827L46.0866 60.6808L46.0917 60.6811V60.6809H46.1007C46.2354 60.6809 46.358 60.5796 46.365 60.4386M43.8973 60.3129C43.8973 60.3131 43.8973 60.3134 43.8973 60.3136L43.9972 60.3182M43.8973 60.3129C43.8973 60.3126 43.8974 60.3124 43.8974 60.3121L43.9972 60.3182M46.365 60.4386C46.365 60.4384 46.365 60.4381 46.365 60.4379L46.2652 60.4332M46.365 60.4386C46.365 60.4388 46.365 60.439 46.365 60.4393L46.2652 60.4332M46.2652 60.4332C46.2703 60.3485 46.2009 60.2746 46.111 60.2698L43.9972 60.3182M46.2652 60.4332C46.2613 60.5156 46.1881 60.5809 46.1007 60.5809H46.0917L44.154 60.4829C44.0614 60.4768 43.992 60.403 43.9972 60.3182M52.4543 59.2109L52.4542 59.2109L48.4169 58.9785L48.4169 58.9785L40.1302 58.5051L40.1301 58.5053L40.1237 58.5045C40.1012 58.5018 40.0766 58.5016 40.0459 58.5016C39.4255 58.5016 38.9727 58.8841 38.9727 59.3375V60.6294C38.9727 61.1105 39.479 61.5651 40.1435 61.5986L40.1436 61.5986L41.7934 61.6833L41.7935 61.6833L60.9226 62.6531L60.9227 62.6531L61.8567 62.6991L61.8567 62.699L61.8612 62.6994C61.8835 62.7015 61.9073 62.7026 61.9328 62.7026C62.5581 62.7026 63.0162 62.3131 63.0162 61.8582V60.7274C63.0162 60.2459 62.5093 59.7878 61.846 59.7485C61.8459 59.7485 61.8459 59.7485 61.8459 59.7485L54.1337 59.3066L54.1337 59.3066L52.4543 59.2109ZM60.9484 60.9218L60.9487 60.9218C61.0881 60.9293 61.2066 61.0448 61.2 61.1896L61.2 61.1896L61.1999 61.1912C61.1912 61.3328 61.0691 61.4328 60.9343 61.4328H60.9253V61.4329L60.9203 61.4327L49.335 60.8442L49.3347 60.8442C49.1966 60.8368 49.076 60.7245 49.0848 60.575L49.0848 60.5747C49.0935 60.4359 49.2127 60.3332 49.3491 60.3332L49.3494 60.3332C49.3515 60.3332 49.3607 60.3332 49.3718 60.3353C49.3736 60.3356 49.3755 60.336 49.3772 60.3364L60.9484 60.9218Z" stroke="black" stroke-opacity="0.2" stroke-width="0.2"/>
<path fill-rule="evenodd" clip-rule="evenodd" d="M47.4084 80.7492C47.9172 80.7492 48.3528 80.4477 48.4107 80.0397C48.4749 79.6002 48.0779 79.2031 47.524 79.1534C47.4187 79.1437 40.1316 78.4185 39.4416 74.6604C39.3247 74.0272 39.3375 73.1991 40.0609 72.854C40.6572 72.5695 41.635 72.6591 42.3328 73.0647C42.7298 73.2959 43.1654 73.6991 42.9791 74.313C42.8506 74.744 43.1847 75.175 43.727 75.2779C44.2692 75.3808 44.814 75.1145 44.9425 74.6846C45.2792 73.5708 44.7485 72.4823 43.5239 71.7729C42.1657 70.9835 40.3128 70.8648 39.0188 71.4823C38.2633 71.8431 37.0528 72.7669 37.4422 74.8917C37.829 76.9923 39.6909 78.6764 42.8275 79.7588C45.0813 80.5361 47.2054 80.7358 47.294 80.7443C47.3326 80.7479 47.3711 80.7492 47.4084 80.7492Z" fill="url(#paint8_linear_248_208)"/>
<path d="M42.9791 74.313L43.0749 74.3415C42.9694 74.6954 43.2385 75.0834 43.7456 75.1797C44.2546 75.2762 44.7374 75.0217 44.8467 74.656L44.8468 74.6557C45.1664 73.5982 44.6702 72.5525 43.4738 71.8594L43.4737 71.8593C42.1409 71.0847 40.3229 70.9708 39.0619 71.5725C38.6943 71.7481 38.2203 72.0587 37.8853 72.5796C37.5519 73.0979 37.35 73.8338 37.5405 74.8737C37.9177 76.9218 39.7374 78.5867 42.8601 79.6643C45.0911 80.4337 47.1956 80.6345 47.3021 80.6446L47.3034 80.6448C47.3379 80.648 47.3732 80.6492 47.4084 80.6492C47.8865 80.6492 48.2632 80.3675 48.3117 80.0256L48.3117 80.0252C48.3646 79.6638 48.0356 79.2997 47.5151 79.253L47.5149 79.253C47.459 79.2479 45.6019 79.0632 43.6699 78.4073C42.704 78.0793 41.7139 77.6318 40.9201 77.026C40.1259 76.42 39.5217 75.6503 39.3433 74.6786C39.2836 74.3556 39.2552 73.9745 39.3389 73.6258C39.4235 73.2734 39.6236 72.9518 40.0179 72.7638C40.3371 72.6115 40.75 72.5624 41.168 72.601C41.587 72.6397 42.0202 72.7673 42.383 72.9782L42.3831 72.9783C42.588 73.0976 42.8111 73.2657 42.9584 73.4906C43.1083 73.7194 43.1774 74.0041 43.0748 74.342L42.9791 74.313ZM42.9791 74.313C43.1654 73.6991 42.7298 73.2959 42.3328 73.0647M42.9791 74.313C42.8506 74.744 43.1847 75.175 43.727 75.2779C44.2692 75.3808 44.814 75.1145 44.9425 74.6846C45.2792 73.5708 44.7485 72.4823 43.5239 71.7729C42.1657 70.9835 40.3128 70.8648 39.0188 71.4823C38.2633 71.8431 37.0528 72.7669 37.4422 74.8917L42.3328 73.0647M42.3328 73.0647C41.635 72.6591 40.6572 72.5695 40.0609 72.854L42.3328 73.0647Z" stroke="black" stroke-opacity="0.2" stroke-width="0.2"/>
<path fill-rule="evenodd" clip-rule="evenodd" d="M54.9678 80.7492C54.4616 80.7492 54.0247 80.4477 53.9656 80.0397C53.9026 79.6002 54.2997 79.2031 54.8535 79.1534C54.9576 79.1437 62.2446 78.4185 62.9346 74.6604C63.0516 74.0272 63.0387 73.1991 62.3166 72.854C61.7203 72.5695 60.7438 72.6591 60.0435 73.0647C59.6464 73.2959 59.2134 73.6991 59.3971 74.313C59.5256 74.744 59.1928 75.175 58.6493 75.2779C58.1083 75.3808 57.5622 75.1145 57.4337 74.6846C57.0996 73.5708 57.629 72.4823 58.8523 71.7729C60.2118 70.9835 62.0634 70.8648 63.3587 71.4823C64.1142 71.8431 65.3247 72.7669 64.934 74.8917C64.5473 76.9923 62.6853 78.6764 59.5487 79.7588C57.2975 80.5361 55.1734 80.7358 55.0835 80.7443C55.0437 80.7479 55.0051 80.7492 54.9678 80.7492Z" fill="url(#paint9_linear_248_208)"/>
<path d="M54.8627 79.253L54.8624 79.253C54.342 79.2997 54.0127 79.6638 54.0646 80.0255C54.1142 80.3677 54.4925 80.6492 54.9678 80.6492C55.003 80.6492 55.0384 80.648 55.0744 80.6447L55.0835 80.7443L55.0741 80.6448L55.0743 80.6447C55.1642 80.6363 57.2776 80.4371 59.5161 79.6643L59.5161 79.6643C62.6389 78.5866 64.4586 76.9218 64.8357 74.8736C65.0268 73.8338 64.8253 73.0978 64.4921 72.5796C64.1572 72.0588 63.6833 71.7481 63.3156 71.5726C62.0533 70.9708 60.2366 71.0847 58.9025 71.8593L58.9025 71.8594C57.7075 72.5524 57.2122 73.5982 57.5295 74.6559L57.5295 74.656C57.6388 75.0217 58.1229 75.2762 58.6306 75.1797L58.6307 75.1796C59.1388 75.0834 59.4068 74.6956 59.3013 74.3416C59.2002 74.0039 59.2693 73.7194 59.4188 73.4906C59.5657 73.2658 59.7881 73.0977 59.9931 72.9783L59.9933 72.9782C60.3574 72.7673 60.7908 72.6397 61.2098 72.601C61.6278 72.5624 62.0404 72.6115 62.3596 72.7638L62.3597 72.7638C62.7533 72.9519 62.9531 73.2735 63.0375 73.6259C63.121 73.9746 63.0926 74.3556 63.033 74.6786L62.9346 74.6604L63.033 74.6785C62.8546 75.6503 62.2504 76.42 61.4561 77.026C60.6624 77.6318 59.6723 78.0793 58.7065 78.4073C56.7746 79.0632 54.9178 79.2479 54.8627 79.253ZM53.9656 80.0397C53.9026 79.6002 54.2997 79.2031 54.8535 79.1534L53.9656 80.0397Z" stroke="black" stroke-opacity="0.2" stroke-width="0.2"/>
<path fill-rule="evenodd" clip-rule="evenodd" d="M46.1004 60.5809C46.1878 60.5809 46.261 60.5156 46.2649 60.4332C46.27 60.3485 46.2006 60.2746 46.1107 60.2698L44.1704 60.1705C44.1678 60.1705 44.1652 60.1705 44.164 60.1705C44.0753 60.1705 44.0008 60.2347 43.9969 60.3182C43.9918 60.403 44.0612 60.4768 44.1537 60.4829L46.0914 60.5809H46.1004Z" fill="white"/>
<path fill-rule="evenodd" clip-rule="evenodd" d="M60.9342 61.3328C61.0216 61.3328 61.0948 61.2686 61.0999 61.1851C61.1038 61.1003 61.0331 61.0265 60.9432 61.0216L49.3593 60.4357C49.3541 60.4332 49.3515 60.4332 49.349 60.4332C49.2616 60.4332 49.1896 60.4986 49.1845 60.5809C49.1794 60.6681 49.25 60.7395 49.34 60.7444L60.9252 61.3328H60.9342Z" fill="white"/>
<path fill-rule="evenodd" clip-rule="evenodd" d="M51.9638 77.9137C51.9702 77.9137 51.9766 77.9137 51.983 77.9124C54.0814 77.6848 55.757 76.0758 56.9674 73.1289C57.9658 70.6953 58.4387 67.8465 58.6572 65.8863C58.6674 65.8016 58.6006 65.7241 58.5107 65.7156C58.5055 65.7144 58.4991 65.7144 58.494 65.7144C58.4104 65.7144 58.3385 65.7737 58.3295 65.8548C57.9517 69.2194 56.5755 77.1013 51.9458 77.6037C51.8545 77.6134 51.789 77.6897 51.8006 77.7756C51.8096 77.8543 51.8815 77.9137 51.9638 77.9137Z" fill="white"/>
<path fill-rule="evenodd" clip-rule="evenodd" d="M58.6325 64.4867C58.7199 64.4867 58.7919 64.425 58.7983 64.3427C58.8291 63.8935 58.8368 63.6356 58.8368 63.6247C58.8394 63.5399 58.7675 63.4673 58.6775 63.4637C58.6724 63.4637 58.6698 63.4637 58.6672 63.4637C58.5747 63.4637 58.5105 63.5339 58.5066 63.6162C58.5066 63.6186 58.4989 63.879 58.4693 64.3221C58.4629 64.408 58.5323 64.4819 58.6222 64.4867H58.6325Z" fill="white"/>
<path fill-rule="evenodd" clip-rule="evenodd" d="M147.064 101.264L151.265 107.355C149.31 110.942 147.14 112.923 144.968 113.864C144.58 111.629 143.195 109.774 142.177 108.672C146.052 106.594 147.064 101.264 147.064 101.264Z" fill="url(#paint10_linear_248_208)"/>
<path fill-rule="evenodd" clip-rule="evenodd" d="M132.629 107.579C136.93 109.977 140.004 109.836 142.177 108.672C143.195 109.774 144.58 111.629 144.968 113.864C138.064 116.858 131.15 109.323 131.15 109.323L132.629 107.579Z" fill="url(#paint11_linear_248_208)"/>
<path fill-rule="evenodd" clip-rule="evenodd" d="M132.395 108.621C132.395 108.621 133.555 106.714 131.886 105.249C131.886 105.249 131.347 104.671 130.755 105.521C130.755 105.521 128.959 103.984 128.468 104.603C127.977 105.223 126.674 106.754 127.946 108.503C129.233 110.271 131.827 109.483 132.395 108.621Z" fill="url(#paint12_linear_248_208)"/>
<path d="M130.629 107.559C130.8 107.559 130.984 107.529 131.147 107.44C131.305 107.35 131.504 107.166 131.556 106.788C131.571 106.68 131.489 106.581 131.373 106.567C131.259 106.553 131.154 106.63 131.139 106.739C131.115 106.917 131.047 107.034 130.934 107.098C130.773 107.188 130.537 107.17 130.361 107.133L130.768 105.918C130.803 105.814 130.742 105.702 130.631 105.669C130.52 105.636 130.402 105.694 130.367 105.798L129.896 107.207C129.862 107.306 129.916 107.413 130.019 107.45C130.063 107.467 130.327 107.559 130.629 107.559Z" fill="#FFAE81"/>
<path fill-rule="evenodd" clip-rule="evenodd" d="M193.508 148.478C193.882 148.69 194.073 149.137 193.983 149.574C193.633 151.296 192.48 155.844 189.68 158.537C189.495 158.715 189.226 158.699 189.065 158.539C189.773 157.843 190.651 156.653 191.679 154.632C193.259 151.528 193.552 149.613 193.508 148.478Z" fill="url(#paint13_linear_248_208)"/>
<path fill-rule="evenodd" clip-rule="evenodd" d="M189.892 148.414C189.892 148.414 191.697 147.488 193.495 148.47L193.508 148.478C193.551 149.613 193.258 151.528 191.679 154.632C190.651 156.653 189.772 157.843 189.064 158.539C189.013 158.488 188.97 158.424 188.947 158.346C188.42 156.624 187.31 151.84 189.892 148.414Z" fill="black"/>
<path fill-rule="evenodd" clip-rule="evenodd" d="M187.285 148.521L188.92 150C189.21 150.262 189.654 150.304 189.988 150.095C190.28 149.912 190.604 149.613 190.82 149.128C190.949 148.838 190.888 148.502 190.662 148.269L189.028 146.575C188.639 146.172 187.945 146.238 187.65 146.708L187.14 147.522C186.936 147.846 186.996 148.26 187.285 148.521Z" fill="url(#paint14_linear_248_208)"/>
<path fill-rule="evenodd" clip-rule="evenodd" d="M134.406 141.101C134.025 141.303 133.519 141.239 133.159 140.95C131.743 139.812 128.117 136.619 127.016 132.995C126.944 132.756 127.092 132.543 127.319 132.489C127.611 133.413 128.274 134.722 129.631 136.562C131.715 139.391 133.338 140.577 134.406 141.101Z" fill="url(#paint15_linear_248_208)"/>
<path fill-rule="evenodd" clip-rule="evenodd" d="M136.252 138.173C136.252 138.173 136.214 140.108 134.42 141.095L134.406 141.101C133.338 140.577 131.715 139.391 129.631 136.562C128.274 134.722 127.611 133.413 127.319 132.489C127.391 132.472 127.472 132.47 127.556 132.489C129.405 132.91 134.366 134.364 136.252 138.173Z" fill="black"/>
<path fill-rule="evenodd" clip-rule="evenodd" d="M136.378 134.967L134.669 136.37C134.366 136.618 134.282 137.031 134.474 137.363C134.64 137.652 134.926 137.984 135.42 138.229C135.715 138.377 136.076 138.348 136.343 138.158L138.279 136.777C138.741 136.447 138.732 135.79 138.262 135.471L137.447 134.919C137.122 134.699 136.68 134.718 136.378 134.967Z" fill="url(#paint16_linear_248_208)"/>
<path fill-rule="evenodd" clip-rule="evenodd" d="M170.679 120.764C170.679 120.764 174.015 131.471 176.171 136.177C176.171 136.177 179.941 136.72 182.275 138.004C184.608 139.289 189.634 146.409 189.634 146.409C189.634 146.409 188.322 148.757 186.737 149.116L172.429 139.776L161.011 127.264L161.553 121.46L170.679 120.764Z" fill="url(#paint17_linear_248_208)"/>
<path fill-rule="evenodd" clip-rule="evenodd" d="M170.473 119.891L171.449 122.822C171.449 122.822 170.556 130.51 160.271 129.213C149.985 127.918 148.692 126.335 148.692 126.335C148.692 126.335 149.585 131.245 138.338 137.148C138.338 137.148 136.627 135.931 136.252 134.551L144.134 122.311C145.23 120.705 146.247 120.283 148.249 120.578C152.674 121.23 160.963 122.08 162.218 121.879L170.473 119.891Z" fill="url(#paint18_linear_248_208)"/>
<path fill-rule="evenodd" clip-rule="evenodd" d="M162.44 98.0855C165.438 98.2296 170.176 99.5723 173.236 102.227C172.296 103.206 170.848 104.797 169.768 106.368C168.804 105.514 167.421 104.805 165.471 104.35C167.156 110.284 169.148 115.936 171.574 121.191C171.726 121.52 171.553 121.9 171.193 122.018C169.316 122.635 163.778 124.104 159.336 121.739L149.488 108.452C148.429 107.023 147.732 105.384 147.452 103.661L147.064 101.264C147.064 101.264 155.909 97.7731 162.44 98.0855Z" fill="url(#paint19_linear_248_208)"/>
<path fill-rule="evenodd" clip-rule="evenodd" d="M167.811 118.192C168.239 117.302 169.704 116.469 170.403 116.112C171.012 114.93 173.44 109.616 169.768 106.368C170.847 104.797 172.296 103.206 173.236 102.227C176.767 105.291 178.06 110.102 171.868 116.84C172.206 118.499 171.103 120.432 170.506 120.702C170.232 120.826 167.242 119.375 167.811 118.192Z" fill="url(#paint20_linear_248_208)"/>
<path fill-rule="evenodd" clip-rule="evenodd" d="M155.788 94.5575L158.36 99.3023C158.517 99.5916 158.471 99.9415 158.241 100.184C157.618 100.837 156.146 101.899 153.587 101.138C153.304 101.054 153.101 100.821 153.058 100.544L152.389 96.2355L155.788 94.5575Z" fill="url(#paint21_linear_248_208)"/>
<path fill-rule="evenodd" clip-rule="evenodd" d="M151.498 89.0475C151.498 89.0475 149.988 92.3128 149.888 94.0284C149.787 95.7428 149.393 96.8542 151.498 97.2005C153.602 97.5455 155.375 96.5576 156.335 94.8492C156.335 94.8492 157.838 92.2183 157.502 91.1408C157.164 90.0633 151.498 89.0475 151.498 89.0475Z" fill="url(#paint22_linear_248_208)"/>
<path fill-rule="evenodd" clip-rule="evenodd" d="M155.616 93.6216L155.496 93.5719C155.343 93.509 155.279 93.3383 155.355 93.1978C155.652 92.6578 156.23 91.4205 155.483 91.1323C154.52 90.7594 150.706 90.0269 149.884 88.752C149.092 87.5268 149.794 85.9444 150.846 85.494C150.917 85.4649 151 85.4891 151.036 85.5521L151.124 85.7095C151.184 85.816 151.352 85.8003 151.387 85.6841C151.422 85.5715 151.578 85.5509 151.644 85.649C151.897 86.0303 152.581 86.649 154.407 86.9674C157.002 87.4178 158.719 88.407 158.761 90.0971C158.763 90.2049 158.885 90.2642 158.982 90.2085C159.174 90.0984 159.481 90.0463 159.891 90.3708C160.604 90.9362 160.312 92.4012 158.749 93.6058C158.675 93.6639 158.675 93.7729 158.755 93.8213C159.039 93.9957 159.462 94.4097 158.367 94.9606C157.235 95.5309 156.391 95.4837 156.064 95.4328C155.983 95.4195 155.932 95.3468 155.949 95.2706L156.297 93.7862C156.316 93.7015 156.248 93.6216 156.157 93.6216H155.616Z" fill="url(#paint23_linear_248_208)"/>
<path fill-rule="evenodd" clip-rule="evenodd" d="M155.55 93.9351C155.55 93.9351 156.126 91.8491 157.119 92.4338C158.112 93.0186 156.604 94.7717 155.806 94.8492L155.55 93.9351Z" fill="#FECB89"/>
<defs>
<linearGradient id="paint0_linear_248_208" x1="90.7388" y1="72.2892" x2="72.9844" y2="72.2892" gradientUnits="userSpaceOnUse">
<stop stop-color="#304352"/>
<stop offset="1" stop-color="#D7D2CC"/>
</linearGradient>
<linearGradient id="paint1_linear_248_208" x1="47.252" y1="36.5433" x2="31.8696" y2="36.5433" gradientUnits="userSpaceOnUse">
<stop stop-color="#091E3A"/>
<stop offset="0.5" stop-color="#2F80ED"/>
<stop offset="1" stop-color="#2D9EE0"/>
</linearGradient>
<linearGradient id="paint2_linear_248_208" x1="48.2817" y1="33.2464" x2="37.8367" y2="33.2464" gradientUnits="userSpaceOnUse">
<stop stop-color="#091E3A"/>
<stop offset="0.5" stop-color="#2F80ED"/>
<stop offset="1" stop-color="#2D9EE0"/>
</linearGradient>
<linearGradient id="paint3_linear_248_208" x1="55.5015" y1="82.4623" x2="46.5761" y2="82.4623" gradientUnits="userSpaceOnUse">
<stop stop-color="#9CECFB"/>
<stop offset="0.5" stop-color="#65C7F7"/>
<stop offset="1" stop-color="#0052D4"/>
</linearGradient>
<linearGradient id="paint4_linear_248_208" x1="60.9175" y1="70.8315" x2="41.7881" y2="70.8315" gradientUnits="userSpaceOnUse">
<stop stop-color="#1FA2FF"/>
<stop offset="0.5" stop-color="#12D8FA"/>
<stop offset="1" stop-color="#A6FFCB"/>
</linearGradient>
<linearGradient id="paint5_linear_248_208" x1="57.6021" y1="89.2418" x2="44.9362" y2="89.2418" gradientUnits="userSpaceOnUse">
<stop stop-color="#56CCF2"/>
<stop offset="1" stop-color="#2F80ED"/>
</linearGradient>
<linearGradient id="paint6_linear_248_208" x1="57.6021" y1="87.7072" x2="44.9348" y2="87.7072" gradientUnits="userSpaceOnUse">
<stop stop-color="#1FA2FF"/>
<stop offset="0.5" stop-color="#12D8FA"/>
<stop offset="1" stop-color="#A6FFCB"/>
</linearGradient>
<linearGradient id="paint7_linear_248_208" x1="63.1162" y1="60.6021" x2="38.8727" y2="60.6021" gradientUnits="userSpaceOnUse">
<stop stop-color="#9CECFB"/>
<stop offset="0.5" stop-color="#65C7F7"/>
<stop offset="1" stop-color="#0052D4"/>
</linearGradient>
<linearGradient id="paint8_linear_248_208" x1="48.4175" y1="75.919" x2="37.3669" y2="75.919" gradientUnits="userSpaceOnUse">
<stop stop-color="#9CECFB"/>
<stop offset="0.5" stop-color="#65C7F7"/>
<stop offset="1" stop-color="#0052D4"/>
</linearGradient>
<linearGradient id="paint9_linear_248_208" x1="65.0098" y1="75.919" x2="53.959" y2="75.919" gradientUnits="userSpaceOnUse">
<stop stop-color="#9CECFB"/>
<stop offset="0.5" stop-color="#65C7F7"/>
<stop offset="1" stop-color="#0052D4"/>
</linearGradient>
<linearGradient id="paint10_linear_248_208" x1="151.265" y1="107.564" x2="142.177" y2="107.564" gradientUnits="userSpaceOnUse">
<stop stop-color="#2980B9"/>
<stop offset="0.5" stop-color="#6DD5FA"/>
<stop offset="1" stop-color="white"/>
</linearGradient>
<linearGradient id="paint11_linear_248_208" x1="144.968" y1="111.073" x2="131.15" y2="111.073" gradientUnits="userSpaceOnUse">
<stop stop-color="#FCC67F"/>
<stop offset="1" stop-color="#FFD194"/>
</linearGradient>
<linearGradient id="paint12_linear_248_208" x1="132.788" y1="107.01" x2="127.405" y2="107.01" gradientUnits="userSpaceOnUse">
<stop stop-color="#FCC67F"/>
<stop offset="1" stop-color="#FFD194"/>
</linearGradient>
<linearGradient id="paint13_linear_248_208" x1="193.938" y1="153.546" x2="189.063" y2="153.546" gradientUnits="userSpaceOnUse">
<stop stop-color="#09005D"/>
<stop offset="1" stop-color="#1A0F91"/>
</linearGradient>
<linearGradient id="paint14_linear_248_208" x1="190.826" y1="148.298" x2="187.1" y2="148.298" gradientUnits="userSpaceOnUse">
<stop stop-color="#FEBBBA"/>
<stop offset="1" stop-color="#FF928E"/>
</linearGradient>
<linearGradient id="paint15_linear_248_208" x1="134.406" y1="136.812" x2="127.051" y2="136.812" gradientUnits="userSpaceOnUse">
<stop stop-color="#09005D"/>
<stop offset="1" stop-color="#1A0F91"/>
</linearGradient>
<linearGradient id="paint16_linear_248_208" x1="138.505" y1="136.551" x2="134.456" y2="136.551" gradientUnits="userSpaceOnUse">
<stop stop-color="#FEBBBA"/>
<stop offset="1" stop-color="#FF928E"/>
</linearGradient>
<linearGradient id="paint17_linear_248_208" x1="189.634" y1="134.94" x2="161.011" y2="134.94" gradientUnits="userSpaceOnUse">
<stop/>
<stop offset="1" stop-color="#434343"/>
</linearGradient>
<linearGradient id="paint18_linear_248_208" x1="171.449" y1="128.519" x2="136.252" y2="128.519" gradientUnits="userSpaceOnUse">
<stop/>
<stop offset="1" stop-color="#434343"/>
</linearGradient>
<linearGradient id="paint19_linear_248_208" x1="173.236" y1="110.552" x2="147.064" y2="110.552" gradientUnits="userSpaceOnUse">
<stop stop-color="#2980B9"/>
<stop offset="0.5" stop-color="#6DD5FA"/>
<stop offset="1" stop-color="white"/>
</linearGradient>
<linearGradient id="paint20_linear_248_208" x1="176.198" y1="111.468" x2="167.739" y2="111.468" gradientUnits="userSpaceOnUse">
<stop stop-color="#FCC67F"/>
<stop offset="1" stop-color="#FFD194"/>
</linearGradient>
<linearGradient id="paint21_linear_248_208" x1="158.452" y1="97.9797" x2="152.389" y2="97.9797" gradientUnits="userSpaceOnUse">
<stop stop-color="#FCC67F"/>
<stop offset="1" stop-color="#FFD194"/>
</linearGradient>
<linearGradient id="paint22_linear_248_208" x1="157.551" y1="93.1582" x2="149.793" y2="93.1582" gradientUnits="userSpaceOnUse">
<stop stop-color="#FCC67F"/>
<stop offset="1" stop-color="#FFD194"/>
</linearGradient>
<linearGradient id="paint23_linear_248_208" x1="160.259" y1="90.4715" x2="149.543" y2="90.4715" gradientUnits="userSpaceOnUse">
<stop/>
<stop offset="1" stop-color="#434343"/>
</linearGradient>
</defs>
</svg>
