<svg width="32" height="23" viewBox="0 0 32 23" fill="none" xmlns="http://www.w3.org/2000/svg">
<path fill-rule="evenodd" clip-rule="evenodd" d="M30.375 0H18L17.2125 0.28125L15.75 1.48125L14.2875 0.28125L13.5 0H1.125L0 0.9375V19.6875L1.125 20.625H13.0275L14.9625 22.2188H16.5375L18.4725 20.625H30.375L31.5 19.6875V0.9375L30.375 0ZM14.625 19.35L14.22 19.0312L13.5 18.75H2.25V1.875H13.0275L14.6925 3.2625L14.625 19.35ZM29.25 18.75H18L17.2125 19.0312L16.8975 19.275V3.1875L18.4725 1.875H29.25V18.75ZM11.25 5.625H4.5V7.5H11.25V5.625ZM11.25 13.125H4.5V15H11.25V13.125ZM4.5 9.375H11.25V11.25H4.5V9.375ZM27 5.625H20.25V7.5H27V5.625ZM20.25 9.375H27V11.25H20.25V9.375ZM20.25 13.125H27V15H20.25V13.125Z" fill="black"/>
</svg>
