<svg width="42" height="42" viewBox="0 0 42 42" fill="none" xmlns="http://www.w3.org/2000/svg">
<g clip-path="url(#clip0_248_148)">
<path d="M21.3289 1.37196C18.6278 1.37196 16.4445 3.58575 16.4445 6.29306C16.4445 9.01447 18.6278 11.2142 21.3289 11.2142C24.016 11.2142 26.2132 9.01447 26.2132 6.29306C26.2132 3.58575 24.016 1.37196 21.3289 1.37196ZM21.3289 12.5678C17.886 12.5678 15.101 9.7618 15.101 6.29306C15.101 2.83842 17.886 0.0183105 21.3289 0.0183105C24.7577 0.0183105 27.5568 2.83842 27.5568 6.29306C27.5568 9.7618 24.7577 12.5678 21.3289 12.5678Z" fill="black"/>
<path d="M4.07262 38.0193H13.4355C15.7587 38.0193 17.998 38.6961 19.9293 39.9933L19.9993 40.0356V24.0033L19.1876 23.4534C17.4802 22.2971 15.4928 21.6908 13.4355 21.6908H4.07262V38.0193ZM20.6711 41.9815C20.5451 41.9815 20.4192 41.9392 20.3072 41.8687L19.1876 41.1214C17.4802 39.9792 15.4928 39.3729 13.4355 39.3729H3.40084C3.02297 39.3729 2.72906 39.0627 2.72906 38.6961V21.014C2.72906 20.6474 3.02297 20.3372 3.40084 20.3372H13.4355C15.7587 20.3372 17.998 21.0281 19.9293 22.3253L21.049 23.0727C21.2309 23.1996 21.3429 23.4111 21.3429 23.6367V41.3047C21.3429 41.5585 21.2169 41.7841 20.993 41.8969C20.895 41.9533 20.783 41.9815 20.6711 41.9815Z" fill="black"/>
<path d="M21.3429 24.0033V40.0356L21.4129 39.9933C23.3442 38.6961 25.5975 38.0193 27.9207 38.0193H37.9274V21.6908H27.9207C25.8634 21.6908 23.876 22.2971 22.1686 23.4534L21.3429 24.0033ZM20.6711 41.9815C20.5731 41.9815 20.4612 41.9533 20.3632 41.8969C20.1393 41.7841 19.9993 41.5585 19.9993 41.3047V23.6367C19.9993 23.4111 20.1113 23.1996 20.3072 23.0727L21.4129 22.3253C23.3442 21.0281 25.5975 20.3372 27.9207 20.3372H38.5991C38.977 20.3372 39.2709 20.6474 39.2709 21.014V38.6961C39.2709 39.0627 38.977 39.3729 38.5991 39.3729H27.9207C25.8634 39.3729 23.876 39.9792 22.1686 41.1214L21.049 41.8687C20.937 41.9392 20.8111 41.9815 20.6711 41.9815Z" fill="black"/>
<path d="M15.129 26.4428H7.30556C6.94169 26.4428 6.63379 26.1325 6.63379 25.7659C6.63379 25.3852 6.94169 25.0891 7.30556 25.0891H15.129C15.4928 25.0891 15.8007 25.3852 15.8007 25.7659C15.8007 26.1325 15.4928 26.4428 15.129 26.4428Z" fill="black"/>
<path d="M15.129 30.6166H7.30557C6.94169 30.6166 6.63379 30.3064 6.63379 29.9398C6.63379 29.5591 6.94169 29.2629 7.30557 29.2629H15.129C15.4928 29.2629 15.8007 29.5591 15.8007 29.9398C15.8007 30.3064 15.4928 30.6166 15.129 30.6166Z" fill="black"/>
<path d="M34.4952 26.3536H26.6718C26.3079 26.3536 26 26.0434 26 25.6768C26 25.2961 26.3079 25 26.6718 25H34.4952C34.859 25 35.1669 25.2961 35.1669 25.6768C35.1669 26.0434 34.859 26.3536 34.4952 26.3536Z" fill="black"/>
<path d="M34.4952 30.5275H26.6718C26.3079 30.5275 26 30.2173 26 29.8507C26 29.4699 26.3079 29.1738 26.6718 29.1738H34.4952C34.859 29.1738 35.1669 29.4699 35.1669 29.8507C35.1669 30.2173 34.859 30.5275 34.4952 30.5275Z" fill="black"/>
<path d="M20.6711 24.3136C20.5451 24.3136 20.4192 24.2713 20.3072 24.2008L19.1876 23.4534C17.4802 22.2972 15.4928 21.6909 13.4355 21.6909H8.62112C8.25724 21.6909 7.94934 21.3948 7.94934 21.014V19.9283C7.94934 15.6417 11.1403 12.0461 15.3529 11.5667C16.0246 11.4821 16.8364 11.4257 17.7741 11.3975C18.1379 11.3975 18.4458 11.6795 18.4598 12.0461C18.4738 12.4268 18.1939 12.737 17.8161 12.7511C16.9204 12.7793 16.1366 12.8357 15.5068 12.9062C11.966 13.3151 9.29289 16.3327 9.29289 19.9283V20.3372H13.4355C15.7587 20.3372 17.998 21.0281 19.9293 22.3254L20.6711 22.8189L21.4129 22.3254C23.3442 21.0281 25.5975 20.3372 27.9207 20.3372H33.3509V19.9283C33.3509 16.3327 30.6918 13.3151 27.1369 12.9062C26.5771 12.8498 25.9054 12.7934 25.1216 12.7652C24.7437 12.7511 24.4638 12.4268 24.4778 12.0602C24.4918 11.6795 24.7997 11.3834 25.1776 11.4116C25.9893 11.4398 26.7031 11.4962 27.2909 11.5667C31.5175 12.0461 34.7084 15.6417 34.7084 19.9283V21.014C34.7084 21.3948 34.4005 21.6909 34.0366 21.6909H27.9207C25.8634 21.6909 23.876 22.2972 22.1686 23.4534L21.049 24.2008C20.937 24.2713 20.8111 24.3136 20.6711 24.3136Z" fill="black"/>
<path d="M2.72909 29.5591C1.94535 29.7142 1.34355 30.4051 1.34355 31.2512C1.34355 32.0831 1.94535 32.7881 2.72909 32.9432V29.5591ZM3.40087 34.3251H3.05098C1.37154 34.3251 0 32.9432 0 31.2512C0 29.545 1.37154 28.1772 3.05098 28.1772H3.40087C3.77874 28.1772 4.07264 28.4734 4.07264 28.8541V33.6483C4.07264 34.0149 3.77874 34.3251 3.40087 34.3251Z" fill="black"/>
<path d="M39.2709 29.5591V32.9432C40.0687 32.7881 40.6565 32.0831 40.6565 31.2512C40.6565 30.4051 40.0687 29.7142 39.2709 29.5591ZM38.949 34.3251H38.5991C38.2353 34.3251 37.9274 34.0149 37.9274 33.6483V28.8541C37.9274 28.4734 38.2353 28.1772 38.5991 28.1772H38.949C40.6285 28.1772 42 29.545 42 31.2512C42 32.9432 40.6285 34.3251 38.949 34.3251Z" fill="black"/>
</g>
<defs>
<clipPath id="clip0_248_148">
<rect width="42" height="42" fill="white"/>
</clipPath>
</defs>
</svg>
