<svg width="53" height="50" viewBox="0 0 53 50" fill="none" xmlns="http://www.w3.org/2000/svg">
<path d="M24.5773 23.8588H28.6453V21.1357H24.5773V23.8588ZM28.9006 25.4747H24.3279C23.5202 25.4747 22.8669 24.8541 22.8669 24.0992V20.8953C22.8669 20.1404 23.5202 19.5198 24.3279 19.5198H28.9006C29.7083 19.5198 30.3616 20.1404 30.3616 20.8953V24.0992C30.3616 24.8541 29.7083 25.4747 28.9006 25.4747Z" fill="#434242"/>
<path d="M27.4992 23.3056H25.7294C25.2543 23.3056 24.8743 22.9422 24.8743 22.5005C24.8743 22.0531 25.2543 21.6897 25.7294 21.6897H27.4992C27.9683 21.6897 28.3543 22.0531 28.3543 22.5005C28.3543 22.9422 27.9683 23.3056 27.4992 23.3056Z" fill="#434242"/>
<path d="M24.9339 19.5193H28.2952C28.4555 18.0655 29.1563 16.6732 30.3084 15.5437C31.223 14.6435 31.7278 13.4637 31.7278 12.2224C31.7278 10.8916 31.1636 9.65028 30.1481 8.73328C29.1266 7.81627 27.7845 7.35217 26.3651 7.40809C23.8649 7.51992 21.733 9.4434 21.5192 11.7918C21.3945 13.1897 21.9111 14.5652 22.9385 15.5605C24.0847 16.6732 24.7795 18.0599 24.9339 19.5193ZM29.1147 21.1352H24.1084C23.6393 21.1352 23.2533 20.7718 23.2533 20.3301V20.1567C23.2533 18.8875 22.7069 17.6573 21.7092 16.6844C20.3314 15.3536 19.6425 13.5196 19.8088 11.652C20.0998 8.46488 22.8851 5.94312 26.2879 5.79774C28.1824 5.71386 29.964 6.34011 31.3299 7.56465C32.6958 8.79478 33.444 10.4443 33.444 12.2224C33.444 13.8831 32.767 15.4599 31.5437 16.662C30.5341 17.6573 29.9758 18.8986 29.9758 20.1567V20.3301C29.9758 20.7718 29.5898 21.1352 29.1147 21.1352Z" fill="#434242"/>
<path d="M26.6145 4.77515C26.1394 4.77515 25.7534 4.41729 25.7534 3.96997V0.810769C25.7534 0.363448 26.1394 0 26.6145 0C27.0837 0 27.4697 0.363448 27.4697 0.810769V3.96997C27.4697 4.41729 27.0837 4.77515 26.6145 4.77515Z" fill="#434242"/>
<path d="M30.9377 5.87106C30.7952 5.87106 30.6467 5.83192 30.5101 5.75923C30.1004 5.53557 29.9578 5.04352 30.1954 4.6577L31.876 1.91787C32.1136 1.53205 32.6362 1.39786 33.0459 1.62152C33.4557 1.84518 33.5982 2.34282 33.3607 2.72863L31.68 5.46288C31.5256 5.72568 31.2346 5.87106 30.9377 5.87106Z" fill="#434242"/>
<path d="M34.1089 8.85127C33.812 8.85127 33.521 8.70589 33.3607 8.44868C33.1231 8.06287 33.2656 7.56522 33.6754 7.34156L36.5854 5.75917C36.9951 5.5411 37.5177 5.6697 37.7553 6.05552C37.9928 6.44133 37.8562 6.93898 37.4465 7.16264L34.5365 8.74503C34.3999 8.81772 34.2515 8.85127 34.1089 8.85127Z" fill="#434242"/>
<path d="M38.6222 12.9219H35.2669C34.7918 12.9219 34.4058 12.564 34.4058 12.1167C34.4058 11.6694 34.7918 11.3059 35.2669 11.3059H38.6222C39.0973 11.3059 39.4833 11.6694 39.4833 12.1167C39.4833 12.564 39.0973 12.9219 38.6222 12.9219Z" fill="#434242"/>
<path d="M17.9616 12.9219H14.6062C14.1311 12.9219 13.7451 12.564 13.7451 12.1167C13.7451 11.6694 14.1311 11.3059 14.6062 11.3059H17.9616C18.4367 11.3059 18.8227 11.6694 18.8227 12.1167C18.8227 12.564 18.4367 12.9219 17.9616 12.9219Z" fill="#434242"/>
<path d="M19.1199 8.85127C18.9774 8.85127 18.8289 8.81772 18.6923 8.74503L15.7824 7.16264C15.3726 6.93898 15.236 6.44133 15.4676 6.05552C15.7052 5.6697 16.2337 5.5411 16.6435 5.75917L19.5535 7.34156C19.9632 7.56522 20.0998 8.06287 19.8623 8.44868C19.7079 8.70589 19.4169 8.85127 19.1199 8.85127Z" fill="#434242"/>
<path d="M22.2852 5.87106C21.9942 5.87106 21.7033 5.72568 21.5488 5.46288L19.8682 2.72863C19.6307 2.34282 19.7732 1.84518 20.177 1.62152C20.5927 1.39786 21.1153 1.53205 21.3529 1.91787L23.0335 4.6577C23.2711 5.04352 23.1285 5.53557 22.7188 5.75923C22.5822 5.83192 22.4337 5.87106 22.2852 5.87106Z" fill="#434242"/>
<path d="M48.7729 45.8605H4.23278C3.80087 45.8605 3.44995 45.5187 3.44995 45.1032V20.4021C3.44995 19.9813 3.80087 19.6448 4.23278 19.6448H7.48285C7.91476 19.6448 8.26028 19.9813 8.26028 20.4021V41.6429C8.26028 42.0636 7.91476 42.4001 7.48285 42.4001C7.05095 42.4001 6.70543 42.0636 6.70543 41.6429V21.1593H5.0102V44.3407H47.99V21.1593H46.2948V41.6429C46.2948 42.0636 45.9493 42.4001 45.5174 42.4001C45.0855 42.4001 44.74 42.0636 44.74 41.6429V20.4021C44.74 19.9813 45.0855 19.6448 45.5174 19.6448H48.7729C49.1994 19.6448 49.5503 19.9813 49.5503 20.4021V45.1032C49.5503 45.5187 49.1994 45.8605 48.7729 45.8605Z" fill="#434242"/>
<path d="M50.6299 50.0003H2.37547C1.06356 50.0003 0 48.9643 0 47.6864V24.8626C0 23.59 1.06356 22.554 2.37547 22.554H4.18407C4.61597 22.554 4.96689 22.8958 4.96689 23.3112C4.96689 23.732 4.61597 24.0738 4.18407 24.0738H2.37547C1.92197 24.0738 1.56025 24.4261 1.56025 24.8626V47.6864C1.56025 48.1228 1.92197 48.4804 2.37547 48.4804H50.6299C51.078 48.4804 51.4397 48.1228 51.4397 47.6864V24.8626C51.4397 24.4261 51.078 24.0738 50.6299 24.0738H48.8645C48.438 24.0738 48.0871 23.732 48.0871 23.3112C48.0871 22.8958 48.438 22.554 48.8645 22.554H50.6299C51.9364 22.554 53 23.59 53 24.8626V47.6864C53 48.9643 51.9364 50.0003 50.6299 50.0003Z" fill="#434242"/>
<path d="M26.5014 43.6341C26.2608 43.6341 26.0654 43.3987 26.0654 43.1045V27.3306C26.0654 27.0364 26.2608 26.801 26.5014 26.801C26.7419 26.801 26.9343 27.0364 26.9343 27.3306V43.1045C26.9343 43.3987 26.7419 43.6341 26.5014 43.6341Z" fill="#434242"/>
<path d="M8.50578 40.6204H22.3483C23.6386 40.6204 24.686 41.6459 24.686 42.9028V43.8284C24.686 43.9703 24.8048 44.0808 24.9505 44.0808H28.5461C28.6865 44.0808 28.8053 43.9703 28.8053 43.8284V42.9028C28.8053 41.6459 29.8526 40.6204 31.1429 40.6204H44.9855V18.575H35.2622C33.0649 18.575 30.8718 18.8133 28.7176 19.2393L26.8995 19.5689C26.7782 19.5481 26.7174 19.541 26.6149 19.5199L24.7886 19.2166C22.6344 18.7906 20.4263 18.575 18.229 18.575H8.50578V40.6204ZM28.5461 45.6006H24.9505C23.9463 45.6006 23.1311 44.8065 23.1311 43.8284V42.9028C23.1311 42.4821 22.7802 42.1402 22.3483 42.1402H7.72835C7.29645 42.1402 6.95093 41.8037 6.95093 41.383V17.8125C6.95093 17.397 7.29645 17.0552 7.72835 17.0552H18.229C20.5289 17.0552 20.3336 18.3853 22.5903 18.8271L26.8995 19.5689L30.5953 18.8989C32.8466 18.4571 32.9623 17.0552 35.2622 17.0552H45.7629C46.1948 17.0552 46.5403 17.397 46.5403 17.8125V41.383C46.5403 41.8037 46.1948 42.1402 45.7629 42.1402H31.1429C30.711 42.1402 30.3655 42.4821 30.3655 42.9028V43.8284C30.3655 44.8065 29.5503 45.6006 28.5461 45.6006Z" fill="#434242"/>
<path d="M21.3737 23.2002H11.6126C11.1861 23.2002 10.8352 22.8584 10.8352 22.4377C10.8352 22.017 11.1861 21.6804 11.6126 21.6804H21.3737C21.8056 21.6804 22.1511 22.017 22.1511 22.4377C22.1511 22.8584 21.8056 23.2002 21.3737 23.2002Z" fill="#434242"/>
<path d="M21.3737 27.1235H11.6126C11.1861 27.1235 10.8352 26.7869 10.8352 26.3662C10.8352 25.9455 11.1861 25.6089 11.6126 25.6089H21.3737C21.8056 25.6089 22.1511 25.9455 22.1511 26.3662C22.1511 26.7869 21.8056 27.1235 21.3737 27.1235Z" fill="#434242"/>
<path d="M21.3737 31.0522H11.6126C11.1861 31.0522 10.8352 30.7156 10.8352 30.2949C10.8352 29.8742 11.1861 29.5376 11.6126 29.5376H21.3737C21.8056 29.5376 22.1511 29.8742 22.1511 30.2949C22.1511 30.7156 21.8056 31.0522 21.3737 31.0522Z" fill="#434242"/>
<path d="M21.3737 34.9804H11.6126C11.1861 34.9804 10.8352 34.6438 10.8352 34.2231C10.8352 33.8024 11.1861 33.4658 11.6126 33.4658H21.3737C21.8056 33.4658 22.1511 33.8024 22.1511 34.2231C22.1511 34.6438 21.8056 34.9804 21.3737 34.9804Z" fill="#434242"/>
<path d="M41.3873 23.2002H31.6263C31.1998 23.2002 30.8489 22.8584 30.8489 22.4377C30.8489 22.017 31.1998 21.6804 31.6263 21.6804H41.3873C41.8138 21.6804 42.1648 22.017 42.1648 22.4377C42.1648 22.8584 41.8138 23.2002 41.3873 23.2002Z" fill="#434242"/>
<path d="M41.3873 27.1235H31.6263C31.1998 27.1235 30.8489 26.7869 30.8489 26.3662C30.8489 25.9455 31.1998 25.6089 31.6263 25.6089H41.3873C41.8138 25.6089 42.1648 25.9455 42.1648 26.3662C42.1648 26.7869 41.8138 27.1235 41.3873 27.1235Z" fill="#434242"/>
<path d="M41.3873 31.0522H31.6263C31.1998 31.0522 30.8489 30.7156 30.8489 30.2949C30.8489 29.8742 31.1998 29.5376 31.6263 29.5376H41.3873C41.8138 29.5376 42.1648 29.8742 42.1648 30.2949C42.1648 30.7156 41.8138 31.0522 41.3873 31.0522Z" fill="#434242"/>
<path d="M41.3873 34.9804H31.6263C31.1998 34.9804 30.8489 34.6438 30.8489 34.2231C30.8489 33.8024 31.1998 33.4658 31.6263 33.4658H41.3873C41.8138 33.4658 42.1648 33.8024 42.1648 34.2231C42.1648 34.6438 41.8138 34.9804 41.3873 34.9804Z" fill="#434242"/>
</svg>
