<svg width="42" height="44" viewBox="0 0 42 44" fill="none" xmlns="http://www.w3.org/2000/svg">
<path fill-rule="evenodd" clip-rule="evenodd" d="M30.8527 33.7317C31.1937 33.1606 31.0232 29.8721 31.0232 28.8626L31.0019 22.5302C30.9379 22.209 30.5809 21.9642 30.1813 22.1937C29.1102 22.8208 31.8811 29.0971 26.0143 28.2202C24.7354 28.0315 25.2949 29.0308 25.3109 29.8466C25.3429 31.5699 24.5329 32.508 22.8971 32.7273C21.5116 32.9108 19.0818 32.7732 17.5898 32.7732C15.7887 32.7732 13.9717 32.7477 12.1759 32.7732V11.5938L29.9255 11.5989C30.08 14.7753 30.1013 14.0564 28.3855 15.7032C28.0392 16.0346 25.54 18.4819 25.3962 18.5431C25.1138 18.6706 17.8882 18.6043 16.5614 18.5992C15.5969 18.5941 14.3979 18.3341 14.7763 19.5119C15.4903 19.777 22.8544 19.6648 24.2665 19.6342L21.3038 22.4894C20.9841 22.8106 20.9575 22.7239 20.366 22.7188L15.5276 22.7137C14.2967 22.7188 14.5898 23.6111 15.1013 23.7334C15.6182 23.8609 19.1138 23.7538 19.9397 23.7589C19.183 24.7277 19.4335 23.7589 18.8633 25.4618C18.6395 26.14 18.437 26.8181 18.2239 27.5013C18.144 27.7511 18.0107 28.2762 17.8882 28.4649C17.7336 28.6994 17.3127 28.8728 17.3926 29.2807C17.4725 29.6732 17.9415 29.8211 18.2718 29.5917C18.6129 29.352 18.2559 29.301 19.1297 29.0512L22.3589 28.1182C22.8811 27.9703 22.913 27.8582 23.2114 27.5726L33.0267 18.176C34.4548 16.8198 34.3162 15.9276 32.9948 14.6529C32.5258 14.1992 32.0836 13.7607 31.0232 13.7964C31.0178 13.1336 31.0178 12.4759 31.0178 11.8182C31.0232 10.1662 31.1777 10.5588 26.0622 10.5588H13.3962C11.0729 10.5537 11.0836 10.1356 11.0889 12.3484V32.4978C11.0836 34.0529 10.8757 33.8133 14.0249 33.8082L26.6164 33.8133C27.6342 33.8133 30.0427 33.9203 30.8527 33.7317Z" fill="black"/>
<path fill-rule="evenodd" clip-rule="evenodd" d="M17.9733 2.1055C13.4973 2.77341 9.20244 4.77714 6.08521 7.78018C-1.22029 14.8162 -2.1155 26.2777 4.30546 34.2212L6.39427 36.4696C7.61452 37.5403 8.71221 38.4224 10.2202 39.2535C10.8277 39.5849 13.3694 41.2164 13.5666 40.1406C13.6838 39.4982 12.666 39.3656 11.2646 38.6263C10.3001 38.1114 9.3623 37.5047 8.60564 36.9285C7.76905 36.2912 7.09765 35.6386 6.29836 34.8942C5.86141 34.4863 4.67313 32.9568 4.33743 32.4571C1.84365 28.7658 0.426242 24.0292 1.37473 18.7267C1.96088 15.4484 3.46354 12.3791 5.53104 9.97255C5.71754 9.75841 5.86674 9.55957 6.03193 9.38622C6.1385 9.26895 6.20244 9.23836 6.31434 9.13129L7.73175 7.76488C7.90226 7.59663 8.07811 7.48446 8.32855 7.27542C10.4493 5.54192 13.7531 4.00216 16.5026 3.42602C19.3374 2.8295 19.071 3.41583 19.071 1.56506L22.4813 3.78292L19.103 6.26591C18.9751 4.94029 19.865 4.04295 15.7566 5.21051C13.5719 5.83253 10.9023 7.14796 9.23974 8.59594C8.92535 8.87636 8.79747 8.92225 8.45111 9.28425L5.79747 12.2771C2.42979 17.1564 1.87029 23.2287 4.26283 28.7352C4.72642 29.8059 5.68024 29.3317 5.36052 28.521C5.24329 28.2253 5.11008 27.9653 4.98752 27.6645C2.74951 22.1326 4.06035 15.2189 8.20599 11.0177C9.23974 9.97255 9.67669 9.53917 10.8596 8.70811C12.73 7.39269 15.1918 6.18433 17.9786 5.77645C18.0586 6.39847 17.7016 8.25434 18.7833 7.81077C18.9378 7.74959 19.5026 7.31621 19.6571 7.20404C19.9502 6.97971 20.2646 6.75027 20.547 6.54123C20.9946 6.21493 23.9094 4.2112 23.984 3.91039C24.1278 3.33425 22.833 2.73772 22.444 2.4726L18.7619 0.0813835C17.6962 -0.351992 18.0266 1.4019 17.9733 2.1055Z" fill="black"/>
<path fill-rule="evenodd" clip-rule="evenodd" d="M22.9184 42.4349C22.5986 42.2972 22.3322 42.0678 22.0338 41.8842C21.7461 41.7007 21.4956 41.5426 21.1812 41.3336C20.6963 41.0124 19.9663 40.4923 19.4867 40.2527L20.318 39.5797C20.6217 39.3554 20.8562 39.1718 21.1759 38.9577L22.897 37.7289C22.9716 39.3248 22.9077 39.2738 24.6395 38.9424C27.7567 38.3459 30.2772 37.0814 32.6004 35.2714C32.7976 35.1134 32.8455 35.1185 33.0374 34.9298C33.2185 34.7412 33.2931 34.6902 33.4903 34.5271C34.7745 33.4564 36.3198 31.4526 37.1404 29.9078C37.4068 29.403 37.5667 29.1634 36.9912 28.8371C36.4637 28.8014 36.3837 29.0257 36.1919 29.3877C33.81 33.7623 29.0835 37.2905 23.9894 37.9941C23.9894 37.2803 24.1759 35.5926 23.0516 36.281L18.3251 39.7123C17.4299 40.3343 18.421 40.7983 18.6608 40.9512L23.1262 43.8778C24.2931 44.459 23.9947 42.598 24.0054 41.8893C40.0232 39.6868 47.2434 21.8521 37.7585 9.87052C37.1084 9.04966 35.9521 7.74443 35.1049 7.10202C33.9539 6.22507 33.453 5.68972 31.8864 4.80258C31.4601 4.56294 29.318 3.3342 28.7638 3.46676C28.4761 3.53814 28.3056 3.84405 28.4761 4.19585C28.5933 4.44568 30.048 5.00142 30.6395 5.31753C31.6093 5.84268 32.5738 6.43411 33.3091 7.00514L34.4867 7.99936C35.6644 9.03946 36.7248 10.1764 37.5986 11.4613C41.9521 17.8293 42.128 26.349 37.4335 32.7732C36.7354 33.7266 35.1528 35.5417 34.2949 36.2096C30.8207 38.9322 28.1351 40.2068 23.5951 40.89C22.6786 41.0277 22.9184 41.5426 22.9184 42.4349Z" fill="black"/>
<path fill-rule="evenodd" clip-rule="evenodd" d="M29.8615 15.8309C30.1386 16.2388 31.8971 17.3961 30.9699 17.8601C30.3145 17.9978 30.1706 17.6867 29.8829 17.4063C29.6004 17.131 29.318 16.8965 29.0729 16.611L20.5205 24.7482L22.4761 26.6806C22.8651 26.497 25.3962 23.963 25.8971 23.4787L32.6324 17.0392C33.4637 16.2796 32.286 15.4893 31.929 15.1426C31.1617 14.3982 30.3837 15.1732 29.8615 15.8309Z" fill="white"/>
<path fill-rule="evenodd" clip-rule="evenodd" d="M26.3765 29.3267C26.3925 32.1105 25.7691 31.983 25.3748 32.7682L29.9094 32.7733L29.9254 28.363C29.0035 29.1125 27.9911 29.4337 26.3765 29.3267Z" fill="white"/>
<path fill-rule="evenodd" clip-rule="evenodd" d="M20.2061 15.5096L26.1422 15.5147C26.8509 15.5198 27.2665 15.5198 27.1759 14.7397C26.9148 14.5511 26.8722 14.4746 26.4565 14.4746L15.2185 14.4797C14.6537 14.5409 14.4938 15.1119 14.8722 15.4025C15.1759 15.6269 19.6466 15.5096 20.2061 15.5096Z" fill="black"/>
</svg>
