<?xml version="1.0" encoding="utf-8"?>
<!-- Generator: Adobe Illustrator 24.2.3, SVG Export Plug-In . SVG Version: 6.00 Build 0)  -->
<svg fill="#255166" version="1.1" id="Layer_1" xmlns="http://www.w3.org/2000/svg" xmlns:xlink="http://www.w3.org/1999/xlink" x="0px" y="0px"
	 viewBox="0 0 72 72" style="enable-background:new 0 0 72 72;" xml:space="preserve">
<style type="text/css">
	.st0{fill:none;stroke:#000000;stroke-width:3;stroke-linecap:round;stroke-linejoin:round;}
</style>
<g id="Group_10" transform="translate(350.042 26.613)">
	<path id="Icon_material-group" d="M-300.26,7.6c2.96,0,5.37-2.4,5.37-5.37s-2.4-5.37-5.37-5.37s-5.37,2.4-5.37,5.37
		c-0.01,2.95,2.37,5.35,5.32,5.37C-300.29,7.6-300.27,7.6-300.26,7.6z M-314.57,7.6c2.96,0,5.37-2.4,5.37-5.37s-2.4-5.37-5.37-5.37
		s-5.37,2.4-5.37,5.37c-0.01,2.95,2.37,5.35,5.32,5.37C-314.6,7.6-314.58,7.6-314.57,7.6L-314.57,7.6z M-314.57,11.18
		c-4.17,0-12.52,2.09-12.52,6.26v4.47h25.04v-4.47C-302.05,13.27-310.4,11.18-314.57,11.18L-314.57,11.18z M-300.26,11.18
		c-0.52,0-1.11,0.04-1.74,0.09c2.08,1.5,3.52,3.52,3.52,6.17v4.47h10.73v-4.47C-287.73,13.27-296.09,11.18-300.26,11.18z"/>
	<path id="Icon_material-group-2" d="M-329.07,7.6c-2.96-0.06-5.32-2.5-5.27-5.47s2.5-5.32,5.47-5.27c2.92,0.06,5.27,2.44,5.27,5.37
		c-0.02,2.98-2.44,5.38-5.42,5.37C-329.04,7.6-329.05,7.6-329.07,7.6z M-314.48,7.6c-2.96-0.06-5.32-2.5-5.27-5.47
		s2.5-5.32,5.47-5.27c2.92,0.06,5.27,2.44,5.27,5.37c-0.02,2.98-2.44,5.38-5.42,5.37C-314.45,7.6-314.47,7.6-314.48,7.6L-314.48,7.6
		z M-314.48,11.18c4.25,0,12.76,2.09,12.76,6.26v4.47h-25.52v-4.47C-327.24,13.27-318.73,11.18-314.48,11.18L-314.48,11.18z
		 M-329.07,11.18c0.53,0,1.13,0.04,1.77,0.09c-2.11,1.5-3.59,3.52-3.59,6.17v4.47h-10.94v-4.47
		C-341.83,13.27-333.31,11.18-329.07,11.18z"/>
</g>
</svg>
