<?xml version="1.0" encoding="utf-8"?>
<!-- Generator: Adobe Illustrator 24.2.3, SVG Export Plug-In . SVG Version: 6.00 Build 0)  -->
<svg version="1.1" id="Layer_1" xmlns="http://www.w3.org/2000/svg" xmlns:xlink="http://www.w3.org/1999/xlink" x="0px" y="0px"
	 viewBox="0 0 72 72" style="enable-background:new 0 0 72 72;" xml:space="preserve">
<style type="text/css">
	.st0{fill:none;stroke:#000000;stroke-width:3;stroke-linecap:round;stroke-linejoin:round;}
</style>
<g id="Icon_feather-eye-off" transform="translate(0.621 0.621)">
	<path id="Path_5" class="st0" d="M49.29,49.29c-4,3.05-8.88,4.74-13.91,4.82c-16.39,0-25.76-18.73-25.76-18.73
		c2.91-5.43,6.95-10.17,11.85-13.91 M30.46,17.21c1.61-0.38,3.26-0.57,4.92-0.56c16.4,0,25.76,18.73,25.76,18.73
		c-1.42,2.66-3.12,5.16-5.06,7.47 M40.34,40.34c-2.65,2.84-7.09,2.99-9.93,0.35c-2.84-2.65-2.99-7.09-0.35-9.93
		c0.11-0.12,0.23-0.24,0.35-0.35"/>
	<path id="Path_6" class="st0" d="M9.62,9.62l51.51,51.51"/>
</g>
</svg>
