<?xml version="1.0" encoding="utf-8"?>
<!-- Generator: Adobe Illustrator 24.2.3, SVG Export Plug-In . SVG Version: 6.00 Build 0)  -->
<svg fill="#255166" version="1.1" id="Layer_1" xmlns="http://www.w3.org/2000/svg" xmlns:xlink="http://www.w3.org/1999/xlink" x="0px" y="0px"
	 viewBox="0 0 72 72" style="enable-background:new 0 0 72 72;" xml:space="preserve">
<style type="text/css">
	.st0{fill:none;stroke:#000000;stroke-width:3;stroke-linecap:round;stroke-linejoin:round;}
</style>
<path id="Icon_awesome-list" d="M19.28,47.24h-6.08c-0.84,0-1.52,0.68-1.52,1.52c0,0,0,0,0,0v6.08c0,0.84,0.68,1.52,1.52,1.52h6.08
	c0.84,0,1.52-0.68,1.52-1.52v-6.08C20.8,47.92,20.12,47.24,19.28,47.24z M19.28,16.84h-6.08c-0.84,0-1.52,0.68-1.52,1.52
	c0,0,0,0,0,0v6.08c0,0.84,0.68,1.52,1.52,1.52c0,0,0,0,0,0h6.08c0.84,0,1.52-0.68,1.52-1.52l0,0v-6.08
	C20.8,17.52,20.12,16.84,19.28,16.84z M19.28,32.04h-6.08c-0.84,0-1.52,0.68-1.52,1.52v6.08c0,0.84,0.68,1.52,1.52,1.52h6.08
	c0.84,0,1.52-0.68,1.52-1.52v-6.08C20.8,32.72,20.12,32.04,19.28,32.04z M58.79,48.76H28.4c-0.84,0-1.52,0.68-1.52,1.52v3.04
	c0,0.84,0.68,1.52,1.52,1.52h30.39c0.84,0,1.52-0.68,1.52-1.52v-3.04C60.31,49.44,59.63,48.76,58.79,48.76z M58.79,18.36H28.4
	c-0.84,0-1.52,0.68-1.52,1.52l0,0v3.04c0,0.84,0.68,1.52,1.52,1.52l0,0h30.39c0.84,0,1.52-0.68,1.52-1.52v-3.04
	C60.31,19.04,59.63,18.36,58.79,18.36C58.79,18.36,58.79,18.36,58.79,18.36L58.79,18.36z M58.79,33.56H28.4
	c-0.84,0-1.52,0.68-1.52,1.52l0,0v3.04c0,0.84,0.68,1.52,1.52,1.52h30.39c0.84,0,1.52-0.68,1.52-1.52v-3.04
	C60.32,34.24,59.64,33.56,58.79,33.56C58.8,33.56,58.8,33.56,58.79,33.56L58.79,33.56z"/>
</svg>
