<?xml version="1.0" encoding="utf-8"?>
<!-- Generator: Adobe Illustrator 24.2.3, SVG Export Plug-In . SVG Version: 6.00 Build 0)  -->
<svg fill="#255166" version="1.1" id="Layer_1" xmlns="http://www.w3.org/2000/svg" xmlns:xlink="http://www.w3.org/1999/xlink" x="0px" y="0px"
	 viewBox="0 0 72 72" style="enable-background:new 0 0 72 72;" xml:space="preserve">
<style type="text/css">
	.st0{fill:none;stroke:#000000;stroke-width:3;stroke-linecap:round;stroke-linejoin:round;}
</style>
<path id="Icon_awesome-file-alt" d="M39.12,26.01V13.76H19.63c-1.24-0.05-2.29,0.92-2.34,2.16c0,0,0,0,0,0v41.79
	c0.05,1.24,1.09,2.21,2.33,2.16c0,0,0,0,0,0h32.73c1.24,0.05,2.29-0.92,2.34-2.16c0,0,0,0,0,0V28.17H41.46
	C40.21,28.21,39.17,27.25,39.12,26.01z M45.35,47.26c-0.03,0.62-0.55,1.1-1.17,1.08H27.82c-0.62,0.02-1.14-0.46-1.17-1.08v-0.72
	c0.03-0.62,0.55-1.1,1.17-1.08h16.37c0.62-0.02,1.14,0.46,1.17,1.08V47.26z M45.35,41.5c-0.03,0.62-0.55,1.1-1.17,1.08H27.82
	c-0.62,0.02-1.14-0.46-1.17-1.08v-0.72c0.03-0.62,0.55-1.1,1.17-1.08h16.37c0.62-0.02,1.14,0.46,1.17,1.08V41.5z M45.35,35.01v0.72
	c-0.03,0.62-0.55,1.1-1.17,1.08H27.82c-0.62,0.02-1.14-0.46-1.17-1.08v-0.72c0.03-0.62,0.55-1.1,1.17-1.08h16.37
	C44.8,33.91,45.32,34.39,45.35,35.01z M54.7,24.73v0.55H42.24V13.76h0.59c0.61,0,1.2,0.22,1.65,0.63l9.54,8.83
	C54.45,23.6,54.7,24.16,54.7,24.73L54.7,24.73z"/>
</svg>
