<?xml version="1.0" encoding="utf-8"?>
<!-- Generator: Adobe Illustrator 24.2.3, SVG Export Plug-In . SVG Version: 6.00 Build 0)  -->
<svg fill="#fff" version="1.1" id="Layer_1" xmlns="http://www.w3.org/2000/svg" xmlns:xlink="http://www.w3.org/1999/xlink" x="0px" y="0px"
	 viewBox="0 0 72 72" style="enable-background:new 0 0 72 72;" xml:space="preserve">
<style type="text/css">
	.st0{fill:none;stroke:#000000;stroke-width:3;stroke-linecap:round;stroke-linejoin:round;}
</style>
<path id="Icon_ionic-ios-settings" d="M55.64,35.99c0-2.5,1.55-4.75,3.88-5.65c-0.59-2.47-1.57-4.83-2.9-7
	c-0.78,0.34-1.61,0.52-2.46,0.53c-3.34,0.01-6.04-2.69-6.05-6.03c0-0.85,0.18-1.69,0.52-2.47c-2.16-1.33-4.52-2.31-6.99-2.9
	c-1.2,3.12-4.69,4.68-7.81,3.48c-1.6-0.61-2.87-1.88-3.48-3.48c-2.47,0.59-4.83,1.57-6.99,2.9c1.36,3.05-0.01,6.62-3.05,7.98
	c-0.78,0.35-1.62,0.53-2.47,0.52c-0.85,0-1.69-0.18-2.46-0.53c-1.32,2.17-2.3,4.54-2.89,7.01c3.12,1.2,4.68,4.7,3.48,7.82
	c-0.61,1.6-1.87,2.86-3.47,3.48c0.59,2.47,1.57,4.83,2.9,7c3.05-1.35,6.62,0.02,7.98,3.07c0.69,1.56,0.69,3.34,0,4.91
	c2.16,1.33,4.53,2.31,7,2.9c1.2-3.11,4.69-4.67,7.8-3.47c1.6,0.61,2.86,1.87,3.47,3.47c2.47-0.59,4.83-1.57,7-2.9
	c-1.35-3.06,0.04-6.63,3.1-7.98c1.55-0.68,3.33-0.68,4.88,0c1.33-2.16,2.31-4.53,2.9-7C57.18,40.74,55.64,38.5,55.64,35.99z
	 M36.11,45.78c-5.41,0-9.8-4.39-9.8-9.8s4.39-9.8,9.8-9.8s9.8,4.39,9.8,9.8l0,0C45.91,41.39,41.53,45.78,36.11,45.78
	C36.11,45.78,36.11,45.78,36.11,45.78z"/>
</svg>
