<svg width="678" height="412" viewBox="0 0 678 412" fill="none" xmlns="http://www.w3.org/2000/svg">
<g clip-path="url(#clip0_46_289)">
<path d="M22.9371 338.57C13.8026 338.57 3.53453 327.713 0.832398 318.871C-2.18965 308.99 3.28606 298.504 13.0603 295.452C15.3711 294.73 17.9024 294.331 20.3903 294.331C28.4252 294.331 35.9571 298.485 33.7457 309.273C31.6678 319.402 35.8732 335.047 26.0989 338.102C25.0709 338.422 24.0118 338.57 22.9371 338.57Z" fill="#FAFBFD"/>
<path d="M250.277 37.5497C231.11 37.5497 215.522 53.3111 215.522 72.6862C215.522 92.0583 231.11 107.823 250.277 107.823C269.443 107.823 285.035 92.0583 285.035 72.6862C285.035 53.3111 269.443 37.5497 250.277 37.5497ZM250.277 110.545C229.626 110.545 212.826 93.5622 212.826 72.6862C212.826 51.8071 229.626 34.8244 250.277 34.8244C270.931 34.8244 287.731 51.8071 287.731 72.6862C287.731 93.5622 270.931 110.545 250.277 110.545ZM223.917 115.273L224.821 115.82C228.97 118.328 233.44 120.2 238.111 121.389L239.127 121.647V136.143C239.127 137.942 240.574 139.405 242.354 139.405H258.203C259.983 139.405 261.43 137.942 261.43 136.143V121.647L262.449 121.389C267.114 120.2 271.586 118.328 275.736 115.82L276.64 115.273L286.78 125.528C288.041 126.802 290.091 126.799 291.346 125.528L302.555 114.203C303.81 112.928 303.81 110.859 302.555 109.587L292.408 99.333L292.946 98.4193C295.43 94.2247 297.285 89.7066 298.459 84.9876L298.713 83.9578H313.053C314.833 83.9578 316.28 82.4947 316.28 80.6956V64.6737C316.28 62.8746 314.833 61.4115 313.053 61.4115H298.713L298.459 60.3848C297.285 55.6658 295.43 51.1446 292.946 46.95L292.408 46.0395L302.555 35.782C303.81 34.5104 303.81 32.4414 302.555 31.1698L291.346 19.8417C290.091 18.5733 288.041 18.5701 286.78 19.8417L276.64 30.0929L275.736 29.5497C271.586 27.0411 267.114 25.1698 262.449 23.983L261.43 23.7224V9.22633C261.43 7.42727 259.983 5.96416 258.203 5.96416H242.354C240.574 5.96416 239.127 7.42727 239.127 9.22633V23.7224L238.111 23.983C233.44 25.1698 228.97 27.0411 224.821 29.5497L223.917 30.0929L213.773 19.8417C212.515 18.5701 210.465 18.5701 209.207 19.8417L198.004 31.1698C196.747 32.4414 196.747 34.5104 198.004 35.782L208.148 46.0395L207.611 46.95C205.126 51.1446 203.272 55.6658 202.098 60.3848L201.843 61.4115H187.503C185.724 61.4115 184.273 62.8746 184.273 64.6737V80.6956C184.273 82.4947 185.724 83.9578 187.503 83.9578H201.843L202.098 84.9876C203.272 89.7035 205.126 94.2247 207.611 98.4193L208.148 99.333L198.004 109.587C196.747 110.859 196.747 112.928 198.004 114.203L209.207 125.528C210.465 126.799 212.515 126.799 213.773 125.528L223.917 115.273ZM258.203 142.13H242.354C239.089 142.13 236.434 139.443 236.434 136.143V123.76C232.216 122.595 228.16 120.893 224.346 118.692L215.677 127.452C213.372 129.788 209.614 129.788 207.304 127.452L196.101 116.127C193.79 113.795 193.79 109.995 196.101 107.663L204.766 98.8997C202.589 95.0441 200.908 90.9437 199.753 86.6799H187.503C184.239 86.6799 181.58 83.9955 181.58 80.6956V64.6737C181.58 61.3738 184.239 58.6894 187.503 58.6894H199.753C200.908 54.4257 202.589 50.3252 204.766 46.4696L196.101 37.7067C193.79 35.3739 193.79 31.578 196.101 29.242L207.304 17.9171C209.611 15.5811 213.372 15.5811 215.677 17.9171L224.346 26.6769C228.16 24.4759 232.216 22.7773 236.434 21.6094V9.22633C236.434 5.92649 239.089 3.23889 242.354 3.23889H258.203C261.467 3.23889 264.123 5.92649 264.123 9.22633V21.6094C268.341 22.7742 272.397 24.4759 276.211 26.6769L284.877 17.9171C287.187 15.5842 290.939 15.5811 293.25 17.9171L304.456 29.242C306.767 31.578 306.767 35.3739 304.456 37.7067L295.791 46.4696C297.968 50.3252 299.648 54.4257 300.804 58.6894H313.053C316.318 58.6894 318.976 61.3738 318.976 64.6737V80.6956C318.976 83.9955 316.318 86.6799 313.053 86.6799H300.804C299.648 90.9437 297.968 95.0441 295.791 98.8997L304.456 107.663C306.767 109.995 306.767 113.795 304.456 116.127L293.25 127.452C290.939 129.791 287.187 129.785 284.877 127.452L276.211 118.692C272.397 120.893 268.341 122.595 264.123 123.76V136.143C264.123 139.443 261.467 142.13 258.203 142.13Z" fill="#007CBB"/>
<path d="M191.451 188.451C181.49 183 177.788 170.416 183.183 160.347C188.578 150.278 201.023 146.539 210.984 151.989C220.945 157.443 224.647 170.027 219.252 180.096C213.857 190.165 201.412 193.904 191.451 188.451ZM235.956 181.079L229.318 177.443C230.02 174.652 230.3 171.807 230.182 169L237.422 166.824C238.797 166.413 239.58 164.95 239.17 163.559L236.608 154.837C236.198 153.446 234.75 152.655 233.375 153.069L226.135 155.245C224.718 152.827 222.948 150.601 220.848 148.652L224.442 141.942C225.128 140.664 224.656 139.072 223.395 138.382L215.478 134.046C214.22 133.355 212.643 133.829 211.956 135.104L208.363 141.816C205.602 141.104 202.788 140.821 200.011 140.94L197.859 133.622C197.449 132.231 196.004 131.44 194.628 131.854L186 134.448C184.624 134.862 183.838 136.322 184.248 137.713L186.401 145.031C184.012 146.466 181.807 148.253 179.882 150.378L173.241 146.743C171.98 146.052 170.402 146.526 169.719 147.801L165.433 155.804C164.75 157.079 165.219 158.674 166.48 159.364L173.12 163C172.412 165.791 172.135 168.633 172.253 171.44L165.014 173.615C163.638 174.03 162.855 175.493 163.265 176.884L165.83 185.606C166.237 186.997 167.685 187.788 169.061 187.374L176.3 185.198C177.717 187.612 179.487 189.841 181.587 191.791L177.993 198.501C177.31 199.776 177.779 201.371 179.04 202.061L186.954 206.394C188.218 207.085 189.796 206.611 190.476 205.336L194.072 198.626C196.837 199.336 199.648 199.622 202.424 199.502L204.577 206.821C204.983 208.209 206.431 209.003 207.807 208.589L216.435 205.995C217.811 205.581 218.597 204.118 218.187 202.73L216.034 195.411C218.423 193.977 220.625 192.187 222.554 190.064L229.191 193.7C230.455 194.391 232.033 193.917 232.716 192.642L237.002 184.639C237.686 183.364 237.217 181.769 235.956 181.079Z" fill="#FEFEFE"/>
<path d="M143.452 137.151L141.378 136.014C140.405 135.484 140.045 134.256 140.57 133.273L143.337 128.108C141.722 126.608 140.359 124.896 139.266 123.038L133.697 124.711C133.504 124.768 133.315 124.796 133.125 124.796C132.265 124.796 131.467 124.228 131.209 123.352L129.234 116.636C128.92 115.565 129.522 114.441 130.581 114.124L136.153 112.448C136.063 110.287 136.278 108.102 136.818 105.951L131.712 103.154C130.74 102.623 130.38 101.396 130.905 100.413L134.203 94.256C134.566 93.581 135.256 93.1979 135.964 93.1979C136.287 93.1979 136.613 93.2764 136.914 93.4428L138.095 94.0865C140.461 108.523 144.216 122.884 143.452 137.151Z" fill="#8AA1AD"/>
<path d="M162.945 141.123C162.082 141.123 161.286 140.554 161.029 139.675L159.373 134.046C159.056 134.058 158.74 134.064 158.423 134.064C156.597 134.064 154.758 133.838 152.944 133.371L150.18 138.535C149.816 139.21 149.13 139.593 148.419 139.593C148.096 139.593 147.77 139.515 147.468 139.349L143.452 137.151C144.216 122.884 140.461 108.523 138.095 94.0865L142.024 96.2372C143.508 94.6045 145.204 93.2294 147.043 92.1242L145.384 86.4915C145.071 85.424 145.673 84.2969 146.732 83.9798L153.373 81.9829C153.562 81.9264 153.755 81.8981 153.944 81.8981C154.808 81.8981 155.6 82.4664 155.86 83.3455L157.516 88.975C157.833 88.9625 158.15 88.9562 158.466 88.9562C160.293 88.9562 162.131 89.1823 163.942 89.6501L166.709 84.4853C167.073 83.8102 167.759 83.4272 168.47 83.4272C168.793 83.4272 169.12 83.5057 169.421 83.6689L175.512 87.0064C176.484 87.5371 176.844 88.7647 176.319 89.7474L173.552 94.9122C175.167 96.413 176.53 98.1242 177.62 99.9829L183.192 98.3094C183.382 98.2529 183.574 98.2246 183.764 98.2246C184.624 98.2246 185.419 98.7929 185.68 99.6689L187.652 106.385C187.969 107.455 187.364 108.579 186.308 108.897L180.736 110.573C180.826 112.733 180.611 114.922 180.068 117.069L185.177 119.867C186.149 120.397 186.509 121.625 185.985 122.608L182.683 128.765C182.323 129.44 181.636 129.823 180.925 129.823C180.602 129.823 180.276 129.744 179.975 129.578L174.865 126.783C173.381 128.416 171.685 129.791 169.846 130.896L171.505 136.529C171.819 137.597 171.216 138.724 170.157 139.041L163.517 141.038C163.327 141.094 163.134 141.123 162.945 141.123ZM158.46 95.5527C152.851 95.5527 147.422 98.5794 144.564 103.911C140.412 111.659 143.263 121.345 150.928 125.54C153.317 126.849 155.892 127.468 158.429 127.468C164.038 127.468 169.467 124.441 172.325 119.11C176.474 111.361 173.626 101.675 165.961 97.4805C163.572 96.1713 160.998 95.5527 158.46 95.5527Z" fill="#8AA1AD"/>
<path d="M379.979 50.0866C380.02 49.9264 380.042 49.7632 380.042 49.603C380.042 48.9186 379.681 48.2592 379.048 47.9107L379.318 47.4084L379.588 46.9029C380.601 47.4586 381.178 48.5136 381.178 49.603C381.178 49.7537 381.166 49.9076 381.144 50.0614C380.756 50.0709 380.368 50.0803 379.979 50.0866ZM379.048 47.9107L372.357 44.2498L372.466 43.8166C373.025 41.6062 373.295 39.3582 373.295 37.129C373.295 36.7428 373.286 36.3566 373.271 35.9704L373.252 35.5246L380.548 33.3299C381.371 33.085 381.905 32.3189 381.905 31.4932C381.905 31.3142 381.88 31.129 381.824 30.9437L379.389 22.6674C379.147 21.8323 378.389 21.2954 377.572 21.2954C377.392 21.2954 377.212 21.3174 377.029 21.3739L369.736 23.5685L369.509 23.1823C368.192 20.9375 366.546 18.8684 364.596 17.0568L364.27 16.7522L367.891 9.99241C368.047 9.69728 368.121 9.38959 368.121 9.07875C368.121 8.39744 367.761 7.73496 367.127 7.38959L359.614 3.27656C359.325 3.11958 359.018 3.04422 358.713 3.04422C358.036 3.04422 357.384 3.40843 357.042 4.04893L353.418 10.8119L352.989 10.702C350.799 10.1368 348.579 9.86368 346.374 9.86368C345.991 9.86368 345.609 9.8731 345.227 9.8888L344.786 9.90764L342.615 2.53245C342.373 1.69729 341.615 1.1604 340.798 1.1604C340.618 1.1604 340.438 1.18551 340.255 1.23889L332.068 3.70042C331.242 3.94846 330.71 4.71455 330.71 5.5403C330.71 5.71926 330.735 5.9045 330.788 6.08661L332.956 13.4618L332.577 13.691C330.356 15.0222 328.31 16.6863 326.517 18.658L326.216 18.9877L319.548 15.3362L319.526 15.3268C319.24 15.1667 318.93 15.0944 318.625 15.0944C317.948 15.0944 317.299 15.4555 316.954 16.0992L312.886 23.6941C312.727 23.9861 312.656 24.2969 312.656 24.6046C312.656 25.286 313.016 25.9484 313.65 26.2938L320.34 29.9579L320.231 30.3911C319.672 32.6015 319.402 34.8464 319.402 37.0787C319.402 37.2797 319.405 37.4806 319.408 37.6815C319.026 37.5465 318.647 37.4084 318.265 37.2702C318.265 37.2075 318.265 37.1415 318.265 37.0787C318.265 34.8998 318.514 32.7051 319.023 30.5418L313.109 27.3048C312.097 26.7491 311.519 25.691 311.519 24.6046C311.519 24.1117 311.637 23.6094 311.886 23.1478V23.1447L315.954 15.5528C316.504 14.5293 317.548 13.9453 318.622 13.9453C318.625 13.9453 318.625 13.9453 318.625 13.9453C319.113 13.9453 319.61 14.0646 320.066 14.3158L325.983 17.5528C327.673 15.7506 329.574 14.2059 331.617 12.9343L329.71 6.44767L329.701 6.41628C329.614 6.12428 329.574 5.82915 329.574 5.5403C329.574 4.21534 330.425 2.99713 331.742 2.60152L339.932 0.139989C340.221 0.0520773 340.51 0.011261 340.795 0.011261H340.798C342.106 0.011261 343.311 0.874682 343.706 2.20592L345.622 8.72397C345.873 8.71769 346.125 8.71455 346.374 8.71455C348.529 8.71455 350.697 8.96573 352.84 9.48064L356.042 3.50262C356.592 2.47908 357.636 1.89509 358.71 1.89509H358.713C359.201 1.89509 359.698 2.0144 360.154 2.26558L367.668 6.3786C368.68 6.93433 369.258 7.99241 369.258 9.07875C369.258 9.56541 369.143 10.0615 368.901 10.5167L365.689 16.5167C367.469 18.2247 369 20.1431 370.255 22.2122L376.706 20.275C376.992 20.1871 377.283 20.1462 377.569 20.1462H377.572C378.88 20.1462 380.085 21.0065 380.479 22.3378L382.914 30.6172C382.998 30.9092 383.042 31.2043 383.042 31.4932C383.042 32.8181 382.188 34.0332 380.871 34.4319L374.42 36.3691C374.429 36.6235 374.432 36.8746 374.432 37.129C374.432 39.3079 374.184 41.4994 373.674 43.6658L379.588 46.9029L379.318 47.4084L379.048 47.9107Z" fill="#006497"/>
<path d="M325.533 60.4476L327.008 57.6909C325.228 55.9798 323.697 54.0614 322.439 51.9955L315.991 53.9327C315.703 54.0206 315.411 54.0614 315.125 54.0614C313.814 54.0614 312.609 53.198 312.218 51.8668L309.783 43.5873C309.696 43.2985 309.655 43.0033 309.655 42.7145C309.655 41.3927 310.506 40.1713 311.826 39.7757L318.274 37.8354C318.271 37.647 318.268 37.4586 318.265 37.2702C318.647 37.4084 319.026 37.5465 319.408 37.6815C319.414 37.8668 319.417 38.052 319.427 38.2373L319.445 38.6831L312.149 40.8746C311.323 41.1227 310.792 41.8888 310.792 42.7145C310.792 42.8935 310.817 43.0787 310.873 43.2608L313.308 51.5402C313.55 52.3754 314.308 52.9123 315.125 52.9123C315.302 52.9123 315.485 52.8872 315.665 52.8338L322.961 50.6391L323.188 51.0253C324.505 53.2702 326.151 55.3393 328.101 57.1509L328.427 57.4554L327.052 60.0206C326.545 60.1619 326.036 60.3032 325.533 60.4476ZM379.318 53.8479C378.889 53.8354 378.47 53.8228 378.044 53.8134L379.812 50.5135C379.886 50.3754 379.942 50.231 379.979 50.0865C380.367 50.0803 380.756 50.0708 381.144 50.0614C381.091 50.4037 380.982 50.7396 380.809 51.0599L379.318 53.8479Z" fill="#006497"/>
<path d="M362.437 49.176C362.002 49.1195 361.567 49.063 361.136 49.0033C361.813 48.1399 362.428 47.2043 362.965 46.1996C364.515 43.3079 365.248 40.1933 365.248 37.1227C365.248 30.3346 361.667 23.7632 355.349 20.3064C352.486 18.7397 349.405 17.9955 346.367 17.9955C339.652 17.9987 333.151 21.6188 329.732 28.0049C328.182 30.8998 327.446 34.0144 327.446 37.0881C327.446 38.2749 327.558 39.4555 327.772 40.6172C327.365 40.4759 326.955 40.3377 326.548 40.1996C326.39 39.1729 326.312 38.1305 326.312 37.0881C326.312 33.8291 327.092 30.523 328.732 27.4586C332.359 20.6926 339.248 16.8464 346.364 16.8464C346.364 16.8464 346.364 16.8464 346.367 16.8464C349.588 16.8464 352.858 17.6376 355.89 19.2954C362.586 22.9626 366.385 29.9296 366.385 37.1227C366.385 40.3786 365.605 43.6847 363.962 46.749C363.506 47.603 362.993 48.4131 362.437 49.176Z" fill="#006497"/>
<path d="M341.376 56.727C339.82 56.322 338.286 55.7192 336.807 54.9123L337.077 54.4068L337.348 53.9013C339.702 55.1886 342.202 55.9201 344.709 56.1399C343.594 56.3251 342.482 56.5198 341.376 56.727ZM353.076 54.9562C356.179 53.7631 358.983 51.7443 361.136 49.0033C361.567 49.063 362.002 49.1195 362.437 49.176C360.791 51.4209 358.744 53.2451 356.452 54.592C355.321 54.7019 354.2 54.8244 353.076 54.9562ZM336.807 54.9123C331.086 51.7788 327.477 46.2341 326.548 40.1996C326.955 40.3377 327.365 40.4759 327.772 40.6172C328.788 46.0771 332.136 51.0473 337.348 53.9013L337.077 54.4068L336.807 54.9123Z" fill="#006497"/>
<path d="M368.891 10.5393C368.894 10.5298 368.897 10.5267 368.901 10.5172L368.945 10.4351L368.891 10.5393Z" fill="#DBE0F2"/>
<path d="M275.55 348.265H99.7989C94.5406 348.265 90.2793 343.957 90.2793 338.639V214.127C90.2793 208.812 94.5406 204.504 99.7989 204.504H275.55C280.808 204.504 285.069 208.812 285.069 214.127V338.639C285.069 343.957 280.808 348.265 275.55 348.265Z" fill="#FEFEFE"/>
<path d="M275.55 348.115H99.7989C94.625 348.115 90.4293 343.876 90.4293 338.639V214.127C90.4293 208.893 94.625 204.654 99.7989 204.654H275.55C280.723 204.654 284.919 208.893 284.919 214.127V338.639C284.919 343.876 280.723 348.115 275.55 348.115Z" stroke="black" stroke-opacity="0.3" stroke-width="0.3"/>
<path d="M90.2793 244.224V211.807C90.2793 207.772 93.5125 204.504 97.5036 204.504H277.845C281.836 204.504 285.069 207.772 285.069 211.807V243.455L90.2793 244.224Z" fill="#BCE9FF"/>
<path d="M105.362 269.414H126.91V251.989H105.362V269.414Z" fill="#75D0FF"/>
<path d="M105.362 299.907H126.91V282.482H105.362V299.907Z" fill="#BFE9FF"/>
<path d="M105.362 329.534H126.91V312.108H105.362V329.534Z" fill="#BFE9FF"/>
<path d="M142.424 269.414H163.973V251.989H142.424V269.414Z" fill="#BFE9FF"/>
<path d="M142.424 299.907H163.973V282.482H142.424V299.907Z" fill="#75D0FF"/>
<path d="M160.6 329.534H142.424V312.108H163.973V322.205C162.669 324.538 161.538 326.987 160.6 329.534Z" fill="#BFE9FF"/>
<path d="M200.166 269.414H178.624V251.989H197.473C198.091 257.892 198.995 263.697 200.166 269.414Z" fill="#BFE9FF"/>
<path d="M188.733 299.907H178.624V282.482H200.172V296.642C196.184 297.276 192.355 298.384 188.733 299.907Z" fill="#BFE9FF"/>
<path d="M251.022 299.907H272.571V282.482H251.022V299.907Z" fill="#EE96A1"/>
<path d="M161.268 260.432H160.699C160.699 262.174 160.001 263.75 158.87 264.896C157.736 266.039 156.177 266.746 154.45 266.746C152.727 266.746 151.167 266.039 150.034 264.896C148.903 263.75 148.204 262.174 148.204 260.432C148.204 258.686 148.903 257.11 150.034 255.964C151.167 254.821 152.727 254.115 154.45 254.115C156.177 254.115 157.736 254.821 158.87 255.964C160.001 257.11 160.699 258.686 160.699 260.432H161.833C161.833 256.309 158.528 252.969 154.45 252.969C150.375 252.969 147.068 256.309 147.068 260.432C147.068 264.551 150.375 267.895 154.45 267.895C158.528 267.895 161.833 264.551 161.833 260.432H161.268Z" fill="#FEFEFE"/>
<path d="M150.826 255.556L156.531 265.314C156.69 265.587 157.038 265.678 157.311 265.518C157.578 265.355 157.668 265.003 157.51 264.73L151.804 254.972C151.646 254.698 151.298 254.607 151.025 254.771C150.757 254.931 150.667 255.282 150.826 255.556Z" fill="#FEFEFE"/>
<path d="M158.705 256.764L149.052 262.532C148.782 262.695 148.692 263.047 148.853 263.32C149.012 263.593 149.36 263.681 149.63 263.521L159.283 257.753C159.553 257.593 159.643 257.242 159.482 256.969C159.323 256.695 158.976 256.604 158.705 256.764Z" fill="#FEFEFE"/>
<path d="M114.136 228.027C109.377 228.027 105.52 224.127 105.52 219.314C105.52 214.501 109.377 210.601 114.136 210.601C118.897 210.601 122.758 214.501 122.758 219.314C122.758 224.127 118.897 228.027 114.136 228.027Z" fill="#46BDFA"/>
<path d="M114.136 222.451C112.052 222.451 110.343 220.727 110.343 218.617V193.524C110.343 191.414 112.052 189.691 114.136 189.691C116.223 189.691 117.931 191.414 117.931 193.524V218.617C117.931 220.727 116.223 222.451 114.136 222.451Z" fill="#007CBB"/>
<path d="M139.663 228.027C134.902 228.027 131.044 224.127 131.044 219.314C131.044 214.501 134.902 210.601 139.663 210.601C144.425 210.601 148.282 214.501 148.282 219.314C148.282 224.127 144.425 228.027 139.663 228.027Z" fill="#46BDFA"/>
<path d="M139.663 222.451C137.579 222.451 135.871 220.727 135.871 218.617V193.524C135.871 191.414 137.579 189.691 139.663 189.691C141.747 189.691 143.455 191.414 143.455 193.524V218.617C143.455 220.727 141.747 222.451 139.663 222.451Z" fill="#007CBB"/>
<path d="M163.731 228.027C158.973 228.027 155.112 224.127 155.112 219.314C155.112 214.501 158.973 210.601 163.731 210.601C168.489 210.601 172.35 214.501 172.35 219.314C172.35 224.127 168.489 228.027 163.731 228.027Z" fill="#46BDFA"/>
<path d="M163.731 222.451C161.644 222.451 159.938 220.727 159.938 218.617V193.524C159.938 191.414 161.644 189.691 163.731 189.691C165.818 189.691 167.523 191.414 167.523 193.524V218.617C167.523 220.727 165.818 222.451 163.731 222.451Z" fill="#007CBB"/>
<path d="M189.255 228.027C184.497 228.027 180.636 224.127 180.636 219.314C180.636 214.501 184.497 210.601 189.255 210.601C192.874 210.601 195.97 212.852 197.25 216.046C197.014 218.579 196.834 221.135 196.706 223.7C195.209 226.287 192.436 228.027 189.255 228.027Z" fill="#46BDFA"/>
<path d="M189.255 222.451C187.171 222.451 185.463 220.727 185.463 218.617V193.524C185.463 191.414 187.171 189.691 189.255 189.691C191.342 189.691 193.047 191.414 193.047 193.524V218.617C193.047 220.727 191.342 222.451 189.255 222.451Z" fill="#007CBB"/>
<path d="M213.258 222.451C211.17 222.451 209.465 220.727 209.465 218.617V193.524C209.465 191.414 211.17 189.691 213.258 189.691C215.342 189.691 217.05 191.414 217.05 193.524V218.617C217.05 220.727 215.342 222.451 213.258 222.451Z" fill="#474491"/>
<path d="M238.782 222.451C236.698 222.451 234.99 220.727 234.99 218.617V193.524C234.99 191.414 236.698 189.691 238.782 189.691C240.869 189.691 242.574 191.414 242.574 193.524V218.617C242.574 220.727 240.869 222.451 238.782 222.451Z" fill="#474491"/>
<path d="M262.849 222.451C260.765 222.451 259.057 220.727 259.057 218.617V193.524C259.057 191.414 260.765 189.691 262.849 189.691C264.934 189.691 266.642 191.414 266.642 193.524V218.617C266.642 220.727 264.934 222.451 262.849 222.451Z" fill="#474491"/>
<path d="M258.694 347.857C258.694 376.485 236.005 399.69 208.018 399.69C180.027 399.69 157.342 376.485 157.342 347.857C157.342 319.229 180.027 296.023 208.018 296.023C236.005 296.023 258.694 319.229 258.694 347.857Z" fill="#007CBB"/>
<path d="M246.969 347.857C246.969 369.863 229.529 387.7 208.018 387.7C186.503 387.7 169.064 369.863 169.064 347.857C169.064 325.854 186.503 308.014 208.018 308.014C229.529 308.014 246.969 325.854 246.969 347.857Z" fill="#FEFEFE"/>
<path d="M208.884 344.994H207.148C206.586 344.994 206.126 344.532 206.126 343.961V318.975C206.126 318.403 206.586 317.942 207.148 317.942H208.884C209.45 317.942 209.906 318.403 209.906 318.975V343.961C209.906 344.532 209.45 344.994 208.884 344.994Z" fill="#7499D0"/>
<path d="M208.127 349.389V347.637C208.127 347.066 208.583 346.604 209.148 346.604H228.598C229.163 346.604 229.619 347.066 229.619 347.637V349.389C229.619 349.964 229.163 350.425 228.598 350.425H209.148C208.583 350.425 208.127 349.964 208.127 349.389Z" fill="#7499D0"/>
<path d="M213.683 347.86C213.683 351.06 211.149 353.656 208.018 353.656C204.887 353.656 202.35 351.06 202.35 347.86C202.35 344.654 204.887 342.061 208.018 342.061C211.149 342.061 213.683 344.654 213.683 347.86Z" fill="#03A9FF" fill-opacity="0.98"/>
<path d="M99.802 150.325H55.2291C54.198 150.325 53.3656 151.17 53.3656 152.212V185.063C53.3656 186.102 54.198 186.947 55.2291 186.947H99.802C100.83 186.947 101.666 186.102 101.666 185.063V152.212C101.666 151.17 100.83 150.325 99.802 150.325Z" fill="#FEFEFE"/>
<path d="M77.4829 169.411C77.3276 169.411 77.1724 169.377 77.0326 169.298L72.1439 166.708L54.5427 157.659L53.3656 157.053V152.212C53.3656 151.17 54.198 150.325 55.2291 150.325H99.802C100.83 150.325 101.666 151.17 101.666 152.212V155.27C101.538 155.289 101.411 155.33 101.293 155.402L99.6591 156.375L77.9581 169.289C77.8091 169.371 77.6476 169.411 77.4829 169.411Z" fill="#6F7379"/>
<path d="M53.3656 182.73V159.424L70.6344 168.3L53.3656 182.73Z" fill="#6F7379"/>
<path d="M101.666 182.859L84.1979 168.027L101.666 157.631V182.859Z" fill="#6F7379"/>
<path d="M99.802 186.947H55.2291C54.198 186.947 53.3656 186.102 53.3656 185.063V184.755C53.4898 184.805 53.6203 184.834 53.7538 184.834C53.9868 184.834 54.2228 184.755 54.4185 184.592L72.4545 169.521L72.6191 169.342L76.0604 171.173C76.5077 171.408 76.9891 171.524 77.4767 171.524C77.9985 171.524 78.5203 171.389 78.9986 171.116L82.2847 169.163L100.451 184.586C100.647 184.752 100.886 184.834 101.122 184.834C101.315 184.834 101.501 184.777 101.666 184.674V185.063C101.666 186.102 100.83 186.947 99.802 186.947Z" fill="#6F7379"/>
<path d="M101.666 155.27C101.538 155.289 101.411 155.33 101.293 155.402L99.6591 156.375L77.9581 169.289C77.6693 169.449 77.3245 169.455 77.0326 169.298L72.1439 166.708L54.5427 157.659L53.3656 157.053V159.424L70.6344 168.3L53.3656 182.73V184.755C53.4898 184.805 53.6203 184.834 53.7538 184.834C53.9868 184.834 54.2228 184.755 54.4185 184.592L72.4545 169.521L72.6191 169.342L76.0604 171.173C76.5077 171.408 76.9891 171.524 77.4767 171.524C77.9985 171.524 78.5203 171.389 78.9986 171.116L82.2847 169.163L100.451 184.586C100.647 184.752 100.886 184.834 101.122 184.834C101.315 184.834 101.501 184.777 101.666 184.677V182.859L84.1979 168.027L101.666 157.631V155.27Z" fill="white"/>
<path d="M550.847 232.874C550.847 331.797 471.52 411.989 373.662 411.989C275.804 411.989 196.476 331.797 196.476 232.874C196.476 133.951 275.804 53.76 373.662 53.76C471.52 53.76 550.847 133.951 550.847 232.874Z" fill="#007CBB"/>
<path d="M373.662 395.656C284.728 395.656 212.633 322.777 212.633 232.874C212.633 142.972 284.728 70.0928 373.662 70.0928C416.458 70.0928 455.353 86.9688 484.195 114.495C485.313 135.389 495.016 153.951 509.757 166.545C508.489 167.414 506.964 168.027 505.887 169.144C505.39 169.659 504.967 170.272 504.681 170.934C481.614 121.17 431.618 86.6987 373.662 86.6987C293.8 86.6987 229.06 152.143 229.06 232.874C229.06 313.606 293.8 379.053 373.662 379.053C437.541 379.053 491.748 337.176 510.887 279.1H524.724V279.314C524.724 280.378 525.578 281.242 526.634 281.242H527.463C507.089 347.527 445.936 395.656 373.662 395.656ZM514.375 199.044C514.161 198.13 513.94 197.229 513.71 196.322C514.9 196.733 516.136 197.066 517.394 197.323C516.363 197.829 515.35 198.41 514.375 199.044Z" fill="#B6B6D9"/>
<path d="M518.266 232.874C518.266 313.606 453.524 379.053 373.662 379.053C293.8 379.053 229.06 313.606 229.06 232.874C229.06 152.143 293.8 86.6988 373.662 86.6988C453.524 86.6988 518.266 152.143 518.266 232.874Z" fill="#FEFEFE"/>
<path d="M373.562 119.719H373.274C371.199 119.719 369.516 118.017 369.516 115.92V96.8934C369.516 94.7961 371.199 93.0943 373.274 93.0943H373.562C375.637 93.0943 377.321 94.7961 377.321 96.8934V115.92C377.321 118.017 375.637 119.719 373.562 119.719Z" fill="#443D4F"/>
<path d="M374.05 372.654H373.761C371.686 372.654 370.003 370.956 370.003 368.855V349.829C370.003 347.731 371.686 346.03 373.761 346.03H374.05C376.125 346.03 377.808 347.731 377.808 349.829V368.855C377.808 370.956 376.125 372.654 374.05 372.654Z" fill="#443D4F"/>
<path d="M485.599 232.774V232.482C485.599 230.385 487.282 228.683 489.357 228.683H508.179C510.256 228.683 511.937 230.385 511.937 232.482V232.774C511.937 234.871 510.256 236.573 508.179 236.573H489.357C487.282 236.573 485.599 234.871 485.599 232.774Z" fill="#443D4F"/>
<path d="M235.387 233.267V232.975C235.387 230.878 237.07 229.176 239.145 229.176H257.967C260.042 229.176 261.725 230.878 261.725 232.975V233.267C261.725 235.364 260.042 237.066 257.967 237.066H239.145C237.07 237.066 235.387 235.364 235.387 233.267Z" fill="#443D4F"/>
<path d="M456.263 149.229L456.062 149.025C454.592 147.54 454.592 145.135 456.062 143.653L462.941 136.699C464.407 135.214 466.786 135.214 468.252 136.699L468.457 136.903C469.926 138.388 469.926 140.793 468.457 142.278L461.578 149.229C460.112 150.714 457.733 150.714 456.263 149.229Z" fill="#443D4F"/>
<path d="M278.954 329.166L278.752 328.962C277.286 327.477 277.286 325.072 278.752 323.59L287.209 315.041C288.678 313.556 291.057 313.556 292.523 315.041L292.728 315.245C294.194 316.727 294.194 319.135 292.728 320.617L284.271 329.166C282.802 330.651 280.423 330.651 278.954 329.166Z" fill="#443D4F"/>
<path d="M456.406 316.491L456.608 316.284C458.077 314.802 460.456 314.802 461.922 316.284L468.802 323.239C470.271 324.724 470.271 327.129 468.802 328.614L468.6 328.818C467.131 330.3 464.752 330.3 463.286 328.818L456.406 321.863C454.937 320.381 454.937 317.976 456.406 316.491Z" fill="#443D4F"/>
<path d="M278.407 137.251L278.609 137.047C280.078 135.562 282.457 135.562 283.923 137.047L292.381 145.597C293.85 147.082 293.85 149.487 292.381 150.969L292.179 151.176C290.71 152.658 288.334 152.658 286.864 151.176L278.407 142.626C276.938 141.141 276.938 138.736 278.407 137.251Z" fill="#443D4F"/>
<path d="M373.767 235.135H373.451C371.159 235.135 369.301 233.254 369.301 230.937V139.154C369.301 136.837 371.159 134.959 373.451 134.959H373.767C376.06 134.959 377.917 136.837 377.917 139.154V230.937C377.917 233.254 376.06 235.135 373.767 235.135Z" fill="#007CBB"/>
<path d="M369.301 238.56V238.24C369.301 235.923 371.159 234.045 373.451 234.045H436.24C438.532 234.045 440.389 235.923 440.389 238.24V238.56C440.389 240.878 438.532 242.755 436.24 242.755H373.451C371.159 242.755 369.301 240.878 369.301 238.56Z" fill="#007CBB"/>
<path d="M438.013 172.761L373.388 231.556C372.919 231.983 372.882 232.708 373.302 233.179C373.721 233.65 374.441 233.688 374.907 233.264L439.535 174.466C440.001 174.042 440.038 173.317 439.619 172.846C439.2 172.375 438.479 172.334 438.013 172.761Z" fill="#443D4F"/>
<path d="M389.281 232.874C389.281 241.593 382.29 248.664 373.662 248.664C365.037 248.664 358.045 241.593 358.045 232.874C358.045 224.152 365.037 217.085 373.662 217.085C382.29 217.085 389.281 224.152 389.281 232.874Z" fill="#04AAFF"/>
<path d="M646.047 270.818H655.321C656.78 270.818 658.091 271.414 659.048 272.378C660.004 273.345 660.591 274.67 660.591 276.146V298.733C660.591 299.367 661.101 299.882 661.728 299.882C662.356 299.882 662.862 299.367 662.862 298.733V276.146C662.862 271.936 659.486 268.523 655.321 268.523H646.047C645.419 268.523 644.91 269.038 644.91 269.672C644.91 270.303 645.419 270.818 646.047 270.818Z" fill="#FEFEFE"/>
<path d="M585.851 361.471H676.056C677.13 361.471 678 360.589 678 359.502V300.906C678 299.819 677.13 298.937 676.056 298.937H585.851C584.779 298.937 583.907 299.819 583.907 300.906V359.502C583.907 360.589 584.779 361.471 585.851 361.471Z" fill="#FEFEFE"/>
<path d="M676.056 361.471H585.851C584.779 361.471 583.907 360.589 583.907 359.502V300.906C583.907 299.819 584.779 298.937 585.851 298.937H676.056C677.13 298.937 678 299.819 678 300.906V359.502C678 360.589 677.13 361.471 676.056 361.471Z" fill="#A8C1E5"/>
<path d="M598.377 328.001H663.53C664.303 328.001 664.93 327.367 664.93 326.585V312.686C664.93 311.904 664.303 311.27 663.53 311.27H598.377C597.604 311.27 596.976 311.904 596.976 312.686V326.585C596.976 327.367 597.604 328.001 598.377 328.001Z" fill="#FEFEFE"/>
<path d="M597.902 336.039H664.008C664.517 336.039 664.93 335.618 664.93 335.103C664.93 334.585 664.517 334.168 664.008 334.168H597.902C597.393 334.168 596.976 334.585 596.976 335.103C596.976 335.618 597.393 336.039 597.902 336.039Z" fill="#FEFEFE"/>
<path d="M597.902 341.389H664.008C664.517 341.389 664.93 340.968 664.93 340.454C664.93 339.936 664.517 339.518 664.008 339.518H597.902C597.393 339.518 596.976 339.936 596.976 340.454C596.976 340.968 597.393 341.389 597.902 341.389Z" fill="#FEFEFE"/>
<path d="M597.902 347.194H664.008C664.517 347.194 664.93 346.774 664.93 346.259C664.93 345.741 664.517 345.323 664.008 345.323H597.902C597.393 345.323 596.976 345.741 596.976 346.259C596.976 346.774 597.393 347.194 597.902 347.194Z" fill="#FEFEFE"/>
<path d="M597.902 352.544H664.008C664.517 352.544 664.93 352.127 664.93 351.609C664.93 351.091 664.517 350.673 664.008 350.673H597.902C597.393 350.673 596.976 351.091 596.976 351.609C596.976 352.127 597.393 352.544 597.902 352.544Z" fill="#FEFEFE"/>
<path d="M643.441 281.242H544.313C544.512 280.526 544.701 279.819 544.89 279.1H553.832C554.466 279.1 550.848 262.184 550.848 261.578L551.112 259.738H575.639C575.956 259.738 576.21 259.48 576.21 259.16C576.21 258.84 575.956 258.582 575.639 258.582H551.279L553.096 245.863H575.639C575.956 245.863 576.21 245.606 576.21 245.289C576.21 244.969 575.956 244.708 575.639 244.708H553.261L555.106 231.838H585.379C585.696 231.838 585.95 231.578 585.95 231.257C585.95 230.94 585.696 230.68 585.379 230.68H555.27L556.426 222.598H626.287C626.6 222.598 626.858 222.338 626.858 222.017C626.858 221.7 626.6 221.44 626.287 221.44H556.593L557.55 214.755C558.159 210.049 556.73 206.033 554.112 202.884H643.441C644.493 202.884 645.348 203.747 645.348 204.812V268.764C645.08 268.975 644.91 269.305 644.91 269.672C644.91 270.039 645.08 270.366 645.348 270.576V279.314C645.348 280.378 644.493 281.242 643.441 281.242ZM585.86 238.46C584.606 238.46 583.59 239.487 583.59 240.755V263.138C583.59 264.407 584.606 265.436 585.86 265.436H624.777C626.032 265.436 627.048 264.407 627.048 263.138V240.755C627.048 239.487 626.032 238.46 624.777 238.46H585.86ZM594.166 230.68C593.659 230.68 593.249 230.991 593.249 231.374C593.249 231.754 593.659 232.064 594.166 232.064H625.37C625.877 232.064 626.287 231.754 626.287 231.374C626.287 230.991 625.877 230.68 625.37 230.68H594.166Z" fill="white"/>
<path d="M557.699 214.776L557.699 214.776L557.699 214.774C558.298 210.145 556.943 206.175 554.428 203.034H643.441C644.409 203.034 645.198 203.829 645.198 204.812V268.694C644.928 268.933 644.76 269.284 644.76 269.672C644.76 270.06 644.929 270.408 645.198 270.646V279.314C645.198 280.297 644.409 281.092 643.441 281.092H544.51C544.68 280.477 544.843 279.868 545.006 279.25H553.832C553.955 279.25 554.005 279.145 554.02 279.103C554.04 279.051 554.048 278.986 554.053 278.92C554.062 278.785 554.055 278.593 554.035 278.36C553.997 277.891 553.907 277.223 553.781 276.424C553.531 274.826 553.138 272.691 552.725 270.538C552.4 268.841 552.062 267.133 551.772 265.667C551.694 265.273 551.62 264.896 551.55 264.542C551.386 263.707 551.247 262.997 551.149 262.477C551.1 262.217 551.062 262.005 551.036 261.85C551.011 261.703 551 261.618 550.998 261.586L551.242 259.888H575.639C576.04 259.888 576.36 259.562 576.36 259.16C576.36 258.759 576.04 258.432 575.639 258.432H551.452L553.226 246.013H575.639C576.039 246.013 576.36 245.688 576.36 245.289C576.36 244.888 576.041 244.558 575.639 244.558H553.434L555.236 231.988H585.379C585.781 231.988 586.1 231.658 586.1 231.257C586.1 230.86 585.781 230.53 585.379 230.53H555.443L556.556 222.748H626.287C626.685 222.748 627.008 222.418 627.008 222.017C627.008 221.619 626.685 221.29 626.287 221.29H556.766L557.699 214.776ZM585.86 238.31C584.521 238.31 583.44 239.405 583.44 240.755V263.138C583.44 264.488 584.521 265.586 585.86 265.586H624.777C626.117 265.586 627.198 264.488 627.198 263.138V240.755C627.198 239.405 626.116 238.31 624.777 238.31H585.86ZM594.166 230.53C593.883 230.53 593.621 230.616 593.427 230.763C593.233 230.911 593.099 231.125 593.099 231.374C593.099 231.621 593.233 231.835 593.427 231.981C593.621 232.128 593.883 232.214 594.166 232.214H625.37C625.653 232.214 625.915 232.128 626.109 231.981C626.303 231.835 626.437 231.621 626.437 231.374C626.437 231.125 626.303 230.911 626.109 230.763C625.915 230.616 625.653 230.53 625.37 230.53H594.166Z" stroke="black" stroke-opacity="0.3" stroke-width="0.3"/>
<path d="M544.313 281.242H527.463C527.681 280.535 527.898 279.813 528.106 279.1H544.89C544.701 279.819 544.511 280.526 544.313 281.242Z" fill="#4F56A0"/>
<path d="M527.463 281.242H526.634C525.578 281.242 524.724 280.378 524.724 279.314V279.1H528.106C527.898 279.813 527.681 280.535 527.463 281.242Z" fill="#7A86C1"/>
<path d="M645.348 270.576C645.081 270.366 644.91 270.039 644.91 269.672C644.91 269.304 645.081 268.975 645.348 268.764V270.576Z" fill="#A2A9D5"/>
<path d="M626.287 222.598H556.426L556.594 221.44H626.287C626.601 221.44 626.858 221.7 626.858 222.017C626.858 222.338 626.601 222.598 626.287 222.598Z" fill="#FCFDFE"/>
<path d="M575.639 245.863H553.096L553.261 244.708H575.639C575.956 244.708 576.21 244.969 576.21 245.289C576.21 245.606 575.956 245.863 575.639 245.863Z" fill="#FCFDFE"/>
<path d="M575.639 259.738H551.111L551.279 258.582H575.639C575.956 258.582 576.21 258.84 576.21 259.16C576.21 259.48 575.956 259.738 575.639 259.738Z" fill="#FCFDFE"/>
<path d="M585.379 231.838H555.106L555.27 230.68H585.379C585.696 230.68 585.95 230.94 585.95 231.257C585.95 231.578 585.696 231.838 585.379 231.838Z" fill="#FCFDFE"/>
<path d="M625.371 232.064H594.166C593.659 232.064 593.249 231.753 593.249 231.374C593.249 230.991 593.659 230.68 594.166 230.68H625.371C625.877 230.68 626.287 230.991 626.287 231.374C626.287 231.753 625.877 232.064 625.371 232.064Z" fill="#FCFDFE"/>
<path d="M624.777 265.436H585.86C584.605 265.436 583.59 264.407 583.59 263.138V240.755C583.59 239.487 584.605 238.46 585.86 238.46H624.777C626.032 238.46 627.048 239.487 627.048 240.755V263.138C627.048 264.407 626.032 265.436 624.777 265.436ZM614.736 259.009C614.742 259.009 614.745 259.009 614.748 259.009C615.363 259.009 616 258.692 616.37 258.102L622.625 248.089C622.827 248.4 623.178 248.608 623.575 248.608C624.203 248.608 624.709 248.096 624.709 247.462V243.154L620.494 244.218C619.885 244.372 619.516 244.997 619.668 245.612C619.798 246.133 620.261 246.482 620.771 246.482C620.83 246.482 620.892 246.479 620.951 246.466L614.708 256.463L606.061 245.392C605.685 244.906 605.108 244.651 604.564 244.651C604.561 244.651 604.555 244.651 604.548 244.651C604.173 244.651 603.8 244.761 603.477 244.978C603.151 245.195 602.881 245.527 602.735 245.929L598.958 256.29L592.715 249.452C592.339 249.038 591.811 248.824 591.314 248.824C591.308 248.824 591.305 248.824 591.299 248.824C590.91 248.824 590.528 248.94 590.199 249.17C589.873 249.396 589.6 249.744 589.466 250.162L587.087 257.374C586.888 257.976 587.211 258.626 587.805 258.827C587.926 258.868 588.047 258.887 588.165 258.887C588.64 258.887 589.084 258.582 589.243 258.102L591.438 251.44L597.669 258.262C598.045 258.677 598.573 258.89 599.073 258.89C599.076 258.89 599.082 258.89 599.085 258.89C599.464 258.89 599.837 258.777 600.16 258.56C600.483 258.344 600.756 258.011 600.899 257.612L604.657 247.298L613.223 258.268C613.602 258.755 614.177 259.009 614.726 259.009C614.73 259.009 614.733 259.009 614.736 259.009Z" fill="#FCFDFE"/>
<path d="M614.748 259.009C614.745 259.009 614.742 259.009 614.736 259.009C614.733 259.009 614.73 259.009 614.727 259.009C614.177 259.009 613.602 258.755 613.223 258.268L604.657 247.298L600.899 257.612C600.756 258.011 600.483 258.344 600.16 258.56C599.837 258.777 599.464 258.89 599.085 258.89C599.082 258.89 599.076 258.89 599.073 258.89C598.573 258.89 598.045 258.677 597.669 258.262L591.439 251.439L589.243 258.102C589.084 258.582 588.64 258.887 588.165 258.887C588.047 258.887 587.926 258.868 587.805 258.827C587.211 258.626 586.888 257.976 587.087 257.374L589.466 250.162C589.6 249.744 589.873 249.396 590.199 249.169C590.529 248.94 590.911 248.824 591.299 248.824C591.305 248.824 591.308 248.824 591.314 248.824C591.811 248.824 592.339 249.038 592.715 249.452L598.958 256.29L602.735 245.929C602.881 245.527 603.151 245.195 603.477 244.978C603.8 244.761 604.173 244.651 604.549 244.651C604.555 244.651 604.561 244.651 604.564 244.651C605.108 244.651 605.685 244.906 606.061 245.392L614.708 256.463L620.951 246.466C620.982 246.46 621.013 246.457 621.047 246.447L622.439 246.096V247.461C622.439 247.694 622.507 247.91 622.625 248.089L616.37 258.102C616 258.692 615.363 259.009 614.748 259.009Z" fill="#8D99CD"/>
<path d="M623.575 248.607C623.178 248.607 622.827 248.4 622.625 248.089C622.507 247.91 622.439 247.694 622.439 247.462V246.096L621.047 246.447C621.013 246.457 620.982 246.46 620.951 246.466C620.892 246.479 620.83 246.482 620.771 246.482C620.261 246.482 619.799 246.133 619.668 245.612C619.516 244.997 619.886 244.372 620.494 244.218L624.709 243.154V247.462C624.709 248.096 624.203 248.607 623.575 248.607Z" fill="#8D99CD"/>
<path d="M615.31 183.138C614.615 183.138 613.962 182.683 613.742 181.992L612.347 177.615C612.211 177.619 612.071 177.622 611.934 177.622C610.378 177.622 608.804 177.418 607.251 177L605.135 180.95C604.865 181.458 604.34 181.741 603.787 181.741C603.523 181.741 603.253 181.675 603.002 181.537L598.128 178.871C597.352 178.447 597.051 177.493 597.451 176.743L599.566 172.793C598.604 171.917 597.75 170.953 597.007 169.92C598.371 168.925 599.697 167.882 600.983 166.793C602.11 168.454 603.648 169.885 605.539 170.922C607.524 172.008 609.658 172.526 611.745 172.526C616.096 172.526 620.24 170.275 622.386 166.272C625.56 160.344 623.165 152.821 617.034 149.465C616.752 149.311 616.466 149.167 616.18 149.035C618.003 146.043 619.621 142.903 621.016 139.637L624.445 141.515C625.221 141.942 625.526 142.893 625.122 143.647L623.007 147.594C624.308 148.777 625.411 150.121 626.302 151.575L630.688 150.363C630.828 150.325 630.971 150.306 631.11 150.306C631.803 150.306 632.458 150.758 632.679 151.452L634.337 156.664C634.604 157.499 634.142 158.36 633.309 158.589L628.921 159.798C629.026 161.471 628.886 163.157 628.489 164.809L632.573 167.044C633.35 167.471 633.654 168.426 633.253 169.173L630.728 173.882C630.455 174.391 629.933 174.677 629.38 174.677C629.116 174.677 628.846 174.611 628.594 174.473L624.51 172.237C623.358 173.477 622.038 174.513 620.597 175.339L621.991 179.716C622.252 180.548 621.792 181.405 620.96 181.637L615.733 183.082C615.593 183.119 615.45 183.138 615.31 183.138Z" fill="#CFDFF3"/>
<path d="M673.136 90.0174C670.655 86.209 667.959 82.5543 665.039 79.1007L667.254 78.4382C667.499 78.3628 667.751 78.3283 667.996 78.3283C669.114 78.3283 670.148 79.0661 670.484 80.2058L673.052 88.928C673.158 89.2922 673.183 89.6626 673.136 90.0174ZM656.681 70.3691C654.358 68.2341 651.923 66.2247 649.373 64.3534C648.028 63.3675 646.662 62.4256 645.273 61.5277L645.835 60.4727C646.307 59.5967 647.199 59.0975 648.121 59.0975C648.541 59.0975 648.966 59.2011 649.357 59.4146L657.274 63.7506C658.535 64.4413 659.004 66.0332 658.321 67.311L656.681 70.3691Z" fill="#FAFDFE"/>
<path d="M540.592 41.0096H570.442V23.5623H540.592V41.0096Z" fill="#0E7DB6"/>
<path d="M572.989 29.0128H538.042C536.799 29.0128 535.793 27.9955 535.793 26.7397V19.2923C535.793 18.0364 536.799 17.0191 538.042 17.0191H572.989C574.232 17.0191 575.241 18.0364 575.241 19.2923V26.7397C575.241 27.9955 574.232 29.0128 572.989 29.0128Z" fill="#8BD4F9"/>
<path d="M626.948 110.441C626.948 150.793 594.967 183.502 555.516 183.502C516.064 183.502 484.086 150.793 484.086 110.441C484.086 70.0865 516.064 37.377 555.516 37.377C594.967 37.377 626.948 70.0865 626.948 110.441Z" fill="#4DABDB"/>
<path d="M610.422 110.441C610.422 141.455 585.842 166.601 555.516 166.601C525.193 166.601 500.61 141.455 500.61 110.441C500.61 79.424 525.193 54.2781 555.516 54.2781C585.842 54.2781 610.422 79.424 610.422 110.441Z" fill="#FEFEFE"/>
<path d="M555.168 166.601C553.413 166.601 551.677 166.517 549.962 166.35C549.959 166.341 549.959 166.328 549.956 166.316C551.45 166.469 552.959 166.561 554.488 166.592C554.739 166.598 554.991 166.598 555.245 166.601C555.221 166.601 555.193 166.601 555.168 166.601ZM518.885 152.589C513.856 148.058 509.648 142.601 506.508 136.476C506.393 136.25 506.365 135.961 506.424 135.619C509.576 142.033 513.894 147.744 519.093 152.463C519.021 152.507 518.953 152.548 518.885 152.589Z" fill="#F2E5ED"/>
<path d="M555.789 166.598C569.135 166.407 580.636 158.413 586.134 146.878C587.23 144.573 570.821 131.518 555.006 131.518C554.882 131.518 554.758 131.521 554.634 131.521C538.784 131.729 523.677 145.371 524.919 147.794C525.357 148.648 525.829 149.484 526.333 150.294C526.286 150.294 526.239 150.294 526.19 150.294C524.525 150.294 522.876 150.661 521.338 151.314C520.624 151.615 519.86 152.005 519.093 152.463C513.893 147.744 509.576 142.033 506.424 135.619C507.362 130.108 530.206 110.727 554.102 110.416C554.301 110.413 554.5 110.41 554.699 110.41C580.034 110.41 606.316 131.317 604.555 135.01C595.731 153.537 577.235 166.356 555.789 166.598ZM554.488 166.592C552.959 166.561 551.45 166.469 549.956 166.316C549.956 166.312 549.956 166.312 549.956 166.309C549.95 166.262 549.94 166.218 549.931 166.174C551.422 166.413 552.941 166.554 554.488 166.592Z" fill="#F6F8FC"/>
<path d="M555.394 166.601C555.379 166.601 555.357 166.601 555.342 166.601C555.491 166.598 555.64 166.598 555.789 166.598C555.658 166.598 555.528 166.598 555.394 166.601Z" fill="#FEFEFE"/>
<path d="M555.245 166.601C554.991 166.598 554.739 166.598 554.487 166.592C554.773 166.595 555.053 166.598 555.342 166.601C555.311 166.601 555.28 166.601 555.245 166.601Z" fill="#FAF6F8"/>
<path d="M555.342 166.601C555.053 166.598 554.773 166.595 554.488 166.592C552.941 166.554 551.422 166.413 549.931 166.174C549.68 164.843 548.841 163.754 547.847 162.874C546.636 161.804 545.98 160.909 545.738 159.223C545.53 157.76 545.543 156.203 544.819 154.918C544.309 154.014 543.48 153.336 542.629 152.752C540.362 151.198 537.632 150.143 534.871 150.14C534.868 150.14 534.861 150.14 534.858 150.14C533.395 150.14 532.271 150.724 530.898 150.981C530.758 151.006 530.634 151.016 530.513 151.016C529.911 151.016 529.473 150.736 528.786 150.583C528.028 150.416 527.255 150.316 526.479 150.297C526.432 150.297 526.382 150.294 526.333 150.294C525.829 149.484 525.357 148.648 524.919 147.794C523.677 145.371 538.784 131.729 554.633 131.521C554.758 131.521 554.882 131.518 555.006 131.518C570.821 131.518 587.23 144.573 586.134 146.878C580.636 158.413 569.135 166.407 555.789 166.598C555.64 166.598 555.491 166.598 555.342 166.601Z" fill="#FAFDFE"/>
<path d="M557.159 106.404H553.876C553.311 106.404 552.854 105.939 552.854 105.371V69.3047C552.854 68.7333 553.311 68.2718 553.876 68.2718H557.159C557.724 68.2718 558.181 68.7333 558.181 69.3047V105.371C558.181 105.939 557.724 106.404 557.159 106.404Z" fill="#EE96A1"/>
<path d="M563.507 110.441C563.507 114.953 559.929 118.611 555.516 118.611C551.105 118.611 547.527 114.953 547.527 110.441C547.527 105.926 551.105 102.269 555.516 102.269C559.929 102.269 563.507 105.926 563.507 110.441Z" fill="#007CBB"/>
<path d="M672.288 155.945H642.941C642.264 155.945 641.714 156.504 641.714 157.188V178.818C641.714 179.502 642.264 180.058 642.941 180.058H672.288C672.965 180.058 673.515 179.502 673.515 178.818V157.188C673.515 156.504 672.965 155.945 672.288 155.945Z" fill="#FEFEFE"/>
<path d="M657.594 168.513C657.492 168.513 657.389 168.488 657.296 168.438L654.078 166.733L642.49 160.774L641.714 160.375V157.188C641.714 156.504 642.264 155.945 642.941 155.945H672.288C672.965 155.945 673.515 156.504 673.515 157.188V159.201L673.267 159.289L672.192 159.929L657.905 168.432C657.809 168.485 657.7 168.513 657.594 168.513Z" fill="#91B2DE"/>
<path d="M641.714 177.283V161.936L653.084 167.782L641.714 177.283Z" fill="#91B2DE"/>
<path d="M673.515 177.367L662.014 167.6L673.515 160.755V177.367Z" fill="#91B2DE"/>
<path d="M672.288 180.058H642.941C642.264 180.058 641.714 179.502 641.714 178.818V178.614L641.969 178.667C642.121 178.667 642.279 178.614 642.406 178.507L654.28 168.586L654.389 168.466L656.656 169.672C656.951 169.826 657.268 169.904 657.588 169.904C657.933 169.904 658.278 169.816 658.591 169.634L660.756 168.347L672.717 178.504C672.844 178.614 673.003 178.667 673.158 178.667C673.285 178.667 673.406 178.63 673.515 178.564V178.818C673.515 179.502 672.965 180.058 672.288 180.058Z" fill="#91B2DE"/>
<path d="M673.515 159.201L673.267 159.289L672.192 159.929L657.905 168.432C657.715 168.539 657.489 168.542 657.296 168.438L654.078 166.733L642.49 160.774L641.714 160.375V161.936L653.085 167.782L641.714 177.283V178.614L641.969 178.667C642.121 178.667 642.279 178.614 642.406 178.507L654.28 168.586L654.389 168.466L656.656 169.672C656.951 169.826 657.268 169.904 657.588 169.904C657.933 169.904 658.278 169.816 658.591 169.634L660.756 168.347L672.717 178.504C672.844 178.614 673.003 178.667 673.158 178.667C673.285 178.667 673.406 178.63 673.515 178.564V177.367L662.014 167.6L673.515 160.755V159.201Z" fill="#5764AA"/>
<path d="M524.547 400.654L524.733 400.651L524.696 402.51L504.737 402.805L504.765 401.433C504.768 401.223 504.899 401.044 505.076 400.972L505.225 400.937L524.547 400.654Z" fill="#443D4F"/>
<path d="M517.546 393.879L523.587 393.804C523.736 393.804 523.873 393.851 523.985 393.935L524.106 394.048C524.211 394.171 524.277 394.334 524.283 394.516L524.314 395.229L524.413 397.524L524.547 400.654L505.225 400.937L505.076 400.972C505.504 399.552 506.61 398.438 507.995 398.121L512.415 397.769C513.459 397.229 514.366 396.752 515.406 396.209L517.201 393.976L517.313 393.932L517.4 393.898L517.546 393.879Z" fill="#443D4F"/>
<path d="M554.571 400.714H554.758L554.708 402.573L534.75 402.739L534.784 401.367C534.79 401.154 534.923 400.978 535.1 400.912L535.25 400.874L554.571 400.714Z" fill="#443D4F"/>
<path d="M547.617 393.891L553.658 393.857C553.807 393.857 553.944 393.907 554.056 393.992L554.177 394.105C554.279 394.23 554.345 394.394 554.351 394.576L554.376 395.289L554.46 397.584L554.571 400.714L535.25 400.874L535.1 400.912C535.538 399.493 536.653 398.384 538.039 398.077L542.461 397.756C543.505 397.22 544.418 396.749 545.465 396.212L547.276 393.989L547.384 393.948L547.471 393.913L547.617 393.891Z" fill="#443D4F"/>
<path d="M448.617 165.188C448.8 164.526 449.48 164.143 450.132 164.328L451.216 164.636L451.235 164.495L449.514 164.071C448.76 163.882 448.197 163.079 448.483 162.347C449.058 160.871 450.244 161.424 451.002 161.612L451.915 161.933L450.331 161.273C450.123 161.013 450.017 160.667 450.073 160.309C450.176 159.631 450.806 159.166 451.477 159.273L455.794 159.948C458.36 160.159 461.758 160.614 463.301 161.044L461.711 157.48C461.36 156.699 461.705 155.779 462.478 155.427C463.252 155.072 464.162 155.421 464.51 156.203L467.355 162.567C467.805 163.276 468.14 163.848 468.209 164.086C468.457 164.956 470.771 169.801 470.771 169.801L464.963 171.75C464.963 171.75 456.173 169.053 452.558 167.6L449.468 166.721C448.812 166.535 448.433 165.851 448.617 165.188Z" fill="#FFB782"/>
<path d="M463.277 161.192L463.261 161.166L462.944 161.145C462.146 161.848 461.736 162.63 461.73 163.468C461.721 164.871 462.842 165.901 462.888 165.945L463.205 165.926L463.187 165.609C463.18 165.6 462.168 164.667 462.18 163.468C462.186 162.765 462.541 162.099 463.236 161.487L463.277 161.192Z" fill="#F4A371"/>
<path d="M536.393 195.166H525.637C521.49 195.166 516.965 197.135 513.12 199.901C506.716 199.462 498.699 198.79 497.162 197.562C494.805 195.678 475.349 172.284 471.079 167.135C470.613 166.573 469.796 166.482 469.218 166.922L463.839 171.019C463.27 171.449 463.131 172.25 463.513 172.852C467.336 178.887 486.158 208.454 489.09 210.25C490.369 211.035 497.01 213.518 504.607 216.25L506.247 225.91C508.71 240.438 509.244 255.235 507.834 269.904L507.054 278.005C507.054 278.611 506.43 279.1 507.064 279.1H553.832C554.466 279.1 550.847 262.184 550.847 261.578L557.55 214.755C559.112 202.699 547.282 195.166 536.393 195.166Z" fill="#BCE7FD"/>
<path d="M489.09 210.25C486.158 208.454 467.336 178.887 463.513 172.852C463.131 172.25 463.27 171.449 463.839 171.019L489.09 210.25ZM489.09 210.25C490.369 211.035 497.01 213.518 504.607 216.25L489.09 210.25ZM513.11 200.051L513.164 200.054L513.208 200.023C517.039 197.267 521.534 195.316 525.637 195.316H536.393C541.806 195.316 547.451 197.189 551.545 200.555C555.636 203.918 558.174 208.767 557.401 214.735C557.401 214.735 557.401 214.736 557.401 214.736L550.699 261.556L550.697 261.567V261.578C550.697 261.631 550.715 261.748 550.74 261.899C550.767 262.058 550.805 262.272 550.854 262.532C550.952 263.054 551.091 263.765 551.256 264.6C551.326 264.954 551.4 265.33 551.478 265.724C551.767 267.19 552.105 268.898 552.43 270.594C552.843 272.747 553.235 274.878 553.485 276.471C553.61 277.268 553.699 277.927 553.736 278.385C553.755 278.615 553.761 278.788 553.753 278.9C553.752 278.92 553.75 278.937 553.749 278.95H507.064C506.994 278.95 506.953 278.943 506.93 278.936C506.93 278.936 506.931 278.935 506.931 278.935C506.934 278.912 506.943 278.88 506.961 278.834C506.974 278.801 506.989 278.766 507.006 278.727L507.028 278.678C507.053 278.619 507.081 278.553 507.107 278.484C507.158 278.346 507.203 278.186 507.204 278.012L507.983 269.919C509.394 255.237 508.86 240.426 506.395 225.885L506.256 225.909L506.395 225.885L504.755 216.224L504.74 216.138L504.658 216.108C500.859 214.743 497.301 213.439 494.533 212.38C493.149 211.85 491.963 211.381 491.044 210.996C490.121 210.609 489.477 210.311 489.168 210.122L489.168 210.122C489.003 210.02 488.769 209.812 488.47 209.497C488.174 209.184 487.822 208.775 487.422 208.28C486.622 207.291 485.633 205.968 484.516 204.41C482.281 201.293 479.535 197.242 476.76 193.058C471.211 184.688 465.551 175.789 463.639 172.772L463.639 172.772C463.298 172.234 463.424 171.521 463.929 171.138L463.93 171.138L469.309 167.041C469.309 167.041 469.309 167.041 469.309 167.041C469.823 166.65 470.549 166.731 470.963 167.231L470.963 167.231C473.098 169.806 479.03 176.942 484.723 183.67C487.57 187.034 490.357 190.296 492.58 192.836C493.691 194.106 494.662 195.195 495.429 196.027C496.193 196.855 496.763 197.435 497.068 197.679L497.068 197.679C497.28 197.848 497.591 197.999 497.975 198.138C498.362 198.278 498.833 198.408 499.37 198.53C500.445 198.774 501.797 198.987 503.297 199.176C506.299 199.553 509.907 199.831 513.11 200.051Z" stroke="black" stroke-opacity="0.3" stroke-width="0.3"/>
<path d="M467.662 229.179C467.51 228.724 467.833 228.272 468.311 228.268L473.703 228.221L467.445 227.414C467.075 227.367 466.786 227.053 466.78 226.683V226.601C466.774 226.203 467.1 225.889 467.504 225.904L473.666 226.155L468.597 225.22C468.193 225.144 467.914 224.758 467.985 224.363L468.013 224.196C468.078 223.835 468.41 223.593 468.78 223.634L473.638 224.184L473.75 224.187L477.523 224.039C478.101 224.014 478.393 223.364 478.036 222.9L476.144 220.463C475.914 220.168 475.939 219.76 476.2 219.512L476.296 219.424C476.542 219.195 476.927 219.173 477.213 219.377L481.135 222.152C483.288 223.543 484.303 224.705 484.763 225.575L484.21 232.909L484.126 232.922C481.595 233.085 474.942 232.4 474.389 232.344L474.315 232.341L470.206 232.347C469.755 232.35 469.398 231.951 469.451 231.515C469.488 231.21 469.718 230.972 470.026 230.925L473.715 230.334L468.383 229.889C468.078 229.863 467.817 229.656 467.721 229.367L467.662 229.179Z" fill="#FFB782"/>
<path d="M552.102 203.65C548.751 201.144 544.089 201.568 541.21 204.614L541.201 204.626C538.567 207.38 527.482 221.016 524.587 221.754C521.671 222.498 491.456 223.845 484.819 224.13C484.095 224.162 483.53 224.761 483.524 225.49L483.462 232.3C483.456 233.016 483.99 233.619 484.698 233.678C491.752 234.29 526.423 237.21 529.622 235.954C531.324 235.286 542.505 227.992 551.677 221.929C558.044 217.719 558.364 208.366 552.264 203.772L552.102 203.65Z" fill="#BCE7FD"/>
<path d="M485.943 234.363C485.446 234.319 485.008 234.284 484.648 234.25C484.338 234.224 484.105 233.945 484.133 233.631C484.136 233.59 484.142 233.549 484.154 233.512C484.316 233.603 484.499 233.662 484.698 233.678C484.993 233.706 485.341 233.735 485.729 233.769C485.785 233.973 485.856 234.171 485.943 234.363Z" fill="#FAFDFE"/>
<path d="M507.644 236.03C498.994 235.455 490.161 234.724 485.943 234.363C485.856 234.171 485.785 233.973 485.729 233.769C489.816 234.118 498.789 234.865 507.582 235.452C507.604 235.644 507.626 235.835 507.644 236.03Z" fill="#777383"/>
<path d="M525.41 236.84C521.167 236.84 514.465 236.485 507.644 236.03C507.626 235.835 507.604 235.644 507.582 235.452C514.428 235.907 521.167 236.265 525.41 236.265C527.556 236.265 529.066 236.174 529.622 235.954C530.435 235.634 533.411 233.804 537.299 231.317C537.467 231.587 537.386 231.939 537.122 232.108C534.38 233.86 532.137 235.251 530.836 235.98C530.398 236.224 530.075 236.391 529.827 236.491C529.423 236.642 528.892 236.708 528.153 236.764C527.416 236.818 526.491 236.84 525.41 236.84Z" fill="#94DBFF"/>
<path d="M525.41 236.265C521.167 236.265 514.428 235.907 507.582 235.452C498.789 234.865 489.816 234.118 485.729 233.769C485.341 233.735 484.993 233.706 484.698 233.678C484.499 233.662 484.316 233.603 484.154 233.512C484.226 233.273 484.443 233.104 484.698 233.104C484.713 233.104 484.729 233.107 484.748 233.107C490.562 233.612 515.257 235.694 525.41 235.691C526.475 235.691 527.379 235.669 528.072 235.622C528.761 235.575 529.265 235.487 529.417 235.421C529.557 235.364 529.873 235.207 530.286 234.975C530.703 234.743 531.234 234.429 531.852 234.055C533.091 233.308 534.694 232.303 536.514 231.138C536.61 231.078 536.716 231.05 536.818 231.05C537.008 231.05 537.191 231.144 537.3 231.317C533.411 233.804 530.435 235.634 529.622 235.954C529.066 236.174 527.556 236.265 525.41 236.265Z" fill="#BCE7FD"/>
<path d="M484.269 224.275C484.26 224.237 484.254 224.196 484.254 224.155C484.238 223.838 484.481 223.571 484.794 223.559C488.059 223.418 497.053 223.016 505.678 222.56L505.775 223.132C497.125 223.587 488.096 223.989 484.819 224.13C484.62 224.14 484.434 224.19 484.269 224.275Z" fill="#FAFDFE"/>
<path d="M505.775 223.132L505.678 222.56C512.378 222.206 518.853 221.816 522.258 221.487C523.36 221.38 524.161 221.273 524.447 221.198C524.658 221.151 525.127 220.893 525.68 220.46C526.239 220.033 526.91 219.44 527.643 218.736C529.112 217.33 530.845 215.477 532.572 213.559C536.029 209.719 539.443 205.641 540.79 204.228L540.787 204.231L540.8 204.218C542.53 202.391 544.862 201.443 547.207 201.443C547.207 201.443 547.207 201.443 547.21 201.443C549.034 201.443 550.872 202.017 552.438 203.188C552.689 203.38 552.745 203.738 552.556 203.992C552.556 203.995 552.556 203.995 552.553 203.998C552.456 203.923 552.36 203.848 552.264 203.772L552.102 203.65C550.636 202.554 548.919 202.017 547.21 202.017C545.011 202.017 542.828 202.903 541.21 204.614L541.2 204.626C538.567 207.38 527.482 221.016 524.587 221.754C523.112 222.13 514.639 222.661 505.775 223.132Z" fill="#94DBFF"/>
<path d="M484.819 224.705C484.558 224.705 484.335 224.526 484.269 224.275C484.434 224.19 484.62 224.14 484.819 224.13C488.096 223.989 497.125 223.587 505.775 223.132C514.639 222.661 523.112 222.13 524.587 221.753C527.482 221.016 538.567 207.38 541.201 204.626L541.21 204.614C542.828 202.903 545.011 202.017 547.21 202.017C548.919 202.017 550.636 202.554 552.102 203.65L552.264 203.772C552.36 203.848 552.456 203.923 552.553 203.998C552.441 204.146 552.273 204.225 552.099 204.225C551.984 204.225 551.863 204.187 551.764 204.111C550.397 203.091 548.801 202.592 547.21 202.592C545.164 202.592 543.129 203.414 541.623 205.009L541.611 205.022L541.607 205.025C540.486 206.199 537.703 209.499 534.706 212.881C531.7 216.272 528.494 219.741 526.367 221.377C525.749 221.845 525.236 222.171 524.724 222.309C524.283 222.422 523.5 222.516 522.366 222.629C521.239 222.739 519.792 222.852 518.114 222.972C514.763 223.207 510.505 223.452 506.129 223.688C497.379 224.152 488.164 224.56 484.844 224.705C484.835 224.705 484.828 224.705 484.819 224.705Z" fill="#94DBFF"/>
<path d="M507.654 265.191C507.672 263.816 508.765 263.848 510.126 263.81L549.751 262.786C551.13 262.749 552.316 263.757 552.525 265.132C552.525 265.132 554.627 282.567 554.761 290.45L555.407 392.859C555.416 394.369 554.208 395.596 552.714 395.596L544.272 395.587C542.685 395.587 541.359 394.362 541.21 392.764L532.97 302.764C532.88 301.414 531.771 300.369 530.435 300.369C529.041 300.369 527.904 301.512 527.898 302.925L525.261 393.326C525.224 394.592 524.196 395.596 522.944 395.596L514.514 395.587C513.306 395.584 512.309 394.626 512.25 393.402L506.874 283.323C506.784 280.187 507.654 265.191 507.654 265.191Z" fill="black"/>
<path d="M548.201 172.24C548.248 172.068 548.325 171.898 548.403 171.738C549.204 170.017 550.267 168.291 549.956 166.309C549.736 164.915 548.875 163.785 547.847 162.875C546.636 161.804 545.981 160.909 545.738 159.223C545.53 157.76 545.543 156.203 544.819 154.918C544.31 154.014 543.48 153.336 542.629 152.752C540.362 151.198 537.632 150.143 534.871 150.14C533.405 150.137 532.274 150.724 530.898 150.981C530.075 151.132 529.609 150.768 528.786 150.583C528.028 150.416 527.255 150.316 526.479 150.297C524.714 150.253 522.963 150.623 521.338 151.314C517.916 152.761 513.365 156.19 512.437 160.039C512.104 161.411 512.257 162.893 511.747 164.209C510.741 166.818 507.691 167.273 505.886 169.145C504.737 170.331 503.992 172.049 504.377 173.663C504.588 174.557 505.129 175.358 505.24 176.272C505.349 177.16 505.042 178.046 504.644 178.843C503.65 180.84 502.023 182.714 502.138 184.944C502.187 185.882 502.554 186.774 502.986 187.606C508.278 197.804 522.146 198.994 532.159 197.631C538.231 196.805 544.626 194.994 549.478 191.053C551.419 189.477 553.155 187.408 553.531 184.918C554.196 180.545 550.782 176.934 548.568 173.584C548.369 173.283 548.161 172.959 548.152 172.595C548.148 172.473 548.167 172.356 548.201 172.24Z" fill="#443D4F"/>
<path d="M539.2 170.196L539.911 170.24C541.554 170.344 542.806 171.769 542.707 173.433L542.524 176.441C542.424 178.102 541.011 179.367 539.365 179.267L538.079 179.185L537.849 179.242L536.392 199.229C535.538 203.521 532.1 206.451 528.525 205.933C524.693 205.38 522.161 201.091 522.935 196.46L523.015 192.369C517.686 192.039 511.651 186.937 512.331 180.212L513.704 166.642C513.778 165.907 514.008 165.229 514.344 164.617C519.54 169.163 523.102 162.112 526.242 161.804C533.454 161.097 536.647 163.772 538.219 170.196C538.368 170.805 539.188 170.231 539.2 170.196Z" fill="#FFB782"/>
<path d="M522.941 196.061L522.956 195.248L522.941 196.061Z" fill="#845B6C"/>
<path d="M522.941 196.061L522.956 195.248L523.009 192.598L532.597 192.435L522.941 196.061Z" fill="#FE6C58"/>
<path d="M525.447 155.185C524.565 156.203 524.106 157.87 524.276 159.188C524.77 163.022 529.091 163.433 531.519 165.48C532.61 166.397 533.439 167.744 533.392 169.176C533.311 171.754 530.585 173.556 530.218 176.108C529.917 178.203 531.774 179.292 532.162 181.182C532.46 182.652 531.566 184.068 530.786 185.342C529.932 186.746 528.615 187.597 528.792 189.452C528.917 190.774 529.777 191.951 530.88 192.674C531.982 193.396 533.302 193.713 534.613 193.829C537.132 194.052 539.638 193.829 542.11 193.32C546.484 192.419 551.462 189.33 553.484 185.166C555.963 180.068 547.344 173.992 548.183 172.231C549.024 170.466 552.068 166.281 547.757 162.856C543.878 159.772 548.332 158.623 543.294 153.254C541.123 150.94 533.591 145.801 525.447 155.185Z" fill="#443D4F"/>
<path d="M517.754 171.958C517.53 172.061 517.251 172.005 516.977 171.97C516.704 171.929 516.428 171.895 516.189 171.876C515.946 171.86 515.67 171.851 515.393 171.851C515.12 171.845 514.834 171.857 514.626 171.719C514.428 171.59 514.362 171.264 514.629 170.887C514.881 170.517 515.508 170.146 516.307 170.203C517.102 170.265 517.67 170.73 517.869 171.132C518.08 171.543 517.971 171.86 517.754 171.958Z" fill="#443D4F"/>
<path d="M527.277 172.545C527.053 172.648 526.774 172.592 526.5 172.557C526.224 172.517 525.95 172.482 525.708 172.466C525.469 172.447 525.189 172.438 524.913 172.438C524.64 172.432 524.357 172.444 524.149 172.309C523.947 172.181 523.882 171.851 524.152 171.474C524.404 171.107 525.028 170.733 525.826 170.793C526.624 170.852 527.19 171.317 527.389 171.719C527.603 172.134 527.491 172.447 527.277 172.545Z" fill="#443D4F"/>
<path d="M515.608 175.907C515.266 175.873 515.018 175.568 515.052 175.226L515.17 173.983C515.204 173.641 515.505 173.386 515.847 173.421C516.186 173.455 516.434 173.76 516.4 174.102L516.279 175.345C516.248 175.691 515.946 175.942 515.608 175.907Z" fill="#443D4F"/>
<path d="M524.826 176.812C524.488 176.777 524.236 176.473 524.27 176.13L524.391 174.887C524.422 174.545 524.727 174.294 525.065 174.325C525.404 174.36 525.652 174.664 525.621 175.006L525.503 176.25C525.469 176.592 525.168 176.843 524.826 176.812Z" fill="#443D4F"/>
<path d="M520.161 173.656L518.316 176.438L518.313 176.448C518.152 176.73 518.077 177.035 518.077 177.33C518.074 178.215 518.748 179.031 519.717 179.094L520.702 179.157C520.86 179.166 520.993 179.044 521.003 178.887C521.015 178.73 520.894 178.592 520.739 178.583L519.754 178.523C519.096 178.482 518.646 177.926 518.642 177.33C518.646 177.132 518.695 176.931 518.804 176.736L518.559 176.592L518.795 176.752L520.633 173.977C520.72 173.845 520.686 173.666 520.556 173.578C520.425 173.49 520.248 173.524 520.161 173.656Z" fill="#FE6C58"/>
<path d="M524.317 184.41L521.925 184.262C521.363 184.228 520.935 183.741 520.969 183.173L521.115 180.761L526.783 181.113L526.715 182.265C526.637 183.528 525.565 184.488 524.317 184.41Z" fill="#443D4F"/>
<path d="M524.317 184.41L524.193 184.403C523.63 184.369 523.214 183.675 523.236 183.311C523.314 182.049 526.715 182.265 526.715 182.265C526.637 183.528 525.565 184.488 524.317 184.41Z" fill="#FE6C58"/>
</g>
<defs>
<clipPath id="clip0_46_289">
<rect width="678" height="412" fill="white"/>
</clipPath>
</defs>
</svg>
