<svg width="514" height="308" viewBox="0 0 514 308" fill="none" xmlns="http://www.w3.org/2000/svg">
<path d="M73.6418 306.392C73.6418 306.392 31.7219 281.898 39.3323 186.19C45.0704 114.02 103.22 17.5073 222.975 1.35074C303.316 -9.48783 299.535 48.0505 387.754 61.6717C500.183 79.0312 556.505 202.713 476.306 304.782L73.6418 306.392Z" fill="#A3DCF7"/>
<path d="M346.603 203.201C346.603 203.201 381.893 207.389 403.132 170.323C403.132 170.323 350.099 166.505 346.603 203.201Z" fill="#0089C9"/>
<path d="M357.634 170.387C357.814 170.466 357.937 170.636 357.937 170.835C357.937 171.108 357.697 171.331 357.405 171.331H356.915C355.345 173.498 354.149 175.926 353.6 178.605H357.405C357.697 178.605 357.937 178.828 357.937 179.104C357.937 179.377 357.697 179.6 357.405 179.6H353.432C353.037 182.415 353.369 185.499 354.73 188.84C354.73 188.84 374.285 182.593 375.291 158.178C375.291 158.178 364.053 162.36 357.634 170.387Z" fill="#0089C9"/>
<path d="M252.766 153.508C252.766 153.508 239.375 146.181 242.508 128.082C242.508 128.082 261.93 139.945 252.766 153.508Z" fill="#0089C9"/>
<path d="M256.466 165.205C256.466 165.205 229.84 163.358 220.103 133.129C220.103 133.129 259.718 137.724 256.466 165.205Z" fill="#0089C9"/>
<path d="M155.84 306.669C154.887 305.954 138.192 278.332 127.895 291.74C127.895 291.74 112.449 242.57 91.2853 244.894C70.1192 247.219 88.0438 283.694 88.0438 283.694C88.0438 283.694 69.9291 276.722 74.123 295.138C74.123 295.138 51.0521 291.205 52.7668 306.76L155.84 306.669Z" fill="#0089C9"/>
<path d="M68.1066 260.47C70.9292 263.664 71.739 267.402 69.9141 268.82C68.0893 270.237 64.323 268.797 61.5004 265.606C58.6778 262.412 57.8679 258.674 59.6928 257.254C61.5155 255.837 65.284 257.276 68.1066 260.47Z" fill="#0089C9"/>
<path d="M63.8 273.036C65.4694 274.925 65.9488 277.139 64.869 277.979C63.7892 278.818 61.5605 277.967 59.889 276.075C58.2174 274.184 57.738 271.973 58.8178 271.132C59.8976 270.294 62.1285 271.146 63.8 273.036Z" fill="#0089C9"/>
<path d="M88.8815 287.291C88.9355 287.279 88.9852 287.251 89.0176 287.202C89.0867 287.109 89.0586 286.979 88.9571 286.916C88.7714 286.799 84.3809 284.083 80.5282 284.869H80.5261C80.4073 284.893 80.3317 285.005 80.3576 285.116C80.3835 285.227 80.5002 285.298 80.6211 285.276L80.6233 285.274C84.2902 284.529 88.6677 287.232 88.7109 287.261C88.7628 287.293 88.8232 287.303 88.8815 287.291Z" fill="black"/>
<path d="M85.9291 287.601C85.9853 287.591 86.035 287.558 86.0674 287.514C86.1343 287.416 86.1062 287.287 86.0047 287.224C85.9205 287.173 83.8926 285.942 80.2926 286.151C80.1695 286.159 80.0788 286.256 80.0853 286.371C80.0939 286.487 80.1976 286.574 80.3207 286.566C83.7739 286.365 85.7413 287.558 85.7607 287.57C85.8125 287.605 85.873 287.613 85.9291 287.601Z" fill="black"/>
<path d="M140.915 295.633C140.971 295.633 141.025 295.612 141.07 295.574C141.157 295.495 141.159 295.363 141.075 295.28C140.919 295.128 137.244 291.604 133.3 291.604C133.173 291.607 133.076 291.698 133.076 291.811C133.076 291.926 133.175 292.02 133.298 292.02H133.3C137.058 292.02 140.718 295.531 140.755 295.57C140.798 295.61 140.857 295.633 140.915 295.633Z" fill="black"/>
<path d="M137.962 295.349C138.016 295.349 138.073 295.329 138.116 295.29C138.202 295.209 138.204 295.077 138.12 294.994C138.049 294.928 136.345 293.322 132.779 292.811C132.656 292.795 132.546 292.87 132.527 292.985C132.509 293.099 132.591 293.206 132.712 293.22C136.122 293.71 137.785 295.27 137.803 295.286C137.846 295.327 137.904 295.349 137.962 295.349Z" fill="black"/>
<path d="M382.182 306.493C383.139 305.78 399.945 278.214 410.19 291.659C410.19 291.659 425.825 242.541 446.979 244.939C468.136 247.335 450.069 283.751 450.069 283.751C450.069 283.751 468.214 276.837 463.946 295.242C463.946 295.242 487.032 291.386 485.253 306.937L382.182 306.493Z" fill="#0089C9"/>
<path d="M470.099 260.593C467.264 263.777 466.439 267.513 468.257 268.937C470.078 270.361 473.848 268.935 476.684 265.751C479.517 262.566 480.344 258.832 478.524 257.408C476.705 255.984 472.931 257.41 470.099 260.593Z" fill="#0089C9"/>
<path d="M474.353 273.173C472.675 275.059 472.192 277.27 473.267 278.115C474.34 278.955 476.573 278.113 478.256 276.227C479.934 274.344 480.422 272.13 479.342 271.29C478.264 270.446 476.031 271.29 474.353 273.173Z" fill="#0089C9"/>
<path d="M449.216 287.342C449.166 287.331 449.114 287.301 449.08 287.257C449.017 287.159 449.043 287.032 449.145 286.967C449.33 286.854 453.729 284.152 457.582 284.95C457.701 284.974 457.776 285.086 457.75 285.197C457.725 285.308 457.606 285.379 457.487 285.357L457.483 285.353C453.82 284.598 449.434 287.285 449.386 287.313C449.335 287.346 449.276 287.354 449.216 287.342Z" fill="black"/>
<path d="M452.168 287.663C452.112 287.653 452.065 287.621 452.032 287.574C451.963 287.477 451.989 287.349 452.095 287.287C452.181 287.234 454.213 286.011 457.811 286.234C457.934 286.242 458.023 286.339 458.018 286.452C458.01 286.57 457.904 286.657 457.781 286.649C454.328 286.434 452.354 287.621 452.337 287.633C452.287 287.667 452.222 287.676 452.168 287.663Z" fill="black"/>
<path d="M397.15 295.507C397.099 295.507 397.04 295.486 396.997 295.448C396.913 295.367 396.908 295.235 396.993 295.154C397.15 295.004 400.841 291.491 404.78 291.503C404.908 291.507 405.005 291.596 405.005 291.712C405.005 291.827 404.903 291.918 404.784 291.918H404.78C401.022 291.906 397.349 295.407 397.312 295.444C397.269 295.484 397.211 295.507 397.15 295.507Z" fill="black"/>
<path d="M400.105 295.233C400.051 295.233 399.995 295.213 399.954 295.175C399.867 295.094 399.863 294.962 399.949 294.879C400.021 294.812 401.731 293.21 405.299 292.714C405.422 292.696 405.532 292.775 405.549 292.888C405.571 293 405.487 293.107 405.363 293.125C401.953 293.601 400.284 295.154 400.267 295.171C400.224 295.211 400.165 295.233 400.105 295.233Z" fill="black"/>
<path d="M433.073 200.675C441.785 200.244 471.652 199.061 492.073 201.903C494.723 202.269 496.412 199.292 494.578 197.461C493.503 196.392 491.678 195.517 488.603 195.315C488.603 195.315 489.661 177.437 475.263 176.254C458.74 174.895 458.541 192.459 458.541 192.459C458.541 192.459 451.035 185.776 445.62 194.25C445.62 194.25 436.261 189.179 431.544 198.545C431.026 199.568 431.866 200.734 433.073 200.675Z" fill="white"/>
<path d="M425.089 135.119C417.414 134.708 399.414 133.987 383.77 135.224C377.3 135.737 371.709 130.889 371.855 124.799C371.916 122.306 372.868 119.406 375.337 116.121C384.837 103.47 401.347 115.552 401.189 121.974C401.189 121.974 404.526 112.304 414.661 113.997C424.802 115.69 421.217 129.753 421.217 129.753C421.217 129.753 424.487 129.104 426.754 130.557C428.987 131.984 427.782 135.265 425.089 135.119Z" fill="white"/>
<path d="M381.044 251.612C381.044 251.612 369.011 280 379.105 301.471L147.795 303.293L126.45 301.471L107.638 290.541V273.813L112.866 259.982L129.944 251.612H381.044Z" fill="white"/>
<path d="M136.961 306.056H386.866C388.493 306.056 389.812 304.819 389.812 303.294C389.812 301.767 388.493 300.529 386.866 300.529H136.961C121.876 300.529 109.605 289.851 109.605 276.724C109.605 263.601 121.876 252.92 136.961 252.92H386.866C388.493 252.92 389.812 251.683 389.812 250.158C389.812 248.631 388.493 247.394 386.866 247.394H136.961C118.626 247.394 103.709 260.551 103.709 276.724C103.709 292.899 118.626 306.056 136.961 306.056Z" fill="#0089C9"/>
<path d="M108.856 283.66L112 281.596L112.365 285.758L108.856 283.66Z" fill="#0089C9"/>
<path d="M377.649 277.339H255.008C254.645 277.339 254.352 277.064 254.352 276.726C254.352 276.385 254.645 276.11 255.008 276.11H377.649C378.01 276.11 378.303 276.385 378.303 276.726C378.303 277.064 378.01 277.339 377.649 277.339Z" fill="#AAC9F8"/>
<path d="M237.738 277.339H118.591C118.228 277.339 117.937 277.064 117.937 276.726C117.937 276.385 118.228 276.11 118.591 276.11H237.738C238.101 276.11 238.394 276.385 238.394 276.726C238.394 277.064 238.101 277.339 237.738 277.339Z" fill="#AAC9F8"/>
<path d="M182.926 288.342H121.794C121.431 288.342 121.14 288.069 121.14 287.728C121.14 287.388 121.431 287.115 121.794 287.115H182.926C183.286 287.115 183.58 287.388 183.58 287.728C183.58 288.069 183.286 288.342 182.926 288.342Z" fill="#AAC9F8"/>
<path d="M377.649 288.342H191.894C191.531 288.342 191.24 288.069 191.24 287.728C191.24 287.388 191.531 287.115 191.894 287.115H377.649C378.01 287.115 378.304 287.388 378.304 287.728C378.304 288.069 378.01 288.342 377.649 288.342Z" fill="#AAC9F8"/>
<path d="M386.867 306.669H136.961C118.265 306.669 103.055 293.237 103.055 276.726C103.055 260.213 118.265 246.78 136.961 246.78H386.867C388.853 246.78 390.467 248.295 390.467 250.158C390.467 252.019 388.853 253.536 386.867 253.536C386.506 253.536 386.208 253.26 386.208 252.922C386.208 252.582 386.506 252.306 386.867 252.306C388.128 252.306 389.16 251.342 389.16 250.158C389.16 248.973 388.128 248.007 386.867 248.007H136.961C118.986 248.007 104.364 260.889 104.364 276.726C104.364 292.56 118.986 305.442 136.961 305.442H386.867C388.128 305.442 389.16 304.476 389.16 303.293C389.16 302.107 388.128 301.143 386.867 301.143C386.506 301.143 386.208 300.867 386.208 300.529C386.208 300.189 386.506 299.916 386.867 299.916C388.853 299.916 390.467 301.43 390.467 303.293C390.467 305.155 388.853 306.669 386.867 306.669Z" fill="#21111D"/>
<path d="M236.576 266.329C236.576 266.329 244.448 284.717 239.91 298.253L233.516 288.986C233.516 288.986 229.149 293.897 226.473 298.253C226.473 298.253 221.588 268.024 212.121 266.329H236.576Z" fill="#012C40"/>
<path d="M377.649 266.329H121.794C121.431 266.329 121.14 266.055 121.14 265.717C121.14 265.375 121.431 265.102 121.794 265.102H377.649C378.01 265.102 378.304 265.375 378.304 265.717C378.304 266.055 378.01 266.329 377.649 266.329Z" fill="#AAC9F8"/>
<path d="M110.27 150.211C110.27 128.506 91.5054 110.909 68.3589 110.909C45.2124 110.909 26.4478 128.506 26.4478 150.211C26.4478 160.977 31.0671 170.732 38.5458 177.83H38.5436C38.5436 177.83 51.2269 190.548 55.5094 204.412C55.5094 204.412 62.8326 206.745 68.3589 206.873C73.8853 206.745 81.2085 204.412 81.2085 204.412C85.491 190.548 98.1743 177.83 98.1743 177.83H98.1721C105.651 170.732 110.27 160.977 110.27 150.211Z" fill="#0089C9"/>
<path d="M54.3779 201.279V211.451C54.3779 216.243 57.4705 220.354 61.8868 222.13C62.2734 225.157 65.0161 227.504 68.3505 227.504C71.6806 227.504 74.4233 225.157 74.812 222.13C79.2283 220.354 82.3209 216.243 82.3209 211.451V201.279H54.3779Z" fill="#0089C9"/>
<path d="M82.3206 201.279C87.251 188.925 97.7704 178.237 98.1634 177.84C97.7704 178.237 87.251 188.925 82.3206 201.279ZM54.3971 201.279C51.5551 194.154 46.8537 187.587 43.3076 183.225C46.8537 187.587 51.5551 194.154 54.3971 201.279ZM98.1656 177.836C98.1677 177.836 98.1677 177.836 98.1677 177.836C98.1677 177.836 98.1677 177.836 98.1656 177.836ZM110.27 150.211C110.27 150.193 110.27 150.172 110.268 150.154C110.27 150.172 110.27 150.19 110.27 150.211ZM110.268 150.136C110.268 150.122 110.268 150.107 110.268 150.093C110.268 150.107 110.268 150.122 110.268 150.136ZM110.268 150.077C110.268 150.059 110.268 150.039 110.268 150.02C110.268 150.039 110.268 150.059 110.268 150.077ZM110.268 150.016C110.268 149.998 110.268 149.982 110.268 149.964C110.268 149.982 110.268 149.998 110.268 150.016ZM110.268 149.945C110.268 149.931 110.268 149.917 110.268 149.903C110.268 149.917 110.268 149.931 110.268 149.945ZM110.268 149.889C110.268 149.868 110.268 149.85 110.268 149.832C110.268 149.85 110.268 149.868 110.268 149.889ZM110.268 149.82C110.266 149.806 110.266 149.79 110.266 149.775C110.266 149.79 110.266 149.806 110.268 149.82ZM110.266 149.755C110.266 149.741 110.266 149.729 110.266 149.717C110.266 149.729 110.266 149.743 110.266 149.755ZM110.266 149.696C110.266 149.678 110.266 149.66 110.266 149.642C110.266 149.66 110.266 149.678 110.266 149.696ZM110.266 149.627C110.264 149.615 110.264 149.599 110.264 149.585C110.264 149.599 110.264 149.613 110.266 149.627ZM110.264 149.565C110.264 149.553 110.264 149.536 110.264 149.524C110.264 149.538 110.264 149.551 110.264 149.565ZM110.261 149.508C110.261 149.49 110.261 149.472 110.261 149.453C110.261 149.472 110.261 149.49 110.261 149.508ZM110.261 149.437C110.261 149.423 110.261 149.409 110.261 149.397C110.261 149.409 110.261 149.423 110.261 149.437ZM110.259 149.376C110.259 149.362 110.259 149.35 110.259 149.336C110.259 149.348 110.259 149.362 110.259 149.376ZM110.259 149.318C110.259 149.301 110.257 149.283 110.257 149.265C110.257 149.283 110.259 149.301 110.259 149.318ZM110.257 149.243C110.257 149.233 110.257 149.22 110.255 149.21C110.257 149.22 110.257 149.233 110.257 149.243ZM110.255 149.184C110.255 149.172 110.255 149.162 110.255 149.15C110.255 149.162 110.255 149.172 110.255 149.184ZM110.253 149.123C110.253 149.107 110.253 149.095 110.253 149.079C110.253 149.093 110.253 149.107 110.253 149.123ZM110.251 149.052C110.251 149.042 110.251 149.032 110.251 149.022C110.251 149.032 110.251 149.042 110.251 149.052ZM110.248 148.996C110.248 148.986 110.248 148.975 110.248 148.965C110.248 148.975 110.248 148.986 110.248 148.996ZM110.246 148.919C110.246 148.909 110.246 148.9 110.246 148.892C110.246 148.9 110.246 148.909 110.246 148.919ZM110.244 148.862C110.244 148.854 110.244 148.844 110.244 148.838C110.244 148.844 110.244 148.854 110.244 148.862ZM110.242 148.805C110.242 148.797 110.242 148.791 110.242 148.783C110.242 148.791 110.242 148.799 110.242 148.805ZM110.24 148.726C110.24 148.718 110.24 148.712 110.24 148.704C110.24 148.712 110.24 148.72 110.24 148.726ZM110.238 148.672C110.238 148.666 110.238 148.657 110.238 148.651C110.238 148.657 110.238 148.666 110.238 148.672ZM110.236 148.617C110.236 148.613 110.236 148.611 110.236 148.609C110.236 148.611 110.236 148.615 110.236 148.617ZM110.231 148.534C110.231 148.528 110.231 148.524 110.231 148.52C110.231 148.524 110.231 148.528 110.231 148.534ZM110.229 148.481C110.229 148.477 110.229 148.471 110.229 148.469C110.229 148.473 110.229 148.477 110.229 148.481ZM110.223 148.339C110.223 148.337 110.223 148.337 110.223 148.335C110.223 148.335 110.223 148.337 110.223 148.339Z" fill="#CAECDA"/>
<path d="M82.3206 201.279H54.3971C51.5551 194.154 46.8537 187.587 43.3076 183.225C71.4665 175.837 91.0152 156.786 103.275 128.465C107.34 134.194 109.845 140.98 110.22 148.289C110.22 148.305 110.22 148.319 110.223 148.336C110.223 148.338 110.223 148.338 110.223 148.34C110.225 148.382 110.227 148.427 110.229 148.469C110.229 148.471 110.229 148.477 110.229 148.481C110.229 148.494 110.231 148.506 110.231 148.52C110.231 148.524 110.231 148.528 110.231 148.534C110.233 148.558 110.233 148.583 110.236 148.609C110.236 148.611 110.236 148.613 110.236 148.617C110.236 148.629 110.236 148.639 110.238 148.651C110.238 148.658 110.238 148.666 110.238 148.672C110.238 148.682 110.238 148.694 110.24 148.704C110.24 148.712 110.24 148.718 110.24 148.726C110.24 148.745 110.242 148.765 110.242 148.783C110.242 148.791 110.242 148.797 110.242 148.805C110.242 148.816 110.244 148.826 110.244 148.838C110.244 148.844 110.244 148.854 110.244 148.862C110.246 148.872 110.246 148.882 110.246 148.892C110.246 148.901 110.246 148.909 110.246 148.919C110.248 148.935 110.248 148.949 110.248 148.965C110.248 148.975 110.248 148.986 110.248 148.996C110.251 149.004 110.251 149.014 110.251 149.022C110.251 149.032 110.251 149.042 110.251 149.052C110.251 149.061 110.253 149.071 110.253 149.079C110.253 149.095 110.253 149.107 110.253 149.123C110.253 149.131 110.255 149.142 110.255 149.15C110.255 149.162 110.255 149.172 110.255 149.184C110.255 149.194 110.255 149.202 110.255 149.21C110.257 149.221 110.257 149.233 110.257 149.243C110.257 149.251 110.257 149.257 110.257 149.265C110.257 149.283 110.259 149.302 110.259 149.318C110.259 149.324 110.259 149.33 110.259 149.336C110.259 149.35 110.259 149.362 110.259 149.376C110.259 149.383 110.261 149.389 110.261 149.397C110.261 149.409 110.261 149.423 110.261 149.437C110.261 149.441 110.261 149.447 110.261 149.453C110.261 149.472 110.261 149.49 110.261 149.508C110.264 149.514 110.264 149.518 110.264 149.524C110.264 149.536 110.264 149.553 110.264 149.565C110.264 149.573 110.264 149.579 110.264 149.585C110.264 149.599 110.264 149.615 110.266 149.628C110.266 149.634 110.266 149.638 110.266 149.642C110.266 149.66 110.266 149.678 110.266 149.696C110.266 149.703 110.266 149.709 110.266 149.717C110.266 149.729 110.266 149.741 110.266 149.755C110.266 149.761 110.266 149.767 110.266 149.775C110.266 149.79 110.266 149.806 110.268 149.82C110.268 149.824 110.268 149.828 110.268 149.832C110.268 149.85 110.268 149.869 110.268 149.889C110.268 149.893 110.268 149.899 110.268 149.903C110.268 149.917 110.268 149.931 110.268 149.946C110.268 149.952 110.268 149.958 110.268 149.964C110.268 149.982 110.268 149.998 110.268 150.016C110.268 150.018 110.268 150.018 110.268 150.02C110.268 150.039 110.268 150.059 110.268 150.077C110.268 150.083 110.268 150.087 110.268 150.093C110.268 150.108 110.268 150.122 110.268 150.136C110.268 150.142 110.268 150.148 110.268 150.154C110.27 150.172 110.27 150.193 110.27 150.211C110.27 160.976 105.651 170.732 98.172 177.83H98.1742C98.1742 177.83 98.1742 177.83 98.172 177.832C98.172 177.834 98.1699 177.834 98.1699 177.834C98.1699 177.834 98.1699 177.836 98.1677 177.836C98.1677 177.836 98.1677 177.836 98.1656 177.836C98.1656 177.836 98.1656 177.838 98.1634 177.838V177.84C97.7704 178.237 87.251 188.926 82.3206 201.279Z" fill="#0089C9"/>
<path d="M74.9223 145.59C73.6503 148.328 73.9548 152.625 75.1015 154.251C75.5529 154.891 75.8854 154.79 76.0107 154.751C77.3561 154.346 78.5245 152.281 78.1185 149.855C77.8118 148.012 76.691 146.558 74.9223 145.59ZM61.0706 145.59C59.3041 146.558 58.1833 148.012 57.8745 149.855C57.4685 152.281 58.6368 154.346 59.9822 154.751C60.1075 154.79 60.4422 154.891 60.8936 154.251C62.0403 152.625 62.3426 148.328 61.0706 145.59ZM75.2073 201.433L74.0088 201.123C74.0476 200.989 77.9543 187.514 80.6668 173.711C85.3704 149.761 82.6644 144.68 80.6344 143.785C78.5569 142.868 76.9242 143.032 75.7796 144.273C75.6976 144.362 75.6177 144.458 75.5399 144.557C78.4705 146.179 79.1788 148.666 79.3473 149.674C79.8116 152.455 78.4856 155.231 76.3908 155.861C75.8833 156.013 74.9072 156.092 74.0649 154.895C72.7238 152.996 72.3048 148.245 73.8058 145.075C72.3653 144.522 70.6096 144.229 68.6011 144.229H67.3918C65.3834 144.229 63.6276 144.522 62.1872 145.075C63.6881 148.245 63.2691 152.996 61.9302 154.895C61.0858 156.092 60.1096 156.015 59.6021 155.861C57.5073 155.229 56.1813 152.455 56.6456 149.674C56.8141 148.666 57.5246 146.179 60.453 144.557C60.3774 144.458 60.2975 144.362 60.2133 144.273C59.0687 143.034 57.4361 142.868 55.3607 143.785C53.3285 144.68 50.6247 149.761 55.3283 173.711C58.0386 187.514 61.9474 200.989 61.9863 201.123L60.7877 201.433C60.7489 201.295 56.8271 187.779 54.106 173.927C50.3504 154.808 50.588 144.601 54.8294 142.73C58.1228 141.278 60.0859 142.353 61.1527 143.51C61.3039 143.672 61.4443 143.846 61.576 144.028C63.0424 143.443 64.9385 143.062 67.3918 143.062H68.6011C71.0566 143.062 72.9527 143.443 74.4191 144.028C74.5487 143.846 74.6912 143.672 74.8402 143.51C75.907 142.351 77.8701 141.278 81.1635 142.73C85.4071 144.601 85.6425 154.808 81.887 173.927C79.168 187.779 75.2462 201.295 75.2073 201.433Z" fill="#012C40"/>
<path d="M54.1747 201.552C53.84 200.657 53.6909 200.329 53.3605 199.608L53.1813 199.217C47.9464 187.757 38.4118 178.123 38.3168 178.028L38.2866 177.998C30.4516 170.541 26.1367 160.677 26.1367 150.211C26.1367 128.38 45.0785 110.617 68.3589 110.617C82.6532 110.617 95.8678 117.32 103.707 128.55L103.187 128.868C95.4618 117.804 82.4416 111.2 68.3589 111.2C45.4219 111.2 26.7587 128.7 26.7587 150.211C26.7587 160.539 31.0239 170.274 38.766 177.625L39.1699 178.008L39.1418 178.014C40.9666 179.926 49.0673 188.731 53.7514 198.988L53.9307 199.379C54.2676 200.11 54.4209 200.444 54.7621 201.36L54.1747 201.552Z" fill="#21111D"/>
<path d="M39.0899 132.066L38.4917 131.904C38.5219 131.806 41.6209 122.134 52.0475 118.497L52.2634 119.042C42.1392 122.574 39.1201 131.972 39.0899 132.066Z" fill="#21111D"/>
<path d="M41.0123 135.563L40.4141 135.401C40.4443 135.304 43.5433 125.63 53.9698 121.995L54.1858 122.539C44.0595 126.073 41.0403 135.47 41.0123 135.563Z" fill="#21111D"/>
<path d="M69.8729 223.359H66.8258C59.792 223.359 54.0669 217.993 54.0669 211.397V200.985H82.3208V201.571H54.6889V211.397C54.6889 217.673 60.1332 222.778 66.8258 222.778H69.8729C73.0778 222.778 76.099 221.618 78.3839 219.509L78.8201 219.924C76.4187 222.14 73.2419 223.359 69.8729 223.359Z" fill="#21111D"/>
<path d="M68.5296 227.798C62.4741 227.798 61.5995 222.29 61.5908 222.235L62.2085 222.154C62.2387 222.367 63.0464 227.337 68.7326 227.213L68.7455 227.796C68.6743 227.798 68.6009 227.798 68.5296 227.798Z" fill="#21111D"/>
<path d="M97.099 172.212L96.7275 171.744C102.26 167.894 103.131 161.469 103.137 161.404L103.757 161.473C103.746 161.539 102.85 168.21 97.099 172.212Z" fill="#21111D"/>
<path d="M95.8744 169.411L95.5029 168.943C99.5349 166.139 100.172 161.452 100.178 161.404L100.794 161.473C100.77 161.675 100.127 166.452 95.8744 169.411Z" fill="#21111D"/>
<path d="M53.0949 206.516L53.0884 205.935C53.3238 205.933 76.8849 205.645 84.3463 203.037L84.5644 203.583C77.0015 206.226 54.0667 206.506 53.0949 206.516Z" fill="#21111D"/>
<path d="M53.0972 211.441L53.0864 210.858C53.3434 210.854 78.9108 210.378 83.69 207.978L83.9837 208.49C79.0728 210.957 54.1554 211.421 53.0972 211.441Z" fill="#21111D"/>
<path d="M54.3798 216.494L54.3755 215.908C54.6066 215.906 77.5501 215.682 83.6941 212.703L83.9792 213.221C77.7034 216.263 55.33 216.486 54.3798 216.494Z" fill="#21111D"/>
<path d="M15.7644 144.024C15.7384 144.024 15.7104 144.022 15.6844 144.02L0.852373 142.837C0.34055 142.797 -0.0416982 142.374 0.00365322 141.892C0.0468451 141.41 0.4982 141.055 1.01218 141.094L15.8421 142.278C16.3561 142.319 16.7362 142.742 16.693 143.224C16.6519 143.68 16.2438 144.024 15.7644 144.024Z" fill="#012C40"/>
<path d="M23.4351 121.867C23.2537 121.867 23.0701 121.816 22.9103 121.713L10.6244 113.831C10.199 113.56 10.091 113.015 10.3825 112.616C10.6719 112.217 11.2529 112.116 11.6783 112.389L23.9621 120.271C24.3875 120.543 24.4955 121.087 24.2061 121.486C24.0247 121.733 23.7331 121.867 23.4351 121.867Z" fill="#012C40"/>
<path d="M45.638 105.974C45.2687 105.974 44.921 105.767 44.7742 105.427L39.1701 92.4965C38.9779 92.049 39.2068 91.5386 39.684 91.3564C40.1613 91.1741 40.7055 91.3888 40.8999 91.8384L46.5019 104.769C46.6962 105.216 46.4652 105.727 45.9879 105.909C45.8734 105.952 45.7547 105.974 45.638 105.974Z" fill="#012C40"/>
<path d="M120.209 146.543C119.721 146.543 119.31 146.189 119.278 145.727C119.243 145.245 119.634 144.828 120.148 144.796L135 143.876C135.509 143.846 135.959 144.21 135.993 144.692C136.026 145.174 135.637 145.59 135.123 145.622L120.271 146.541C120.25 146.543 120.228 146.543 120.209 146.543Z" fill="#012C40"/>
<path d="M112.985 124.255C112.683 124.255 112.385 124.115 112.205 123.86C111.922 123.457 112.041 122.914 112.473 122.649L124.915 114.986C125.344 114.72 125.923 114.834 126.206 115.237C126.489 115.642 126.368 116.183 125.938 116.448L113.497 124.111C113.339 124.208 113.162 124.255 112.985 124.255Z" fill="#012C40"/>
<path d="M93.9827 105.923C93.8596 105.923 93.7344 105.899 93.6156 105.85C93.1426 105.662 92.9224 105.147 93.1254 104.702L98.9865 91.8725C99.1895 91.429 99.7402 91.2244 100.211 91.4128C100.686 91.6031 100.904 92.1175 100.701 92.561L94.8401 105.392C94.6889 105.722 94.3434 105.923 93.9827 105.923Z" fill="#012C40"/>
<path d="M70.0737 99.1308H70.0586C69.5424 99.1227 69.1321 98.7258 69.1408 98.2418L69.3697 84.2845C69.3783 83.8066 69.793 83.4238 70.3026 83.4238H70.3156C70.8317 83.4319 71.242 83.8289 71.2356 84.3129L71.0045 98.2681C70.998 98.7481 70.5812 99.1308 70.0737 99.1308Z" fill="#012C40"/>
<path d="M93.2161 132.536C90.9917 132.536 88.046 131.628 85.2018 129.909C80.4335 127.027 77.7577 122.961 79.2262 120.826C79.818 119.965 80.9928 119.55 82.498 119.55C84.7246 119.55 87.6702 120.458 90.5144 122.177C95.2828 125.059 97.9564 129.125 96.49 131.26C95.8983 132.12 94.7213 132.536 93.2161 132.536Z" fill="#012C40"/>
<path d="M157.412 196.844C157.412 196.844 168.577 223.189 159.213 243.118L373.883 244.805L393.695 243.118L411.153 232.97V217.448L406.301 204.612L390.454 196.844H157.412Z" fill="white"/>
<path d="M383.94 242.241H277.941C279.88 238.535 281.118 234.728 281.845 230.975H332.959C333.321 230.975 333.613 230.7 333.613 230.362C333.613 230.019 333.321 229.746 332.959 229.746H282.066C283.223 222.745 282.664 215.999 281.634 210.546H398.029C398.386 210.546 398.671 210.27 398.671 209.932C398.671 209.592 398.386 209.316 398.029 209.316H281.39C279.977 202.55 277.941 198.057 277.941 198.057H383.94C397.941 198.057 409.328 207.968 409.328 220.147C409.328 232.33 397.941 242.241 383.94 242.241ZM341.282 229.746C340.921 229.746 340.627 230.019 340.627 230.362C340.627 230.7 340.921 230.975 341.282 230.975H398.016C398.377 230.975 398.671 230.7 398.671 230.362C398.671 230.019 398.377 229.746 398.016 229.746H341.282ZM290.413 219.535C290.05 219.535 289.758 219.809 289.758 220.149C289.758 220.487 290.05 220.763 290.413 220.763H400.988C401.351 220.763 401.642 220.487 401.642 220.149C401.642 219.809 401.351 219.535 400.988 219.535H290.413Z" fill="#C9E9F3"/>
<path d="M383.94 247.369H152.011C150.499 247.369 149.274 246.223 149.274 244.805C149.274 243.39 150.499 242.242 152.011 242.242H383.94C397.941 242.242 409.328 232.33 409.328 220.147C409.328 207.968 397.941 198.057 383.94 198.057H152.011C150.499 198.057 149.274 196.909 149.274 195.493C149.274 194.076 150.499 192.927 152.011 192.927H383.94C400.955 192.927 414.796 205.139 414.796 220.147C414.796 235.158 400.955 247.369 383.94 247.369Z" fill="#3AA1C9"/>
<path d="M162.833 220.763H160.565C160.202 220.763 159.909 220.487 159.909 220.149C159.909 219.809 160.202 219.536 160.565 219.536H162.744C162.779 219.943 162.807 220.352 162.833 220.763Z" fill="#87C6F8"/>
<path d="M274.382 220.763H162.833C162.807 220.352 162.779 219.943 162.744 219.536H274.382C274.745 219.536 275.039 219.809 275.039 220.149C275.039 220.487 274.745 220.763 274.382 220.763Z" fill="#AAC9F8"/>
<path d="M400.988 220.763H290.413C290.05 220.763 289.758 220.487 289.758 220.149C289.758 219.809 290.05 219.536 290.413 219.536H400.988C401.351 219.536 401.642 219.809 401.642 220.149C401.642 220.487 401.351 220.763 400.988 220.763Z" fill="#86B8EC"/>
<path d="M398.016 230.975H341.282C340.921 230.975 340.627 230.7 340.627 230.362C340.627 230.019 340.921 229.746 341.282 229.746H398.016C398.377 229.746 398.671 230.019 398.671 230.362C398.671 230.7 398.377 230.975 398.016 230.975Z" fill="#86B8EC"/>
<path d="M281.634 210.546H165.866C165.512 210.546 165.225 210.27 165.225 209.932C165.225 209.592 165.512 209.316 165.866 209.316H281.39C281.474 209.719 281.556 210.128 281.634 210.546Z" fill="#AAC9F8"/>
<path d="M398.03 210.546H281.634C281.556 210.128 281.474 209.719 281.39 209.316H398.03C398.386 209.316 398.671 209.592 398.671 209.932C398.671 210.27 398.386 210.546 398.03 210.546Z" fill="#86B8EC"/>
<path d="M383.94 247.985H152.009C150.14 247.985 148.62 246.559 148.62 244.805C148.62 243.053 150.14 241.628 152.009 241.628C152.371 241.628 152.665 241.899 152.665 242.241C152.665 242.58 152.371 242.855 152.009 242.855C150.864 242.855 149.929 243.73 149.929 244.805C149.929 245.881 150.864 246.755 152.009 246.755H383.94C400.595 246.755 414.144 234.819 414.144 220.147C414.144 205.477 400.595 193.541 383.94 193.541H152.009C150.864 193.541 149.929 194.416 149.929 195.493C149.929 196.568 150.864 197.443 152.009 197.443C152.371 197.443 152.665 197.719 152.665 198.057C152.665 198.397 152.371 198.67 152.009 198.67C150.14 198.67 148.62 197.245 148.62 195.493C148.62 193.739 150.14 192.313 152.009 192.313H383.94C401.316 192.313 415.455 204.801 415.455 220.147C415.455 235.498 401.316 247.985 383.94 247.985Z" fill="#21111D"/>
<path d="M162.584 230.975H160.565C160.202 230.975 159.909 230.7 159.909 230.362C159.909 230.019 160.202 229.746 160.565 229.746H162.718C162.679 230.155 162.634 230.566 162.584 230.975Z" fill="#87C6F8"/>
<path d="M281.845 230.975H162.584C162.634 230.566 162.679 230.155 162.718 229.746H282.066C281.996 230.157 281.925 230.564 281.845 230.975Z" fill="#AAC9F8"/>
<path d="M332.959 230.975H281.846C281.926 230.564 281.997 230.157 282.066 229.746H332.959C333.322 229.746 333.613 230.019 333.613 230.362C333.613 230.7 333.322 230.975 332.959 230.975Z" fill="#86B8EC"/>
<path d="M273.134 198.057H152.665C152.665 197.719 152.372 197.443 152.009 197.443C150.864 197.443 149.929 196.569 149.929 195.493C149.929 194.416 150.864 193.541 152.009 193.541H274.911C275.499 194.011 275.87 194.712 275.87 195.493C275.87 196.909 274.646 198.057 273.134 198.057Z" fill="#217D9B"/>
<path d="M152.665 198.057H152.011C150.499 198.057 149.274 196.909 149.274 195.493C149.274 194.076 150.499 192.927 152.011 192.927H273.133C273.812 192.927 274.431 193.158 274.911 193.541H152.008C150.864 193.541 149.929 194.416 149.929 195.493C149.929 196.568 150.864 197.443 152.008 197.443C152.371 197.443 152.665 197.719 152.665 198.057Z" fill="#130D16"/>
<path d="M274.911 246.756H152.009C150.864 246.756 149.929 245.881 149.929 244.806C149.929 243.73 150.864 242.855 152.009 242.855C152.372 242.855 152.665 242.58 152.665 242.242H273.134C274.646 242.242 275.87 243.39 275.87 244.806C275.87 245.587 275.499 246.286 274.911 246.756Z" fill="#0089C9"/>
<path d="M273.133 247.369H152.011C150.499 247.369 149.274 246.223 149.274 244.806C149.274 243.39 150.499 242.242 152.011 242.242H152.665C152.665 242.58 152.371 242.855 152.008 242.855C150.864 242.855 149.929 243.73 149.929 244.806C149.929 245.881 150.864 246.756 152.008 246.756H274.911C274.431 247.141 273.812 247.369 273.133 247.369Z" fill="#050910"/>
<path d="M324.62 210.546C324.62 210.546 331.447 226.49 327.51 238.23L321.94 231.609C321.94 231.609 318.895 234.38 315.857 238.23C315.857 238.23 311.622 212.012 303.411 210.546H324.62Z" fill="#012C40"/>
<path d="M359.958 151.962C359.958 151.962 350.916 173.295 358.498 189.432L184.675 190.799L168.635 189.432L154.497 181.218V168.646L158.427 158.255L171.257 151.962H359.958Z" fill="white"/>
<path d="M262.362 188.723H176.533C165.197 188.723 155.974 180.697 155.974 170.833C155.974 160.97 165.197 152.947 176.533 152.947H262.362C262.362 152.947 260.712 156.584 259.569 162.064H165.135C164.841 162.064 164.603 162.287 164.603 162.56C164.603 162.836 164.841 163.058 165.135 163.058H259.371C258.539 167.473 258.086 172.937 259.023 178.605H217.814C217.52 178.605 217.282 178.828 217.282 179.104C217.282 179.377 217.52 179.6 217.814 179.6H259.202C259.792 182.637 260.794 185.722 262.362 188.723ZM165.135 178.605C164.841 178.605 164.603 178.828 164.603 179.104C164.603 179.377 164.841 179.6 165.135 179.6H211.073C211.367 179.6 211.605 179.377 211.605 179.104C211.605 178.828 211.367 178.605 211.073 178.605H165.135ZM171.115 170.337C170.851 170.337 170.635 170.559 170.635 170.835C170.635 171.108 170.851 171.331 171.115 171.331H252.313C252.581 171.331 252.795 171.108 252.795 170.835C252.795 170.559 252.581 170.337 252.313 170.337H171.115Z" fill="#C9E9F3"/>
<path d="M176.533 192.877H364.331C365.556 192.877 366.545 191.947 366.545 190.799C366.545 189.651 365.556 188.723 364.331 188.723H176.533C165.197 188.723 155.974 180.698 155.974 170.833C155.974 160.971 165.197 152.947 176.533 152.947H364.331C365.556 152.947 366.545 152.016 366.545 150.869C366.545 149.723 365.556 148.792 364.331 148.792H176.533C162.755 148.792 151.544 158.68 151.544 170.833C151.544 182.988 162.755 192.877 176.533 192.877Z" fill="#0089C9"/>
<path d="M357.405 171.331H356.915H355.567C355.589 170.999 355.613 170.664 355.639 170.336H357.405C357.487 170.336 357.565 170.355 357.634 170.385C357.634 170.387 357.634 170.387 357.634 170.387C357.803 170.464 357.923 170.62 357.934 170.806C357.934 170.806 357.934 170.806 357.934 170.808C357.934 170.81 357.934 170.81 357.934 170.812V170.814C357.934 170.816 357.934 170.818 357.934 170.82C357.934 170.82 357.934 170.82 357.934 170.822C357.936 170.822 357.936 170.824 357.936 170.827C357.936 170.827 357.936 170.827 357.936 170.829C357.936 170.831 357.936 170.833 357.936 170.835C357.936 171.108 357.697 171.331 357.405 171.331Z" fill="#87C6F8"/>
<path d="M357.405 171.331H356.915H357.405C357.697 171.331 357.937 171.108 357.937 170.835C357.937 171.108 357.697 171.331 357.405 171.331ZM357.937 170.829C357.937 170.827 357.937 170.827 357.937 170.827C357.937 170.827 357.937 170.827 357.937 170.829ZM357.934 170.823C357.934 170.821 357.934 170.821 357.934 170.821C357.934 170.821 357.934 170.821 357.934 170.823ZM357.934 170.815V170.813V170.815ZM357.934 170.806C357.924 170.62 357.803 170.464 357.634 170.387C357.634 170.387 357.634 170.387 357.634 170.385C357.805 170.462 357.924 170.62 357.934 170.806Z" fill="#2A7892"/>
<path d="M355.567 171.331H282.86C282.813 171.001 282.763 170.667 282.714 170.336H355.639C355.613 170.664 355.589 170.999 355.567 171.331ZM268.704 171.331H265.245C264.951 171.331 264.713 171.108 264.713 170.835C264.713 170.559 264.951 170.336 265.245 170.336H268.419C268.514 170.671 268.609 171.001 268.704 171.331Z" fill="#AAC9F8"/>
<path d="M252.313 171.331H171.115C170.851 171.331 170.635 171.108 170.635 170.835C170.635 170.559 170.851 170.336 171.115 170.336H252.313C252.581 170.336 252.795 170.559 252.795 170.835C252.795 171.108 252.581 171.331 252.313 171.331Z" fill="#86B8EC"/>
<path d="M211.074 179.6H165.135C164.841 179.6 164.604 179.377 164.604 179.104C164.604 178.828 164.841 178.605 165.135 178.605H211.074C211.367 178.605 211.605 178.828 211.605 179.104C211.605 179.377 211.367 179.6 211.074 179.6Z" fill="#86B8EC"/>
<path d="M357.405 163.058H356.688C356.758 162.722 356.827 162.39 356.898 162.064H357.405C357.697 162.064 357.937 162.287 357.937 162.56C357.937 162.836 357.697 163.058 357.405 163.058Z" fill="#87C6F8"/>
<path d="M356.688 163.058H281.61C281.556 162.718 281.506 162.388 281.457 162.064H356.898C356.826 162.39 356.757 162.722 356.688 163.058ZM266.361 163.058H259.371C259.438 162.72 259.502 162.39 259.569 162.064H266.089C266.18 162.394 266.27 162.724 266.361 163.058Z" fill="#AAC9F8"/>
<path d="M259.371 163.058H165.135C164.841 163.058 164.604 162.836 164.604 162.56C164.604 162.287 164.841 162.064 165.135 162.064H259.569C259.502 162.39 259.438 162.72 259.371 163.058Z" fill="#86B8EC"/>
<path d="M357.405 179.6H355.77C355.729 179.268 355.695 178.936 355.66 178.605H357.405C357.697 178.605 357.936 178.828 357.936 179.104C357.936 179.377 357.697 179.6 357.405 179.6Z" fill="#87C6F8"/>
<path d="M355.77 179.6H284.068C284.022 179.274 283.975 178.942 283.927 178.605H355.66C355.695 178.936 355.729 179.268 355.77 179.6ZM271.127 179.6H259.202C259.137 179.266 259.079 178.936 259.023 178.605H270.832C270.933 178.94 271.03 179.274 271.127 179.6Z" fill="#AAC9F8"/>
<path d="M259.202 179.6H217.813C217.52 179.6 217.282 179.377 217.282 179.104C217.282 178.828 217.52 178.605 217.813 178.605H259.023C259.079 178.936 259.137 179.266 259.202 179.6Z" fill="#86B8EC"/>
<path d="M364.331 152.947H300.202C303.018 151.629 305.983 150.191 308.67 148.792H364.331C365.556 148.792 366.545 149.723 366.545 150.869C366.545 152.016 365.556 152.947 364.331 152.947Z" fill="#0089C9"/>
<path d="M290.112 152.947H285.836C288.002 152.054 290.592 150.999 290.713 150.999L290.112 152.947Z" fill="#FCA24F"/>
<path d="M264.04 190.799C264.04 189.651 265.033 188.723 266.255 188.723H364.331C365.555 188.723 366.545 189.651 366.545 190.799C366.545 191.947 365.555 192.877 364.331 192.877H266.255C265.033 192.877 264.04 191.947 264.04 190.799Z" fill="#0089C9"/>
<path d="M203.714 163.059C203.714 163.059 197.138 172.39 200.809 183.353L205.988 175.849C205.988 175.849 209.525 179.827 211.694 183.353C211.694 183.353 215.849 164.428 223.513 163.059H203.714Z" fill="#012C40"/>
<path d="M176.533 193.375H364.333C365.845 193.375 367.076 192.219 367.076 190.799C367.076 189.379 365.845 188.225 364.333 188.225C364.039 188.225 363.802 188.448 363.802 188.723C363.802 188.997 364.039 189.22 364.333 189.22C365.26 189.22 366.015 189.928 366.015 190.799C366.015 191.672 365.26 192.379 364.333 192.379H176.533C163.046 192.379 152.075 182.715 152.075 170.833C152.075 158.954 163.046 149.29 176.533 149.29H364.333C365.26 149.29 366.015 149.999 366.015 150.869C366.015 151.74 365.26 152.449 364.333 152.449C364.039 152.449 363.802 152.672 363.802 152.947C363.802 153.221 364.039 153.443 364.333 153.443C365.845 153.443 367.076 152.289 367.076 150.869C367.076 149.45 365.845 148.295 364.333 148.295H176.533C162.463 148.295 151.015 158.405 151.015 170.833C151.015 183.262 162.463 193.375 176.533 193.375Z" fill="#21111D"/>
<path d="M452.406 305.692L438.185 305.645C436.529 305.692 435.2 303.527 434.941 302.869L431.026 296.623L444.117 294.318L452.406 305.692Z" fill="#FE9F73"/>
<path d="M459.684 304.782H434.868V300.1C434.868 300.1 436.677 297.852 439.424 299.001C439.424 299.001 443.493 301.763 447.158 298.462L456.34 302.16C456.34 302.16 459.684 303.191 459.684 304.782Z" fill="#21111D"/>
<path d="M434.868 306.176H460.392C460.597 306.176 460.761 306.022 460.761 305.827V305.131C460.761 304.938 460.597 304.782 460.392 304.782H434.868V306.176Z" fill="#FEC786"/>
<path d="M370.624 299.768C370.624 299.768 375.671 307.51 389.851 306.317C404.033 305.128 417.055 284.581 417.055 284.581L434.414 303.042C434.414 303.042 444.044 300.189 447.22 295.513C447.22 295.513 428.594 266.519 419.701 266.418C410.81 266.321 375.334 292.522 374.868 292.82C374.399 293.117 370.624 299.768 370.624 299.768Z" fill="#012C40"/>
<path d="M389.851 267.112C390.203 266.981 406.577 267.445 406.577 267.445L406.011 273.862L397.332 275.055L389.851 267.112Z" fill="#0089C9"/>
<path d="M356.399 275.679C356.399 275.679 360.863 289.924 369.808 301.337C369.808 301.337 374.771 298.287 382.314 292.327C389.851 286.369 356.399 275.679 356.399 275.679Z" fill="#0089C9"/>
<path d="M386.985 304.039C387.175 304.039 387.376 304.033 387.588 304.018C387.685 304.01 387.763 303.929 387.754 303.84C387.75 303.747 387.661 303.676 387.562 303.684C385.232 303.844 384.493 303.02 384.484 303.01C384.424 302.939 384.31 302.927 384.234 302.984C384.156 303.042 384.145 303.148 384.208 303.22C384.238 303.255 384.934 304.039 386.985 304.039Z" fill="#21111D"/>
<path d="M387.257 302.834C387.685 302.834 388.19 302.787 388.786 302.664C388.883 302.641 388.941 302.552 388.922 302.463C388.9 302.372 388.805 302.315 388.708 302.335C386.445 302.809 385.566 302.096 385.557 302.09C385.486 302.028 385.372 302.034 385.307 302.103C385.24 302.169 385.244 302.275 385.316 302.337C385.346 302.362 385.907 302.834 387.257 302.834Z" fill="#21111D"/>
<path d="M397.422 267.374C397.52 267.374 397.599 267.301 397.599 267.212C397.599 267.118 397.524 267.041 397.427 267.039L391.868 266.946C391.766 266.946 391.689 267.015 391.687 267.108C391.687 267.201 391.762 267.276 391.864 267.278L397.418 267.374H397.422Z" fill="#21111D"/>
<path d="M400.9 302.042C400.938 302.042 400.975 302.03 401.01 302.006C411.672 294.017 419.498 281.22 419.573 281.092C419.621 281.011 419.595 280.91 419.507 280.863C419.422 280.817 419.31 280.847 419.265 280.926C419.187 281.054 411.395 293.796 400.785 301.745C400.709 301.801 400.697 301.907 400.759 301.979C400.794 302.02 400.846 302.042 400.9 302.042Z" fill="#21111D"/>
<path d="M434.36 303.237L434.471 303.202C434.507 303.19 438.127 302.04 442.092 299.966C442.176 299.921 442.211 299.822 442.159 299.739C442.113 299.658 442.003 299.63 441.921 299.676C438.373 301.529 435.108 302.637 434.471 302.848L417.323 284.611C417.688 284.376 418.585 283.773 419.541 282.969C419.613 282.906 419.617 282.801 419.554 282.732C419.485 282.663 419.375 282.657 419.299 282.72C418.088 283.74 416.967 284.435 416.958 284.441L416.786 284.546L434.36 303.237Z" fill="#21111D"/>
<path d="M405.992 269.042L404.463 269.83L403.932 274.458L404.463 275.482C404.463 275.482 405.553 275.584 405.592 275.351C405.62 275.118 405.992 269.042 405.992 269.042Z" fill="#FE9F73"/>
<path d="M414.984 254.664L415.336 254.591L422.666 255.816C422.666 255.816 422.262 255.903 422.241 255.903C422.219 255.903 414.984 254.664 414.984 254.664Z" fill="#E01B2F"/>
<path d="M418.301 277.908L410.415 275.018L414.984 254.664L422.75 255.903L418.301 277.908Z" fill="#DCF4FF"/>
<path d="M414.721 256.153L414.589 256.126L414.928 254.611L415.332 254.526L415.345 254.528L422.627 255.737L422.606 255.861L415.337 254.656L415.043 254.719L414.721 256.153Z" fill="black"/>
<path d="M418.301 277.909H402.648L407.095 255.903H422.75L418.301 277.909Z" fill="#012C40"/>
<path d="M414.976 275.92C414.993 275.442 414.555 275.025 414.045 274.992L410.898 274.794C410.801 274.79 410.717 274.723 410.691 274.636C410.652 274.502 410.756 274.371 410.898 274.362L415.557 274.073C416.092 274.038 416.414 273.617 416.276 273.131C416.135 272.647 415.587 272.277 415.051 272.311L410.3 272.605C410.194 272.613 410.093 272.546 410.063 272.447L410.045 272.376C410.013 272.26 410.084 272.139 410.207 272.108L415.298 270.824C415.792 270.701 416.135 270.213 416.017 269.747C415.894 269.255 415.362 268.959 414.844 269.089L409.715 270.381C409.588 270.413 409.46 270.345 409.43 270.227L409.367 270.004C409.337 269.897 409.391 269.788 409.499 269.745L414.054 267.977C414.522 267.795 414.797 267.268 414.615 266.821C414.423 266.347 413.855 266.118 413.363 266.312C413.363 266.312 406.357 268.635 405.214 268.919L407.32 267.995C408.871 269.356 407.121 267.497 405.847 267.256C404.433 266.991 400.701 270.229 400.701 270.229C400.53 270.509 400.705 271.132 400.975 271.6C402.016 276.787 402.221 277.578 402.64 278.951L408.393 277.305C410.054 276.831 411.79 276.643 413.525 276.752L413.956 276.778C414.492 276.813 414.954 276.426 414.976 275.92Z" fill="#FE9F73"/>
<path d="M404.858 266.979L404.467 269.168L407.808 268.121L407.777 266.742L404.858 266.979Z" fill="#0089C9"/>
<path d="M407.125 255.911L407.404 255.816H422.666L422.75 255.903L407.125 255.911Z" fill="#E01B2F"/>
<path d="M404.586 268.868L404.454 268.846L407.03 255.893L407.162 255.915L404.586 268.868Z" fill="black"/>
<path d="M418.359 277.971L409.758 277.894V277.767L418.245 277.844L420.53 266.535L420.666 266.559L418.359 277.971Z" fill="black"/>
<path d="M420.36 258.455L419.459 257.262L419.569 257.189L420.47 258.38L420.36 258.455Z" fill="black"/>
<path d="M407.478 265.865L406.577 264.674L406.687 264.601L407.588 265.79L407.478 265.865Z" fill="black"/>
<path d="M408.51 266.349L407.609 265.158L407.72 265.085L408.62 266.276L408.51 266.349Z" fill="black"/>
<path d="M420.228 259.372L419.327 258.183L419.437 258.11L420.338 259.299L420.228 259.372Z" fill="black"/>
<path d="M366.136 248.388C366.136 248.388 360.569 248.916 357.111 250.172C353.656 251.432 350.408 255.666 350.62 259.836C350.831 264.002 360.53 288.022 367.711 292.125C374.896 296.228 380.26 293.316 380.26 293.316L405.592 281.14C405.592 281.14 403.474 272.207 400.437 269.692L394.861 271.353L381.808 252.888C381.808 252.888 377.632 245.873 366.136 248.388Z" fill="#0089C9"/>
<path d="M368.726 281.177C368.75 281.177 368.773 281.173 368.795 281.163C369.03 281.072 392.404 272.028 400.381 269.883C400.759 270.292 402.627 272.443 404.199 277.032C404.225 277.117 404.327 277.167 404.42 277.139C404.517 277.109 404.564 277.016 404.538 276.928C402.759 271.73 400.653 269.664 400.569 269.577L400.491 269.506L400.39 269.533C392.497 271.629 368.897 280.762 368.657 280.855C368.568 280.89 368.523 280.989 368.562 281.072C368.59 281.137 368.657 281.177 368.726 281.177Z" fill="#21111D"/>
<path d="M374.443 278.992C374.475 278.992 374.512 278.982 374.54 278.961C374.622 278.911 374.646 278.807 374.589 278.731C374.518 278.629 367.309 268.587 363.338 262.068C363.286 261.987 363.178 261.958 363.092 262.005C363.007 262.049 362.975 262.155 363.027 262.234C367.005 268.765 374.22 278.816 374.294 278.917C374.328 278.965 374.384 278.992 374.443 278.992Z" fill="#21111D"/>
<path d="M391.481 272.742C391.52 272.742 391.561 272.732 391.591 272.708C391.669 272.651 391.686 272.544 391.622 272.471C391.533 272.364 382.51 261.612 379.949 257.695C379.897 257.616 379.787 257.592 379.703 257.641C379.623 257.687 379.597 257.791 379.642 257.87C382.217 261.804 391.248 272.572 391.341 272.679C391.38 272.722 391.427 272.742 391.481 272.742Z" fill="#21111D"/>
<path d="M353.829 263.096L353.876 263.09C353.969 263.066 354.025 262.975 354.001 262.886C353.397 260.788 354.116 259.931 354.122 259.923C354.185 259.852 354.174 259.747 354.099 259.688C354.023 259.629 353.913 259.639 353.85 259.706C353.814 259.747 352.999 260.686 353.656 262.973C353.677 263.048 353.749 263.096 353.829 263.096Z" fill="#21111D"/>
<path d="M355.466 263.918C355.49 263.918 355.514 263.914 355.537 263.904C355.628 263.866 355.669 263.769 355.628 263.683C354.706 261.691 355.282 260.745 355.289 260.735C355.339 260.656 355.313 260.555 355.228 260.508C355.144 260.459 355.038 260.482 354.984 260.561C354.956 260.603 354.296 261.644 355.302 263.817C355.33 263.88 355.397 263.918 355.466 263.918Z" fill="#21111D"/>
<path d="M370.728 255.972C370.894 255.972 371.063 255.97 371.238 255.964C371.337 255.962 371.415 255.883 371.41 255.792C371.406 255.701 371.328 255.628 371.225 255.63C363.811 255.861 361.887 250.94 361.871 250.891C361.843 250.804 361.746 250.751 361.653 250.774C361.558 250.8 361.502 250.887 361.526 250.976C361.539 251.027 363.459 255.972 370.728 255.972Z" fill="#21111D"/>
<path d="M371.151 253.052C374.271 253.036 376.092 251.14 377.148 249.111C374.66 247.985 371.073 247.306 366.136 248.388C366.136 248.388 364.508 248.542 362.465 248.882C363.43 250.253 366.039 253.078 371.151 253.052Z" fill="#FE9F73"/>
<path d="M391.481 269.413C391.57 269.413 391.643 269.357 391.66 269.276L392.056 267.076L392.012 267.02L381.962 252.799C381.882 252.667 380.824 250.97 378.379 249.551C376.085 248.222 372.095 246.912 366.095 248.224C366 248.244 365.942 248.336 365.963 248.425C365.985 248.516 366.082 248.573 366.179 248.55C372.045 247.266 375.939 248.536 378.172 249.826C380.595 251.226 381.642 252.951 381.651 252.967L381.659 252.979L391.678 267.149L391.306 269.219C391.291 269.312 391.354 269.397 391.451 269.411L391.481 269.413Z" fill="#21111D"/>
<path d="M369.531 279.538L369.555 279.536L374.41 278.911C374.507 278.899 374.576 278.815 374.561 278.722C374.548 278.631 374.457 278.566 374.36 278.581L369.507 279.204C369.408 279.216 369.341 279.302 369.354 279.393C369.367 279.478 369.443 279.538 369.531 279.538Z" fill="#21111D"/>
<path d="M374.866 235.303V242.596C374.866 242.596 374.971 244.941 372.784 245.235L373.192 248.362C373.343 249.524 372.602 250.636 371.412 250.99C370.827 251.164 370.134 251.29 369.346 251.29C366.845 251.29 365.493 249.532 365.283 248.651C365.076 247.774 365.7 243.574 365.7 243.574L365.625 241.509L365.908 233.511L374.866 235.303Z" fill="#FE9F73"/>
<path d="M367.711 243.242C367.711 243.242 367.858 247.164 373.084 247.541L372.784 245.234C372.784 245.234 369.393 245.872 367.711 243.242Z" fill="#21111D"/>
<path d="M375.229 241.495C375.229 241.495 375.911 246.191 372.583 246.357C367.828 246.596 367.366 244.048 367.083 241.964L367.035 237.665L367.188 236.417C367.523 236.774 367.728 237.219 367.776 237.695C367.873 238.726 368.117 241.505 368.391 241.628C368.78 241.802 374.488 241.041 375.229 241.495Z" fill="#21111D"/>
<path d="M368.832 239.129C368.804 239.129 368.78 239.119 368.759 239.101C368.718 239.064 368.718 239.004 368.756 238.965C368.772 238.951 370.203 237.576 371.512 238.564C371.557 238.599 371.564 238.661 371.527 238.702C371.49 238.744 371.426 238.752 371.382 238.716C370.221 237.841 368.959 239.046 368.905 239.101C368.886 239.119 368.86 239.129 368.832 239.129Z" fill="#49263E"/>
<path d="M365.24 238.104L367.488 238.544L367.897 238.939C367.897 238.939 367.702 235.405 367.277 234.71C366.853 234.014 365.24 238.104 365.24 238.104Z" fill="#21111D"/>
<path d="M373.125 238.544C373.094 238.544 373.066 238.531 373.045 238.509C373.006 238.469 373.012 238.408 373.056 238.371C373.097 238.339 374.092 237.539 374.721 238.045C374.762 238.08 374.768 238.143 374.731 238.183C374.693 238.224 374.628 238.228 374.585 238.195C374.092 237.798 373.202 238.511 373.192 238.519C373.172 238.535 373.148 238.544 373.125 238.544Z" fill="#49263E"/>
<path d="M370.937 239.524C370.937 239.686 370.797 239.818 370.624 239.818C370.453 239.818 370.313 239.686 370.313 239.524C370.313 239.364 370.453 239.232 370.624 239.232C370.797 239.232 370.937 239.364 370.937 239.524Z" fill="black"/>
<path d="M374.259 239.232C374.259 239.392 374.119 239.524 373.948 239.524C373.773 239.524 373.635 239.392 373.635 239.232C373.635 239.068 373.773 238.938 373.948 238.938C374.119 238.938 374.259 239.068 374.259 239.232Z" fill="black"/>
<path d="M368.356 239.423C368.356 240.395 367.516 241.181 366.48 241.181C365.448 241.181 364.607 240.395 364.607 239.423C364.607 238.451 365.448 237.665 366.48 237.665C367.516 237.665 368.356 238.451 368.356 239.423Z" fill="#FE9F73"/>
<path d="M366.154 240.397C365.763 240.397 365.504 240.125 365.419 239.848C365.316 239.524 365.434 239.21 365.715 239.046C366.128 238.805 366.506 238.961 366.698 239.078C366.616 238.88 366.491 238.734 366.32 238.645C365.948 238.454 365.493 238.594 365.488 238.594C365.46 238.604 365.432 238.59 365.422 238.564C365.413 238.539 365.428 238.511 365.454 238.501C365.476 238.495 365.959 238.349 366.37 238.558C366.605 238.681 366.767 238.898 366.847 239.2L366.894 239.37L366.758 239.246C366.743 239.228 366.296 238.823 365.769 239.129C365.478 239.299 365.45 239.609 365.519 239.821C365.588 240.044 365.795 240.301 366.154 240.301H366.164C366.192 240.301 366.216 240.322 366.216 240.348C366.216 240.376 366.192 240.397 366.164 240.397H366.154Z" fill="#F07162"/>
<path d="M372.039 241.5C372.017 241.5 371.998 241.488 371.991 241.468C371.983 241.441 371.998 241.413 372.024 241.405L373.067 241.083L372.736 238.776C372.732 238.752 372.754 238.726 372.784 238.722C372.81 238.718 372.838 238.738 372.84 238.764L373.181 241.15L372.056 241.496L372.039 241.5Z" fill="#F07162"/>
<path d="M371.231 242.452C371.263 242.446 373.293 242.402 373.293 242.402C373.293 242.402 373.039 243.188 372.285 243.206C371.529 243.226 371.231 242.452 371.231 242.452Z" fill="#FBFDFC"/>
<path d="M365.24 238.104C365.24 238.104 364.608 234.68 365.726 233.406C366.843 232.13 373.259 229.894 374.036 230.534C374.814 231.172 374.036 231.946 374.036 231.946C374.036 231.946 376.613 231.172 377.196 233.313C377.779 235.455 372.237 236.369 368.935 235.364C368.935 235.364 366.748 235.962 365.24 238.104Z" fill="#21111D"/>
<path d="M375.459 294.484C375.909 294.484 376.321 294.462 376.697 294.425C378.947 294.211 380.288 293.49 380.344 293.461C380.433 293.415 380.463 293.311 380.411 293.232C380.362 293.151 380.256 293.125 380.165 293.172C380.157 293.178 378.822 293.887 376.641 294.093C374.63 294.286 371.464 294.073 367.806 291.981C363.21 289.358 357.464 278.303 353.937 269.633C353.902 269.546 353.799 269.504 353.708 269.536C353.615 269.571 353.57 269.668 353.602 269.753C357.15 278.471 362.949 289.599 367.62 292.266C370.691 294.022 373.432 294.484 375.459 294.484Z" fill="#21111D"/>
<path d="M287.244 89.1814C287.404 88.1648 288.43 87.3325 289.525 87.3284C289.641 87.3264 289.758 87.3345 289.864 87.375C289.987 87.4195 290.088 87.5026 290.207 87.5552C290.494 87.6869 290.877 87.6524 291.088 87.8792C291.315 88.1223 291.19 88.501 291.257 88.8189C291.308 89.0619 291.473 89.2665 291.568 89.4973C291.753 89.9489 291.654 90.4694 291.416 90.9008C291.179 91.3321 290.82 91.6906 290.466 92.0409C290.177 92.3305 289.872 92.6282 289.479 92.774C288.708 93.0596 288.138 92.5249 287.894 91.8931C287.568 91.0506 287.102 90.0968 287.244 89.1814Z" fill="#21111D"/>
<path d="M282.742 93.7297C282.742 93.7297 280.537 99.6593 280.271 100.16C280.008 100.658 278.658 102.958 279.144 105.668C279.625 108.376 288.352 109.337 288.352 109.337L288.195 90.7507C288.195 90.7507 284.296 90.3072 282.742 93.7297Z" fill="#21111D"/>
<path d="M293.557 93.7297C293.557 93.7297 295.76 99.6593 296.027 100.16C296.293 100.658 297.641 102.958 297.157 105.668C296.673 108.376 287.946 109.337 287.946 109.337L288.106 90.7507C288.106 90.7507 292.002 90.3072 293.557 93.7297Z" fill="#21111D"/>
<path d="M291.097 106.415L285.594 106.326L285.888 102.114H290.535L291.097 106.415Z" fill="#FE9F73"/>
<path d="M285.768 103.857C286.297 104.275 287.02 104.609 287.705 104.692C287.817 104.694 287.936 104.694 288.052 104.694H288.078H288.104C288.221 104.694 288.337 104.694 288.452 104.692C289.253 104.595 290.143 104.165 290.732 103.627L290.536 102.114H285.889L285.768 103.857Z" fill="#F07162"/>
<path d="M291.721 94.8234C291.495 94.4021 291.203 94.1206 290.916 93.9323C290.333 93.6812 289.378 93.3531 288.162 93.2275H288.011C286.795 93.3531 285.841 93.6812 285.258 93.9323C284.973 94.1206 284.679 94.4021 284.454 94.8234C284.346 95.603 284.215 97.0389 284.191 98.4727C284.169 99.7607 284.539 101.036 285.297 102.079C285.867 102.865 286.687 103.57 287.823 103.673C287.903 103.675 287.985 103.675 288.069 103.675H288.087H288.104C288.186 103.675 288.268 103.675 288.348 103.673C289.486 103.57 290.305 102.865 290.875 102.079C291.635 101.036 292.004 99.7607 291.983 98.4727C291.959 97.0389 291.827 95.603 291.721 94.8234Z" fill="#FE9F73"/>
<path d="M291.035 99.3092C291.035 99.9715 291.607 100.508 292.315 100.508C293.019 100.508 293.592 99.9715 293.592 99.3092C293.592 98.647 293.019 98.1104 292.315 98.1104C291.607 98.1104 291.035 98.647 291.035 99.3092Z" fill="#FE9F73"/>
<path d="M292.408 100.048C292.678 100.048 292.855 99.8596 292.913 99.6693C292.987 99.4465 292.905 99.2298 292.71 99.1164C292.436 98.9564 292.183 99.0496 292.047 99.1306C292.101 99.003 292.186 98.9098 292.298 98.8511C292.548 98.7235 292.857 98.8167 292.859 98.8187C292.883 98.8248 292.907 98.8147 292.911 98.7944C292.92 98.7742 292.907 98.7519 292.887 98.7458C292.872 98.7418 292.542 98.6385 292.257 98.7843C292.097 98.8693 291.985 99.0172 291.931 99.2237L291.894 99.3574L291.998 99.2602C292.011 99.2501 292.313 98.9746 292.669 99.1812C292.864 99.2966 292.881 99.5052 292.836 99.649C292.79 99.7989 292.648 99.973 292.402 99.971C292.38 99.971 292.361 99.9872 292.361 100.009C292.361 100.03 292.38 100.048 292.402 100.048H292.408Z" fill="#F07162"/>
<path d="M285.469 99.3092C285.469 99.9715 284.897 100.508 284.188 100.508C283.484 100.508 282.912 99.9715 282.912 99.3092C282.912 98.647 283.484 98.1104 284.188 98.1104C284.897 98.1104 285.469 98.647 285.469 99.3092Z" fill="#FE9F73"/>
<path d="M284.095 100.048C283.826 100.048 283.648 99.8596 283.59 99.6693C283.519 99.4465 283.599 99.2298 283.793 99.1164C284.067 98.9564 284.318 99.0496 284.456 99.1306C284.4 99.003 284.318 98.9098 284.206 98.8511C283.955 98.7235 283.646 98.8167 283.644 98.8187C283.62 98.8248 283.597 98.8147 283.592 98.7944C283.586 98.7742 283.594 98.7519 283.616 98.7458C283.631 98.7418 283.962 98.6385 284.245 98.7843C284.406 98.8693 284.519 99.0172 284.573 99.2237L284.609 99.3574L284.506 99.2602C284.493 99.2501 284.191 98.9746 283.834 99.1812C283.64 99.2966 283.623 99.5052 283.666 99.649C283.715 99.7989 283.856 99.973 284.102 99.971C284.124 99.971 284.143 99.9872 284.143 100.009C284.143 100.03 284.126 100.048 284.104 100.048H284.095Z" fill="#F07162"/>
<path d="M287.922 100.473C287.946 100.473 287.966 100.457 287.968 100.437C287.974 100.415 287.959 100.39 287.933 100.386C287.631 100.325 287.443 99.9771 287.385 99.8617C287.814 99.649 288.076 99.3696 288.164 99.0334C288.307 98.4846 287.935 97.9884 287.92 97.9682C287.905 97.9499 287.877 97.9439 287.855 97.958C287.834 97.9722 287.827 98.0006 287.843 98.0188C287.847 98.0249 288.205 98.5048 288.071 99.0131C287.989 99.3331 287.732 99.5984 287.307 99.8029L287.268 99.8212L287.283 99.8576C287.292 99.8799 287.506 100.388 287.914 100.471L287.922 100.473Z" fill="#F07162"/>
<path d="M286.906 98.5455C286.906 98.6813 286.789 98.7907 286.647 98.7907C286.502 98.7907 286.383 98.6813 286.383 98.5455C286.383 98.4097 286.502 98.3003 286.647 98.3003C286.789 98.3003 286.906 98.4097 286.906 98.5455Z" fill="black"/>
<path d="M289.599 98.5943C289.599 98.7281 289.715 98.8375 289.858 98.8375C290.003 98.8375 290.122 98.7281 290.122 98.5943C290.122 98.4586 290.003 98.3491 289.858 98.3491C289.715 98.3491 289.599 98.4586 289.599 98.5943Z" fill="black"/>
<path d="M283.633 98.1505C283.633 98.1505 288.352 96.014 288.743 93.2922L288.944 93.9098C288.944 93.9098 290.579 97.9176 292.604 98.1343C292.604 98.1343 294.371 92.1257 289.298 90.9309C284.225 89.7381 283.23 94.4465 283.633 98.1505Z" fill="#21111D"/>
<path d="M287.296 100.959C287.32 100.955 288.877 100.923 288.877 100.923C288.877 100.923 288.681 101.526 288.104 101.541C287.525 101.555 287.296 100.959 287.296 100.959Z" fill="#FBFDFC"/>
<path d="M290.937 98.0675C290.914 98.0675 290.888 98.0594 290.868 98.0432C290.21 97.5166 289.27 97.8082 289.259 97.8103C289.205 97.8285 289.147 97.8001 289.128 97.7495C289.11 97.6989 289.138 97.6442 289.195 97.626C289.236 97.6138 290.253 97.2979 291.004 97.8953C291.047 97.9298 291.052 97.9925 291.017 98.031C290.996 98.0553 290.965 98.0675 290.937 98.0675Z" fill="#E23E3D"/>
<path d="M285.616 98.0472C285.586 98.0472 285.556 98.0351 285.536 98.0108C285.497 97.9703 285.506 97.9075 285.551 97.8751C286.316 97.2959 287.325 97.6321 287.368 97.6483C287.422 97.6665 287.45 97.7212 287.43 97.7718C287.409 97.8224 287.35 97.8488 287.296 97.8305C287.288 97.8265 286.355 97.5166 285.681 98.0249C285.662 98.0411 285.638 98.0472 285.616 98.0472Z" fill="#E23E3D"/>
<path d="M284.484 100.476C284.484 100.476 284.955 103.718 287.823 103.673L284.484 100.476Z" fill="#FE9F73"/>
<path d="M291.749 100.384C291.749 100.384 291.281 103.717 288.411 103.673L290.516 99.1021L291.749 100.384Z" fill="#FE9F73"/>
<path d="M291.399 91.4838C291.378 91.4838 291.358 91.4798 291.337 91.4737C289.082 90.7953 287.655 90.8621 287.145 90.9208C287.119 90.9249 287.102 90.9269 287.093 90.9269C286.979 90.933 286.882 90.852 286.873 90.7447C286.866 90.6394 286.953 90.5462 287.067 90.5381L287.093 90.5361C287.76 90.4571 289.214 90.4267 291.462 91.1031C291.572 91.1355 291.633 91.2449 291.596 91.3482C291.57 91.4312 291.488 91.4838 291.399 91.4838Z" fill="#4CB7D8"/>
<path d="M302.461 118.036C302.461 118.036 303.292 118.72 303.331 118.757C305.262 120.563 307.782 122.92 307.782 122.92L308.095 123.022L303.327 125.233C303.327 125.233 302.845 125.411 302.796 125.316C302.772 125.272 302.461 118.036 302.461 118.036ZM285.275 116.29L292.477 119.658L301.135 124.662L303.34 127.118L307.542 133.184C322.107 130.142 318.615 122.41 317.749 121.047C315.39 117.333 310.076 113.038 307.143 109.87C306.465 109.137 305.761 108.475 305.087 107.896C303.083 106.168 300.45 105.225 297.727 105.225H291L285.275 116.29Z" fill="#0089C9"/>
<path d="M273.147 125.316C273.097 125.411 272.615 125.233 272.615 125.233L267.847 123.022L268.16 122.92C268.16 122.92 270.68 120.563 272.611 118.757C272.65 118.72 273.479 118.036 273.479 118.036C273.479 118.036 273.17 125.272 273.147 125.316ZM284.942 105.225H278.213C275.492 105.225 272.859 106.168 270.853 107.896C270.181 108.475 269.477 109.137 268.799 109.87C265.867 113.038 260.552 117.333 258.194 121.047C257.328 122.41 253.833 130.142 268.398 133.184L272.602 127.118L274.807 124.662L283.465 119.658L290.667 116.29L284.942 105.225Z" fill="#0089C9"/>
<path d="M276.76 193.027L285.735 190.392L282.448 180.525L273.108 181.996L276.76 193.027Z" fill="#FE9F73"/>
<path d="M270.767 200.289L286.882 191.186L284.947 188.17C284.947 188.17 282.845 187.385 281.535 189.132C281.535 189.132 280.034 192.403 276.289 191.623L271.851 197.375C271.851 197.375 270.108 199.262 270.767 200.289Z" fill="#21111D"/>
<path d="M287.559 192.239L271.101 201.536C270.905 201.649 270.645 201.589 270.529 201.402L270.283 201.02C270.162 200.833 270.227 200.594 270.425 200.483L286.881 191.186L287.559 192.239Z" fill="#683D46"/>
<path d="M279.543 165.436L275.382 157.505L284.34 153.374L288.499 161.304L279.543 165.436Z" fill="#FE9F73"/>
<path d="M290.713 150.999C290.505 150.999 282.891 154.162 282.891 154.162L280.465 155.649C280.465 155.649 284.173 179.337 284.86 185.663C284.86 185.663 279.491 189.215 274.056 189.343C274.056 189.343 262.834 152.668 262.834 148.01C262.834 143.35 286.7 132.313 286.7 132.313L297.559 138.19C297.559 138.19 313.874 139.448 317.628 141.835C321.379 144.221 288.497 158.186 288.497 158.186L290.713 150.999Z" fill="#012C40"/>
<path d="M282.325 153.275C282.325 153.275 300.746 142.975 307.078 141.371C313.412 139.767 317.954 141.122 318.643 142.995C319.331 144.866 320.02 150.16 318.643 151.904C317.267 153.645 293.244 161.973 287.734 163.392C287.734 163.392 282.834 158.052 282.325 153.275Z" fill="#012C40"/>
<path d="M318.349 142.781C316.894 140.024 301.733 138.619 300.856 138.743C300.783 138.769 300.699 138.745 300.653 138.682C300.6 138.607 300.619 138.506 300.699 138.455C300.964 138.287 305.217 138.769 305.26 138.773C307.072 138.984 310.553 139.443 313.497 140.172C316.444 140.901 318.181 141.73 318.662 142.635C318.703 142.716 318.667 142.813 318.582 142.854C318.557 142.866 318.531 142.87 318.505 142.87C318.44 142.87 318.377 142.837 318.349 142.781Z" fill="#21111D"/>
<path d="M284.165 158.399C284.195 158.399 284.227 158.391 284.255 158.374C284.337 158.324 284.361 158.225 284.311 158.148C282.804 155.928 282.528 153.611 282.487 153.129C283.502 152.491 293.68 146.167 308.043 140.405C308.13 140.371 308.171 140.274 308.132 140.193C308.095 140.108 307.994 140.071 307.903 140.106C292.801 146.165 282.31 152.846 282.208 152.913L282.126 152.963L282.13 153.054C282.137 153.164 282.286 155.772 284.016 158.324C284.048 158.372 284.104 158.399 284.165 158.399Z" fill="#21111D"/>
<path d="M304.761 141.689C304.815 141.689 304.865 141.667 304.901 141.626C305.564 140.831 306.8 140.15 306.813 140.144C306.895 140.1 306.923 139.998 306.875 139.919C306.825 139.842 306.72 139.816 306.638 139.861C306.584 139.891 305.333 140.579 304.627 141.424C304.567 141.497 304.579 141.598 304.655 141.655C304.687 141.677 304.724 141.689 304.761 141.689Z" fill="#21111D"/>
<path d="M266.867 165.094L266.908 165.09C267.003 165.069 267.059 164.98 267.037 164.893C267 164.753 263.433 150.905 262.988 148.518C262.565 146.229 267.808 142.876 267.864 142.843C267.944 142.793 267.961 142.689 267.91 142.614C267.856 142.542 267.748 142.521 267.668 142.572C267.445 142.714 262.182 146.08 262.647 148.574C263.089 150.972 266.661 164.83 266.698 164.97C266.715 165.045 266.789 165.094 266.867 165.094Z" fill="#21111D"/>
<path d="M278.265 157.044C278.297 157.044 278.33 157.036 278.358 157.019L282.599 154.48C282.679 154.431 282.705 154.33 282.651 154.253C282.599 154.178 282.494 154.156 282.411 154.203L278.172 156.744C278.09 156.793 278.066 156.894 278.118 156.969C278.151 157.019 278.209 157.044 278.265 157.044Z" fill="#21111D"/>
<path d="M274.036 189.505H274.062C274.373 189.464 281.791 188.498 284.962 185.784L285.031 185.728L285.018 185.641L281.817 163.37L280.867 155.452C280.854 155.361 280.772 155.296 280.675 155.308C280.578 155.318 280.508 155.399 280.519 155.488L281.472 163.413L284.659 185.6C281.53 188.203 274.088 189.171 274.012 189.181C273.92 189.193 273.85 189.276 273.863 189.363C273.876 189.446 273.95 189.505 274.036 189.505Z" fill="#21111D"/>
<path d="M316.012 152.22C316.047 152.22 316.084 152.21 316.116 152.19C318.099 150.819 318.086 149.638 318.084 149.587C318.081 149.496 317.997 149.421 317.904 149.429C317.807 149.431 317.732 149.506 317.734 149.595C317.734 149.614 317.723 150.673 315.909 151.926C315.831 151.979 315.816 152.082 315.872 152.155C315.907 152.198 315.958 152.22 316.012 152.22Z" fill="#21111D"/>
<path d="M314.228 151.914C314.259 151.914 314.287 151.908 314.31 151.896C316.487 150.813 316.658 149.642 316.664 149.591C316.675 149.502 316.608 149.421 316.511 149.411C316.418 149.401 316.332 149.464 316.319 149.553C316.317 149.569 316.137 150.616 314.148 151.606C314.064 151.649 314.032 151.748 314.077 151.827C314.107 151.884 314.168 151.914 314.228 151.914Z" fill="#21111D"/>
<path d="M273.147 125.316L272.911 139.35C272.911 139.35 289.045 142.115 303.411 138.53C303.763 138.443 302.737 124.717 302.737 124.717C302.737 124.717 302.737 122.053 301.241 121.231C299.744 120.409 287.601 106.12 287.309 106.12C287.015 106.12 273.147 125.316 273.147 125.316Z" fill="#0089C9"/>
<path d="M288.262 109.87C288.173 109.87 288.095 109.803 288.089 109.716C288.082 109.625 288.156 109.548 288.253 109.542C293.553 109.23 295.285 105.826 295.302 105.791C295.341 105.708 295.444 105.674 295.531 105.71C295.617 105.749 295.658 105.844 295.617 105.927C295.598 105.963 293.79 109.544 288.272 109.868L288.262 109.87Z" fill="#21111D"/>
<path d="M282.42 105.225H294.108C294.108 105.225 291.993 108.655 287.957 108.639C286.102 108.633 284.122 107.995 282.42 105.225Z" fill="#FE9F73"/>
<path d="M281.269 123.514L275.01 122.274C275.01 122.274 276.928 128.206 276.764 128.234C275.71 128.425 271.667 132.694 277.893 132.483C278.019 132.479 281.604 131.833 281.604 131.833L281.269 123.514Z" fill="#4CB7D8"/>
<path d="M292.136 123.125L293.963 131.334C293.963 131.334 297.72 128.465 297.72 128.153C297.72 127.839 296.531 124.022 296.405 123.949C296.28 123.874 292.136 123.125 292.136 123.125Z" fill="#4CB7D8"/>
<path d="M275.909 118.097V116.934L287.851 120.563L282.847 125.158L275.909 118.097Z" fill="#DCF4FF"/>
<path d="M300.245 118.097V116.934L288.303 120.563L293.307 125.158L300.245 118.097Z" fill="#DCF4FF"/>
<path d="M275.393 117.333C275.393 117.76 276.304 134.682 276.304 134.682L287.979 137.525V120.889L275.393 117.333Z" fill="#012C40"/>
<path d="M300.567 117.333C300.567 117.76 299.658 134.682 299.658 134.682L287.979 137.525V120.889L300.567 117.333Z" fill="#012C40"/>
<path d="M288.733 137.525H287.383C287.229 137.525 287.102 137.408 287.102 137.264V120.791C287.102 120.664 287.214 120.562 287.348 120.562H288.767C288.903 120.562 289.011 120.664 289.011 120.791V137.264C289.011 137.408 288.888 137.525 288.733 137.525Z" fill="#21111D"/>
<path d="M287.102 123.248H289.011V122.424H287.102V123.248Z" fill="#012C40"/>
<path d="M287.102 136.163H289.011V135.34H287.102V136.163Z" fill="#012C40"/>
<path d="M282.126 129.212C282.865 128.508 282.18 127.612 282.18 127.612C282.329 127.035 282.308 126.634 282.258 126.387C282.223 126.217 282.042 126.112 281.865 126.162C281.055 126.391 278.71 127.062 277.263 127.564C276.263 127.422 275.911 126.964 275.911 126.964L275.885 127.003C275.865 126.191 275.842 125.176 275.842 125.061C275.842 124.868 275.511 124.556 274.995 125.17C274.479 125.784 273.479 127.43 273.479 127.43H270.46L268.799 132.821C268.799 132.821 275.062 133.651 276.027 133.716C276.988 133.781 280.344 133.04 281.342 132.264C282.342 131.491 282.126 130.796 282.126 130.796C282.865 129.96 282.126 129.212 282.126 129.212Z" fill="#F78C63"/>
<path d="M280.06 128.659C280.01 128.659 279.965 128.631 279.95 128.584C279.93 128.528 279.96 128.465 280.023 128.447C280.88 128.187 282.111 127.525 282.122 127.519C282.178 127.489 282.25 127.507 282.282 127.56C282.312 127.612 282.293 127.677 282.239 127.707C282.187 127.736 280.975 128.388 280.097 128.655L280.06 128.659Z" fill="#F07162"/>
<path d="M280.06 130.039C280.003 130.039 279.954 130.002 279.945 129.949C279.934 129.891 279.973 129.834 280.038 129.824C281.116 129.636 282.059 129.123 282.066 129.119C282.124 129.087 282.193 129.105 282.226 129.158C282.258 129.208 282.239 129.275 282.185 129.305C282.144 129.328 281.198 129.842 280.081 130.037L280.06 130.039Z" fill="#F07162"/>
<path d="M280.319 131.612C280.263 131.612 280.215 131.577 280.204 131.527C280.189 131.468 280.23 131.409 280.293 131.397C281.217 131.209 282.055 130.708 282.062 130.704C282.118 130.672 282.189 130.686 282.224 130.737C282.258 130.787 282.243 130.854 282.189 130.887C282.152 130.909 281.306 131.413 280.34 131.61L280.319 131.612Z" fill="#F07162"/>
<path d="M274.213 125.978L273.479 133.72C273.479 133.72 270.868 133.989 265.83 132.549C260.789 131.107 264.97 123.367 265.277 123.248C265.586 123.126 268.935 123.521 268.935 123.521L274.213 125.978Z" fill="#0089C9"/>
<path d="M273.622 133.866L273.475 133.862C272.928 133.844 260.077 133.354 257.548 126.999C257.507 126.928 256.44 124.868 257.576 121.946C258.703 119.05 266.605 111.855 266.942 111.549C267.067 111.415 270.238 108.043 271.788 107.002C271.855 106.958 271.95 106.972 271.998 107.035C272.045 107.1 272.03 107.187 271.963 107.233C270.441 108.254 267.19 111.709 267.158 111.745C267.069 111.826 258.962 119.208 257.859 122.043C256.77 124.846 257.813 126.867 257.824 126.887C260.148 132.724 271.894 133.499 273.339 133.572C273.494 131.608 273.978 126.802 274.051 126.061C269.082 123.712 264.217 121.535 264.167 121.513C264.094 121.48 264.061 121.395 264.098 121.324C264.132 121.253 264.223 121.225 264.299 121.257C264.346 121.28 269.274 123.483 274.278 125.853L274.371 125.897L274.36 125.992C274.354 126.049 273.784 131.721 273.63 133.73L273.622 133.866Z" fill="black"/>
<path d="M268.076 123.266C268.037 123.266 267.998 123.254 267.97 123.228C267.91 123.173 267.907 123.082 267.966 123.028L273.345 117.841C273.406 117.784 273.501 117.784 273.559 117.839C273.622 117.894 273.622 117.983 273.563 118.04L268.182 123.224C268.154 123.252 268.113 123.266 268.076 123.266Z" fill="black"/>
<path d="M273.147 125.626H273.141C273.056 125.624 272.991 125.557 272.996 125.48L273.331 117.327C273.333 117.25 273.393 117.187 273.486 117.191C273.568 117.195 273.633 117.26 273.631 117.339L273.298 125.49C273.294 125.567 273.227 125.626 273.147 125.626Z" fill="black"/>
<path d="M268.162 123.062C268.11 123.062 268.061 123.038 268.032 122.995L267.11 121.622C267.065 121.555 267.084 121.468 267.156 121.428C267.227 121.385 267.32 121.405 267.365 121.472L268.287 122.845C268.331 122.912 268.311 122.999 268.242 123.04C268.216 123.054 268.188 123.062 268.162 123.062Z" fill="black"/>
<path d="M293.816 129.212C293.075 128.508 293.762 127.612 293.762 127.612C293.652 127.189 293.632 126.861 293.652 126.618C293.673 126.328 293.982 126.136 294.28 126.219C295.228 126.488 297.338 127.098 298.677 127.564C299.677 127.422 300.031 126.964 300.031 126.964L300.055 127.003C300.077 126.191 300.1 125.176 300.1 125.061C300.1 124.868 300.431 124.556 300.947 125.17C301.463 125.784 302.461 127.43 302.461 127.43H305.482L307.143 132.821C307.143 132.821 300.88 133.651 299.915 133.716C298.951 133.781 295.595 133.04 294.598 132.264C293.6 131.491 293.816 130.796 293.816 130.796C293.075 129.96 293.816 129.212 293.816 129.212Z" fill="#F78C63"/>
<path d="M295.883 128.659C295.933 128.659 295.976 128.631 295.993 128.584C296.013 128.528 295.98 128.465 295.917 128.447C295.062 128.187 293.831 127.525 293.821 127.519C293.764 127.489 293.693 127.507 293.661 127.56C293.63 127.612 293.648 127.677 293.704 127.707C293.756 127.736 294.967 128.388 295.846 128.655L295.883 128.659Z" fill="#F07162"/>
<path d="M295.883 130.039C295.939 130.039 295.986 130.002 295.997 129.949C296.008 129.891 295.969 129.834 295.902 129.824C294.827 129.636 293.883 129.123 293.874 129.119C293.818 129.087 293.749 129.105 293.714 129.158C293.684 129.208 293.704 129.275 293.758 129.305C293.797 129.328 294.745 129.842 295.861 130.037L295.883 130.039Z" fill="#F07162"/>
<path d="M295.624 131.612C295.678 131.612 295.727 131.577 295.738 131.527C295.751 131.468 295.712 131.409 295.649 131.397C294.725 131.209 293.887 130.708 293.879 130.704C293.825 130.672 293.753 130.686 293.717 130.737C293.684 130.787 293.699 130.854 293.753 130.887C293.788 130.909 294.637 131.413 295.6 131.61L295.624 131.612Z" fill="#F07162"/>
<path d="M301.729 125.978L302.461 133.72C302.461 133.72 305.072 133.989 310.113 132.549C315.153 131.107 310.972 123.367 310.663 123.248C310.357 123.126 307.007 123.521 307.007 123.521L301.729 125.978Z" fill="#0089C9"/>
<path d="M302.321 133.866L302.31 133.73C302.157 131.721 301.587 126.049 301.58 125.992L301.569 125.897L301.662 125.853C306.668 123.483 311.596 121.28 311.644 121.257C311.719 121.225 311.81 121.253 311.845 121.324C311.881 121.395 311.849 121.48 311.773 121.513C311.726 121.535 306.86 123.712 301.891 126.061C301.965 126.802 302.448 131.608 302.602 133.572C304.046 133.499 315.795 132.726 318.112 126.902C318.129 126.867 319.17 124.846 318.082 122.043C316.98 119.208 308.873 111.826 308.791 111.753C308.752 111.709 305.5 108.254 303.979 107.233C303.91 107.187 303.897 107.1 303.945 107.035C303.992 106.972 304.087 106.958 304.154 107.002C305.705 108.043 308.875 111.415 309.009 111.557C309.337 111.855 317.239 119.05 318.367 121.946C319.503 124.868 318.434 126.928 318.388 127.013C315.866 133.354 303.014 133.844 302.468 133.862L302.321 133.866Z" fill="black"/>
<path d="M307.866 123.266C307.828 123.266 307.789 123.252 307.758 123.224L302.379 118.04C302.321 117.983 302.321 117.894 302.381 117.839C302.442 117.784 302.537 117.784 302.595 117.841L307.974 123.028C308.033 123.082 308.033 123.173 307.972 123.228C307.944 123.254 307.903 123.266 307.866 123.266Z" fill="black"/>
<path d="M302.796 125.626C302.716 125.626 302.649 125.567 302.644 125.49L302.31 117.339C302.307 117.26 302.372 117.195 302.454 117.191C302.551 117.187 302.61 117.25 302.612 117.327L302.947 125.48C302.951 125.557 302.884 125.624 302.8 125.626H302.796Z" fill="black"/>
<path d="M307.78 123.062C307.752 123.062 307.726 123.054 307.7 123.04C307.631 122.999 307.609 122.912 307.655 122.845L308.577 121.472C308.622 121.405 308.713 121.385 308.784 121.428C308.855 121.468 308.877 121.555 308.832 121.622L307.907 122.995C307.881 123.038 307.83 123.062 307.78 123.062Z" fill="black"/>
<path d="M111.346 292.123L124.517 292.293L124.707 280.746L111.585 279.221L111.346 292.123Z" fill="#FE9F73"/>
<path d="M98.6561 296.412L125.355 293.362L124.707 288.368C124.707 288.368 122.453 286.193 119.654 287.755C119.654 287.755 115.661 291.201 111.262 288.131L101.887 293.206C101.887 293.206 98.4358 294.713 98.6561 296.412Z" fill="#21111D"/>
<path d="M125.582 295.11L97.9691 298.263C97.8331 298.279 97.71 298.188 97.6927 298.059L97.5264 296.775C97.5091 296.647 97.6063 296.532 97.7424 296.515L125.355 293.362L125.582 295.11Z" fill="#472A31"/>
<path d="M108.486 289.634C109.551 290.831 111.689 293.237 113.047 294.77L114.868 294.561C113.652 293.194 111.106 290.327 109.84 288.901L108.486 289.634Z" fill="#D7E4F7"/>
<path d="M110.13 295.102L111.95 294.896C110.961 293.782 109.035 291.611 107.67 290.074L106.316 290.809C107.461 292.099 109.05 293.887 110.13 295.102Z" fill="#D7E4F7"/>
<path d="M152.311 250.948C152.311 250.948 163.649 251.122 171.598 250.867C174.149 250.784 176.419 250.954 177.762 250.674C183.295 249.522 184.657 233.329 178.377 223.408C172.095 213.488 150.119 243.947 150.119 243.947L152.311 250.948Z" fill="#012C40"/>
<path d="M131.791 292.123L144.964 292.293L145.152 280.746L132.03 279.221L131.791 292.123Z" fill="#FE9F73"/>
<path d="M120.051 297.67L146.413 292.676L145.351 287.744C145.351 287.744 142.923 285.742 140.265 287.503C140.265 287.503 136.568 291.23 131.927 288.492L123.005 294.235C123.005 294.235 119.688 295.995 120.051 297.67Z" fill="#21111D"/>
<path d="M146.785 294.401L119.522 299.565C119.386 299.592 119.254 299.511 119.229 299.385L118.954 298.117C118.928 297.99 119.015 297.866 119.149 297.84L146.414 292.676L146.785 294.401Z" fill="#683D46"/>
<path d="M129.286 290.193C130.448 291.308 132.778 293.55 134.261 294.978L136.058 294.636C134.734 293.362 131.957 290.691 130.575 289.362L129.286 290.193Z" fill="#D7E4F7"/>
<path d="M131.38 295.523L133.177 295.183C132.099 294.146 129.996 292.123 128.508 290.693L127.219 291.523C128.469 292.726 130.203 294.391 131.38 295.523Z" fill="#D7E4F7"/>
<path d="M140.101 229.276C140.101 229.276 112.246 230.947 111.443 233.963C110.64 236.98 108.335 269.046 110.059 282.726C110.059 282.726 120.626 283.408 125.679 282.26L126.91 248.902L135.252 248.005L154.363 226.461L140.101 229.276Z" fill="#012C40"/>
<path d="M153.483 228.785C153.483 228.785 132.002 234.467 131.199 237.485C130.393 240.5 128.104 269.119 129.827 282.799C129.827 282.799 141.191 283.409 146.245 282.261L147.607 250.794L152.509 250.954L164.396 231.344L153.483 228.785Z" fill="#012C40"/>
<path d="M139.427 283.172C144.448 283.172 146.238 282.461 146.325 282.425L146.435 282.38L147.754 250.729L145.679 251.648L145.845 251.976L147.342 251.314L146.057 282.133C145.515 282.307 142.91 283.012 136.76 282.747L136.74 283.111C137.725 283.152 138.617 283.172 139.427 283.172Z" fill="#21111D"/>
<path d="M144.137 276.345C144.673 274.407 144.826 255.498 144.832 254.696L144.444 254.692C144.442 254.889 144.286 274.359 143.761 276.254L144.137 276.345Z" fill="#21111D"/>
<path d="M124.174 249.615C126.72 248.842 130.227 248.724 130.262 248.724L130.249 248.362C130.214 248.362 126.655 248.479 124.055 249.267L124.174 249.615Z" fill="#21111D"/>
<path d="M118.442 283.103C122.733 283.103 125.696 282.443 125.726 282.437L125.869 282.405L127.113 248.676L125.523 249.875L125.767 250.158L126.696 249.457L125.491 282.113C124.834 282.247 121.971 282.775 118.066 282.739L118.062 283.101C118.189 283.103 118.317 283.103 118.442 283.103Z" fill="#21111D"/>
<path d="M123.845 277.048C124.379 274.119 123.869 254.301 123.848 253.459L123.461 253.467C123.465 253.674 123.99 274.095 123.463 276.987L123.845 277.048Z" fill="#21111D"/>
<path d="M160.841 251.286C165.791 251.286 171.721 251.128 178.39 250.658L178.362 250.295C158.492 251.701 145.167 250.312 145.035 250.297L144.992 250.656C145.081 250.666 151.02 251.286 160.841 251.286Z" fill="#21111D"/>
<path d="M154.041 218.628C153.657 218.622 138.229 224.844 138.229 224.844L141.336 230.425L149.996 228.643L154.041 218.628Z" fill="#0089C9"/>
<path d="M176.397 192.697C176.397 192.697 182.96 192.482 186.091 194.147C190.765 196.627 189.1 210.85 189.1 210.85C189.1 210.85 185.128 208.817 184.886 208.14C184.644 207.462 176.397 192.697 176.397 192.697Z" fill="#0089C9"/>
<path d="M177.988 223.566L177.964 223.572L173.138 224.609C173.041 224.629 172.943 224.57 172.922 224.481C172.9 224.39 172.961 224.301 173.058 224.279L177.885 223.242C177.982 223.222 178.079 223.278 178.103 223.369C178.12 223.453 178.072 223.538 177.988 223.566Z" fill="#21111D"/>
<path d="M146.986 221.413C146.895 221.444 146.791 221.403 146.754 221.316C146.718 221.229 146.763 221.132 146.856 221.095L152.071 219.145C152.169 219.115 152.27 219.153 152.307 219.24C152.343 219.325 152.298 219.425 152.205 219.459L146.99 221.411L146.986 221.413Z" fill="#21111D"/>
<path d="M145.018 224.615C145.018 224.615 143.131 228.791 144.511 237.165L151.41 233.693L149.361 227.436L145.018 224.615Z" fill="#FD7583"/>
<path d="M178.081 239.682C177.658 239.832 177.256 239.949 176.889 240.042C174.68 240.591 173.136 240.362 173.071 240.352C172.972 240.336 172.905 240.251 172.922 240.158C172.937 240.065 173.03 240.002 173.129 240.018C173.145 240.02 174.676 240.245 176.816 239.71C178.788 239.216 181.701 237.952 184.362 234.751C187.705 230.731 188.929 218.355 188.957 208.977C188.957 208.881 189.039 208.809 189.139 208.809C189.238 208.809 189.318 208.886 189.318 208.977C189.29 218.408 188.048 230.873 184.649 234.959C182.411 237.649 179.997 239.003 178.081 239.682Z" fill="#21111D"/>
<path d="M133.356 211.413L133.004 211.338L125.677 212.565C125.677 212.565 126.078 212.652 126.1 212.652C126.122 212.652 133.356 211.413 133.356 211.413Z" fill="#105E5A"/>
<path d="M130.039 234.656L137.928 231.766L133.356 211.413L125.59 212.652L130.039 234.656Z" fill="#DCF4FF"/>
<path d="M133.62 212.899L133.751 212.873L133.412 211.36L133.006 211.273L132.993 211.275L125.713 212.484L125.737 212.61L133.004 211.403L133.298 211.465L133.62 212.899Z" fill="black"/>
<path d="M130.039 234.656H145.692L141.245 212.652H125.59L130.039 234.656Z" fill="#012C40"/>
<path d="M133.367 232.666C133.347 232.188 133.788 231.771 134.295 231.741L137.442 231.542C137.539 231.536 137.623 231.471 137.649 231.382C137.688 231.249 137.587 231.119 137.442 231.109L132.784 230.819C132.25 230.785 131.928 230.364 132.067 229.88C132.205 229.396 132.756 229.025 133.289 229.06L138.038 229.353C138.148 229.359 138.247 229.292 138.276 229.193L138.297 229.122C138.33 229.005 138.256 228.887 138.133 228.857L133.041 227.573C132.55 227.45 132.205 226.959 132.322 226.494C132.447 226.002 132.98 225.706 133.499 225.838L138.628 227.13C138.751 227.162 138.878 227.093 138.91 226.976L138.975 226.749C139.005 226.646 138.949 226.536 138.841 226.494L134.289 224.724C133.818 224.541 133.544 224.015 133.725 223.567C133.915 223.093 134.485 222.865 134.982 223.059C134.982 223.059 141.984 225.384 143.126 225.665L141.02 224.742C139.47 226.105 141.219 224.244 142.495 224.005C143.908 223.737 147.64 226.978 147.64 226.978C147.812 227.255 147.635 227.879 147.365 228.349C146.324 233.533 146.117 234.325 145.7 235.698L139.947 234.052C138.288 233.578 136.55 233.389 134.818 233.501L134.382 233.525C133.848 233.561 133.386 233.173 133.367 232.666Z" fill="#FE9F73"/>
<path d="M143.483 223.726L143.876 225.915L140.533 224.868L140.561 223.491L143.483 223.726Z" fill="#0089C9"/>
<path d="M141.217 212.661L140.936 212.565H125.677L125.59 212.653L141.217 212.661Z" fill="#105E5A"/>
<path d="M143.755 225.615L143.889 225.592L141.31 212.64L141.178 212.664L143.755 225.615Z" fill="black"/>
<path d="M129.983 234.72L138.584 234.641L138.582 234.514L130.095 234.593L127.81 223.284L127.676 223.308L129.983 234.72Z" fill="black"/>
<path d="M127.981 215.202L128.879 214.011L128.769 213.936L127.871 215.129L127.981 215.202Z" fill="black"/>
<path d="M140.866 222.612L141.764 221.423L141.654 221.348L140.755 222.539L140.866 222.612Z" fill="black"/>
<path d="M139.833 223.096L140.731 221.907L140.619 221.834L139.721 223.023L139.833 223.096Z" fill="black"/>
<path d="M128.113 216.121L129.011 214.93L128.901 214.857L128.002 216.046L128.113 216.121Z" fill="black"/>
<path d="M182.748 193.806C179.021 193.32 169.18 192.986 169.18 192.986C169.18 192.986 167.877 193.308 168.292 193.128C157.425 194.926 156.224 202.482 156.224 202.482L150.92 224.315L145.018 224.615C143.109 228.009 144.511 237.164 144.511 237.164L173.099 240.186C173.099 240.186 179.278 241.142 184.506 234.856C187.964 230.698 189.141 217.932 189.139 208.602C189.139 208.602 188.545 194.557 182.748 193.806Z" fill="#0089C9"/>
<path d="M173.141 224.694C173.106 224.706 173.071 224.708 173.033 224.7C172.935 224.68 172.875 224.586 172.899 224.497C172.931 224.376 175.918 212.468 177.188 204.973C177.205 204.88 177.298 204.817 177.395 204.831C177.494 204.847 177.561 204.932 177.544 205.026C176.272 212.533 173.281 224.455 173.251 224.572C173.236 224.631 173.192 224.675 173.141 224.694Z" fill="#21111D"/>
<path d="M154.648 224.498C154.611 224.51 154.57 224.512 154.529 224.5C154.434 224.473 154.382 224.378 154.412 224.289C154.456 224.157 158.889 210.968 159.816 206.407C159.833 206.316 159.928 206.255 160.025 206.273C160.125 206.289 160.187 206.379 160.17 206.47C159.239 211.051 154.801 224.259 154.756 224.39C154.739 224.441 154.697 224.481 154.648 224.498Z" fill="#21111D"/>
<path d="M172.669 199.388C172.529 199.4 172.387 199.412 172.242 199.422C172.16 199.426 172.088 199.369 172.082 199.29C172.076 199.213 172.136 199.147 172.22 199.141C178.44 198.731 179.593 194.462 179.602 194.422C179.619 194.345 179.695 194.292 179.774 194.307C179.854 194.319 179.911 194.388 179.9 194.464C179.893 194.507 178.744 198.796 172.669 199.388Z" fill="#21111D"/>
<path d="M153.378 221.35C153.298 221.379 153.203 221.35 153.16 221.278L151.946 219.329L151.964 219.265L156.047 202.452C156.073 202.3 156.427 200.342 158.198 198.181C159.859 196.156 163.133 193.58 169.301 192.81C169.402 192.798 169.493 192.863 169.506 192.956C169.519 193.049 169.448 193.132 169.35 193.146C163.314 193.898 160.116 196.403 158.496 198.373C156.743 200.506 156.406 202.488 156.404 202.508L156.402 202.523L152.331 219.275L153.471 221.105C153.521 221.188 153.493 221.292 153.406 221.338L153.378 221.35Z" fill="#21111D"/>
<path d="M179.373 224.844C179.351 224.852 179.33 224.856 179.304 224.854C179.045 224.85 153.503 224.129 145.146 224.775C144.94 225.289 143.997 227.948 144.26 232.812C144.267 232.904 144.189 232.985 144.09 232.989C143.99 232.993 143.906 232.922 143.9 232.829C143.601 227.316 144.802 224.657 144.852 224.548L144.895 224.455L145.003 224.447C153.264 223.782 179.056 224.509 179.317 224.515C179.414 224.519 179.494 224.596 179.49 224.692C179.487 224.763 179.44 224.821 179.373 224.844Z" fill="#21111D"/>
<path d="M167.534 180.552V187.595C167.534 187.595 167.426 189.975 169.648 190.27L169.231 193.448C169.078 194.626 169.832 195.756 171.041 196.117C171.631 196.291 172.339 196.419 173.138 196.419C175.676 196.419 177.051 194.635 177.263 193.741C177.472 192.848 176.84 188.585 176.84 188.585L176.917 186.489L176.628 178.371L167.534 180.552Z" fill="#FE9F73"/>
<path d="M173.661 184.074C173.687 184.074 173.715 184.063 173.734 184.043C173.775 184.007 173.777 183.944 173.738 183.905C173.723 183.891 172.268 182.494 170.94 183.5C170.894 183.535 170.886 183.596 170.922 183.638C170.959 183.683 171.026 183.689 171.071 183.654C172.248 182.763 173.529 183.989 173.585 184.043C173.605 184.061 173.633 184.074 173.661 184.074Z" fill="#21111D"/>
<path d="M169.3 183.478C169.331 183.478 169.361 183.466 169.38 183.441C169.419 183.401 169.415 183.34 169.372 183.302C169.326 183.269 168.318 182.459 167.681 182.972C167.635 183.008 167.631 183.071 167.67 183.111C167.707 183.152 167.774 183.158 167.819 183.124C168.318 182.721 169.221 183.446 169.231 183.454C169.251 183.47 169.277 183.478 169.3 183.478Z" fill="#21111D"/>
<path d="M171.522 184.472C171.522 184.638 171.663 184.77 171.84 184.77C172.013 184.77 172.155 184.638 172.155 184.472C172.155 184.31 172.013 184.177 171.84 184.177C171.663 184.177 171.522 184.31 171.522 184.472Z" fill="black"/>
<path d="M168.149 184.177C168.149 184.341 168.29 184.472 168.467 184.472C168.642 184.472 168.784 184.341 168.784 184.177C168.784 184.011 168.642 183.879 168.467 183.879C168.29 183.879 168.149 184.011 168.149 184.177Z" fill="black"/>
<path d="M176.332 178.761L174.561 181.113C174.561 181.113 169.197 183.065 166.448 180.752C163.699 178.437 164.545 177.326 165.351 176.167C165.746 175.596 167.644 174.434 169.97 175.402C171.242 175.93 172.179 174.355 173.661 175.147C175.14 175.94 176.887 177.313 176.693 177.858C176.498 178.401 176.332 178.761 176.332 178.761Z" fill="#21111D"/>
<path d="M176.224 177.769C176.224 177.769 178.667 177.66 179.347 179.863C180.029 182.066 179.114 183.223 179.09 183.879C179.066 184.535 179.541 188.964 176.224 188.634L175.33 181.317L176.483 178.405L176.224 177.769Z" fill="#21111D"/>
<path d="M174.142 184.371C174.142 185.355 174.993 186.155 176.047 186.155C177.096 186.155 177.949 185.355 177.949 184.371C177.949 183.383 177.096 182.585 176.047 182.585C174.993 182.585 174.142 183.383 174.142 184.371Z" fill="#FE9F73"/>
<path d="M176.188 185.465C176.583 185.465 176.846 185.185 176.933 184.908C177.036 184.578 176.92 184.256 176.635 184.092C176.211 183.845 175.829 184.003 175.633 184.124C175.715 183.922 175.844 183.774 176.017 183.685C176.393 183.492 176.859 183.632 176.861 183.634C176.889 183.644 176.922 183.628 176.93 183.602C176.937 183.575 176.924 183.549 176.896 183.539C176.874 183.533 176.384 183.383 175.967 183.598C175.728 183.721 175.563 183.94 175.481 184.248L175.436 184.42L175.57 184.294C175.589 184.276 176.043 183.863 176.576 184.177C176.872 184.347 176.9 184.661 176.831 184.878C176.762 185.104 176.55 185.366 176.188 185.366L176.177 185.364C176.147 185.364 176.125 185.386 176.125 185.412C176.123 185.441 176.147 185.465 176.177 185.465H176.188Z" fill="#F07162"/>
<path d="M174.796 188.25C174.796 188.25 174.647 192.231 169.341 192.614L169.648 190.271C169.648 190.271 173.088 190.921 174.796 188.25Z" fill="#F07162"/>
<path d="M170.402 186.481C170.426 186.481 170.447 186.467 170.454 186.445C170.46 186.421 170.447 186.392 170.419 186.384L169.361 186.054L169.694 183.715C169.698 183.689 169.676 183.662 169.65 183.66C169.62 183.654 169.592 183.674 169.59 183.703L169.242 186.123L170.387 186.477L170.402 186.481Z" fill="#F07162"/>
<path d="M171.223 187.447C171.192 187.441 169.13 187.395 169.13 187.395C169.13 187.395 169.387 188.194 170.156 188.213C170.92 188.231 171.223 187.447 171.223 187.447Z" fill="#FBFDFC"/>
<path d="M158.282 70.7363L209.521 29.9985L206.195 26.3208L154.958 67.0586L158.282 70.7363Z" fill="#0089C9"/>
<path d="M212.648 25.1036C214.997 27.7464 218.498 38.1536 215.682 40.359C212.866 42.5623 204.798 35.7275 202.446 33.0867C200.096 30.4439 200.474 26.5171 203.29 24.3117C206.106 22.1084 210.296 22.4628 212.648 25.1036Z" fill="#012C40"/>
<path d="M214.285 40.9419C214.857 40.9419 215.371 40.8041 215.79 40.4781L215.574 40.2391C214.123 41.3752 211.192 39.8726 208.985 38.4125C206.456 36.7377 203.845 34.4148 202.573 32.9871C200.286 30.4152 200.656 26.5775 203.396 24.4309L203.185 24.1919C200.302 26.4479 199.915 30.482 202.321 33.1856C203.604 34.6295 206.24 36.9746 208.795 38.6656C210.501 39.7956 212.637 40.9419 214.285 40.9419Z" fill="black"/>
<path d="M201.383 137.193H210.244C210.95 137.193 211.523 137.73 211.523 138.392V139.006H200.107V138.392C200.107 137.73 200.679 137.193 201.383 137.193Z" fill="#FF424D"/>
<path d="M231.987 45.9889C235.367 49.7881 234.822 55.4362 230.771 58.6076C226.72 61.7769 220.694 61.2686 217.312 57.4694C213.933 53.6703 214.477 48.0201 218.528 44.8487C222.58 41.6794 228.605 42.1897 231.987 45.9889Z" fill="#FDFFDC"/>
<path d="M206.895 31.7744C195.14 40.9706 193.566 57.3601 203.37 68.3809L245.927 35.0774C236.123 24.0566 218.645 22.5782 206.895 31.7744Z" fill="#0089C9"/>
<path d="M179.805 141.254L184.675 139.707L159.664 70.4204L154.794 71.9656L179.805 141.254Z" fill="#0089C9"/>
<path d="M211.063 138.573H171.886C166.712 138.573 162.518 142.506 162.518 147.358V148.295H221.433C221.433 142.927 216.79 138.573 211.063 138.573Z" fill="#4CB7D8"/>
<path d="M245.927 35.0776L203.37 68.3811L205.56 70.4204L247.754 36.8496L245.927 35.0776Z" fill="#0089C9"/>
<path d="M238.801 44.1788L247.981 36.8761L247.888 36.7587C247.821 36.6736 241.163 28.3483 231.242 26.3251C220.926 24.221 214.717 27.1473 211.735 28.5528C208.273 30.1871 203.003 34.4318 201.14 37.668L201.431 37.8158C203.267 34.6282 208.465 30.4443 211.884 28.8323C214.834 27.441 220.969 24.5471 231.173 26.6289C240.332 28.4961 246.688 35.817 247.528 36.8275L238.587 43.9419L238.801 44.1788Z" fill="black"/>
<path d="M203.478 68.5005L246.035 35.197L245.823 34.958L203.266 68.2615L203.478 68.5005Z" fill="black"/>
<path d="M203.821 53.2407H204.152V49.7393H203.821V53.2407Z" fill="black"/>
<path d="M205.493 54.622H205.824V50.752H205.493V54.622Z" fill="black"/>
<path d="M158.021 64.827L201.012 30.6466L200.798 30.4097L157.805 64.59L158.021 64.827Z" fill="black"/>
<path d="M175.43 57.3056L192.516 43.7209L192.303 43.4819L175.216 57.0686L175.43 57.3056Z" fill="black"/>
<path d="M178.682 138.623L178.993 138.522L154.952 71.917L154.637 72.0162L178.682 138.623Z" fill="black"/>
<path d="M176.837 118.481L177.151 118.38L163.133 79.5415L162.817 79.6428L176.837 118.481Z" fill="black"/>
<path d="M216.533 140.213L216.777 140C216.699 139.923 214.835 138.127 207.726 138.416C200.701 138.704 172.387 138.42 172.101 138.416L172.097 138.728C172.382 138.73 200.707 139.016 207.741 138.728C214.658 138.443 216.516 140.194 216.533 140.213Z" fill="black"/>
<path d="M168.311 143.127L170.67 141.606L170.482 141.349L168.124 142.87L168.311 143.127Z" fill="black"/>
<path d="M168.305 144.512L170.27 143.362L170.093 143.097L168.13 144.249L168.305 144.512Z" fill="black"/>
<path d="M159.824 65.4428C162.044 66.8725 162.61 69.7199 161.085 71.8037C159.561 73.8896 156.522 74.4182 154.3 72.9884C152.078 71.5587 151.512 68.7093 153.039 66.6254C154.563 64.5416 157.602 64.011 159.824 65.4428Z" fill="#012C40"/>
<path d="M236.833 102.053C229.933 101.713 206.284 100.777 190.113 103.025C188.013 103.317 186.679 100.96 188.13 99.5096C188.977 98.661 190.426 97.9705 192.862 97.8105C192.862 97.8105 192.022 83.6527 203.426 82.7151C216.507 81.6397 216.663 95.5484 216.663 95.5484C216.663 95.5484 222.61 90.2567 226.897 96.966C226.897 96.966 234.306 92.9501 238.042 100.368C238.453 101.176 237.788 102.102 236.833 102.053Z" fill="white"/>
<path d="M282.468 82.8485H246.96C246.012 82.8485 245.247 82.1296 245.247 81.2425V61.9429C245.247 61.0539 246.012 60.335 246.96 60.335H282.468C283.414 60.335 284.182 61.0539 284.182 61.9429V81.2425C284.182 82.1296 283.414 82.8485 282.468 82.8485Z" fill="#0089C9"/>
<path d="M272.242 81.1009C272.283 81.2507 278.543 88.8896 278.582 88.6628C278.623 88.438 277.859 80.4609 277.859 80.4609L272.242 81.1009Z" fill="#0089C9"/>
<path d="M260.438 66.5685C263.377 64.6446 265.256 67.6965 265.67 68.4722C266.117 67.7127 268.122 64.7297 270.979 66.7569C274.818 69.4787 269.022 76.514 265.465 78.6424H265.463C261.995 76.3884 256.49 69.1506 260.438 66.5685Z" fill="white"/>
<path d="M172.931 169.221H136.062C135.116 169.221 134.35 168.5 134.35 167.613V147.528C134.35 146.641 135.116 145.922 136.062 145.922H172.931C173.877 145.922 174.643 146.641 174.643 147.528V167.613C174.643 168.5 173.877 169.221 172.931 169.221Z" fill="white"/>
<path d="M170.86 150.164H137.261C137.028 150.164 136.84 149.986 136.84 149.769C136.84 149.551 137.028 149.375 137.261 149.375H170.86C171.093 149.375 171.279 149.551 171.279 149.769C171.279 149.986 171.093 150.164 170.86 150.164Z" fill="#61A3C5"/>
<path d="M170.86 154.648H137.261C137.028 154.648 136.84 154.472 136.84 154.253C136.84 154.035 137.028 153.858 137.261 153.858H170.86C171.093 153.858 171.279 154.035 171.279 154.253C171.279 154.472 171.093 154.648 170.86 154.648Z" fill="#61A3C5"/>
<path d="M159.092 159.134H137.261C137.028 159.134 136.84 158.955 136.84 158.737C136.84 158.52 137.028 158.342 137.261 158.342H159.092C159.323 158.342 159.511 158.52 159.511 158.737C159.511 158.955 159.323 159.134 159.092 159.134Z" fill="#61A3C5"/>
<path d="M171.11 159.134H162.396C162.165 159.134 161.975 158.955 161.975 158.737C161.975 158.52 162.165 158.342 162.396 158.342H171.11C171.341 158.342 171.529 158.52 171.529 158.737C171.529 158.955 171.341 159.134 171.11 159.134Z" fill="#61A3C5"/>
<path d="M150.983 163.618H137.261C137.028 163.618 136.84 163.441 136.84 163.223C136.84 163.004 137.028 162.826 137.261 162.826H150.983C151.216 162.826 151.404 163.004 151.404 163.223C151.404 163.441 151.216 163.618 150.983 163.618Z" fill="#61A3C5"/>
<path d="M171.11 163.618H154.06C153.827 163.618 153.639 163.441 153.639 163.223C153.639 163.004 153.827 162.826 154.06 162.826H171.11C171.341 162.826 171.529 163.004 171.529 163.223C171.529 163.441 171.341 163.618 171.11 163.618Z" fill="#61A3C5"/>
<path d="M162.566 167.906C162.592 168.003 166.613 172.91 166.639 172.765C166.665 172.619 166.175 167.495 166.175 167.495L162.566 167.906Z" fill="white"/>
<path d="M45.6143 308H499.908V306.669H45.6143V308Z" fill="#49263E"/>
<path d="M358.265 40.8793C395.827 51.5053 402.478 41.4565 399.805 28.8358C396.263 12.1324 379.269 1.07717 361.273 3.37165C337.017 6.46405 307.178 14.028 337.235 31.914C343.768 35.7983 350.86 38.7853 358.265 40.8793Z" fill="#A3DCF7"/>
</svg>
