<svg width="120" height="61" viewBox="0 0 120 61" fill="none" xmlns="http://www.w3.org/2000/svg">
<path d="M27.6328 16.832C27.6328 17.2852 27.6094 17.6758 27.5625 18.0039C27.5312 18.332 27.4766 18.5977 27.3984 18.8008C27.3359 18.9883 27.25 19.1211 27.1406 19.1992C27.0469 19.2773 26.9297 19.3164 26.7891 19.3164C26.5859 19.3164 26.2578 19.1758 25.8047 18.8945C25.3516 18.6133 24.75 18.3086 24 17.9805C23.25 17.6523 22.3516 17.3477 21.3047 17.0664C20.2734 16.7852 19.0703 16.6445 17.6953 16.6445C16.2266 16.6445 14.8984 16.9023 13.7109 17.418C12.5234 17.918 11.5078 18.6367 10.6641 19.5742C9.82031 20.4961 9.17188 21.6133 8.71875 22.9258C8.26562 24.2227 8.03906 25.6602 8.03906 27.2383C8.03906 28.9727 8.26562 30.5039 8.71875 31.832C9.1875 33.1445 9.83594 34.2461 10.6641 35.1367C11.4922 36.0273 12.4844 36.6992 13.6406 37.1523C14.8125 37.6055 16.1016 37.832 17.5078 37.832C18.1953 37.832 18.875 37.7539 19.5469 37.5977C20.2188 37.4414 20.8438 37.207 21.4219 36.8945V29.8633H15.6797C15.3984 29.8633 15.1797 29.6914 15.0234 29.3477C14.8672 28.9883 14.7891 28.3867 14.7891 27.543C14.7891 27.1055 14.8047 26.7383 14.8359 26.4414C14.8828 26.1445 14.9453 25.9102 15.0234 25.7383C15.1016 25.5508 15.1953 25.418 15.3047 25.3398C15.4141 25.2461 15.5391 25.1992 15.6797 25.1992H25.9219C26.1719 25.1992 26.3906 25.2461 26.5781 25.3398C26.7812 25.418 26.9531 25.543 27.0938 25.7148C27.25 25.8867 27.3672 26.0977 27.4453 26.3477C27.5234 26.582 27.5625 26.8555 27.5625 27.168V39.2383C27.5625 39.707 27.4766 40.1211 27.3047 40.4805C27.1484 40.8242 26.8125 41.0977 26.2969 41.3008C25.7969 41.5039 25.1719 41.7148 24.4219 41.9336C23.6719 42.1523 22.8906 42.3398 22.0781 42.4961C21.2812 42.6523 20.4688 42.7695 19.6406 42.8477C18.8281 42.9258 18.0078 42.9648 17.1797 42.9648C14.7578 42.9648 12.5859 42.6211 10.6641 41.9336C8.75781 41.2305 7.14062 40.2227 5.8125 38.9102C4.48438 37.582 3.46875 35.9727 2.76562 34.082C2.0625 32.1758 1.71094 30.0195 1.71094 27.6133C1.71094 25.1289 2.08594 22.9023 2.83594 20.9336C3.58594 18.9492 4.64844 17.2695 6.02344 15.8945C7.39844 14.5039 9.05469 13.4414 10.9922 12.707C12.9453 11.9727 15.1172 11.6055 17.5078 11.6055C18.8203 11.6055 20.0156 11.6992 21.0938 11.8867C22.1719 12.0586 23.1094 12.2773 23.9062 12.543C24.7188 12.793 25.3906 13.0664 25.9219 13.3633C26.4531 13.6602 26.8203 13.918 27.0234 14.1367C27.2422 14.3555 27.3984 14.668 27.4922 15.0742C27.5859 15.4648 27.6328 16.0508 27.6328 16.832Z" fill="#606062"/>
<path d="M63.7554 39.7031C63.9429 40.2656 64.0601 40.7109 64.1069 41.0391C64.1538 41.3672 64.0913 41.6172 63.9194 41.7891C63.7476 41.9453 63.4429 42.0391 63.0054 42.0703C62.5679 42.1172 61.9663 42.1406 61.2007 42.1406C60.4038 42.1406 59.7788 42.125 59.3257 42.0938C58.8882 42.0781 58.5522 42.0391 58.3179 41.9766C58.0835 41.8984 57.9194 41.7969 57.8257 41.6719C57.7319 41.5469 57.6538 41.3828 57.5913 41.1797L55.5522 35.0859H44.1616L42.2397 41.0156C42.1772 41.2344 42.0913 41.4219 41.9819 41.5781C41.8882 41.7188 41.7241 41.8359 41.4897 41.9297C41.271 42.0078 40.9507 42.0625 40.5288 42.0938C40.1226 42.125 39.5835 42.1406 38.9116 42.1406C38.1929 42.1406 37.6304 42.1172 37.2241 42.0703C36.8179 42.0234 36.5366 41.9141 36.3804 41.7422C36.2241 41.5547 36.1694 41.2969 36.2163 40.9688C36.2632 40.6406 36.3804 40.2031 36.5679 39.6562L45.9194 12.75C46.0132 12.4844 46.1226 12.2734 46.2476 12.1172C46.3726 11.9453 46.5679 11.8203 46.8335 11.7422C47.1147 11.6484 47.4976 11.5938 47.9819 11.5781C48.4663 11.5469 49.1069 11.5312 49.9038 11.5312C50.8257 11.5312 51.5601 11.5469 52.1069 11.5781C52.6538 11.5938 53.0757 11.6484 53.3726 11.7422C53.6851 11.8203 53.9038 11.9453 54.0288 12.1172C54.1694 12.2891 54.2866 12.5234 54.3804 12.8203L63.7554 39.7031ZM49.8335 17.4609H49.8101L45.521 30.3516H54.1226L49.8335 17.4609Z" fill="#606062"/>
<path d="M88.0371 15.3628C88.0371 15.8159 88.0137 16.2065 87.9668 16.5347C87.9355 16.8472 87.8809 17.105 87.8027 17.3081C87.7246 17.4956 87.623 17.6362 87.498 17.73C87.3887 17.8237 87.2637 17.8706 87.123 17.8706H79.5293V42.3159C79.5293 42.4722 79.4746 42.6128 79.3652 42.7378C79.2715 42.8628 79.1074 42.9644 78.873 43.0425C78.6387 43.1206 78.3184 43.1831 77.9121 43.23C77.5215 43.2769 77.0293 43.3003 76.4355 43.3003C75.8418 43.3003 75.3418 43.2769 74.9355 43.23C74.5449 43.1831 74.2324 43.1206 73.998 43.0425C73.7637 42.9644 73.5918 42.8628 73.4824 42.7378C73.3887 42.6128 73.3418 42.4722 73.3418 42.3159V17.8706H65.748C65.5918 17.8706 65.459 17.8237 65.3496 17.73C65.2402 17.6362 65.1465 17.4956 65.0684 17.3081C64.9902 17.105 64.9277 16.8472 64.8809 16.5347C64.8496 16.2065 64.834 15.8159 64.834 15.3628C64.834 14.894 64.8496 14.4956 64.8809 14.1675C64.9277 13.8394 64.9902 13.5815 65.0684 13.394C65.1465 13.1909 65.2402 13.0503 65.3496 12.9722C65.459 12.8784 65.5918 12.8315 65.748 12.8315H87.123C87.2637 12.8315 87.3887 12.8784 87.498 12.9722C87.623 13.0503 87.7246 13.1909 87.8027 13.394C87.8809 13.5815 87.9355 13.8394 87.9668 14.1675C88.0137 14.4956 88.0371 14.894 88.0371 15.3628Z" fill="#606062"/>
<path d="M108.876 40.2383C108.876 40.6914 108.852 41.0742 108.805 41.3867C108.774 41.6836 108.719 41.9258 108.641 42.1133C108.563 42.3008 108.462 42.4414 108.337 42.5352C108.227 42.6133 108.102 42.6523 107.962 42.6523H92.7273C92.2117 42.6523 91.7742 42.5039 91.4148 42.207C91.071 41.8945 90.8992 41.3945 90.8992 40.707V14.2695C90.8992 13.582 91.071 13.0898 91.4148 12.793C91.7742 12.4805 92.2117 12.3242 92.7273 12.3242H107.868C108.009 12.3242 108.134 12.3633 108.243 12.4414C108.352 12.5195 108.446 12.6602 108.524 12.8633C108.602 13.0508 108.657 13.3008 108.688 13.6133C108.735 13.9102 108.759 14.293 108.759 14.7617C108.759 15.1992 108.735 15.5742 108.688 15.8867C108.657 16.1836 108.602 16.4258 108.524 16.6133C108.446 16.8008 108.352 16.9414 108.243 17.0352C108.134 17.1133 108.009 17.1523 107.868 17.1523H97.0398V24.5586H106.204C106.344 24.5586 106.469 24.6055 106.579 24.6992C106.704 24.7773 106.805 24.9102 106.884 25.0977C106.962 25.2695 107.016 25.5117 107.048 25.8242C107.094 26.1211 107.118 26.4883 107.118 26.9258C107.118 27.3789 107.094 27.7539 107.048 28.0508C107.016 28.3477 106.962 28.5898 106.884 28.7773C106.805 28.9492 106.704 29.0742 106.579 29.1523C106.469 29.2305 106.344 29.2695 106.204 29.2695H97.0398V37.8242H107.962C108.102 37.8242 108.227 37.8711 108.337 37.9648C108.462 38.043 108.563 38.1758 108.641 38.3633C108.719 38.5508 108.774 38.8008 108.805 39.1133C108.852 39.4102 108.876 39.7852 108.876 40.2383Z" fill="#606062"/>
<path d="M32 50C34.2091 50 36 48.2091 36 46C36 43.7909 34.2091 42 32 42C29.7909 42 28 43.7909 28 46C28 48.2091 29.7909 50 32 50Z" fill="#606062"/>
<path d="M68 50C70.2091 50 72 48.2091 72 46C72 43.7909 70.2091 42 68 42C65.7909 42 64 43.7909 64 46C64 48.2091 65.7909 50 68 50Z" fill="#606062"/>
<path d="M85 50C87.2091 50 89 48.2091 89 46C89 43.7909 87.2091 42 85 42C82.7909 42 81 43.7909 81 46C81 48.2091 82.7909 50 85 50Z" fill="#606062"/>
<path d="M114 50C116.209 50 118 48.2091 118 46C118 43.7909 116.209 42 114 42C111.791 42 110 43.7909 110 46C110 48.2091 111.791 50 114 50Z" fill="#606062"/>
<path d="M9.89795 52.1396C9.89795 52.2057 9.89453 52.2627 9.8877 52.3105C9.88314 52.3584 9.87516 52.3971 9.86377 52.4268C9.85465 52.4541 9.84212 52.4735 9.82617 52.4849C9.8125 52.4963 9.79541 52.502 9.7749 52.502C9.74528 52.502 9.69743 52.4814 9.63135 52.4404C9.56527 52.3994 9.47754 52.355 9.36816 52.3071C9.25879 52.2593 9.12777 52.2148 8.9751 52.1738C8.82471 52.1328 8.64925 52.1123 8.44873 52.1123C8.23454 52.1123 8.04085 52.1499 7.86768 52.2251C7.6945 52.298 7.54639 52.4028 7.42334 52.5396C7.30029 52.674 7.20573 52.8369 7.13965 53.0283C7.07357 53.2174 7.04053 53.4271 7.04053 53.6572C7.04053 53.9102 7.07357 54.1335 7.13965 54.3271C7.20801 54.5186 7.30257 54.6792 7.42334 54.8091C7.54411 54.939 7.6888 55.0369 7.85742 55.103C8.02832 55.1691 8.21631 55.2021 8.42139 55.2021C8.52165 55.2021 8.62077 55.1908 8.71875 55.168C8.81673 55.1452 8.90788 55.111 8.99219 55.0654V54.04H8.15479C8.11377 54.04 8.08187 54.015 8.05908 53.9648C8.0363 53.9124 8.0249 53.8247 8.0249 53.7017C8.0249 53.6379 8.02718 53.5843 8.03174 53.541C8.03857 53.4977 8.04769 53.4635 8.05908 53.4385C8.07048 53.4111 8.08415 53.3918 8.1001 53.3804C8.11605 53.3667 8.13428 53.3599 8.15479 53.3599H9.64844C9.6849 53.3599 9.7168 53.3667 9.74414 53.3804C9.77376 53.3918 9.79883 53.41 9.81934 53.4351C9.84212 53.4601 9.85921 53.4909 9.87061 53.5273C9.882 53.5615 9.8877 53.6014 9.8877 53.647V55.4072C9.8877 55.4756 9.87516 55.536 9.8501 55.5884C9.82731 55.6385 9.77832 55.6784 9.70312 55.708C9.63021 55.7376 9.53906 55.7684 9.42969 55.8003C9.32031 55.8322 9.20638 55.8595 9.08789 55.8823C8.97168 55.9051 8.85319 55.9222 8.73242 55.9336C8.61393 55.945 8.4943 55.9507 8.37354 55.9507C8.02035 55.9507 7.70361 55.9006 7.42334 55.8003C7.14535 55.6978 6.90951 55.5508 6.71582 55.3594C6.52214 55.1657 6.37402 54.931 6.27148 54.6553C6.16895 54.3773 6.11768 54.0628 6.11768 53.7119C6.11768 53.3496 6.17236 53.0249 6.28174 52.7378C6.39111 52.4484 6.54606 52.2035 6.74658 52.0029C6.9471 51.8001 7.18864 51.6452 7.47119 51.5381C7.75602 51.431 8.07275 51.3774 8.42139 51.3774C8.61279 51.3774 8.78711 51.3911 8.94434 51.4185C9.10156 51.4435 9.23828 51.4754 9.35449 51.5142C9.47298 51.5506 9.57096 51.5905 9.64844 51.6338C9.72591 51.6771 9.77946 51.7147 9.80908 51.7466C9.84098 51.7785 9.86377 51.8241 9.87744 51.8833C9.89111 51.9403 9.89795 52.0257 9.89795 52.1396ZM12.7212 52.9941C12.7212 53.0762 12.7189 53.1434 12.7144 53.1958C12.7098 53.2482 12.703 53.2892 12.6938 53.3188C12.6847 53.3485 12.6722 53.369 12.6562 53.3804C12.6426 53.3918 12.6243 53.3975 12.6016 53.3975C12.5833 53.3975 12.5628 53.394 12.54 53.3872C12.5173 53.3781 12.491 53.369 12.4614 53.3599C12.4341 53.3507 12.4033 53.3428 12.3691 53.3359C12.335 53.3268 12.2974 53.3223 12.2563 53.3223C12.2085 53.3223 12.1606 53.3325 12.1128 53.353C12.0649 53.3713 12.0148 53.4009 11.9624 53.4419C11.9123 53.4829 11.8587 53.5376 11.8018 53.606C11.7471 53.6743 11.6878 53.7586 11.624 53.8589V55.7593C11.624 55.7821 11.6172 55.8026 11.6035 55.8208C11.5898 55.8368 11.5659 55.8504 11.5317 55.8618C11.4998 55.8732 11.4565 55.8812 11.4019 55.8857C11.3472 55.8926 11.2777 55.896 11.1934 55.896C11.109 55.896 11.0396 55.8926 10.9849 55.8857C10.9302 55.8812 10.8857 55.8732 10.8516 55.8618C10.8197 55.8504 10.7969 55.8368 10.7832 55.8208C10.7695 55.8026 10.7627 55.7821 10.7627 55.7593V52.7104C10.7627 52.6877 10.7684 52.6683 10.7798 52.6523C10.7912 52.6341 10.8117 52.6193 10.8413 52.6079C10.8709 52.5965 10.9085 52.5885 10.9541 52.584C11.002 52.5771 11.0612 52.5737 11.1318 52.5737C11.2048 52.5737 11.2651 52.5771 11.313 52.584C11.3608 52.5885 11.3973 52.5965 11.4224 52.6079C11.4497 52.6193 11.4691 52.6341 11.4805 52.6523C11.4919 52.6683 11.4976 52.6877 11.4976 52.7104V53.0898C11.5773 52.9759 11.6525 52.8825 11.7231 52.8096C11.7938 52.7344 11.861 52.6751 11.9248 52.6318C11.9886 52.5885 12.0524 52.5589 12.1162 52.543C12.18 52.5247 12.2438 52.5156 12.3076 52.5156C12.3372 52.5156 12.3691 52.5179 12.4033 52.5225C12.4375 52.5247 12.4728 52.5304 12.5093 52.5396C12.5457 52.5464 12.5776 52.5555 12.605 52.5669C12.6323 52.576 12.6517 52.5863 12.6631 52.5977C12.6768 52.609 12.6859 52.6216 12.6904 52.6353C12.6973 52.6489 12.703 52.6683 12.7075 52.6934C12.7121 52.7161 12.7155 52.7515 12.7178 52.7993C12.7201 52.8472 12.7212 52.9121 12.7212 52.9941ZM15.6914 55.7695C15.6914 55.8014 15.68 55.8265 15.6572 55.8447C15.6344 55.863 15.598 55.8755 15.5479 55.8823C15.5 55.8914 15.4282 55.896 15.3325 55.896C15.23 55.896 15.1548 55.8914 15.1069 55.8823C15.0614 55.8755 15.0283 55.863 15.0078 55.8447C14.9896 55.8265 14.9805 55.8014 14.9805 55.7695V55.5269C14.8551 55.6613 14.7116 55.7661 14.5498 55.8413C14.3903 55.9165 14.2126 55.9541 14.0166 55.9541C13.8548 55.9541 13.7056 55.9325 13.5688 55.8892C13.4344 55.8481 13.3171 55.7866 13.2168 55.7046C13.1188 55.6203 13.0425 55.5166 12.9878 55.3936C12.9331 55.2705 12.9058 55.127 12.9058 54.9629C12.9058 54.7852 12.9399 54.6313 13.0083 54.5015C13.0789 54.3693 13.1826 54.2611 13.3193 54.1768C13.4583 54.0902 13.6304 54.0264 13.8354 53.9854C14.0405 53.9443 14.2786 53.9238 14.5498 53.9238H14.8472V53.7393C14.8472 53.6436 14.8369 53.5604 14.8164 53.4897C14.7982 53.4168 14.7663 53.3564 14.7207 53.3086C14.6774 53.2607 14.6182 53.2254 14.543 53.2026C14.4701 53.1799 14.3789 53.1685 14.2695 53.1685C14.126 53.1685 13.9972 53.1844 13.8833 53.2163C13.7716 53.2482 13.6725 53.2835 13.5859 53.3223C13.4993 53.361 13.4264 53.3963 13.3672 53.4282C13.3102 53.4601 13.2635 53.4761 13.2271 53.4761C13.202 53.4761 13.1792 53.4681 13.1587 53.4521C13.1405 53.4362 13.1245 53.4134 13.1108 53.3838C13.0994 53.3542 13.0903 53.3177 13.0835 53.2744C13.0767 53.2311 13.0732 53.1833 13.0732 53.1309C13.0732 53.0602 13.0789 53.0044 13.0903 52.9634C13.1017 52.9224 13.1234 52.8859 13.1553 52.854C13.1872 52.8198 13.243 52.7834 13.3228 52.7446C13.4025 52.7036 13.4959 52.666 13.603 52.6318C13.7101 52.5977 13.8263 52.5703 13.9517 52.5498C14.0793 52.527 14.2103 52.5156 14.3447 52.5156C14.584 52.5156 14.7879 52.5396 14.9565 52.5874C15.1274 52.633 15.2676 52.7048 15.377 52.8027C15.4863 52.8984 15.5661 53.0226 15.6162 53.1753C15.6663 53.328 15.6914 53.5091 15.6914 53.7188V55.7695ZM14.8472 54.4639H14.519C14.38 54.4639 14.2616 54.4741 14.1636 54.4946C14.0656 54.5151 13.9858 54.5459 13.9243 54.5869C13.8628 54.6279 13.8172 54.6781 13.7876 54.7373C13.7603 54.7943 13.7466 54.8604 13.7466 54.9355C13.7466 55.0632 13.7865 55.1634 13.8662 55.2363C13.9482 55.3092 14.061 55.3457 14.2046 55.3457C14.3254 55.3457 14.4359 55.3149 14.5361 55.2534C14.6387 55.1919 14.7424 55.1019 14.8472 54.9834V54.4639ZM19.4443 55.7593C19.4443 55.7843 19.4386 55.806 19.4272 55.8242C19.4159 55.8402 19.3965 55.8538 19.3691 55.8652C19.3418 55.8766 19.3042 55.8846 19.2563 55.8892C19.2108 55.8937 19.1538 55.896 19.0854 55.896C19.0125 55.896 18.9533 55.8937 18.9077 55.8892C18.8621 55.8846 18.8245 55.8766 18.7949 55.8652C18.7676 55.8538 18.7471 55.8402 18.7334 55.8242C18.722 55.806 18.7163 55.7843 18.7163 55.7593V55.4209C18.5591 55.5895 18.3939 55.7205 18.2207 55.814C18.0498 55.9074 17.8595 55.9541 17.6499 55.9541C17.4175 55.9541 17.2204 55.9097 17.0586 55.8208C16.8991 55.7297 16.7681 55.6077 16.6655 55.4551C16.5653 55.3024 16.4924 55.1247 16.4468 54.9219C16.4012 54.7168 16.3784 54.5015 16.3784 54.2759C16.3784 54.0047 16.4069 53.7609 16.4639 53.5444C16.5231 53.328 16.6086 53.1434 16.7202 52.9907C16.8319 52.8381 16.9709 52.7207 17.1372 52.6387C17.3035 52.5566 17.495 52.5156 17.7114 52.5156C17.8823 52.5156 18.0373 52.5509 18.1763 52.6216C18.3153 52.6899 18.4531 52.7913 18.5898 52.9258V51.2749C18.5898 51.2521 18.5955 51.2316 18.6069 51.2134C18.6206 51.1951 18.6434 51.1803 18.6753 51.1689C18.7095 51.1553 18.7539 51.145 18.8086 51.1382C18.8633 51.1313 18.9328 51.1279 19.0171 51.1279C19.1014 51.1279 19.1709 51.1313 19.2256 51.1382C19.2803 51.145 19.3236 51.1553 19.3555 51.1689C19.3874 51.1803 19.4102 51.1951 19.4238 51.2134C19.4375 51.2316 19.4443 51.2521 19.4443 51.2749V55.7593ZM18.5898 53.7222C18.4668 53.5672 18.3483 53.4487 18.2344 53.3667C18.1227 53.2847 18.0054 53.2437 17.8823 53.2437C17.7707 53.2437 17.6738 53.2721 17.5918 53.3291C17.512 53.3838 17.4471 53.4578 17.397 53.5513C17.3491 53.6447 17.3127 53.7495 17.2876 53.8657C17.2648 53.9797 17.2534 54.097 17.2534 54.2178C17.2534 54.3454 17.2637 54.4696 17.2842 54.5903C17.3047 54.7111 17.3377 54.8193 17.3833 54.915C17.4312 55.0085 17.4938 55.0837 17.5713 55.1406C17.6488 55.1976 17.7467 55.2261 17.8652 55.2261C17.9245 55.2261 17.9814 55.2181 18.0361 55.2021C18.0931 55.1839 18.1501 55.1554 18.207 55.1167C18.2663 55.078 18.3267 55.0278 18.3882 54.9663C18.4497 54.9025 18.5169 54.825 18.5898 54.7339V53.7222ZM23.2041 55.7593C23.2041 55.7821 23.1984 55.8026 23.187 55.8208C23.1756 55.8368 23.1551 55.8504 23.1255 55.8618C23.0981 55.8732 23.0605 55.8812 23.0127 55.8857C22.9671 55.8926 22.909 55.896 22.8384 55.896C22.7632 55.896 22.7017 55.8926 22.6538 55.8857C22.6082 55.8812 22.5718 55.8732 22.5444 55.8618C22.5171 55.8504 22.4977 55.8368 22.4863 55.8208C22.4749 55.8026 22.4692 55.7821 22.4692 55.7593V55.4072C22.3006 55.5895 22.1286 55.7262 21.9531 55.8174C21.7799 55.9085 21.5999 55.9541 21.4131 55.9541C21.2035 55.9541 21.0269 55.9199 20.8833 55.8516C20.742 55.7832 20.627 55.6898 20.5381 55.5713C20.4515 55.4528 20.3888 55.3161 20.3501 55.1611C20.3136 55.0039 20.2954 54.8091 20.2954 54.5767V52.7104C20.2954 52.6877 20.3011 52.6683 20.3125 52.6523C20.3262 52.6341 20.349 52.6193 20.3809 52.6079C20.415 52.5965 20.4595 52.5885 20.5142 52.584C20.5711 52.5771 20.6406 52.5737 20.7227 52.5737C20.807 52.5737 20.8765 52.5771 20.9312 52.584C20.9858 52.5885 21.0291 52.5965 21.061 52.6079C21.0952 52.6193 21.1191 52.6341 21.1328 52.6523C21.1465 52.6683 21.1533 52.6877 21.1533 52.7104V54.4331C21.1533 54.5926 21.1636 54.7145 21.1841 54.7988C21.2046 54.8831 21.2354 54.9561 21.2764 55.0176C21.3197 55.0768 21.3732 55.1235 21.437 55.1577C21.5031 55.1896 21.5794 55.2056 21.666 55.2056C21.7754 55.2056 21.8848 55.1657 21.9941 55.0859C22.1058 55.0062 22.2243 54.89 22.3496 54.7373V52.7104C22.3496 52.6877 22.3553 52.6683 22.3667 52.6523C22.3804 52.6341 22.4032 52.6193 22.4351 52.6079C22.4692 52.5965 22.5137 52.5885 22.5684 52.584C22.623 52.5771 22.6925 52.5737 22.7769 52.5737C22.8612 52.5737 22.9307 52.5771 22.9854 52.584C23.04 52.5885 23.0833 52.5965 23.1152 52.6079C23.1471 52.6193 23.1699 52.6341 23.1836 52.6523C23.1973 52.6683 23.2041 52.6877 23.2041 52.7104V55.7593ZM26.6699 55.7695C26.6699 55.8014 26.6585 55.8265 26.6357 55.8447C26.613 55.863 26.5765 55.8755 26.5264 55.8823C26.4785 55.8914 26.4067 55.896 26.311 55.896C26.2085 55.896 26.1333 55.8914 26.0854 55.8823C26.0399 55.8755 26.0068 55.863 25.9863 55.8447C25.9681 55.8265 25.959 55.8014 25.959 55.7695V55.5269C25.8337 55.6613 25.6901 55.7661 25.5283 55.8413C25.3688 55.9165 25.1911 55.9541 24.9951 55.9541C24.8333 55.9541 24.6841 55.9325 24.5474 55.8892C24.4129 55.8481 24.2956 55.7866 24.1953 55.7046C24.0973 55.6203 24.021 55.5166 23.9663 55.3936C23.9116 55.2705 23.8843 55.127 23.8843 54.9629C23.8843 54.7852 23.9185 54.6313 23.9868 54.5015C24.0575 54.3693 24.1611 54.2611 24.2979 54.1768C24.4368 54.0902 24.6089 54.0264 24.814 53.9854C25.019 53.9443 25.2572 53.9238 25.5283 53.9238H25.8257V53.7393C25.8257 53.6436 25.8154 53.5604 25.7949 53.4897C25.7767 53.4168 25.7448 53.3564 25.6992 53.3086C25.6559 53.2607 25.5967 53.2254 25.5215 53.2026C25.4486 53.1799 25.3574 53.1685 25.248 53.1685C25.1045 53.1685 24.9757 53.1844 24.8618 53.2163C24.7502 53.2482 24.651 53.2835 24.5645 53.3223C24.4779 53.361 24.4049 53.3963 24.3457 53.4282C24.2887 53.4601 24.242 53.4761 24.2056 53.4761C24.1805 53.4761 24.1577 53.4681 24.1372 53.4521C24.119 53.4362 24.103 53.4134 24.0894 53.3838C24.078 53.3542 24.0688 53.3177 24.062 53.2744C24.0552 53.2311 24.0518 53.1833 24.0518 53.1309C24.0518 53.0602 24.0575 53.0044 24.0688 52.9634C24.0802 52.9224 24.1019 52.8859 24.1338 52.854C24.1657 52.8198 24.2215 52.7834 24.3013 52.7446C24.381 52.7036 24.4744 52.666 24.5815 52.6318C24.6886 52.5977 24.8049 52.5703 24.9302 52.5498C25.0578 52.527 25.1888 52.5156 25.3232 52.5156C25.5625 52.5156 25.7664 52.5396 25.9351 52.5874C26.106 52.633 26.2461 52.7048 26.3555 52.8027C26.4648 52.8984 26.5446 53.0226 26.5947 53.1753C26.6449 53.328 26.6699 53.5091 26.6699 53.7188V55.7695ZM25.8257 54.4639H25.4976C25.3586 54.4639 25.2401 54.4741 25.1421 54.4946C25.0441 54.5151 24.9644 54.5459 24.9028 54.5869C24.8413 54.6279 24.7957 54.6781 24.7661 54.7373C24.7388 54.7943 24.7251 54.8604 24.7251 54.9355C24.7251 55.0632 24.765 55.1634 24.8447 55.2363C24.9268 55.3092 25.0396 55.3457 25.1831 55.3457C25.3039 55.3457 25.4144 55.3149 25.5146 55.2534C25.6172 55.1919 25.7209 55.1019 25.8257 54.9834V54.4639ZM29.2676 55.4585C29.2676 55.5588 29.2607 55.6362 29.2471 55.6909C29.2357 55.7433 29.2197 55.7809 29.1992 55.8037C29.1787 55.8242 29.1479 55.8436 29.1069 55.8618C29.0682 55.8778 29.0215 55.8914 28.9668 55.9028C28.9144 55.9165 28.8563 55.9268 28.7925 55.9336C28.731 55.9404 28.6683 55.9438 28.6045 55.9438C28.4336 55.9438 28.2855 55.9222 28.1602 55.8789C28.0348 55.8356 27.9312 55.7695 27.8491 55.6807C27.7671 55.5895 27.7067 55.4756 27.668 55.3389C27.6292 55.2021 27.6099 55.0404 27.6099 54.8535V53.2915H27.2441C27.2008 53.2915 27.1678 53.2653 27.145 53.2129C27.1222 53.1582 27.1108 53.0682 27.1108 52.9429C27.1108 52.8768 27.1131 52.821 27.1177 52.7754C27.1245 52.7298 27.1336 52.6945 27.145 52.6694C27.1564 52.6421 27.1701 52.6227 27.186 52.6113C27.2043 52.5999 27.2248 52.5942 27.2476 52.5942H27.6099V51.9141C27.6099 51.8913 27.6156 51.8708 27.627 51.8525C27.6406 51.8343 27.6634 51.8195 27.6953 51.8081C27.7295 51.7944 27.7739 51.7853 27.8286 51.7808C27.8856 51.7739 27.9551 51.7705 28.0371 51.7705C28.1214 51.7705 28.1909 51.7739 28.2456 51.7808C28.3026 51.7853 28.347 51.7944 28.3789 51.8081C28.4108 51.8195 28.4336 51.8343 28.4473 51.8525C28.4609 51.8708 28.4678 51.8913 28.4678 51.9141V52.5942H29.1309C29.1536 52.5942 29.173 52.5999 29.189 52.6113C29.2072 52.6227 29.222 52.6421 29.2334 52.6694C29.2448 52.6945 29.2528 52.7298 29.2573 52.7754C29.2642 52.821 29.2676 52.8768 29.2676 52.9429C29.2676 53.0682 29.2562 53.1582 29.2334 53.2129C29.2106 53.2653 29.1776 53.2915 29.1343 53.2915H28.4678V54.7236C28.4678 54.89 28.494 55.0153 28.5464 55.0996C28.5988 55.1816 28.6922 55.2227 28.8267 55.2227C28.8722 55.2227 28.9132 55.2192 28.9497 55.2124C28.9862 55.2033 29.0181 55.1942 29.0454 55.1851C29.075 55.1737 29.099 55.1646 29.1172 55.1577C29.1377 55.1486 29.1559 55.144 29.1719 55.144C29.1855 55.144 29.1981 55.1486 29.2095 55.1577C29.2231 55.1646 29.2334 55.1805 29.2402 55.2056C29.2471 55.2284 29.2528 55.2603 29.2573 55.3013C29.2642 55.3423 29.2676 55.3947 29.2676 55.4585ZM32.6172 54.146C32.6172 54.2508 32.5933 54.3283 32.5454 54.3784C32.4998 54.4285 32.436 54.4536 32.354 54.4536H30.498C30.498 54.5835 30.5129 54.702 30.5425 54.8091C30.5744 54.9139 30.6234 55.0039 30.6895 55.0791C30.7578 55.152 30.8444 55.2078 30.9492 55.2466C31.0563 55.2853 31.1839 55.3047 31.332 55.3047C31.4824 55.3047 31.6146 55.2944 31.7285 55.2739C31.8424 55.2511 31.9404 55.2272 32.0225 55.2021C32.1068 55.1748 32.1763 55.1509 32.231 55.1304C32.2856 55.1076 32.3301 55.0962 32.3643 55.0962C32.3848 55.0962 32.4019 55.1007 32.4155 55.1099C32.4292 55.1167 32.4406 55.1304 32.4497 55.1509C32.4588 55.1714 32.4645 55.201 32.4668 55.2397C32.4714 55.2762 32.4736 55.3229 32.4736 55.3799C32.4736 55.43 32.4725 55.4733 32.4702 55.5098C32.4679 55.5439 32.4645 55.5736 32.46 55.5986C32.4554 55.6237 32.4486 55.6453 32.4395 55.6636C32.4303 55.6795 32.4178 55.6955 32.4019 55.7114C32.3882 55.7274 32.3483 55.749 32.2822 55.7764C32.2161 55.8037 32.1318 55.8311 32.0293 55.8584C31.9268 55.8835 31.8094 55.9051 31.6772 55.9233C31.5451 55.9438 31.4038 55.9541 31.2534 55.9541C30.9823 55.9541 30.7441 55.9199 30.5391 55.8516C30.3363 55.7832 30.1665 55.6795 30.0298 55.5405C29.8931 55.4015 29.7905 55.2261 29.7222 55.0142C29.6561 54.8022 29.623 54.5539 29.623 54.269C29.623 53.9979 29.6584 53.7541 29.729 53.5376C29.7996 53.3188 29.9022 53.1343 30.0366 52.9839C30.1711 52.8312 30.334 52.715 30.5254 52.6353C30.7191 52.5555 30.9367 52.5156 31.1782 52.5156C31.4334 52.5156 31.651 52.5532 31.8311 52.6284C32.0133 52.7036 32.1626 52.8084 32.2788 52.9429C32.395 53.075 32.4805 53.2323 32.5352 53.4146C32.5898 53.5968 32.6172 53.7951 32.6172 54.0093V54.146ZM31.7832 53.8999C31.79 53.6584 31.741 53.4692 31.6362 53.3325C31.5337 53.1935 31.3742 53.124 31.1577 53.124C31.0483 53.124 30.9526 53.1445 30.8706 53.1855C30.7909 53.2266 30.7236 53.2824 30.6689 53.353C30.6165 53.4214 30.5755 53.5034 30.5459 53.5991C30.5186 53.6925 30.5026 53.7928 30.498 53.8999H31.7832ZM38.5884 55.5405C38.6157 55.6226 38.6328 55.6875 38.6396 55.7354C38.6465 55.7832 38.6374 55.8197 38.6123 55.8447C38.5872 55.8675 38.5428 55.8812 38.479 55.8857C38.4152 55.8926 38.3275 55.896 38.2158 55.896C38.0996 55.896 38.0085 55.8937 37.9424 55.8892C37.8786 55.8869 37.8296 55.8812 37.7954 55.8721C37.7612 55.8607 37.7373 55.8459 37.7236 55.8276C37.71 55.8094 37.6986 55.7855 37.6895 55.7559L37.3921 54.8672H35.731L35.4507 55.7319C35.4416 55.7638 35.429 55.7912 35.4131 55.814C35.3994 55.8345 35.3755 55.8516 35.3413 55.8652C35.3094 55.8766 35.2627 55.8846 35.2012 55.8892C35.1419 55.8937 35.0633 55.896 34.9653 55.896C34.8605 55.896 34.7785 55.8926 34.7192 55.8857C34.66 55.8789 34.619 55.863 34.5962 55.8379C34.5734 55.8105 34.5654 55.7729 34.5723 55.7251C34.5791 55.6772 34.5962 55.6134 34.6235 55.5337L35.9873 51.6099C36.001 51.5711 36.0169 51.5404 36.0352 51.5176C36.0534 51.4925 36.0819 51.4743 36.1206 51.4629C36.1616 51.4492 36.2174 51.4412 36.2881 51.439C36.3587 51.4344 36.4521 51.4321 36.5684 51.4321C36.7028 51.4321 36.8099 51.4344 36.8896 51.439C36.9694 51.4412 37.0309 51.4492 37.0742 51.4629C37.1198 51.4743 37.1517 51.4925 37.1699 51.5176C37.1904 51.5426 37.2075 51.5768 37.2212 51.6201L38.5884 55.5405ZM36.5581 52.2969H36.5547L35.9292 54.1768H37.1836L36.5581 52.2969ZM42.2285 54.1904C42.2285 54.4616 42.1989 54.7065 42.1396 54.9253C42.0827 55.1418 41.9984 55.3263 41.8867 55.479C41.7751 55.6317 41.6361 55.749 41.4697 55.8311C41.3034 55.9131 41.1131 55.9541 40.8989 55.9541C40.8101 55.9541 40.728 55.945 40.6528 55.9268C40.5799 55.9108 40.5081 55.8857 40.4375 55.8516C40.3691 55.8151 40.3008 55.7707 40.2324 55.7183C40.1641 55.6659 40.0934 55.6043 40.0205 55.5337V56.9692C40.0205 56.992 40.0137 57.0125 40 57.0308C39.9863 57.049 39.9624 57.0638 39.9282 57.0752C39.8963 57.0889 39.853 57.0991 39.7983 57.106C39.7437 57.1128 39.6742 57.1162 39.5898 57.1162C39.5055 57.1162 39.436 57.1128 39.3813 57.106C39.3267 57.0991 39.2822 57.0889 39.248 57.0752C39.2161 57.0638 39.1934 57.049 39.1797 57.0308C39.166 57.0125 39.1592 56.992 39.1592 56.9692V52.7104C39.1592 52.6877 39.1649 52.6683 39.1763 52.6523C39.1877 52.6341 39.207 52.6193 39.2344 52.6079C39.264 52.5965 39.3016 52.5885 39.3472 52.584C39.395 52.5771 39.4543 52.5737 39.5249 52.5737C39.5933 52.5737 39.6502 52.5771 39.6958 52.584C39.7437 52.5885 39.7812 52.5965 39.8086 52.6079C39.8382 52.6193 39.8587 52.6341 39.8701 52.6523C39.8815 52.6683 39.8872 52.6877 39.8872 52.7104V53.0693C39.9761 52.9782 40.0627 52.8984 40.147 52.8301C40.2336 52.7594 40.3213 52.7013 40.4102 52.6558C40.499 52.6079 40.5902 52.5726 40.6836 52.5498C40.7793 52.527 40.8807 52.5156 40.9878 52.5156C41.2111 52.5156 41.4014 52.5601 41.5586 52.6489C41.7158 52.7355 41.8434 52.8551 41.9414 53.0078C42.0417 53.1605 42.1146 53.3382 42.1602 53.541C42.2057 53.7438 42.2285 53.9603 42.2285 54.1904ZM41.333 54.252C41.333 54.1221 41.3228 53.9979 41.3022 53.8794C41.284 53.7586 41.251 53.6515 41.2031 53.5581C41.1576 53.4647 41.096 53.3906 41.0186 53.3359C40.9434 53.279 40.8488 53.2505 40.7349 53.2505C40.6779 53.2505 40.6209 53.2596 40.564 53.2778C40.5093 53.2938 40.4523 53.3211 40.3931 53.3599C40.3361 53.3986 40.2769 53.4487 40.2153 53.5103C40.1538 53.5718 40.0889 53.6481 40.0205 53.7393V54.7441C40.1413 54.8968 40.2563 55.0153 40.3657 55.0996C40.4751 55.1816 40.589 55.2227 40.7075 55.2227C40.8192 55.2227 40.9137 55.1942 40.9912 55.1372C41.071 55.0802 41.1359 55.0062 41.186 54.915C41.2362 54.8216 41.2726 54.7168 41.2954 54.6006C41.3205 54.4844 41.333 54.3682 41.333 54.252ZM45.8687 52.5942C45.9644 52.5942 46.0304 52.6147 46.0669 52.6558C46.1056 52.6968 46.125 52.756 46.125 52.8335V55.7593C46.125 55.7821 46.1182 55.8026 46.1045 55.8208C46.0908 55.8368 46.068 55.8504 46.0361 55.8618C46.0042 55.8732 45.9598 55.8812 45.9028 55.8857C45.8481 55.8926 45.7798 55.896 45.6978 55.896C45.6134 55.896 45.5428 55.8926 45.4858 55.8857C45.4312 55.8812 45.3879 55.8732 45.356 55.8618C45.3241 55.8504 45.3013 55.8368 45.2876 55.8208C45.2739 55.8026 45.2671 55.7821 45.2671 55.7593V53.2915H43.8965V54.7236C43.8965 54.89 43.9227 55.0153 43.9751 55.0996C44.0275 55.1816 44.1209 55.2227 44.2554 55.2227C44.3009 55.2227 44.342 55.2192 44.3784 55.2124C44.4149 55.2033 44.4468 55.1942 44.4741 55.1851C44.5037 55.1737 44.5277 55.1646 44.5459 55.1577C44.5664 55.1486 44.5846 55.144 44.6006 55.144C44.6143 55.144 44.6268 55.1486 44.6382 55.1577C44.6519 55.1646 44.6621 55.1805 44.6689 55.2056C44.6758 55.2284 44.6815 55.2603 44.686 55.3013C44.6929 55.3423 44.6963 55.3947 44.6963 55.4585C44.6963 55.5588 44.6906 55.6351 44.6792 55.6875C44.6678 55.7376 44.6519 55.7752 44.6313 55.8003C44.6108 55.8231 44.5801 55.8436 44.5391 55.8618C44.498 55.8778 44.4502 55.8914 44.3955 55.9028C44.3431 55.9165 44.285 55.9268 44.2212 55.9336C44.1597 55.9404 44.097 55.9438 44.0332 55.9438C43.8623 55.9438 43.7142 55.9222 43.5889 55.8789C43.4635 55.8356 43.3599 55.7695 43.2778 55.6807C43.1958 55.5895 43.1354 55.4756 43.0967 55.3389C43.0579 55.2021 43.0386 55.0404 43.0386 54.8535V53.2915H42.6729C42.6296 53.2915 42.5965 53.2653 42.5737 53.2129C42.5509 53.1582 42.5396 53.0682 42.5396 52.9429C42.5396 52.8768 42.5418 52.821 42.5464 52.7754C42.5532 52.7298 42.5623 52.6945 42.5737 52.6694C42.5851 52.6421 42.5988 52.6227 42.6147 52.6113C42.633 52.5999 42.6535 52.5942 42.6763 52.5942H43.0386V51.9141C43.0386 51.8913 43.0443 51.8708 43.0557 51.8525C43.0693 51.8343 43.0921 51.8195 43.124 51.8081C43.1582 51.7944 43.2026 51.7853 43.2573 51.7808C43.3143 51.7739 43.3838 51.7705 43.4658 51.7705C43.5501 51.7705 43.6196 51.7739 43.6743 51.7808C43.7313 51.7853 43.7757 51.7944 43.8076 51.8081C43.8395 51.8195 43.8623 51.8343 43.876 51.8525C43.8896 51.8708 43.8965 51.8913 43.8965 51.9141V52.5942H45.8687ZM46.1934 51.6782C46.1934 51.8514 46.158 51.971 46.0874 52.0371C46.0168 52.1032 45.8857 52.1362 45.6943 52.1362C45.5007 52.1362 45.3696 52.1043 45.3013 52.0405C45.2352 51.9767 45.2021 51.8617 45.2021 51.6953C45.2021 51.5221 45.2363 51.4025 45.3047 51.3364C45.3753 51.2681 45.5075 51.2339 45.7012 51.2339C45.8926 51.2339 46.0225 51.2669 46.0908 51.333C46.1592 51.3968 46.1934 51.5119 46.1934 51.6782ZM48.7979 55.4585C48.7979 55.5588 48.791 55.6362 48.7773 55.6909C48.766 55.7433 48.75 55.7809 48.7295 55.8037C48.709 55.8242 48.6782 55.8436 48.6372 55.8618C48.5985 55.8778 48.5518 55.8914 48.4971 55.9028C48.4447 55.9165 48.3866 55.9268 48.3228 55.9336C48.2612 55.9404 48.1986 55.9438 48.1348 55.9438C47.9639 55.9438 47.8158 55.9222 47.6904 55.8789C47.5651 55.8356 47.4614 55.7695 47.3794 55.6807C47.2974 55.5895 47.237 55.4756 47.1982 55.3389C47.1595 55.2021 47.1401 55.0404 47.1401 54.8535V53.2915H46.7744C46.7311 53.2915 46.6981 53.2653 46.6753 53.2129C46.6525 53.1582 46.6411 53.0682 46.6411 52.9429C46.6411 52.8768 46.6434 52.821 46.6479 52.7754C46.6548 52.7298 46.6639 52.6945 46.6753 52.6694C46.6867 52.6421 46.7004 52.6227 46.7163 52.6113C46.7345 52.5999 46.755 52.5942 46.7778 52.5942H47.1401V51.9141C47.1401 51.8913 47.1458 51.8708 47.1572 51.8525C47.1709 51.8343 47.1937 51.8195 47.2256 51.8081C47.2598 51.7944 47.3042 51.7853 47.3589 51.7808C47.4159 51.7739 47.4854 51.7705 47.5674 51.7705C47.6517 51.7705 47.7212 51.7739 47.7759 51.7808C47.8328 51.7853 47.8773 51.7944 47.9092 51.8081C47.9411 51.8195 47.9639 51.8343 47.9775 51.8525C47.9912 51.8708 47.998 51.8913 47.998 51.9141V52.5942H48.6611C48.6839 52.5942 48.7033 52.5999 48.7192 52.6113C48.7375 52.6227 48.7523 52.6421 48.7637 52.6694C48.7751 52.6945 48.783 52.7298 48.7876 52.7754C48.7944 52.821 48.7979 52.8768 48.7979 52.9429C48.7979 53.0682 48.7865 53.1582 48.7637 53.2129C48.7409 53.2653 48.7078 53.2915 48.6646 53.2915H47.998V54.7236C47.998 54.89 48.0243 55.0153 48.0767 55.0996C48.1291 55.1816 48.2225 55.2227 48.3569 55.2227C48.4025 55.2227 48.4435 55.2192 48.48 55.2124C48.5164 55.2033 48.5483 55.1942 48.5757 55.1851C48.6053 55.1737 48.6292 55.1646 48.6475 55.1577C48.668 55.1486 48.6862 55.144 48.7021 55.144C48.7158 55.144 48.7284 55.1486 48.7397 55.1577C48.7534 55.1646 48.7637 55.1805 48.7705 55.2056C48.7773 55.2284 48.783 55.2603 48.7876 55.3013C48.7944 55.3423 48.7979 55.3947 48.7979 55.4585ZM52.3115 55.7593C52.3115 55.7821 52.3058 55.8026 52.2944 55.8208C52.283 55.8368 52.2625 55.8504 52.2329 55.8618C52.2056 55.8732 52.168 55.8812 52.1201 55.8857C52.0745 55.8926 52.0164 55.896 51.9458 55.896C51.8706 55.896 51.8091 55.8926 51.7612 55.8857C51.7157 55.8812 51.6792 55.8732 51.6519 55.8618C51.6245 55.8504 51.6051 55.8368 51.5938 55.8208C51.5824 55.8026 51.5767 55.7821 51.5767 55.7593V55.4072C51.408 55.5895 51.236 55.7262 51.0605 55.8174C50.8874 55.9085 50.7074 55.9541 50.5205 55.9541C50.3109 55.9541 50.1343 55.9199 49.9907 55.8516C49.8494 55.7832 49.7344 55.6898 49.6455 55.5713C49.5589 55.4528 49.4963 55.3161 49.4575 55.1611C49.4211 55.0039 49.4028 54.8091 49.4028 54.5767V52.7104C49.4028 52.6877 49.4085 52.6683 49.4199 52.6523C49.4336 52.6341 49.4564 52.6193 49.4883 52.6079C49.5225 52.5965 49.5669 52.5885 49.6216 52.584C49.6785 52.5771 49.748 52.5737 49.8301 52.5737C49.9144 52.5737 49.9839 52.5771 50.0386 52.584C50.0933 52.5885 50.1366 52.5965 50.1685 52.6079C50.2026 52.6193 50.2266 52.6341 50.2402 52.6523C50.2539 52.6683 50.2607 52.6877 50.2607 52.7104V54.4331C50.2607 54.5926 50.271 54.7145 50.2915 54.7988C50.312 54.8831 50.3428 54.9561 50.3838 55.0176C50.4271 55.0768 50.4806 55.1235 50.5444 55.1577C50.6105 55.1896 50.6868 55.2056 50.7734 55.2056C50.8828 55.2056 50.9922 55.1657 51.1016 55.0859C51.2132 55.0062 51.3317 54.89 51.457 54.7373V52.7104C51.457 52.6877 51.4627 52.6683 51.4741 52.6523C51.4878 52.6341 51.5106 52.6193 51.5425 52.6079C51.5767 52.5965 51.6211 52.5885 51.6758 52.584C51.7305 52.5771 51.8 52.5737 51.8843 52.5737C51.9686 52.5737 52.0381 52.5771 52.0928 52.584C52.1475 52.5885 52.1908 52.5965 52.2227 52.6079C52.2546 52.6193 52.2773 52.6341 52.291 52.6523C52.3047 52.6683 52.3115 52.6877 52.3115 52.7104V55.7593ZM56.0713 55.7593C56.0713 55.7843 56.0656 55.806 56.0542 55.8242C56.0428 55.8402 56.0234 55.8538 55.9961 55.8652C55.9688 55.8766 55.9312 55.8846 55.8833 55.8892C55.8377 55.8937 55.7808 55.896 55.7124 55.896C55.6395 55.896 55.5802 55.8937 55.5347 55.8892C55.4891 55.8846 55.4515 55.8766 55.4219 55.8652C55.3945 55.8538 55.374 55.8402 55.3604 55.8242C55.349 55.806 55.3433 55.7843 55.3433 55.7593V55.4209C55.186 55.5895 55.0208 55.7205 54.8477 55.814C54.6768 55.9074 54.4865 55.9541 54.2769 55.9541C54.0444 55.9541 53.8473 55.9097 53.6855 55.8208C53.526 55.7297 53.395 55.6077 53.2925 55.4551C53.1922 55.3024 53.1193 55.1247 53.0737 54.9219C53.0282 54.7168 53.0054 54.5015 53.0054 54.2759C53.0054 54.0047 53.0339 53.7609 53.0908 53.5444C53.1501 53.328 53.2355 53.1434 53.3472 52.9907C53.4588 52.8381 53.5978 52.7207 53.7642 52.6387C53.9305 52.5566 54.1219 52.5156 54.3384 52.5156C54.5093 52.5156 54.6642 52.5509 54.8032 52.6216C54.9422 52.6899 55.0801 52.7913 55.2168 52.9258V51.2749C55.2168 51.2521 55.2225 51.2316 55.2339 51.2134C55.2476 51.1951 55.2703 51.1803 55.3022 51.1689C55.3364 51.1553 55.3809 51.145 55.4355 51.1382C55.4902 51.1313 55.5597 51.1279 55.644 51.1279C55.7284 51.1279 55.7979 51.1313 55.8525 51.1382C55.9072 51.145 55.9505 51.1553 55.9824 51.1689C56.0143 51.1803 56.0371 51.1951 56.0508 51.2134C56.0645 51.2316 56.0713 51.2521 56.0713 51.2749V55.7593ZM55.2168 53.7222C55.0938 53.5672 54.9753 53.4487 54.8613 53.3667C54.7497 53.2847 54.6323 53.2437 54.5093 53.2437C54.3976 53.2437 54.3008 53.2721 54.2188 53.3291C54.139 53.3838 54.0741 53.4578 54.0239 53.5513C53.9761 53.6447 53.9396 53.7495 53.9146 53.8657C53.8918 53.9797 53.8804 54.097 53.8804 54.2178C53.8804 54.3454 53.8906 54.4696 53.9111 54.5903C53.9316 54.7111 53.9647 54.8193 54.0103 54.915C54.0581 55.0085 54.1208 55.0837 54.1982 55.1406C54.2757 55.1976 54.3737 55.2261 54.4922 55.2261C54.5514 55.2261 54.6084 55.2181 54.6631 55.2021C54.7201 55.1839 54.777 55.1554 54.834 55.1167C54.8932 55.078 54.9536 55.0278 55.0151 54.9663C55.0767 54.9025 55.1439 54.825 55.2168 54.7339V53.7222ZM59.7559 54.146C59.7559 54.2508 59.7319 54.3283 59.6841 54.3784C59.6385 54.4285 59.5747 54.4536 59.4927 54.4536H57.6367C57.6367 54.5835 57.6515 54.702 57.6812 54.8091C57.7131 54.9139 57.762 55.0039 57.8281 55.0791C57.8965 55.152 57.9831 55.2078 58.0879 55.2466C58.195 55.2853 58.3226 55.3047 58.4707 55.3047C58.6211 55.3047 58.7533 55.2944 58.8672 55.2739C58.9811 55.2511 59.0791 55.2272 59.1611 55.2021C59.2454 55.1748 59.3149 55.1509 59.3696 55.1304C59.4243 55.1076 59.4688 55.0962 59.5029 55.0962C59.5234 55.0962 59.5405 55.1007 59.5542 55.1099C59.5679 55.1167 59.5793 55.1304 59.5884 55.1509C59.5975 55.1714 59.6032 55.201 59.6055 55.2397C59.61 55.2762 59.6123 55.3229 59.6123 55.3799C59.6123 55.43 59.6112 55.4733 59.6089 55.5098C59.6066 55.5439 59.6032 55.5736 59.5986 55.5986C59.5941 55.6237 59.5872 55.6453 59.5781 55.6636C59.569 55.6795 59.5565 55.6955 59.5405 55.7114C59.5269 55.7274 59.487 55.749 59.4209 55.7764C59.3548 55.8037 59.2705 55.8311 59.168 55.8584C59.0654 55.8835 58.9481 55.9051 58.8159 55.9233C58.6838 55.9438 58.5425 55.9541 58.3921 55.9541C58.1209 55.9541 57.8828 55.9199 57.6777 55.8516C57.4749 55.7832 57.3052 55.6795 57.1685 55.5405C57.0317 55.4015 56.9292 55.2261 56.8608 55.0142C56.7948 54.8022 56.7617 54.5539 56.7617 54.269C56.7617 53.9979 56.797 53.7541 56.8677 53.5376C56.9383 53.3188 57.0409 53.1343 57.1753 52.9839C57.3097 52.8312 57.4727 52.715 57.6641 52.6353C57.8577 52.5555 58.0754 52.5156 58.3169 52.5156C58.5721 52.5156 58.7897 52.5532 58.9697 52.6284C59.152 52.7036 59.3013 52.8084 59.4175 52.9429C59.5337 53.075 59.6191 53.2323 59.6738 53.4146C59.7285 53.5968 59.7559 53.7951 59.7559 54.0093V54.146ZM58.9219 53.8999C58.9287 53.6584 58.8797 53.4692 58.7749 53.3325C58.6724 53.1935 58.5129 53.124 58.2964 53.124C58.187 53.124 58.0913 53.1445 58.0093 53.1855C57.9295 53.2266 57.8623 53.2824 57.8076 53.353C57.7552 53.4214 57.7142 53.5034 57.6846 53.5991C57.6572 53.6925 57.6413 53.7928 57.6367 53.8999H58.9219ZM65.0469 51.8218C65.0469 51.8879 65.0435 51.9448 65.0366 51.9927C65.0321 52.0382 65.0241 52.0758 65.0127 52.1055C65.0013 52.1328 64.9865 52.1533 64.9683 52.167C64.9523 52.1807 64.9341 52.1875 64.9136 52.1875H63.8062V55.7524C63.8062 55.7752 63.7982 55.7957 63.7822 55.814C63.7686 55.8322 63.7446 55.847 63.7104 55.8584C63.6763 55.8698 63.6296 55.8789 63.5703 55.8857C63.5133 55.8926 63.4416 55.896 63.355 55.896C63.2684 55.896 63.1955 55.8926 63.1362 55.8857C63.0793 55.8789 63.0337 55.8698 62.9995 55.8584C62.9653 55.847 62.9403 55.8322 62.9243 55.814C62.9106 55.7957 62.9038 55.7752 62.9038 55.7524V52.1875H61.7964C61.7736 52.1875 61.7542 52.1807 61.7383 52.167C61.7223 52.1533 61.7087 52.1328 61.6973 52.1055C61.6859 52.0758 61.6768 52.0382 61.6699 51.9927C61.6654 51.9448 61.6631 51.8879 61.6631 51.8218C61.6631 51.7534 61.6654 51.6953 61.6699 51.6475C61.6768 51.5996 61.6859 51.562 61.6973 51.5347C61.7087 51.505 61.7223 51.4845 61.7383 51.4731C61.7542 51.4595 61.7736 51.4526 61.7964 51.4526H64.9136C64.9341 51.4526 64.9523 51.4595 64.9683 51.4731C64.9865 51.4845 65.0013 51.505 65.0127 51.5347C65.0241 51.562 65.0321 51.5996 65.0366 51.6475C65.0435 51.6953 65.0469 51.7534 65.0469 51.8218ZM67.7266 54.146C67.7266 54.2508 67.7026 54.3283 67.6548 54.3784C67.6092 54.4285 67.5454 54.4536 67.4634 54.4536H65.6074C65.6074 54.5835 65.6222 54.702 65.6519 54.8091C65.6838 54.9139 65.7327 55.0039 65.7988 55.0791C65.8672 55.152 65.9538 55.2078 66.0586 55.2466C66.1657 55.2853 66.2933 55.3047 66.4414 55.3047C66.5918 55.3047 66.724 55.2944 66.8379 55.2739C66.9518 55.2511 67.0498 55.2272 67.1318 55.2021C67.2161 55.1748 67.2856 55.1509 67.3403 55.1304C67.395 55.1076 67.4395 55.0962 67.4736 55.0962C67.4941 55.0962 67.5112 55.1007 67.5249 55.1099C67.5386 55.1167 67.55 55.1304 67.5591 55.1509C67.5682 55.1714 67.5739 55.201 67.5762 55.2397C67.5807 55.2762 67.583 55.3229 67.583 55.3799C67.583 55.43 67.5819 55.4733 67.5796 55.5098C67.5773 55.5439 67.5739 55.5736 67.5693 55.5986C67.5648 55.6237 67.5579 55.6453 67.5488 55.6636C67.5397 55.6795 67.5272 55.6955 67.5112 55.7114C67.4976 55.7274 67.4577 55.749 67.3916 55.7764C67.3255 55.8037 67.2412 55.8311 67.1387 55.8584C67.0361 55.8835 66.9188 55.9051 66.7866 55.9233C66.6545 55.9438 66.5132 55.9541 66.3628 55.9541C66.0916 55.9541 65.8535 55.9199 65.6484 55.8516C65.4456 55.7832 65.2759 55.6795 65.1392 55.5405C65.0024 55.4015 64.8999 55.2261 64.8315 55.0142C64.7655 54.8022 64.7324 54.5539 64.7324 54.269C64.7324 53.9979 64.7677 53.7541 64.8384 53.5376C64.909 53.3188 65.0116 53.1343 65.146 52.9839C65.2804 52.8312 65.4434 52.715 65.6348 52.6353C65.8285 52.5555 66.0461 52.5156 66.2876 52.5156C66.5428 52.5156 66.7604 52.5532 66.9404 52.6284C67.1227 52.7036 67.272 52.8084 67.3882 52.9429C67.5044 53.075 67.5898 53.2323 67.6445 53.4146C67.6992 53.5968 67.7266 53.7951 67.7266 54.0093V54.146ZM66.8926 53.8999C66.8994 53.6584 66.8504 53.4692 66.7456 53.3325C66.6431 53.1935 66.4836 53.124 66.2671 53.124C66.1577 53.124 66.062 53.1445 65.98 53.1855C65.9002 53.2266 65.833 53.2824 65.7783 53.353C65.7259 53.4214 65.6849 53.5034 65.6553 53.5991C65.6279 53.6925 65.612 53.7928 65.6074 53.8999H66.8926ZM70.584 54.8979C70.584 55.0711 70.5509 55.2238 70.4849 55.356C70.4211 55.4881 70.3299 55.5986 70.2114 55.6875C70.0929 55.7764 69.9528 55.8424 69.791 55.8857C69.6292 55.9313 69.4538 55.9541 69.2646 55.9541C69.1507 55.9541 69.0413 55.945 68.9365 55.9268C68.834 55.9108 68.7417 55.8903 68.6597 55.8652C68.5776 55.8379 68.5093 55.8105 68.4546 55.7832C68.3999 55.7559 68.36 55.7308 68.335 55.708C68.3099 55.6829 68.2905 55.6453 68.2769 55.5952C68.2632 55.5428 68.2563 55.4665 68.2563 55.3662C68.2563 55.3001 68.2586 55.2477 68.2632 55.209C68.2677 55.168 68.2746 55.1361 68.2837 55.1133C68.2928 55.0882 68.3042 55.0723 68.3179 55.0654C68.3315 55.0563 68.3486 55.0518 68.3691 55.0518C68.3942 55.0518 68.4307 55.0666 68.4785 55.0962C68.5286 55.1235 68.5902 55.1543 68.6631 55.1885C68.736 55.2227 68.8203 55.2546 68.916 55.2842C69.014 55.3138 69.1245 55.3286 69.2476 55.3286C69.325 55.3286 69.3934 55.3206 69.4526 55.3047C69.5142 55.2887 69.5666 55.266 69.6099 55.2363C69.6554 55.2067 69.6896 55.1691 69.7124 55.1235C69.7352 55.078 69.7466 55.0256 69.7466 54.9663C69.7466 54.8979 69.7249 54.8398 69.6816 54.792C69.6406 54.7419 69.5848 54.6986 69.5142 54.6621C69.4458 54.6257 69.3672 54.5915 69.2783 54.5596C69.1917 54.5277 69.1017 54.4924 69.0083 54.4536C68.9172 54.4149 68.8271 54.3704 68.7383 54.3203C68.6517 54.2702 68.5731 54.2087 68.5024 54.1357C68.4341 54.0628 68.3783 53.9751 68.335 53.8726C68.2939 53.77 68.2734 53.647 68.2734 53.5034C68.2734 53.3576 68.3019 53.2243 68.3589 53.1035C68.4159 52.9805 68.4979 52.8757 68.605 52.7891C68.7121 52.7025 68.842 52.6353 68.9946 52.5874C69.1496 52.5396 69.3228 52.5156 69.5142 52.5156C69.6099 52.5156 69.7021 52.5225 69.791 52.5361C69.8822 52.5498 69.9642 52.5669 70.0371 52.5874C70.11 52.6079 70.1715 52.6307 70.2217 52.6558C70.2718 52.6785 70.3071 52.6991 70.3276 52.7173C70.3504 52.7332 70.3664 52.7503 70.3755 52.7686C70.3846 52.7845 70.3914 52.805 70.396 52.8301C70.4006 52.8529 70.404 52.8825 70.4062 52.9189C70.4108 52.9531 70.4131 52.9964 70.4131 53.0488C70.4131 53.1104 70.4108 53.1605 70.4062 53.1992C70.404 53.238 70.3983 53.2687 70.3892 53.2915C70.3823 53.3143 70.3721 53.3302 70.3584 53.3394C70.3447 53.3462 70.3288 53.3496 70.3105 53.3496C70.29 53.3496 70.2581 53.3382 70.2148 53.3154C70.1715 53.2904 70.1169 53.2642 70.0508 53.2368C69.987 53.2095 69.9118 53.1844 69.8252 53.1616C69.7409 53.1366 69.644 53.124 69.5347 53.124C69.4572 53.124 69.39 53.132 69.333 53.1479C69.276 53.1639 69.2293 53.1867 69.1929 53.2163C69.1564 53.2459 69.1291 53.2812 69.1108 53.3223C69.0926 53.361 69.0835 53.4032 69.0835 53.4487C69.0835 53.5194 69.1051 53.5786 69.1484 53.6265C69.1917 53.6743 69.2487 53.7165 69.3193 53.7529C69.39 53.7894 69.4697 53.8236 69.5586 53.8555C69.6497 53.8874 69.7409 53.9227 69.832 53.9614C69.9255 53.9979 70.0166 54.0412 70.1055 54.0913C70.1966 54.1414 70.2775 54.203 70.3481 54.2759C70.4188 54.3488 70.4757 54.4365 70.519 54.5391C70.5623 54.6393 70.584 54.759 70.584 54.8979ZM72.9561 55.4585C72.9561 55.5588 72.9492 55.6362 72.9355 55.6909C72.9242 55.7433 72.9082 55.7809 72.8877 55.8037C72.8672 55.8242 72.8364 55.8436 72.7954 55.8618C72.7567 55.8778 72.71 55.8914 72.6553 55.9028C72.6029 55.9165 72.5448 55.9268 72.481 55.9336C72.4194 55.9404 72.3568 55.9438 72.293 55.9438C72.1221 55.9438 71.974 55.9222 71.8486 55.8789C71.7233 55.8356 71.6196 55.7695 71.5376 55.6807C71.4556 55.5895 71.3952 55.4756 71.3564 55.3389C71.3177 55.2021 71.2983 55.0404 71.2983 54.8535V53.2915H70.9326C70.8893 53.2915 70.8563 53.2653 70.8335 53.2129C70.8107 53.1582 70.7993 53.0682 70.7993 52.9429C70.7993 52.8768 70.8016 52.821 70.8062 52.7754C70.813 52.7298 70.8221 52.6945 70.8335 52.6694C70.8449 52.6421 70.8586 52.6227 70.8745 52.6113C70.8927 52.5999 70.9132 52.5942 70.936 52.5942H71.2983V51.9141C71.2983 51.8913 71.304 51.8708 71.3154 51.8525C71.3291 51.8343 71.3519 51.8195 71.3838 51.8081C71.418 51.7944 71.4624 51.7853 71.5171 51.7808C71.5741 51.7739 71.6436 51.7705 71.7256 51.7705C71.8099 51.7705 71.8794 51.7739 71.9341 51.7808C71.991 51.7853 72.0355 51.7944 72.0674 51.8081C72.0993 51.8195 72.1221 51.8343 72.1357 51.8525C72.1494 51.8708 72.1562 51.8913 72.1562 51.9141V52.5942H72.8193C72.8421 52.5942 72.8615 52.5999 72.8774 52.6113C72.8957 52.6227 72.9105 52.6421 72.9219 52.6694C72.9333 52.6945 72.9412 52.7298 72.9458 52.7754C72.9526 52.821 72.9561 52.8768 72.9561 52.9429C72.9561 53.0682 72.9447 53.1582 72.9219 53.2129C72.8991 53.2653 72.866 53.2915 72.8228 53.2915H72.1562V54.7236C72.1562 54.89 72.1825 55.0153 72.2349 55.0996C72.2873 55.1816 72.3807 55.2227 72.5151 55.2227C72.5607 55.2227 72.6017 55.2192 72.6382 55.2124C72.6746 55.2033 72.7065 55.1942 72.7339 55.1851C72.7635 55.1737 72.7874 55.1646 72.8057 55.1577C72.8262 55.1486 72.8444 55.144 72.8604 55.144C72.874 55.144 72.8866 55.1486 72.8979 55.1577C72.9116 55.1646 72.9219 55.1805 72.9287 55.2056C72.9355 55.2284 72.9412 55.2603 72.9458 55.3013C72.9526 55.3423 72.9561 55.3947 72.9561 55.4585ZM76.0254 55.7593C76.0254 55.7821 76.0186 55.8026 76.0049 55.8208C75.9912 55.8368 75.9673 55.8504 75.9331 55.8618C75.9012 55.8732 75.8579 55.8812 75.8032 55.8857C75.7485 55.8926 75.679 55.896 75.5947 55.896C75.5104 55.896 75.4409 55.8926 75.3862 55.8857C75.3315 55.8812 75.2871 55.8732 75.2529 55.8618C75.221 55.8504 75.1982 55.8368 75.1846 55.8208C75.1709 55.8026 75.1641 55.7821 75.1641 55.7593V52.7173C75.1641 52.6945 75.1709 52.6751 75.1846 52.6592C75.1982 52.641 75.221 52.6261 75.2529 52.6147C75.2871 52.6011 75.3315 52.5908 75.3862 52.584C75.4409 52.5771 75.5104 52.5737 75.5947 52.5737C75.679 52.5737 75.7485 52.5771 75.8032 52.584C75.8579 52.5908 75.9012 52.6011 75.9331 52.6147C75.9673 52.6261 75.9912 52.641 76.0049 52.6592C76.0186 52.6751 76.0254 52.6945 76.0254 52.7173V55.7593ZM76.0903 51.6782C76.0903 51.8514 76.055 51.971 75.9844 52.0371C75.9137 52.1032 75.7827 52.1362 75.5913 52.1362C75.3976 52.1362 75.2666 52.1043 75.1982 52.0405C75.1322 51.9767 75.0991 51.8617 75.0991 51.6953C75.0991 51.5221 75.1333 51.4025 75.2017 51.3364C75.2723 51.2681 75.4045 51.2339 75.5981 51.2339C75.7896 51.2339 75.9194 51.2669 75.9878 51.333C76.0562 51.3968 76.0903 51.5119 76.0903 51.6782ZM79.7988 55.7593C79.7988 55.7821 79.792 55.8026 79.7783 55.8208C79.7646 55.8368 79.7419 55.8504 79.71 55.8618C79.6781 55.8732 79.6336 55.8812 79.5767 55.8857C79.522 55.8926 79.4536 55.896 79.3716 55.896C79.2873 55.896 79.2166 55.8926 79.1597 55.8857C79.105 55.8812 79.0617 55.8732 79.0298 55.8618C78.9979 55.8504 78.9751 55.8368 78.9614 55.8208C78.9478 55.8026 78.9409 55.7821 78.9409 55.7593V54.0195C78.9409 53.8714 78.9295 53.7552 78.9067 53.6709C78.8862 53.5866 78.8555 53.5148 78.8145 53.4556C78.7734 53.394 78.7199 53.3473 78.6538 53.3154C78.59 53.2812 78.5148 53.2642 78.4282 53.2642C78.3188 53.2642 78.2083 53.304 78.0967 53.3838C77.985 53.4635 77.8688 53.5798 77.748 53.7324V55.7593C77.748 55.7821 77.7412 55.8026 77.7275 55.8208C77.7139 55.8368 77.6899 55.8504 77.6558 55.8618C77.6239 55.8732 77.5806 55.8812 77.5259 55.8857C77.4712 55.8926 77.4017 55.896 77.3174 55.896C77.2331 55.896 77.1636 55.8926 77.1089 55.8857C77.0542 55.8812 77.0098 55.8732 76.9756 55.8618C76.9437 55.8504 76.9209 55.8368 76.9072 55.8208C76.8936 55.8026 76.8867 55.7821 76.8867 55.7593V52.7104C76.8867 52.6877 76.8924 52.6683 76.9038 52.6523C76.9152 52.6341 76.9357 52.6193 76.9653 52.6079C76.995 52.5965 77.0326 52.5885 77.0781 52.584C77.126 52.5771 77.1852 52.5737 77.2559 52.5737C77.3288 52.5737 77.3892 52.5771 77.437 52.584C77.4849 52.5885 77.5213 52.5965 77.5464 52.6079C77.5737 52.6193 77.5931 52.6341 77.6045 52.6523C77.6159 52.6683 77.6216 52.6877 77.6216 52.7104V53.0625C77.7902 52.8802 77.9611 52.7435 78.1343 52.6523C78.3097 52.5612 78.492 52.5156 78.6812 52.5156C78.8885 52.5156 79.0628 52.5498 79.2041 52.6182C79.3477 52.6865 79.4627 52.7799 79.5493 52.8984C79.6382 53.0146 79.702 53.1514 79.7407 53.3086C79.7795 53.4658 79.7988 53.6549 79.7988 53.876V55.7593ZM84.9053 55.5234C84.9053 55.5895 84.9019 55.6453 84.895 55.6909C84.8905 55.7342 84.8825 55.7695 84.8711 55.7969C84.8597 55.8242 84.8449 55.8447 84.8267 55.8584C84.8107 55.8698 84.7925 55.8755 84.772 55.8755H82.5503C82.4751 55.8755 82.4113 55.8538 82.3589 55.8105C82.3088 55.765 82.2837 55.6921 82.2837 55.5918V51.7363C82.2837 51.6361 82.3088 51.5643 82.3589 51.521C82.4113 51.4754 82.4751 51.4526 82.5503 51.4526H84.7583C84.7788 51.4526 84.797 51.4583 84.813 51.4697C84.8289 51.4811 84.8426 51.5016 84.854 51.5312C84.8654 51.5586 84.8734 51.5951 84.8779 51.6406C84.8848 51.6839 84.8882 51.7397 84.8882 51.8081C84.8882 51.8719 84.8848 51.9266 84.8779 51.9722C84.8734 52.0155 84.8654 52.0508 84.854 52.0781C84.8426 52.1055 84.8289 52.126 84.813 52.1396C84.797 52.151 84.7788 52.1567 84.7583 52.1567H83.1792V53.2368H84.5156C84.5361 53.2368 84.5544 53.2437 84.5703 53.2573C84.5885 53.2687 84.6034 53.2881 84.6147 53.3154C84.6261 53.3405 84.6341 53.3758 84.6387 53.4214C84.6455 53.4647 84.6489 53.5182 84.6489 53.582C84.6489 53.6481 84.6455 53.7028 84.6387 53.7461C84.6341 53.7894 84.6261 53.8247 84.6147 53.8521C84.6034 53.8771 84.5885 53.8953 84.5703 53.9067C84.5544 53.9181 84.5361 53.9238 84.5156 53.9238H83.1792V55.1714H84.772C84.7925 55.1714 84.8107 55.1782 84.8267 55.1919C84.8449 55.2033 84.8597 55.2227 84.8711 55.25C84.8825 55.2773 84.8905 55.3138 84.895 55.3594C84.9019 55.4027 84.9053 55.4574 84.9053 55.5234ZM88.5625 55.7593C88.5625 55.7821 88.5557 55.8026 88.542 55.8208C88.5283 55.8368 88.5055 55.8504 88.4736 55.8618C88.4417 55.8732 88.3973 55.8812 88.3403 55.8857C88.2856 55.8926 88.2173 55.896 88.1353 55.896C88.0509 55.896 87.9803 55.8926 87.9233 55.8857C87.8687 55.8812 87.8254 55.8732 87.7935 55.8618C87.7616 55.8504 87.7388 55.8368 87.7251 55.8208C87.7114 55.8026 87.7046 55.7821 87.7046 55.7593V54.0195C87.7046 53.8714 87.6932 53.7552 87.6704 53.6709C87.6499 53.5866 87.6191 53.5148 87.5781 53.4556C87.5371 53.394 87.4836 53.3473 87.4175 53.3154C87.3537 53.2812 87.2785 53.2642 87.1919 53.2642C87.0825 53.2642 86.972 53.304 86.8604 53.3838C86.7487 53.4635 86.6325 53.5798 86.5117 53.7324V55.7593C86.5117 55.7821 86.5049 55.8026 86.4912 55.8208C86.4775 55.8368 86.4536 55.8504 86.4194 55.8618C86.3875 55.8732 86.3442 55.8812 86.2896 55.8857C86.2349 55.8926 86.1654 55.896 86.0811 55.896C85.9967 55.896 85.9272 55.8926 85.8726 55.8857C85.8179 55.8812 85.7734 55.8732 85.7393 55.8618C85.7074 55.8504 85.6846 55.8368 85.6709 55.8208C85.6572 55.8026 85.6504 55.7821 85.6504 55.7593V52.7104C85.6504 52.6877 85.6561 52.6683 85.6675 52.6523C85.6789 52.6341 85.6994 52.6193 85.729 52.6079C85.7586 52.5965 85.7962 52.5885 85.8418 52.584C85.8896 52.5771 85.9489 52.5737 86.0195 52.5737C86.0924 52.5737 86.1528 52.5771 86.2007 52.584C86.2485 52.5885 86.285 52.5965 86.3101 52.6079C86.3374 52.6193 86.3568 52.6341 86.3682 52.6523C86.3796 52.6683 86.3853 52.6877 86.3853 52.7104V53.0625C86.5539 52.8802 86.7248 52.7435 86.8979 52.6523C87.0734 52.5612 87.2557 52.5156 87.4448 52.5156C87.6522 52.5156 87.8265 52.5498 87.9678 52.6182C88.1113 52.6865 88.2264 52.7799 88.313 52.8984C88.4019 53.0146 88.4657 53.1514 88.5044 53.3086C88.5431 53.4658 88.5625 53.6549 88.5625 53.876V55.7593ZM92.1582 52.9224C92.1582 53.0317 92.1457 53.1126 92.1206 53.165C92.0955 53.2174 92.0648 53.2437 92.0283 53.2437H91.6694C91.7196 53.2983 91.7549 53.361 91.7754 53.4316C91.7982 53.5 91.8096 53.5718 91.8096 53.647C91.8096 53.8247 91.7799 53.9831 91.7207 54.1221C91.6615 54.2588 91.576 54.375 91.4644 54.4707C91.355 54.5641 91.2217 54.6359 91.0645 54.686C90.9095 54.7339 90.7363 54.7578 90.5449 54.7578C90.4469 54.7578 90.3535 54.7464 90.2646 54.7236C90.1758 54.6986 90.1074 54.6701 90.0596 54.6382C90.0322 54.6678 90.0072 54.7031 89.9844 54.7441C89.9639 54.7852 89.9536 54.8307 89.9536 54.8809C89.9536 54.9469 89.9821 55.0016 90.0391 55.0449C90.0983 55.0859 90.1803 55.1087 90.2852 55.1133L91.0269 55.1406C91.2 55.1475 91.3538 55.1725 91.4883 55.2158C91.625 55.2568 91.7389 55.3161 91.8301 55.3936C91.9235 55.4688 91.9941 55.5599 92.042 55.667C92.0921 55.7741 92.1172 55.896 92.1172 56.0327C92.1172 56.1831 92.0841 56.3244 92.0181 56.4565C91.952 56.591 91.8529 56.7072 91.7207 56.8052C91.5885 56.9032 91.4222 56.9806 91.2217 57.0376C91.0234 57.0946 90.791 57.123 90.5244 57.123C90.2646 57.123 90.0425 57.1025 89.8579 57.0615C89.6756 57.0205 89.5252 56.9635 89.4067 56.8906C89.2905 56.8177 89.2051 56.73 89.1504 56.6274C89.098 56.5272 89.0718 56.4167 89.0718 56.2959C89.0718 56.2207 89.0809 56.1489 89.0991 56.0806C89.1196 56.0122 89.1481 55.9461 89.1846 55.8823C89.2233 55.8208 89.27 55.7616 89.3247 55.7046C89.3794 55.6476 89.4421 55.5929 89.5127 55.5405C89.4147 55.4881 89.3384 55.4175 89.2837 55.3286C89.2313 55.2375 89.2051 55.1383 89.2051 55.0312C89.2051 54.8968 89.2358 54.7749 89.2974 54.6655C89.3589 54.5539 89.4386 54.4536 89.5366 54.3647C89.4569 54.285 89.3931 54.1893 89.3452 54.0776C89.2974 53.966 89.2734 53.827 89.2734 53.6606C89.2734 53.4829 89.3042 53.3245 89.3657 53.1855C89.4295 53.0443 89.5173 52.9258 89.6289 52.8301C89.7406 52.7321 89.8739 52.658 90.0288 52.6079C90.1838 52.5555 90.3547 52.5293 90.5415 52.5293C90.6372 52.5293 90.7284 52.535 90.8149 52.5464C90.9038 52.5578 90.9858 52.5737 91.061 52.5942H92.0283C92.0671 52.5942 92.0978 52.6193 92.1206 52.6694C92.1457 52.7196 92.1582 52.8039 92.1582 52.9224ZM91.0542 53.6436C91.0542 53.4795 91.0086 53.3519 90.9175 53.2607C90.8263 53.1696 90.6976 53.124 90.5312 53.124C90.4469 53.124 90.3729 53.1388 90.3091 53.1685C90.2453 53.1958 90.1917 53.2345 90.1484 53.2847C90.1074 53.3325 90.0767 53.3895 90.0562 53.4556C90.0356 53.5194 90.0254 53.5866 90.0254 53.6572C90.0254 53.8122 90.071 53.9352 90.1621 54.0264C90.2533 54.1152 90.3797 54.1597 90.5415 54.1597C90.6281 54.1597 90.7033 54.146 90.7671 54.1187C90.8309 54.0913 90.8833 54.0537 90.9243 54.0059C90.9676 53.958 90.9995 53.9033 91.02 53.8418C91.0428 53.778 91.0542 53.7119 91.0542 53.6436ZM91.2559 56.0771C91.2559 55.9746 91.2148 55.896 91.1328 55.8413C91.0508 55.7866 90.938 55.757 90.7944 55.7524L90.1826 55.7354C90.1234 55.7786 90.0755 55.8208 90.0391 55.8618C90.0049 55.9006 89.9764 55.9382 89.9536 55.9746C89.9331 56.0111 89.9194 56.0464 89.9126 56.0806C89.9058 56.1147 89.9023 56.1501 89.9023 56.1865C89.9023 56.3005 89.9593 56.387 90.0732 56.4463C90.1895 56.5055 90.3524 56.5352 90.562 56.5352C90.6919 56.5352 90.8013 56.5215 90.8901 56.4941C90.979 56.4691 91.0508 56.4349 91.1055 56.3916C91.1602 56.3483 91.1989 56.2993 91.2217 56.2446C91.2445 56.1922 91.2559 56.1364 91.2559 56.0771ZM93.5938 55.7593C93.5938 55.7821 93.5869 55.8026 93.5732 55.8208C93.5596 55.8368 93.5356 55.8504 93.5015 55.8618C93.4696 55.8732 93.4263 55.8812 93.3716 55.8857C93.3169 55.8926 93.2474 55.896 93.1631 55.896C93.0788 55.896 93.0093 55.8926 92.9546 55.8857C92.8999 55.8812 92.8555 55.8732 92.8213 55.8618C92.7894 55.8504 92.7666 55.8368 92.7529 55.8208C92.7393 55.8026 92.7324 55.7821 92.7324 55.7593V52.7173C92.7324 52.6945 92.7393 52.6751 92.7529 52.6592C92.7666 52.641 92.7894 52.6261 92.8213 52.6147C92.8555 52.6011 92.8999 52.5908 92.9546 52.584C93.0093 52.5771 93.0788 52.5737 93.1631 52.5737C93.2474 52.5737 93.3169 52.5771 93.3716 52.584C93.4263 52.5908 93.4696 52.6011 93.5015 52.6147C93.5356 52.6261 93.5596 52.641 93.5732 52.6592C93.5869 52.6751 93.5938 52.6945 93.5938 52.7173V55.7593ZM93.6587 51.6782C93.6587 51.8514 93.6234 51.971 93.5527 52.0371C93.4821 52.1032 93.3511 52.1362 93.1597 52.1362C92.966 52.1362 92.835 52.1043 92.7666 52.0405C92.7005 51.9767 92.6675 51.8617 92.6675 51.6953C92.6675 51.5221 92.7017 51.4025 92.77 51.3364C92.8407 51.2681 92.9728 51.2339 93.1665 51.2339C93.3579 51.2339 93.4878 51.2669 93.5562 51.333C93.6245 51.3968 93.6587 51.5119 93.6587 51.6782ZM97.3672 55.7593C97.3672 55.7821 97.3604 55.8026 97.3467 55.8208C97.333 55.8368 97.3102 55.8504 97.2783 55.8618C97.2464 55.8732 97.202 55.8812 97.145 55.8857C97.0903 55.8926 97.022 55.896 96.9399 55.896C96.8556 55.896 96.785 55.8926 96.728 55.8857C96.6733 55.8812 96.63 55.8732 96.5981 55.8618C96.5662 55.8504 96.5435 55.8368 96.5298 55.8208C96.5161 55.8026 96.5093 55.7821 96.5093 55.7593V54.0195C96.5093 53.8714 96.4979 53.7552 96.4751 53.6709C96.4546 53.5866 96.4238 53.5148 96.3828 53.4556C96.3418 53.394 96.2882 53.3473 96.2222 53.3154C96.1584 53.2812 96.0832 53.2642 95.9966 53.2642C95.8872 53.2642 95.7767 53.304 95.665 53.3838C95.5534 53.4635 95.4372 53.5798 95.3164 53.7324V55.7593C95.3164 55.7821 95.3096 55.8026 95.2959 55.8208C95.2822 55.8368 95.2583 55.8504 95.2241 55.8618C95.1922 55.8732 95.1489 55.8812 95.0942 55.8857C95.0396 55.8926 94.9701 55.896 94.8857 55.896C94.8014 55.896 94.7319 55.8926 94.6772 55.8857C94.6226 55.8812 94.5781 55.8732 94.5439 55.8618C94.512 55.8504 94.4893 55.8368 94.4756 55.8208C94.4619 55.8026 94.4551 55.7821 94.4551 55.7593V52.7104C94.4551 52.6877 94.4608 52.6683 94.4722 52.6523C94.4836 52.6341 94.5041 52.6193 94.5337 52.6079C94.5633 52.5965 94.6009 52.5885 94.6465 52.584C94.6943 52.5771 94.7536 52.5737 94.8242 52.5737C94.8971 52.5737 94.9575 52.5771 95.0054 52.584C95.0532 52.5885 95.0897 52.5965 95.1147 52.6079C95.1421 52.6193 95.1615 52.6341 95.1729 52.6523C95.1842 52.6683 95.1899 52.6877 95.1899 52.7104V53.0625C95.3586 52.8802 95.5295 52.7435 95.7026 52.6523C95.8781 52.5612 96.0604 52.5156 96.2495 52.5156C96.4569 52.5156 96.6312 52.5498 96.7725 52.6182C96.916 52.6865 97.0311 52.7799 97.1177 52.8984C97.2065 53.0146 97.2703 53.1514 97.3091 53.3086C97.3478 53.4658 97.3672 53.6549 97.3672 53.876V55.7593ZM101.031 54.146C101.031 54.2508 101.007 54.3283 100.959 54.3784C100.914 54.4285 100.85 54.4536 100.768 54.4536H98.9121C98.9121 54.5835 98.9269 54.702 98.9565 54.8091C98.9884 54.9139 99.0374 55.0039 99.1035 55.0791C99.1719 55.152 99.2585 55.2078 99.3633 55.2466C99.4704 55.2853 99.598 55.3047 99.7461 55.3047C99.8965 55.3047 100.029 55.2944 100.143 55.2739C100.257 55.2511 100.354 55.2272 100.437 55.2021C100.521 55.1748 100.59 55.1509 100.645 55.1304C100.7 55.1076 100.744 55.0962 100.778 55.0962C100.799 55.0962 100.816 55.1007 100.83 55.1099C100.843 55.1167 100.855 55.1304 100.864 55.1509C100.873 55.1714 100.879 55.201 100.881 55.2397C100.885 55.2762 100.888 55.3229 100.888 55.3799C100.888 55.43 100.887 55.4733 100.884 55.5098C100.882 55.5439 100.879 55.5736 100.874 55.5986C100.869 55.6237 100.863 55.6453 100.854 55.6636C100.844 55.6795 100.832 55.6955 100.816 55.7114C100.802 55.7274 100.762 55.749 100.696 55.7764C100.63 55.8037 100.546 55.8311 100.443 55.8584C100.341 55.8835 100.223 55.9051 100.091 55.9233C99.9591 55.9438 99.8179 55.9541 99.6675 55.9541C99.3963 55.9541 99.1582 55.9199 98.9531 55.8516C98.7503 55.7832 98.5806 55.6795 98.4438 55.5405C98.3071 55.4015 98.2046 55.2261 98.1362 55.0142C98.0701 54.8022 98.0371 54.5539 98.0371 54.269C98.0371 53.9979 98.0724 53.7541 98.1431 53.5376C98.2137 53.3188 98.3162 53.1343 98.4507 52.9839C98.5851 52.8312 98.748 52.715 98.9395 52.6353C99.1331 52.5555 99.3507 52.5156 99.5923 52.5156C99.8475 52.5156 100.065 52.5532 100.245 52.6284C100.427 52.7036 100.577 52.8084 100.693 52.9429C100.809 53.075 100.895 53.2323 100.949 53.4146C101.004 53.5968 101.031 53.7951 101.031 54.0093V54.146ZM100.197 53.8999C100.204 53.6584 100.155 53.4692 100.05 53.3325C99.9478 53.1935 99.7882 53.124 99.5718 53.124C99.4624 53.124 99.3667 53.1445 99.2847 53.1855C99.2049 53.2266 99.1377 53.2824 99.083 53.353C99.0306 53.4214 98.9896 53.5034 98.96 53.5991C98.9326 53.6925 98.9167 53.7928 98.9121 53.8999H100.197ZM104.559 54.146C104.559 54.2508 104.535 54.3283 104.487 54.3784C104.441 54.4285 104.377 54.4536 104.295 54.4536H102.439C102.439 54.5835 102.454 54.702 102.484 54.8091C102.516 54.9139 102.565 55.0039 102.631 55.0791C102.699 55.152 102.786 55.2078 102.891 55.2466C102.998 55.2853 103.125 55.3047 103.273 55.3047C103.424 55.3047 103.556 55.2944 103.67 55.2739C103.784 55.2511 103.882 55.2272 103.964 55.2021C104.048 55.1748 104.118 55.1509 104.172 55.1304C104.227 55.1076 104.271 55.0962 104.306 55.0962C104.326 55.0962 104.343 55.1007 104.357 55.1099C104.371 55.1167 104.382 55.1304 104.391 55.1509C104.4 55.1714 104.406 55.201 104.408 55.2397C104.413 55.2762 104.415 55.3229 104.415 55.3799C104.415 55.43 104.414 55.4733 104.412 55.5098C104.409 55.5439 104.406 55.5736 104.401 55.5986C104.397 55.6237 104.39 55.6453 104.381 55.6636C104.372 55.6795 104.359 55.6955 104.343 55.7114C104.33 55.7274 104.29 55.749 104.224 55.7764C104.158 55.8037 104.073 55.8311 103.971 55.8584C103.868 55.8835 103.751 55.9051 103.619 55.9233C103.486 55.9438 103.345 55.9541 103.195 55.9541C102.924 55.9541 102.686 55.9199 102.48 55.8516C102.278 55.7832 102.108 55.6795 101.971 55.5405C101.834 55.4015 101.732 55.2261 101.664 55.0142C101.597 54.8022 101.564 54.5539 101.564 54.269C101.564 53.9979 101.6 53.7541 101.67 53.5376C101.741 53.3188 101.844 53.1343 101.978 52.9839C102.112 52.8312 102.275 52.715 102.467 52.6353C102.66 52.5555 102.878 52.5156 103.12 52.5156C103.375 52.5156 103.592 52.5532 103.772 52.6284C103.955 52.7036 104.104 52.8084 104.22 52.9429C104.336 53.075 104.422 53.2323 104.477 53.4146C104.531 53.5968 104.559 53.7951 104.559 54.0093V54.146ZM103.725 53.8999C103.731 53.6584 103.682 53.4692 103.578 53.3325C103.475 53.1935 103.316 53.124 103.099 53.124C102.99 53.124 102.894 53.1445 102.812 53.1855C102.732 53.2266 102.665 53.2824 102.61 53.353C102.558 53.4214 102.517 53.5034 102.487 53.5991C102.46 53.6925 102.444 53.7928 102.439 53.8999H103.725ZM107.228 52.9941C107.228 53.0762 107.226 53.1434 107.221 53.1958C107.217 53.2482 107.21 53.2892 107.201 53.3188C107.192 53.3485 107.179 53.369 107.163 53.3804C107.149 53.3918 107.131 53.3975 107.108 53.3975C107.09 53.3975 107.07 53.394 107.047 53.3872C107.024 53.3781 106.998 53.369 106.968 53.3599C106.941 53.3507 106.91 53.3428 106.876 53.3359C106.842 53.3268 106.804 53.3223 106.763 53.3223C106.715 53.3223 106.667 53.3325 106.62 53.353C106.572 53.3713 106.522 53.4009 106.469 53.4419C106.419 53.4829 106.366 53.5376 106.309 53.606C106.254 53.6743 106.195 53.7586 106.131 53.8589V55.7593C106.131 55.7821 106.124 55.8026 106.11 55.8208C106.097 55.8368 106.073 55.8504 106.039 55.8618C106.007 55.8732 105.963 55.8812 105.909 55.8857C105.854 55.8926 105.785 55.896 105.7 55.896C105.616 55.896 105.546 55.8926 105.492 55.8857C105.437 55.8812 105.393 55.8732 105.358 55.8618C105.326 55.8504 105.304 55.8368 105.29 55.8208C105.276 55.8026 105.27 55.7821 105.27 55.7593V52.7104C105.27 52.6877 105.275 52.6683 105.287 52.6523C105.298 52.6341 105.319 52.6193 105.348 52.6079C105.378 52.5965 105.415 52.5885 105.461 52.584C105.509 52.5771 105.568 52.5737 105.639 52.5737C105.712 52.5737 105.772 52.5771 105.82 52.584C105.868 52.5885 105.904 52.5965 105.929 52.6079C105.957 52.6193 105.976 52.6341 105.987 52.6523C105.999 52.6683 106.004 52.6877 106.004 52.7104V53.0898C106.084 52.9759 106.159 52.8825 106.23 52.8096C106.301 52.7344 106.368 52.6751 106.432 52.6318C106.495 52.5885 106.559 52.5589 106.623 52.543C106.687 52.5247 106.751 52.5156 106.814 52.5156C106.844 52.5156 106.876 52.5179 106.91 52.5225C106.944 52.5247 106.98 52.5304 107.016 52.5396C107.053 52.5464 107.084 52.5555 107.112 52.5669C107.139 52.576 107.159 52.5863 107.17 52.5977C107.184 52.609 107.193 52.6216 107.197 52.6353C107.204 52.6489 107.21 52.6683 107.214 52.6934C107.219 52.7161 107.222 52.7515 107.225 52.7993C107.227 52.8472 107.228 52.9121 107.228 52.9941ZM108.619 55.7593C108.619 55.7821 108.612 55.8026 108.599 55.8208C108.585 55.8368 108.561 55.8504 108.527 55.8618C108.495 55.8732 108.452 55.8812 108.397 55.8857C108.342 55.8926 108.273 55.896 108.188 55.896C108.104 55.896 108.035 55.8926 107.98 55.8857C107.925 55.8812 107.881 55.8732 107.847 55.8618C107.815 55.8504 107.792 55.8368 107.778 55.8208C107.765 55.8026 107.758 55.7821 107.758 55.7593V52.7173C107.758 52.6945 107.765 52.6751 107.778 52.6592C107.792 52.641 107.815 52.6261 107.847 52.6147C107.881 52.6011 107.925 52.5908 107.98 52.584C108.035 52.5771 108.104 52.5737 108.188 52.5737C108.273 52.5737 108.342 52.5771 108.397 52.584C108.452 52.5908 108.495 52.6011 108.527 52.6147C108.561 52.6261 108.585 52.641 108.599 52.6592C108.612 52.6751 108.619 52.6945 108.619 52.7173V55.7593ZM108.684 51.6782C108.684 51.8514 108.649 51.971 108.578 52.0371C108.507 52.1032 108.376 52.1362 108.185 52.1362C107.991 52.1362 107.86 52.1043 107.792 52.0405C107.726 51.9767 107.693 51.8617 107.693 51.6953C107.693 51.5221 107.727 51.4025 107.795 51.3364C107.866 51.2681 107.998 51.2339 108.192 51.2339C108.383 51.2339 108.513 51.2669 108.582 51.333C108.65 51.3968 108.684 51.5119 108.684 51.6782ZM112.393 55.7593C112.393 55.7821 112.386 55.8026 112.372 55.8208C112.358 55.8368 112.336 55.8504 112.304 55.8618C112.272 55.8732 112.227 55.8812 112.17 55.8857C112.116 55.8926 112.047 55.896 111.965 55.896C111.881 55.896 111.81 55.8926 111.753 55.8857C111.699 55.8812 111.655 55.8732 111.624 55.8618C111.592 55.8504 111.569 55.8368 111.555 55.8208C111.542 55.8026 111.535 55.7821 111.535 55.7593V54.0195C111.535 53.8714 111.523 53.7552 111.5 53.6709C111.48 53.5866 111.449 53.5148 111.408 53.4556C111.367 53.394 111.314 53.3473 111.248 53.3154C111.184 53.2812 111.109 53.2642 111.022 53.2642C110.913 53.2642 110.802 53.304 110.69 53.3838C110.579 53.4635 110.463 53.5798 110.342 53.7324V55.7593C110.342 55.7821 110.335 55.8026 110.321 55.8208C110.308 55.8368 110.284 55.8504 110.25 55.8618C110.218 55.8732 110.174 55.8812 110.12 55.8857C110.065 55.8926 109.995 55.896 109.911 55.896C109.827 55.896 109.757 55.8926 109.703 55.8857C109.648 55.8812 109.604 55.8732 109.569 55.8618C109.537 55.8504 109.515 55.8368 109.501 55.8208C109.487 55.8026 109.48 55.7821 109.48 55.7593V52.7104C109.48 52.6877 109.486 52.6683 109.498 52.6523C109.509 52.6341 109.529 52.6193 109.559 52.6079C109.589 52.5965 109.626 52.5885 109.672 52.584C109.72 52.5771 109.779 52.5737 109.85 52.5737C109.923 52.5737 109.983 52.5771 110.031 52.584C110.079 52.5885 110.115 52.5965 110.14 52.6079C110.167 52.6193 110.187 52.6341 110.198 52.6523C110.21 52.6683 110.215 52.6877 110.215 52.7104V53.0625C110.384 52.8802 110.555 52.7435 110.728 52.6523C110.903 52.5612 111.086 52.5156 111.275 52.5156C111.482 52.5156 111.657 52.5498 111.798 52.6182C111.941 52.6865 112.056 52.7799 112.143 52.8984C112.232 53.0146 112.296 53.1514 112.334 53.3086C112.373 53.4658 112.393 53.6549 112.393 53.876V55.7593ZM115.988 52.9224C115.988 53.0317 115.976 53.1126 115.951 53.165C115.926 53.2174 115.895 53.2437 115.858 53.2437H115.5C115.55 53.2983 115.585 53.361 115.605 53.4316C115.628 53.5 115.64 53.5718 115.64 53.647C115.64 53.8247 115.61 53.9831 115.551 54.1221C115.492 54.2588 115.406 54.375 115.294 54.4707C115.185 54.5641 115.052 54.6359 114.895 54.686C114.74 54.7339 114.566 54.7578 114.375 54.7578C114.277 54.7578 114.184 54.7464 114.095 54.7236C114.006 54.6986 113.938 54.6701 113.89 54.6382C113.862 54.6678 113.837 54.7031 113.814 54.7441C113.794 54.7852 113.784 54.8307 113.784 54.8809C113.784 54.9469 113.812 55.0016 113.869 55.0449C113.928 55.0859 114.01 55.1087 114.115 55.1133L114.857 55.1406C115.03 55.1475 115.184 55.1725 115.318 55.2158C115.455 55.2568 115.569 55.3161 115.66 55.3936C115.754 55.4688 115.824 55.5599 115.872 55.667C115.922 55.7741 115.947 55.896 115.947 56.0327C115.947 56.1831 115.914 56.3244 115.848 56.4565C115.782 56.591 115.683 56.7072 115.551 56.8052C115.419 56.9032 115.252 56.9806 115.052 57.0376C114.854 57.0946 114.621 57.123 114.354 57.123C114.095 57.123 113.873 57.1025 113.688 57.0615C113.506 57.0205 113.355 56.9635 113.237 56.8906C113.121 56.8177 113.035 56.73 112.98 56.6274C112.928 56.5272 112.902 56.4167 112.902 56.2959C112.902 56.2207 112.911 56.1489 112.929 56.0806C112.95 56.0122 112.978 55.9461 113.015 55.8823C113.053 55.8208 113.1 55.7616 113.155 55.7046C113.209 55.6476 113.272 55.5929 113.343 55.5405C113.245 55.4881 113.168 55.4175 113.114 55.3286C113.061 55.2375 113.035 55.1383 113.035 55.0312C113.035 54.8968 113.066 54.7749 113.127 54.6655C113.189 54.5539 113.269 54.4536 113.367 54.3647C113.287 54.285 113.223 54.1893 113.175 54.0776C113.127 53.966 113.104 53.827 113.104 53.6606C113.104 53.4829 113.134 53.3245 113.196 53.1855C113.26 53.0443 113.347 52.9258 113.459 52.8301C113.571 52.7321 113.704 52.658 113.859 52.6079C114.014 52.5555 114.185 52.5293 114.372 52.5293C114.467 52.5293 114.558 52.535 114.645 52.5464C114.734 52.5578 114.816 52.5737 114.891 52.5942H115.858C115.897 52.5942 115.928 52.6193 115.951 52.6694C115.976 52.7196 115.988 52.8039 115.988 52.9224ZM114.884 53.6436C114.884 53.4795 114.839 53.3519 114.748 53.2607C114.656 53.1696 114.528 53.124 114.361 53.124C114.277 53.124 114.203 53.1388 114.139 53.1685C114.075 53.1958 114.022 53.2345 113.979 53.2847C113.938 53.3325 113.907 53.3895 113.886 53.4556C113.866 53.5194 113.855 53.5866 113.855 53.6572C113.855 53.8122 113.901 53.9352 113.992 54.0264C114.083 54.1152 114.21 54.1597 114.372 54.1597C114.458 54.1597 114.533 54.146 114.597 54.1187C114.661 54.0913 114.713 54.0537 114.754 54.0059C114.798 53.958 114.83 53.9033 114.85 53.8418C114.873 53.778 114.884 53.7119 114.884 53.6436ZM115.086 56.0771C115.086 55.9746 115.045 55.896 114.963 55.8413C114.881 55.7866 114.768 55.757 114.625 55.7524L114.013 55.7354C113.953 55.7786 113.906 55.8208 113.869 55.8618C113.835 55.9006 113.806 55.9382 113.784 55.9746C113.763 56.0111 113.75 56.0464 113.743 56.0806C113.736 56.1147 113.732 56.1501 113.732 56.1865C113.732 56.3005 113.789 56.387 113.903 56.4463C114.02 56.5055 114.182 56.5352 114.392 56.5352C114.522 56.5352 114.631 56.5215 114.72 56.4941C114.809 56.4691 114.881 56.4349 114.936 56.3916C114.99 56.3483 115.029 56.2993 115.052 56.2446C115.075 56.1922 115.086 56.1364 115.086 56.0771Z" fill="#606062"/>
</svg>
