<svg width="235" height="58" viewBox="0 0 235 58" fill="none" xmlns="http://www.w3.org/2000/svg">
<path d="M64.2528 15.85V13.15H80.3528V15.85L76.6028 16.25C76.5695 18.2833 76.5361 20.3333 76.5028 22.4C76.5028 24.4667 76.5028 26.55 76.5028 28.65V30.45C76.5028 32.5167 76.5028 34.6 76.5028 36.7C76.5361 38.7667 76.5695 40.8333 76.6028 42.9L80.3528 43.3V46H64.2528V43.3L68.0028 42.9C68.0695 40.8667 68.1028 38.8167 68.1028 36.75C68.1028 34.6833 68.1028 32.6 68.1028 30.5V28.65C68.1028 26.5833 68.1028 24.5167 68.1028 22.45C68.1028 20.35 68.0695 18.2833 68.0028 16.25L64.2528 15.85ZM83.6375 15.85V13.15H99.7375V15.85L95.9875 16.25C95.9542 18.2833 95.9209 20.3333 95.8876 22.4C95.8876 24.4667 95.8876 26.55 95.8876 28.65V30.45C95.8876 32.5167 95.8876 34.6 95.8876 36.7C95.9209 38.7667 95.9542 40.8333 95.9875 42.9L99.7375 43.3V46H83.6375V43.3L87.3875 42.9C87.4542 40.8667 87.4875 38.8167 87.4875 36.75C87.4875 34.6833 87.4875 32.6 87.4875 30.5V28.65C87.4875 26.5833 87.4875 24.5167 87.4875 22.45C87.4875 20.35 87.4542 18.2833 87.3875 16.25L83.6375 15.85ZM102.372 22.45L102.572 13.15H131.922L132.072 22.45H127.922L127.022 15.95H121.522C121.489 18.0167 121.456 20.1167 121.422 22.25C121.422 24.35 121.422 26.4833 121.422 28.65V30.45C121.422 32.5167 121.422 34.5833 121.422 36.65C121.456 38.7167 121.489 40.7833 121.522 42.85L125.822 43.3V46H108.672V43.3L112.922 42.85C112.989 40.8167 113.022 38.7667 113.022 36.7C113.022 34.6333 113.022 32.5667 113.022 30.5V28.65C113.022 26.55 113.022 24.45 113.022 22.35C113.022 20.2167 112.989 18.0833 112.922 15.95H107.472L106.522 22.45H102.372ZM131.253 35.55V31.05H144.203V35.55H131.253ZM146.97 15.85V13.15H163.62V15.85L159.77 16.25C159.737 18.1833 159.72 20.15 159.72 22.15C159.72 24.15 159.72 26.1667 159.72 28.2V33.4C159.72 37.9333 159.42 41.6 158.82 44.4C158.253 47.2 157.12 49.45 155.42 51.15C153.053 53.4833 150.237 54.65 146.97 54.65C145.603 54.65 144.403 54.3833 143.37 53.85C142.337 53.35 141.537 52.5667 140.97 51.5C141.003 50.3333 141.403 49.4167 142.17 48.75C142.903 48.1167 143.82 47.8 144.92 47.8C145.787 47.8 146.57 48.0167 147.27 48.45C147.97 48.9167 148.703 49.6167 149.47 50.55L150.52 51.8C150.92 51.0333 151.203 50.0167 151.37 48.75C151.537 47.5167 151.62 45.9833 151.62 44.15C151.62 42.5833 151.603 40.6 151.57 38.2C151.537 35.7667 151.487 32.7667 151.42 29.2C151.353 25.6 151.287 21.3 151.22 16.3L146.97 15.85ZM166.255 15.85V13.15H191.755L192.105 21.75H187.955L186.955 15.95H178.605C178.571 17.85 178.538 19.7667 178.505 21.7C178.505 23.6333 178.505 25.5833 178.505 27.55H183.905L184.505 23.65H187.405V34.4H184.505L183.905 30.5H178.505C178.505 32.8 178.505 34.9833 178.505 37.05C178.538 39.1167 178.571 41.1667 178.605 43.2H187.955L188.955 37.4H193.105L192.755 46H166.255V43.3L170.005 42.9C170.071 40.8667 170.105 38.8167 170.105 36.75C170.105 34.6833 170.105 32.6 170.105 30.5V28.65C170.105 26.5833 170.105 24.5167 170.105 22.45C170.105 20.35 170.071 18.2833 170.005 16.25L166.255 15.85ZM195.991 15.85V13.15H221.491L221.841 21.75H217.691L216.691 15.95H208.341C208.308 17.85 208.274 19.7667 208.241 21.7C208.241 23.6333 208.241 25.5833 208.241 27.55H213.641L214.241 23.65H217.141V34.4H214.241L213.641 30.5H208.241C208.241 32.8 208.241 34.9833 208.241 37.05C208.274 39.1167 208.308 41.1667 208.341 43.2H217.691L218.691 37.4H222.841L222.491 46H195.991V43.3L199.741 42.9C199.808 40.8667 199.841 38.8167 199.841 36.75C199.841 34.6833 199.841 32.6 199.841 30.5V28.65C199.841 26.5833 199.841 24.5167 199.841 22.45C199.841 20.35 199.808 18.2833 199.741 16.25L195.991 15.85Z" fill="#606062"/>
<path d="M28.5196 36.4061C24.6929 36.4061 21.5782 33.0998 21.5782 29.0377C21.5782 24.9757 24.6929 21.6693 28.5196 21.6693C32.4352 21.6693 35.55 24.9757 35.55 29.0377C35.55 33.0998 32.4352 36.4061 28.5196 36.4061ZM50.5896 31.9662L55.1282 31.5883L54.4163 22.3306L49.9667 22.614C49.3437 20.0634 48.1868 17.6073 46.8519 15.4346L49.8777 12.0338L43.5592 5.61007L40.5335 9.01085C38.2197 7.49939 35.639 6.3658 32.9692 5.799V1.07568H24.159V5.799C20.6883 6.55473 17.5736 8.06619 14.9038 10.3334L11.5221 7.21599L5.82665 14.301L9.20835 17.3239C7.78448 19.9689 6.80556 22.9919 6.53859 26.1093L2 26.4871L2.62294 35.7448L7.16153 35.4614C7.87347 38.012 9.03036 40.3737 10.3652 42.4519L7.25052 46.0417L13.569 52.4654L16.7727 48.8756C18.9975 50.3871 21.4892 51.4262 24.159 51.993V56.9997H32.9692V51.993C36.3509 51.3318 39.4656 49.8203 42.0464 47.6476L45.5171 50.8594L51.3015 43.8689L47.8308 40.6571C49.2547 38.012 50.2336 35.0836 50.5896 31.9662Z" fill="#FEFEFE" stroke="#4B4B4D" stroke-width="2" stroke-miterlimit="2.61313"/>
<path d="M28.5196 36.4061C24.6929 36.4061 21.5782 33.0998 21.5782 29.0377C21.5782 24.9757 24.6929 21.6693 28.5196 21.6693C32.4352 21.6693 35.55 24.9757 35.55 29.0377C35.55 33.0998 32.4352 36.4061 28.5196 36.4061ZM50.5896 31.9662L55.1282 31.5883L54.4163 22.3306L49.9667 22.614C49.3437 20.0634 48.1868 17.6073 46.8519 15.4346L49.8777 12.0338L43.5592 5.61007L40.5335 9.01085C38.2197 7.49939 35.639 6.3658 32.9692 5.799V1.07568H24.159V5.799C20.6883 6.55473 17.5736 8.06619 14.9038 10.3334L11.5221 7.21599L5.82665 14.301L9.20835 17.3239C7.78448 19.9689 6.80556 22.9919 6.53859 26.1093L2 26.4871L2.62294 35.7448L7.16153 35.4614C7.87347 38.012 9.03036 40.3737 10.3652 42.4519L7.25052 46.0417L13.569 52.4654L16.7727 48.8756C18.9975 50.3871 21.4892 51.4262 24.159 51.993V56.9997H32.9692V51.993C36.3509 51.3318 39.4656 49.8203 42.0464 47.6476L45.5171 50.8594L51.3015 43.8689L47.8309 40.6571C49.2547 38.012 50.2336 35.0836 50.5896 31.9662Z" stroke="#606062" stroke-width="2" stroke-miterlimit="10"/>
<path d="M42.4912 29.0373C42.4912 37.2558 36.2618 43.8685 28.5195 43.8685C20.8662 43.8685 14.6367 37.2558 14.6367 29.0373C14.6367 20.8187 20.8662 14.2061 28.5195 14.2061C36.2618 14.2061 42.4912 20.8187 42.4912 29.0373Z" fill="#64CDF5" stroke="#4B4B4D" stroke-width="2" stroke-miterlimit="2.61313"/>
<path d="M42.4912 29.0373C42.4912 37.2558 36.2618 43.8685 28.5195 43.8685C20.8662 43.8685 14.6367 37.2558 14.6367 29.0373C14.6367 20.8187 20.8662 14.2061 28.5195 14.2061C36.2618 14.2061 42.4912 20.8187 42.4912 29.0373Z" fill="#606062" stroke="#606062" stroke-width="2" stroke-miterlimit="10"/>
<path d="M35.5501 29.0373C35.5501 33.0994 32.4354 36.4057 28.5197 36.4057C24.6931 36.4057 21.5784 33.0994 21.5784 29.0373C21.5784 24.9753 24.6931 21.6689 28.5197 21.6689C32.4354 21.6689 35.5501 24.9753 35.5501 29.0373Z" fill="#FEFEFE" stroke="#4B4B4D" stroke-width="2" stroke-miterlimit="2.61313"/>
<path d="M35.5501 29.0373C35.5501 33.0994 32.4354 36.4057 28.5197 36.4057C24.6931 36.4057 21.5784 33.0994 21.5784 29.0373C21.5784 24.9753 24.6931 21.6689 28.5197 21.6689C32.4354 21.6689 35.5501 24.9753 35.5501 29.0373Z" stroke="#606062" stroke-width="2" stroke-miterlimit="10"/>
<path d="M28.5195 9.67236C38.2197 9.67236 46.8519 17.8909 46.8519 29.038" stroke="#606062" stroke-width="2" stroke-miterlimit="10"/>
</svg>
