<svg width="258" height="61" viewBox="0 0 258 61" fill="none" xmlns="http://www.w3.org/2000/svg">
<path d="M64.4178 17.835V14.865H82.1278V17.835L78.0028 18.275C77.9661 20.5117 77.9295 22.7667 77.8928 25.04C77.8928 27.3133 77.8928 29.605 77.8928 31.915V33.895C77.8928 36.1683 77.8928 38.46 77.8928 40.77C77.9295 43.0433 77.9661 45.3167 78.0028 47.59L82.1278 48.03V51H64.4178V48.03L68.5428 47.59C68.6161 45.3533 68.6528 43.0983 68.6528 40.825C68.6528 38.5517 68.6528 36.26 68.6528 33.95V31.915C68.6528 29.6417 68.6528 27.3683 68.6528 25.095C68.6528 22.785 68.6161 20.5117 68.5428 18.275L64.4178 17.835ZM85.741 17.835V14.865H103.451V17.835L99.326 18.275C99.2894 20.5117 99.2527 22.7667 99.216 25.04C99.216 27.3133 99.216 29.605 99.216 31.915V33.895C99.216 36.1683 99.216 38.46 99.216 40.77C99.2527 43.0433 99.2894 45.3167 99.326 47.59L103.451 48.03V51H85.741V48.03L89.866 47.59C89.9394 45.3533 89.976 43.0983 89.976 40.825C89.976 38.5517 89.976 36.26 89.976 33.95V31.915C89.976 29.6417 89.976 27.3683 89.976 25.095C89.976 22.785 89.9394 20.5117 89.866 18.275L85.741 17.835ZM106.349 25.095L106.569 14.865H138.854L139.019 25.095H134.454L133.464 17.945H127.414C127.378 20.2183 127.341 22.5283 127.304 24.875C127.304 27.185 127.304 29.5317 127.304 31.915V33.895C127.304 36.1683 127.304 38.4417 127.304 40.715C127.341 42.9883 127.378 45.2617 127.414 47.535L132.144 48.03V51H113.279V48.03L117.954 47.535C118.028 45.2983 118.064 43.0433 118.064 40.77C118.064 38.4967 118.064 36.2233 118.064 33.95V31.915C118.064 29.605 118.064 27.295 118.064 24.985C118.064 22.6383 118.028 20.2917 117.954 17.945H111.959L110.914 25.095H106.349ZM138.118 39.505V34.555H152.363V39.505H138.118ZM155.407 17.835V14.865H173.722V17.835L169.487 18.275C169.45 20.4017 169.432 22.565 169.432 24.765C169.432 26.965 169.432 29.1833 169.432 31.42V37.14C169.432 42.1267 169.102 46.16 168.442 49.24C167.818 52.32 166.572 54.795 164.702 56.665C162.098 59.2317 159 60.515 155.407 60.515C153.903 60.515 152.583 60.2217 151.447 59.635C150.31 59.085 149.43 58.2233 148.807 57.05C148.843 55.7667 149.283 54.7583 150.127 54.025C150.933 53.3283 151.942 52.98 153.152 52.98C154.105 52.98 154.967 53.2183 155.737 53.695C156.507 54.2083 157.313 54.9783 158.157 56.005L159.312 57.38C159.752 56.5367 160.063 55.4183 160.247 54.025C160.43 52.6683 160.522 50.9817 160.522 48.965C160.522 47.2417 160.503 45.06 160.467 42.42C160.43 39.7433 160.375 36.4433 160.302 32.52C160.228 28.56 160.155 23.83 160.082 18.33L155.407 17.835ZM176.62 17.835V14.865H204.67L205.055 24.325H200.49L199.39 17.945H190.205C190.168 20.035 190.132 22.1433 190.095 24.27C190.095 26.3967 190.095 28.5417 190.095 30.705H196.035L196.695 26.415H199.885V38.24H196.695L196.035 33.95H190.095C190.095 36.48 190.095 38.8817 190.095 41.155C190.132 43.4283 190.168 45.6833 190.205 47.92H200.49L201.59 41.54H206.155L205.77 51H176.62V48.03L180.745 47.59C180.818 45.3533 180.855 43.0983 180.855 40.825C180.855 38.5517 180.855 36.26 180.855 33.95V31.915C180.855 29.6417 180.855 27.3683 180.855 25.095C180.855 22.785 180.818 20.5117 180.745 18.275L176.62 17.835ZM209.33 17.835V14.865H237.38L237.765 24.325H233.2L232.1 17.945H222.915C222.878 20.035 222.842 22.1433 222.805 24.27C222.805 26.3967 222.805 28.5417 222.805 30.705H228.745L229.405 26.415H232.595V38.24H229.405L228.745 33.95H222.805C222.805 36.48 222.805 38.8817 222.805 41.155C222.842 43.4283 222.878 45.6833 222.915 47.92H233.2L234.3 41.54H238.865L238.48 51H209.33V48.03L213.455 47.59C213.528 45.3533 213.565 43.0983 213.565 40.825C213.565 38.5517 213.565 36.26 213.565 33.95V31.915C213.565 29.6417 213.565 27.3683 213.565 25.095C213.565 22.785 213.528 20.5117 213.455 18.275L209.33 17.835Z" fill="#606062"/>
<path d="M28.5196 38.4061C24.6929 38.4061 21.5782 35.0998 21.5782 31.0377C21.5782 26.9757 24.6929 23.6693 28.5196 23.6693C32.4352 23.6693 35.55 26.9757 35.55 31.0377C35.55 35.0998 32.4352 38.4061 28.5196 38.4061ZM50.5896 33.9662L55.1282 33.5883L54.4163 24.3306L49.9667 24.614C49.3437 22.0634 48.1868 19.6073 46.8519 17.4346L49.8777 14.0338L43.5592 7.61007L40.5335 11.0109C38.2197 9.49939 35.639 8.3658 32.9692 7.799V3.07568H24.159V7.799C20.6883 8.55473 17.5736 10.0662 14.9038 12.3334L11.5221 9.21599L5.82665 16.301L9.20835 19.3239C7.78448 21.9689 6.80556 24.9919 6.53859 28.1093L2 28.4871L2.62294 37.7448L7.16153 37.4614C7.87347 40.012 9.03036 42.3737 10.3652 44.4519L7.25052 48.0417L13.569 54.4654L16.7727 50.8756C18.9975 52.3871 21.4892 53.4262 24.159 53.993V58.9997H32.9692V53.993C36.3509 53.3318 39.4656 51.8203 42.0464 49.6476L45.5171 52.8594L51.3015 45.8689L47.8308 42.6571C49.2547 40.012 50.2336 37.0836 50.5896 33.9662Z" fill="#FEFEFE" stroke="#4B4B4D" stroke-width="2" stroke-miterlimit="2.61313"/>
<path d="M28.5196 38.4061C24.6929 38.4061 21.5782 35.0998 21.5782 31.0377C21.5782 26.9757 24.6929 23.6693 28.5196 23.6693C32.4352 23.6693 35.55 26.9757 35.55 31.0377C35.55 35.0998 32.4352 38.4061 28.5196 38.4061ZM50.5896 33.9662L55.1282 33.5883L54.4163 24.3306L49.9667 24.614C49.3437 22.0634 48.1868 19.6073 46.8519 17.4346L49.8777 14.0338L43.5592 7.61007L40.5335 11.0109C38.2197 9.49939 35.639 8.3658 32.9692 7.799V3.07568H24.159V7.799C20.6883 8.55473 17.5736 10.0662 14.9038 12.3334L11.5221 9.21599L5.82665 16.301L9.20835 19.3239C7.78448 21.9689 6.80556 24.9919 6.53859 28.1093L2 28.4871L2.62294 37.7448L7.16153 37.4614C7.87347 40.012 9.03036 42.3737 10.3652 44.4519L7.25052 48.0417L13.569 54.4654L16.7727 50.8756C18.9975 52.3871 21.4892 53.4262 24.159 53.993V58.9997H32.9692V53.993C36.3509 53.3318 39.4656 51.8203 42.0464 49.6476L45.5171 52.8594L51.3015 45.8689L47.8309 42.6571C49.2547 40.012 50.2336 37.0836 50.5896 33.9662Z" stroke="#606062" stroke-width="2" stroke-miterlimit="10"/>
<path d="M42.4912 31.0373C42.4912 39.2558 36.2618 45.8685 28.5195 45.8685C20.8662 45.8685 14.6367 39.2558 14.6367 31.0373C14.6367 22.8187 20.8662 16.2061 28.5195 16.2061C36.2618 16.2061 42.4912 22.8187 42.4912 31.0373Z" fill="#64CDF5" stroke="#4B4B4D" stroke-width="2" stroke-miterlimit="2.61313"/>
<path d="M42.4912 31.0373C42.4912 39.2558 36.2618 45.8685 28.5195 45.8685C20.8662 45.8685 14.6367 39.2558 14.6367 31.0373C14.6367 22.8187 20.8662 16.2061 28.5195 16.2061C36.2618 16.2061 42.4912 22.8187 42.4912 31.0373Z" fill="#606062" stroke="#606062" stroke-width="2" stroke-miterlimit="10"/>
<path d="M35.5501 31.0373C35.5501 35.0994 32.4354 38.4057 28.5197 38.4057C24.6931 38.4057 21.5784 35.0994 21.5784 31.0373C21.5784 26.9753 24.6931 23.6689 28.5197 23.6689C32.4354 23.6689 35.5501 26.9753 35.5501 31.0373Z" fill="#FEFEFE" stroke="#4B4B4D" stroke-width="2" stroke-miterlimit="2.61313"/>
<path d="M35.5501 31.0373C35.5501 35.0994 32.4354 38.4057 28.5197 38.4057C24.6931 38.4057 21.5784 35.0994 21.5784 31.0373C21.5784 26.9753 24.6931 23.6689 28.5197 23.6689C32.4354 23.6689 35.5501 26.9753 35.5501 31.0373Z" stroke="#606062" stroke-width="2" stroke-miterlimit="10"/>
<path d="M28.5195 11.6724C38.2197 11.6724 46.8519 19.8909 46.8519 31.038" stroke="#606062" stroke-width="2" stroke-miterlimit="10"/>
</svg>
