<svg width="178" height="44" viewBox="0 0 178 44" fill="none" xmlns="http://www.w3.org/2000/svg">
<path d="M49.4255 12.223V10.6054H60.591V12.223L56.9612 12.657C56.9349 14.3141 56.9086 15.9975 56.8823 17.7071C56.8823 19.4168 56.8823 21.1264 56.8823 22.8361V24.7693C56.8823 26.4527 56.8823 28.1492 56.8823 29.8589C56.9086 31.5422 56.9349 33.2387 56.9612 34.9484L60.591 35.3824V37H49.4255V35.3824L53.0553 34.9484C53.1079 33.2913 53.1342 31.608 53.1342 29.8983C53.1342 28.1887 53.1342 26.479 53.1342 24.7693V22.8361C53.1342 21.1264 53.1342 19.4299 53.1342 17.7466C53.1342 16.0369 53.1079 14.3404 53.0553 12.657L49.4255 12.223ZM64.0666 12.223V10.6054H75.232V12.223L71.6022 12.657C71.5759 14.3141 71.5496 15.9975 71.5233 17.7071C71.5233 19.4168 71.5233 21.1264 71.5233 22.8361V24.7693C71.5233 26.4527 71.5233 28.1492 71.5233 29.8589C71.5496 31.5422 71.5759 33.2387 71.6022 34.9484L75.232 35.3824V37H64.0666V35.3824L67.6963 34.9484C67.7489 33.2913 67.7752 31.608 67.7752 29.8983C67.7752 28.1887 67.7752 26.479 67.7752 24.7693V22.8361C67.7752 21.1264 67.7752 19.4299 67.7752 17.7466C67.7752 16.0369 67.7489 14.3404 67.6963 12.657L64.0666 12.223ZM77.7607 17.6282L78.0764 10.6054H99.697L100.013 17.6282H97.7243L96.8564 12.5781H90.8199C90.7936 14.2615 90.7673 15.958 90.741 17.6677C90.741 19.3773 90.741 21.1001 90.741 22.8361V24.7693C90.741 26.4527 90.741 28.1492 90.741 29.8589C90.7673 31.5422 90.7936 33.2387 90.8199 34.9484L94.8442 35.3824V37H82.9292V35.3824L86.9535 34.9484C87.0061 33.265 87.0324 31.5817 87.0324 29.8983C87.0324 28.1887 87.0324 26.479 87.0324 24.7693V22.8361C87.0324 21.1264 87.0324 19.4168 87.0324 17.7071C87.0324 15.9975 87.0061 14.2878 86.9535 12.5781H80.917L80.0491 17.6282H77.7607ZM100.704 28.3991V25.7951H109.857V28.3991H100.704ZM112.5 12.223V10.6054H124.06V12.223L120.431 12.657C120.404 14.3141 120.378 15.9975 120.352 17.7071C120.352 19.3905 120.352 21.087 120.352 22.7966V28.9514C120.352 30.9504 120.312 32.6206 120.233 33.9621C120.181 35.3035 120.062 36.4213 119.878 37.3156C119.694 38.2099 119.431 38.9595 119.089 39.5645C118.774 40.1695 118.34 40.7481 117.787 41.3005C117.13 41.958 116.327 42.4709 115.381 42.8392C114.46 43.2337 113.46 43.431 112.382 43.431C111.646 43.431 110.949 43.2863 110.291 42.997C109.607 42.7339 109.16 42.2342 108.95 41.4977C109.081 40.7613 109.37 40.2484 109.818 39.959C110.238 39.6697 110.764 39.525 111.396 39.525C112.29 39.525 113.276 39.9327 114.355 40.7481L115.341 41.5372C115.92 40.9848 116.314 40.3273 116.525 39.5645C116.761 38.8017 116.88 37.8548 116.88 36.7238C116.88 36.2504 116.867 35.6717 116.84 34.9879C116.84 34.304 116.827 33.4097 116.801 32.305C116.775 31.2003 116.748 29.7931 116.722 28.0835C116.696 26.3738 116.656 24.2564 116.604 21.7314C116.577 19.2064 116.551 16.1816 116.525 12.657L112.5 12.223ZM127.139 12.223V10.6054H146.787L147.063 17.5888H144.814L143.946 12.5781H134.674C134.648 14.2615 134.622 15.9448 134.595 17.6282C134.595 19.3116 134.595 20.9686 134.595 22.5994H140.395L140.947 18.8513H142.762V28.1624H140.947L140.435 24.4537H134.595C134.595 26.4264 134.595 28.2807 134.595 30.0167C134.622 31.7263 134.648 33.3966 134.674 35.0273H144.735L145.603 29.9772H147.852L147.576 37H127.139V35.3824L130.768 34.9484C130.821 33.2913 130.847 31.608 130.847 29.8983C130.847 28.1887 130.847 26.479 130.847 24.7693V22.8361C130.847 21.1264 130.847 19.4299 130.847 17.7466C130.847 16.0369 130.821 14.3404 130.768 12.657L127.139 12.223ZM150.911 12.223V10.6054H170.559L170.835 17.5888H168.586L167.718 12.5781H158.447C158.42 14.2615 158.394 15.9448 158.368 17.6282C158.368 19.3116 158.368 20.9686 158.368 22.5994H164.168L164.72 18.8513H166.535V28.1624H164.72L164.207 24.4537H158.368C158.368 26.4264 158.368 28.2807 158.368 30.0167C158.394 31.7263 158.42 33.3966 158.447 35.0273H168.507L169.375 29.9772H171.624L171.348 37H150.911V35.3824L154.541 34.9484C154.593 33.2913 154.62 31.608 154.62 29.8983C154.62 28.1887 154.62 26.479 154.62 24.7693V22.8361C154.62 21.1264 154.62 19.4299 154.62 17.7466C154.62 16.0369 154.593 14.3404 154.541 12.657L150.911 12.223Z" fill="#606062"/>
<path d="M21.9936 26.8568C19.1086 26.8568 16.7604 24.5086 16.7604 21.6236C16.7604 18.7386 19.1086 16.3904 21.9936 16.3904C24.9457 16.3904 27.2939 18.7386 27.2939 21.6236C27.2939 24.5086 24.9457 26.8568 21.9936 26.8568ZM38.6326 23.7035L42.0543 23.4351L41.5176 16.86L38.1629 17.0613C37.6933 15.2498 36.8211 13.5054 35.8147 11.9622L38.0958 9.54691L33.3323 4.98461L31.0511 7.39994C29.3067 6.32646 27.361 5.52135 25.3482 5.11879V1.76416H18.7061V5.11879C16.0895 5.65553 13.7412 6.72902 11.7284 8.33924L9.17891 6.12518L4.88498 11.1571L7.4345 13.3041C6.36102 15.1827 5.623 17.3297 5.42173 19.5437L2 19.8121L2.46965 26.3872L5.89137 26.1859C6.42811 27.9974 7.30032 29.6747 8.30671 31.1507L5.95847 33.7003L10.722 38.2626L13.1374 35.713C14.8147 36.7865 16.6933 37.5245 18.7061 37.9271V41.483H25.3482V37.9271C27.8978 37.4575 30.246 36.384 32.1917 34.8408L34.8083 37.122L39.1693 32.1571L36.5527 29.876C37.6262 27.9974 38.3642 25.9175 38.6326 23.7035Z" fill="#FEFEFE" stroke="#4B4B4D" stroke-width="2" stroke-miterlimit="2.61313"/>
<path d="M21.9936 26.8568C19.1086 26.8568 16.7604 24.5086 16.7604 21.6236C16.7604 18.7386 19.1086 16.3904 21.9936 16.3904C24.9457 16.3904 27.2939 18.7386 27.2939 21.6236C27.2939 24.5086 24.9457 26.8568 21.9936 26.8568ZM38.6326 23.7035L42.0543 23.4351L41.5176 16.86L38.1629 17.0613C37.6933 15.2498 36.8211 13.5054 35.8147 11.9622L38.0958 9.54691L33.3323 4.98461L31.0511 7.39994C29.3067 6.32646 27.361 5.52135 25.3482 5.11879V1.76416H18.7061V5.11879C16.0895 5.65553 13.7412 6.72902 11.7284 8.33924L9.17891 6.12518L4.88498 11.1571L7.4345 13.3041C6.36102 15.1827 5.623 17.3297 5.42173 19.5437L2 19.8121L2.46965 26.3872L5.89137 26.1859C6.42811 27.9974 7.30032 29.6747 8.30671 31.1507L5.95847 33.7003L10.722 38.2626L13.1374 35.713C14.8147 36.7865 16.6933 37.5245 18.7061 37.9271V41.483H25.3482V37.9271C27.8978 37.4575 30.246 36.384 32.1917 34.8408L34.8083 37.122L39.1693 32.1571L36.5527 29.876C37.6262 27.9974 38.3642 25.9175 38.6326 23.7035Z" stroke="#606062" stroke-width="2" stroke-miterlimit="10"/>
<path d="M32.5271 21.6234C32.5271 27.4605 27.8306 32.1569 21.9936 32.1569C16.2236 32.1569 11.5271 27.4605 11.5271 21.6234C11.5271 15.7863 16.2236 11.0898 21.9936 11.0898C27.8306 11.0898 32.5271 15.7863 32.5271 21.6234Z" fill="#64CDF5" stroke="#4B4B4D" stroke-width="2" stroke-miterlimit="2.61313"/>
<path d="M32.5271 21.6234C32.5271 27.4605 27.8306 32.1569 21.9936 32.1569C16.2236 32.1569 11.5271 27.4605 11.5271 21.6234C11.5271 15.7863 16.2236 11.0898 21.9936 11.0898C27.8306 11.0898 32.5271 15.7863 32.5271 21.6234Z" fill="#606062" stroke="#606062" stroke-width="2" stroke-miterlimit="10"/>
<path d="M27.2939 21.6234C27.2939 24.5083 24.9457 26.8566 21.9936 26.8566C19.1086 26.8566 16.7604 24.5083 16.7604 21.6234C16.7604 18.7384 19.1086 16.3901 21.9936 16.3901C24.9457 16.3901 27.2939 18.7384 27.2939 21.6234Z" fill="#FEFEFE" stroke="#4B4B4D" stroke-width="2" stroke-miterlimit="2.61313"/>
<path d="M27.2939 21.6234C27.2939 24.5083 24.9457 26.8566 21.9936 26.8566C19.1086 26.8566 16.7604 24.5083 16.7604 21.6234C16.7604 18.7384 19.1086 16.3901 21.9936 16.3901C24.9457 16.3901 27.2939 18.7384 27.2939 21.6234Z" stroke="#606062" stroke-width="2" stroke-miterlimit="10"/>
<path d="M21.9937 7.86963C29.3068 7.86963 35.8147 13.7067 35.8147 21.6236" stroke="#606062" stroke-width="2" stroke-miterlimit="10"/>
</svg>
