<?xml version="1.0" standalone="no"?>
<!DOCTYPE svg PUBLIC "-//W3C//DTD SVG 20010904//EN"
 "http://www.w3.org/TR/2001/REC-SVG-20010904/DTD/svg10.dtd">
<svg version="1.0" xmlns="http://www.w3.org/2000/svg"
 width="1920.000000pt" height="900.000000pt" viewBox="0 0 1920.000000 900.000000"
 preserveAspectRatio="xMidYMid meet">
<metadata>
Created by potrace 1.15, written by Peter Selinger 2001-2017
</metadata>
<g transform="translate(0.000000,900.000000) scale(0.100000,-0.100000)"
fill="#32c5d2" stroke="none">
<path d="M7 8993 c-4 -3 -7 -1754 -7 -3890 l0 -3883 30 -6 c17 -4 30 -9 30
-13 0 -8 47 -28 87 -36 18 -4 33 -11 33 -16 0 -5 8 -9 18 -9 10 0 22 -4 27 -9
6 -4 33 -14 60 -21 28 -7 57 -19 65 -26 8 -6 35 -17 60 -24 24 -7 62 -20 85
-30 22 -10 74 -28 115 -41 41 -13 76 -27 78 -31 2 -5 12 -8 22 -8 10 0 21 -4
24 -9 3 -5 26 -12 51 -15 25 -4 45 -11 45 -17 0 -5 9 -9 19 -9 11 0 22 -4 25
-9 3 -4 25 -11 48 -15 24 -4 61 -15 83 -26 22 -10 60 -24 85 -30 42 -10 74
-22 111 -40 9 -5 34 -12 55 -16 22 -3 44 -10 49 -14 6 -4 27 -11 49 -14 21 -4
47 -12 57 -17 11 -5 27 -13 37 -18 10 -5 38 -12 62 -16 24 -4 51 -11 60 -15
44 -22 71 -30 129 -40 35 -6 73 -17 85 -25 12 -7 50 -19 86 -26 36 -6 69 -16
75 -20 5 -5 18 -9 30 -9 12 0 25 -4 30 -9 6 -5 35 -14 65 -20 134 -26 170 -35
170 -43 0 -4 13 -8 29 -8 17 0 32 -4 35 -9 3 -4 30 -11 61 -15 31 -3 63 -10
73 -15 30 -15 85 -29 162 -41 41 -7 86 -18 100 -25 14 -7 67 -18 118 -25 51
-7 95 -17 98 -21 3 -5 20 -9 38 -9 17 0 36 -4 41 -9 9 -9 43 -15 235 -43 41
-6 77 -14 80 -18 5 -8 36 -14 175 -32 50 -6 92 -15 95 -19 6 -7 23 -10 235
-37 83 -10 157 -22 165 -27 13 -8 294 -41 435 -51 39 -3 79 -9 90 -14 11 -5
97 -14 190 -21 94 -7 215 -15 270 -20 55 -4 339 -11 631 -15 526 -7 939 3
1114 26 41 6 122 15 180 20 58 6 132 14 165 19 33 5 123 16 200 25 77 10 156
23 175 31 19 8 75 19 125 25 93 12 165 26 200 41 11 4 49 13 85 19 36 6 80 14
98 17 17 3 32 9 32 13 0 4 20 10 45 13 25 4 69 14 98 22 28 9 70 21 92 27 22
7 45 15 50 18 6 4 39 13 75 19 36 7 72 19 80 26 8 7 42 18 74 25 33 7 69 17
80 23 41 20 52 25 84 31 17 4 34 12 37 17 4 5 17 9 31 9 13 0 24 4 24 10 0 5
16 12 35 16 19 3 38 10 41 15 3 5 13 9 22 9 9 0 39 11 66 25 28 14 68 30 90
36 22 6 51 19 64 30 14 10 31 19 38 19 20 0 94 33 94 42 0 5 4 8 10 8 17 0 90
34 90 42 0 5 6 8 13 8 6 1 30 9 52 20 22 11 46 19 53 20 6 0 12 3 12 8 0 8 64
38 105 48 15 4 29 12 32 19 2 7 16 16 30 20 39 9 103 39 103 47 0 5 5 8 12 8
6 0 48 18 92 39 152 73 211 99 239 107 16 3 31 12 34 19 2 7 16 16 30 20 39 9
103 39 103 47 0 5 7 8 15 8 20 0 95 33 95 42 0 3 14 9 31 13 17 4 42 13 57 21
15 8 33 14 40 14 6 0 12 3 12 8 0 8 34 24 90 43 19 7 45 20 58 30 13 10 37 21
55 25 18 3 43 14 57 24 14 10 36 21 50 25 14 4 50 19 80 32 30 13 64 28 75 33
11 5 49 22 85 38 36 16 77 32 92 36 15 3 33 12 41 20 8 8 32 19 54 25 21 6 61
22 89 36 27 14 52 25 56 25 4 0 31 11 60 24 29 13 76 32 103 42 28 10 64 26
82 35 17 10 51 23 75 29 24 7 50 17 58 24 8 7 48 23 88 36 39 12 72 25 72 29
0 3 29 15 65 26 36 10 65 23 65 27 0 4 16 10 35 14 19 3 38 10 41 15 3 5 12 9
21 9 8 0 31 7 51 16 67 29 76 33 135 49 31 8 57 19 57 24 0 4 25 13 56 20 30
7 72 21 92 31 20 10 63 26 95 36 31 9 57 20 57 24 0 5 19 11 43 15 23 4 47 11
52 15 6 4 26 11 45 15 19 4 41 11 50 15 42 21 69 31 115 40 28 6 59 17 70 24
11 8 47 19 80 26 33 7 67 19 76 27 9 7 19 10 22 7 4 -4 12 -2 19 4 7 5 34 13
61 17 26 4 50 11 53 16 3 5 16 9 30 9 13 0 24 4 24 9 0 5 17 12 38 16 39 7
123 31 157 45 32 13 127 38 170 45 22 4 49 12 60 19 11 7 49 18 85 25 58 11
107 24 150 39 15 6 110 28 165 39 17 3 32 9 35 13 3 4 32 13 65 19 82 16 181
37 235 51 25 6 90 19 145 29 55 9 109 22 120 28 11 6 61 16 110 22 50 7 108
16 130 22 22 5 49 11 60 13 11 1 27 6 35 9 13 5 111 19 240 34 25 3 47 9 50
13 3 4 55 12 115 19 61 7 164 19 230 27 353 44 436 52 635 59 96 3 221 13 278
21 149 21 909 20 1082 -1 69 -8 240 -22 380 -30 297 -18 369 -24 390 -32 8 -4
67 -12 130 -19 240 -26 325 -37 330 -44 5 -7 28 -11 158 -27 l42 -5 0 3076 0
3076 -9593 0 c-5277 0 -9597 -3 -9600 -7z"/>
</g>
</svg>
